G04 #@! TF.GenerationSoftware,KiCad,Pcbnew,(5.1.5)-3*
G04 #@! TF.CreationDate,2020-01-21T23:52:57-05:00*
G04 #@! TF.ProjectId,IEEE-Clock-Charlie,49454545-2d43-46c6-9f63-6b2d43686172,rev?*
G04 #@! TF.SameCoordinates,Original*
G04 #@! TF.FileFunction,Legend,Top*
G04 #@! TF.FilePolarity,Positive*
%FSLAX46Y46*%
G04 Gerber Fmt 4.6, Leading zero omitted, Abs format (unit mm)*
G04 Created by KiCad (PCBNEW (5.1.5)-3) date 2020-01-21 23:52:57*
%MOMM*%
%LPD*%
G04 APERTURE LIST*
%ADD10C,0.120000*%
%ADD11C,0.150000*%
G04 APERTURE END LIST*
D10*
X8890000Y-72390000D02*
X8890000Y-44450000D01*
X8890000Y-44450000D02*
X52070000Y-44450000D01*
X8890000Y-72390000D02*
X52070000Y-72390000D01*
X52070000Y-72390000D02*
X52070000Y-44450000D01*
X52070000Y-72390000D02*
X52070000Y-44450000D01*
X52070000Y-44450000D02*
X95250000Y-44450000D01*
X52070000Y-72390000D02*
X95250000Y-72390000D01*
X95250000Y-72390000D02*
X95250000Y-44450000D01*
X95250000Y-72390000D02*
X95250000Y-44450000D01*
X95250000Y-44450000D02*
X138430000Y-44450000D01*
X95250000Y-72390000D02*
X138430000Y-72390000D01*
X138430000Y-72390000D02*
X138430000Y-44450000D01*
D11*
X12592380Y-59181904D02*
X13401904Y-59181904D01*
X13497142Y-59134285D01*
X13544761Y-59086666D01*
X13592380Y-58991428D01*
X13592380Y-58800952D01*
X13544761Y-58705714D01*
X13497142Y-58658095D01*
X13401904Y-58610476D01*
X12592380Y-58610476D01*
X12592380Y-58229523D02*
X12592380Y-57610476D01*
X12973333Y-57943809D01*
X12973333Y-57800952D01*
X13020952Y-57705714D01*
X13068571Y-57658095D01*
X13163809Y-57610476D01*
X13401904Y-57610476D01*
X13497142Y-57658095D01*
X13544761Y-57705714D01*
X13592380Y-57800952D01*
X13592380Y-58086666D01*
X13544761Y-58181904D01*
X13497142Y-58229523D01*
X55772380Y-59181904D02*
X56581904Y-59181904D01*
X56677142Y-59134285D01*
X56724761Y-59086666D01*
X56772380Y-58991428D01*
X56772380Y-58800952D01*
X56724761Y-58705714D01*
X56677142Y-58658095D01*
X56581904Y-58610476D01*
X55772380Y-58610476D01*
X55867619Y-58181904D02*
X55820000Y-58134285D01*
X55772380Y-58039047D01*
X55772380Y-57800952D01*
X55820000Y-57705714D01*
X55867619Y-57658095D01*
X55962857Y-57610476D01*
X56058095Y-57610476D01*
X56200952Y-57658095D01*
X56772380Y-58229523D01*
X56772380Y-57610476D01*
X98952380Y-59181904D02*
X99761904Y-59181904D01*
X99857142Y-59134285D01*
X99904761Y-59086666D01*
X99952380Y-58991428D01*
X99952380Y-58800952D01*
X99904761Y-58705714D01*
X99857142Y-58658095D01*
X99761904Y-58610476D01*
X98952380Y-58610476D01*
X99952380Y-57610476D02*
X99952380Y-58181904D01*
X99952380Y-57896190D02*
X98952380Y-57896190D01*
X99095238Y-57991428D01*
X99190476Y-58086666D01*
X99238095Y-58181904D01*
M02*
