G04 #@! TF.GenerationSoftware,KiCad,Pcbnew,(5.1.5)-3*
G04 #@! TF.CreationDate,2020-01-21T23:52:57-05:00*
G04 #@! TF.ProjectId,IEEE-Clock-Charlie,49454545-2d43-46c6-9f63-6b2d43686172,rev?*
G04 #@! TF.SameCoordinates,Original*
G04 #@! TF.FileFunction,Copper,L2,Bot*
G04 #@! TF.FilePolarity,Positive*
%FSLAX46Y46*%
G04 Gerber Fmt 4.6, Leading zero omitted, Abs format (unit mm)*
G04 Created by KiCad (PCBNEW (5.1.5)-3) date 2020-01-21 23:52:57*
%MOMM*%
%LPD*%
G04 APERTURE LIST*
%ADD10O,1.200000X2.000000*%
%ADD11O,1.600000X1.600000*%
%ADD12R,1.600000X1.600000*%
%ADD13C,0.800000*%
%ADD14C,0.250000*%
G04 APERTURE END LIST*
D10*
X45720000Y-71120000D03*
X45720000Y-45720000D03*
X43180000Y-71120000D03*
X43180000Y-45720000D03*
X40640000Y-71120000D03*
X40640000Y-45720000D03*
X38100000Y-71120000D03*
X38100000Y-45720000D03*
X35560000Y-71120000D03*
X35560000Y-45720000D03*
X33020000Y-71120000D03*
X33020000Y-45720000D03*
X30480000Y-71120000D03*
X30480000Y-45720000D03*
X27940000Y-71120000D03*
X27940000Y-45720000D03*
X25400000Y-71120000D03*
X25400000Y-45720000D03*
X22860000Y-71120000D03*
X22860000Y-45720000D03*
X20320000Y-71120000D03*
X20320000Y-45720000D03*
X17780000Y-71120000D03*
X17780000Y-45720000D03*
X15240000Y-71120000D03*
X15240000Y-45720000D03*
X88900000Y-71120000D03*
X88900000Y-45720000D03*
X86360000Y-71120000D03*
X86360000Y-45720000D03*
X83820000Y-71120000D03*
X83820000Y-45720000D03*
X81280000Y-71120000D03*
X81280000Y-45720000D03*
X78740000Y-71120000D03*
X78740000Y-45720000D03*
X76200000Y-71120000D03*
X76200000Y-45720000D03*
X73660000Y-71120000D03*
X73660000Y-45720000D03*
X71120000Y-71120000D03*
X71120000Y-45720000D03*
X68580000Y-71120000D03*
X68580000Y-45720000D03*
X66040000Y-71120000D03*
X66040000Y-45720000D03*
X63500000Y-71120000D03*
X63500000Y-45720000D03*
X60960000Y-71120000D03*
X60960000Y-45720000D03*
X58420000Y-71120000D03*
X58420000Y-45720000D03*
X132080000Y-71120000D03*
X132080000Y-45720000D03*
X129540000Y-71120000D03*
X129540000Y-45720000D03*
X127000000Y-71120000D03*
X127000000Y-45720000D03*
X124460000Y-71120000D03*
X124460000Y-45720000D03*
X121920000Y-71120000D03*
X121920000Y-45720000D03*
X119380000Y-71120000D03*
X119380000Y-45720000D03*
X116840000Y-71120000D03*
X116840000Y-45720000D03*
X114300000Y-71120000D03*
X114300000Y-45720000D03*
X111760000Y-71120000D03*
X111760000Y-45720000D03*
X109220000Y-71120000D03*
X109220000Y-45720000D03*
X106680000Y-71120000D03*
X106680000Y-45720000D03*
X104140000Y-71120000D03*
X104140000Y-45720000D03*
X101600000Y-71120000D03*
X101600000Y-45720000D03*
D11*
X90170000Y-66040000D03*
X90170000Y-50800000D03*
X54610000Y-66040000D03*
X87630000Y-50800000D03*
X57150000Y-66040000D03*
X85090000Y-50800000D03*
X59690000Y-66040000D03*
X82550000Y-50800000D03*
X62230000Y-66040000D03*
X80010000Y-50800000D03*
X64770000Y-66040000D03*
X77470000Y-50800000D03*
X67310000Y-66040000D03*
X74930000Y-50800000D03*
X69850000Y-66040000D03*
X72390000Y-50800000D03*
X72390000Y-66040000D03*
X69850000Y-50800000D03*
X74930000Y-66040000D03*
X67310000Y-50800000D03*
X77470000Y-66040000D03*
X64770000Y-50800000D03*
X80010000Y-66040000D03*
X62230000Y-50800000D03*
X82550000Y-66040000D03*
X59690000Y-50800000D03*
X85090000Y-66040000D03*
X57150000Y-50800000D03*
X87630000Y-66040000D03*
D12*
X54610000Y-50800000D03*
D13*
X96520000Y-47244006D03*
D14*
X133005010Y-46503151D02*
X133005010Y-44758600D01*
X87335031Y-43494969D02*
X86360000Y-44470000D01*
X129615010Y-47045010D02*
X132463151Y-47045010D01*
X129540000Y-46970000D02*
X129615010Y-47045010D01*
X133005010Y-44758600D02*
X131741379Y-43494969D01*
X132463151Y-47045010D02*
X133005010Y-46503151D01*
X86360000Y-44470000D02*
X86360000Y-45720000D01*
X131741379Y-43494969D02*
X87335031Y-43494969D01*
X129540000Y-45720000D02*
X129540000Y-46970000D01*
X89425021Y-43944979D02*
X88900000Y-44470000D01*
X88900000Y-44470000D02*
X88900000Y-45720000D01*
X131554979Y-43944979D02*
X89425021Y-43944979D01*
X132080000Y-44470000D02*
X131554979Y-43944979D01*
X132080000Y-45720000D02*
X132080000Y-44470000D01*
X83820000Y-46970000D02*
X84094006Y-47244006D01*
X83820000Y-45720000D02*
X83820000Y-46970000D01*
X84094006Y-47244006D02*
X95954315Y-47244006D01*
X95954315Y-47244006D02*
X96520000Y-47244006D01*
M02*
