G04 #@! TF.GenerationSoftware,KiCad,Pcbnew,(5.1.5)-3*
G04 #@! TF.CreationDate,2020-01-21T23:52:57-05:00*
G04 #@! TF.ProjectId,IEEE-Clock-Charlie,49454545-2d43-46c6-9f63-6b2d43686172,rev?*
G04 #@! TF.SameCoordinates,Original*
G04 #@! TF.FileFunction,Soldermask,Bot*
G04 #@! TF.FilePolarity,Negative*
%FSLAX46Y46*%
G04 Gerber Fmt 4.6, Leading zero omitted, Abs format (unit mm)*
G04 Created by KiCad (PCBNEW (5.1.5)-3) date 2020-01-21 23:52:57*
%MOMM*%
%LPD*%
G04 APERTURE LIST*
%ADD10C,0.100000*%
G04 APERTURE END LIST*
D10*
G36*
X127127617Y-70078420D02*
G01*
X127218403Y-70105960D01*
X127250335Y-70115646D01*
X127363424Y-70176094D01*
X127462554Y-70257447D01*
X127543906Y-70356575D01*
X127604354Y-70469664D01*
X127614040Y-70501596D01*
X127641580Y-70592382D01*
X127651000Y-70688027D01*
X127651000Y-71551973D01*
X127641580Y-71647618D01*
X127614040Y-71738404D01*
X127604354Y-71770336D01*
X127543906Y-71883425D01*
X127462554Y-71982554D01*
X127363425Y-72063906D01*
X127250336Y-72124354D01*
X127218404Y-72134040D01*
X127127618Y-72161580D01*
X127000000Y-72174149D01*
X126872383Y-72161580D01*
X126781597Y-72134040D01*
X126749665Y-72124354D01*
X126636576Y-72063906D01*
X126537447Y-71982554D01*
X126456095Y-71883425D01*
X126395647Y-71770336D01*
X126391282Y-71755946D01*
X126358420Y-71647618D01*
X126349000Y-71551973D01*
X126349000Y-70688028D01*
X126358420Y-70592383D01*
X126395645Y-70469669D01*
X126395646Y-70469665D01*
X126456094Y-70356576D01*
X126537447Y-70257446D01*
X126636575Y-70176094D01*
X126749664Y-70115646D01*
X126781596Y-70105960D01*
X126872382Y-70078420D01*
X127000000Y-70065851D01*
X127127617Y-70078420D01*
G37*
G36*
X101727617Y-70078420D02*
G01*
X101818403Y-70105960D01*
X101850335Y-70115646D01*
X101963424Y-70176094D01*
X102062554Y-70257447D01*
X102143906Y-70356575D01*
X102204354Y-70469664D01*
X102214040Y-70501596D01*
X102241580Y-70592382D01*
X102251000Y-70688027D01*
X102251000Y-71551973D01*
X102241580Y-71647618D01*
X102214040Y-71738404D01*
X102204354Y-71770336D01*
X102143906Y-71883425D01*
X102062554Y-71982554D01*
X101963425Y-72063906D01*
X101850336Y-72124354D01*
X101818404Y-72134040D01*
X101727618Y-72161580D01*
X101600000Y-72174149D01*
X101472383Y-72161580D01*
X101381597Y-72134040D01*
X101349665Y-72124354D01*
X101236576Y-72063906D01*
X101137447Y-71982554D01*
X101056095Y-71883425D01*
X100995647Y-71770336D01*
X100991282Y-71755946D01*
X100958420Y-71647618D01*
X100949000Y-71551973D01*
X100949000Y-70688028D01*
X100958420Y-70592383D01*
X100995645Y-70469669D01*
X100995646Y-70469665D01*
X101056094Y-70356576D01*
X101137447Y-70257446D01*
X101236575Y-70176094D01*
X101349664Y-70115646D01*
X101381596Y-70105960D01*
X101472382Y-70078420D01*
X101600000Y-70065851D01*
X101727617Y-70078420D01*
G37*
G36*
X104267617Y-70078420D02*
G01*
X104358403Y-70105960D01*
X104390335Y-70115646D01*
X104503424Y-70176094D01*
X104602554Y-70257447D01*
X104683906Y-70356575D01*
X104744354Y-70469664D01*
X104754040Y-70501596D01*
X104781580Y-70592382D01*
X104791000Y-70688027D01*
X104791000Y-71551973D01*
X104781580Y-71647618D01*
X104754040Y-71738404D01*
X104744354Y-71770336D01*
X104683906Y-71883425D01*
X104602554Y-71982554D01*
X104503425Y-72063906D01*
X104390336Y-72124354D01*
X104358404Y-72134040D01*
X104267618Y-72161580D01*
X104140000Y-72174149D01*
X104012383Y-72161580D01*
X103921597Y-72134040D01*
X103889665Y-72124354D01*
X103776576Y-72063906D01*
X103677447Y-71982554D01*
X103596095Y-71883425D01*
X103535647Y-71770336D01*
X103531282Y-71755946D01*
X103498420Y-71647618D01*
X103489000Y-71551973D01*
X103489000Y-70688028D01*
X103498420Y-70592383D01*
X103535645Y-70469669D01*
X103535646Y-70469665D01*
X103596094Y-70356576D01*
X103677447Y-70257446D01*
X103776575Y-70176094D01*
X103889664Y-70115646D01*
X103921596Y-70105960D01*
X104012382Y-70078420D01*
X104140000Y-70065851D01*
X104267617Y-70078420D01*
G37*
G36*
X106807617Y-70078420D02*
G01*
X106898403Y-70105960D01*
X106930335Y-70115646D01*
X107043424Y-70176094D01*
X107142554Y-70257447D01*
X107223906Y-70356575D01*
X107284354Y-70469664D01*
X107294040Y-70501596D01*
X107321580Y-70592382D01*
X107331000Y-70688027D01*
X107331000Y-71551973D01*
X107321580Y-71647618D01*
X107294040Y-71738404D01*
X107284354Y-71770336D01*
X107223906Y-71883425D01*
X107142554Y-71982554D01*
X107043425Y-72063906D01*
X106930336Y-72124354D01*
X106898404Y-72134040D01*
X106807618Y-72161580D01*
X106680000Y-72174149D01*
X106552383Y-72161580D01*
X106461597Y-72134040D01*
X106429665Y-72124354D01*
X106316576Y-72063906D01*
X106217447Y-71982554D01*
X106136095Y-71883425D01*
X106075647Y-71770336D01*
X106071282Y-71755946D01*
X106038420Y-71647618D01*
X106029000Y-71551973D01*
X106029000Y-70688028D01*
X106038420Y-70592383D01*
X106075645Y-70469669D01*
X106075646Y-70469665D01*
X106136094Y-70356576D01*
X106217447Y-70257446D01*
X106316575Y-70176094D01*
X106429664Y-70115646D01*
X106461596Y-70105960D01*
X106552382Y-70078420D01*
X106680000Y-70065851D01*
X106807617Y-70078420D01*
G37*
G36*
X109347617Y-70078420D02*
G01*
X109438403Y-70105960D01*
X109470335Y-70115646D01*
X109583424Y-70176094D01*
X109682554Y-70257447D01*
X109763906Y-70356575D01*
X109824354Y-70469664D01*
X109834040Y-70501596D01*
X109861580Y-70592382D01*
X109871000Y-70688027D01*
X109871000Y-71551973D01*
X109861580Y-71647618D01*
X109834040Y-71738404D01*
X109824354Y-71770336D01*
X109763906Y-71883425D01*
X109682554Y-71982554D01*
X109583425Y-72063906D01*
X109470336Y-72124354D01*
X109438404Y-72134040D01*
X109347618Y-72161580D01*
X109220000Y-72174149D01*
X109092383Y-72161580D01*
X109001597Y-72134040D01*
X108969665Y-72124354D01*
X108856576Y-72063906D01*
X108757447Y-71982554D01*
X108676095Y-71883425D01*
X108615647Y-71770336D01*
X108611282Y-71755946D01*
X108578420Y-71647618D01*
X108569000Y-71551973D01*
X108569000Y-70688028D01*
X108578420Y-70592383D01*
X108615645Y-70469669D01*
X108615646Y-70469665D01*
X108676094Y-70356576D01*
X108757447Y-70257446D01*
X108856575Y-70176094D01*
X108969664Y-70115646D01*
X109001596Y-70105960D01*
X109092382Y-70078420D01*
X109220000Y-70065851D01*
X109347617Y-70078420D01*
G37*
G36*
X111887617Y-70078420D02*
G01*
X111978403Y-70105960D01*
X112010335Y-70115646D01*
X112123424Y-70176094D01*
X112222554Y-70257447D01*
X112303906Y-70356575D01*
X112364354Y-70469664D01*
X112374040Y-70501596D01*
X112401580Y-70592382D01*
X112411000Y-70688027D01*
X112411000Y-71551973D01*
X112401580Y-71647618D01*
X112374040Y-71738404D01*
X112364354Y-71770336D01*
X112303906Y-71883425D01*
X112222554Y-71982554D01*
X112123425Y-72063906D01*
X112010336Y-72124354D01*
X111978404Y-72134040D01*
X111887618Y-72161580D01*
X111760000Y-72174149D01*
X111632383Y-72161580D01*
X111541597Y-72134040D01*
X111509665Y-72124354D01*
X111396576Y-72063906D01*
X111297447Y-71982554D01*
X111216095Y-71883425D01*
X111155647Y-71770336D01*
X111151282Y-71755946D01*
X111118420Y-71647618D01*
X111109000Y-71551973D01*
X111109000Y-70688028D01*
X111118420Y-70592383D01*
X111155645Y-70469669D01*
X111155646Y-70469665D01*
X111216094Y-70356576D01*
X111297447Y-70257446D01*
X111396575Y-70176094D01*
X111509664Y-70115646D01*
X111541596Y-70105960D01*
X111632382Y-70078420D01*
X111760000Y-70065851D01*
X111887617Y-70078420D01*
G37*
G36*
X114427617Y-70078420D02*
G01*
X114518403Y-70105960D01*
X114550335Y-70115646D01*
X114663424Y-70176094D01*
X114762554Y-70257447D01*
X114843906Y-70356575D01*
X114904354Y-70469664D01*
X114914040Y-70501596D01*
X114941580Y-70592382D01*
X114951000Y-70688027D01*
X114951000Y-71551973D01*
X114941580Y-71647618D01*
X114914040Y-71738404D01*
X114904354Y-71770336D01*
X114843906Y-71883425D01*
X114762554Y-71982554D01*
X114663425Y-72063906D01*
X114550336Y-72124354D01*
X114518404Y-72134040D01*
X114427618Y-72161580D01*
X114300000Y-72174149D01*
X114172383Y-72161580D01*
X114081597Y-72134040D01*
X114049665Y-72124354D01*
X113936576Y-72063906D01*
X113837447Y-71982554D01*
X113756095Y-71883425D01*
X113695647Y-71770336D01*
X113691282Y-71755946D01*
X113658420Y-71647618D01*
X113649000Y-71551973D01*
X113649000Y-70688028D01*
X113658420Y-70592383D01*
X113695645Y-70469669D01*
X113695646Y-70469665D01*
X113756094Y-70356576D01*
X113837447Y-70257446D01*
X113936575Y-70176094D01*
X114049664Y-70115646D01*
X114081596Y-70105960D01*
X114172382Y-70078420D01*
X114300000Y-70065851D01*
X114427617Y-70078420D01*
G37*
G36*
X116967617Y-70078420D02*
G01*
X117058403Y-70105960D01*
X117090335Y-70115646D01*
X117203424Y-70176094D01*
X117302554Y-70257447D01*
X117383906Y-70356575D01*
X117444354Y-70469664D01*
X117454040Y-70501596D01*
X117481580Y-70592382D01*
X117491000Y-70688027D01*
X117491000Y-71551973D01*
X117481580Y-71647618D01*
X117454040Y-71738404D01*
X117444354Y-71770336D01*
X117383906Y-71883425D01*
X117302554Y-71982554D01*
X117203425Y-72063906D01*
X117090336Y-72124354D01*
X117058404Y-72134040D01*
X116967618Y-72161580D01*
X116840000Y-72174149D01*
X116712383Y-72161580D01*
X116621597Y-72134040D01*
X116589665Y-72124354D01*
X116476576Y-72063906D01*
X116377447Y-71982554D01*
X116296095Y-71883425D01*
X116235647Y-71770336D01*
X116231282Y-71755946D01*
X116198420Y-71647618D01*
X116189000Y-71551973D01*
X116189000Y-70688028D01*
X116198420Y-70592383D01*
X116235645Y-70469669D01*
X116235646Y-70469665D01*
X116296094Y-70356576D01*
X116377447Y-70257446D01*
X116476575Y-70176094D01*
X116589664Y-70115646D01*
X116621596Y-70105960D01*
X116712382Y-70078420D01*
X116840000Y-70065851D01*
X116967617Y-70078420D01*
G37*
G36*
X119507617Y-70078420D02*
G01*
X119598403Y-70105960D01*
X119630335Y-70115646D01*
X119743424Y-70176094D01*
X119842554Y-70257447D01*
X119923906Y-70356575D01*
X119984354Y-70469664D01*
X119994040Y-70501596D01*
X120021580Y-70592382D01*
X120031000Y-70688027D01*
X120031000Y-71551973D01*
X120021580Y-71647618D01*
X119994040Y-71738404D01*
X119984354Y-71770336D01*
X119923906Y-71883425D01*
X119842554Y-71982554D01*
X119743425Y-72063906D01*
X119630336Y-72124354D01*
X119598404Y-72134040D01*
X119507618Y-72161580D01*
X119380000Y-72174149D01*
X119252383Y-72161580D01*
X119161597Y-72134040D01*
X119129665Y-72124354D01*
X119016576Y-72063906D01*
X118917447Y-71982554D01*
X118836095Y-71883425D01*
X118775647Y-71770336D01*
X118771282Y-71755946D01*
X118738420Y-71647618D01*
X118729000Y-71551973D01*
X118729000Y-70688028D01*
X118738420Y-70592383D01*
X118775645Y-70469669D01*
X118775646Y-70469665D01*
X118836094Y-70356576D01*
X118917447Y-70257446D01*
X119016575Y-70176094D01*
X119129664Y-70115646D01*
X119161596Y-70105960D01*
X119252382Y-70078420D01*
X119380000Y-70065851D01*
X119507617Y-70078420D01*
G37*
G36*
X122047617Y-70078420D02*
G01*
X122138403Y-70105960D01*
X122170335Y-70115646D01*
X122283424Y-70176094D01*
X122382554Y-70257447D01*
X122463906Y-70356575D01*
X122524354Y-70469664D01*
X122534040Y-70501596D01*
X122561580Y-70592382D01*
X122571000Y-70688027D01*
X122571000Y-71551973D01*
X122561580Y-71647618D01*
X122534040Y-71738404D01*
X122524354Y-71770336D01*
X122463906Y-71883425D01*
X122382554Y-71982554D01*
X122283425Y-72063906D01*
X122170336Y-72124354D01*
X122138404Y-72134040D01*
X122047618Y-72161580D01*
X121920000Y-72174149D01*
X121792383Y-72161580D01*
X121701597Y-72134040D01*
X121669665Y-72124354D01*
X121556576Y-72063906D01*
X121457447Y-71982554D01*
X121376095Y-71883425D01*
X121315647Y-71770336D01*
X121311282Y-71755946D01*
X121278420Y-71647618D01*
X121269000Y-71551973D01*
X121269000Y-70688028D01*
X121278420Y-70592383D01*
X121315645Y-70469669D01*
X121315646Y-70469665D01*
X121376094Y-70356576D01*
X121457447Y-70257446D01*
X121556575Y-70176094D01*
X121669664Y-70115646D01*
X121701596Y-70105960D01*
X121792382Y-70078420D01*
X121920000Y-70065851D01*
X122047617Y-70078420D01*
G37*
G36*
X76327617Y-70078420D02*
G01*
X76418403Y-70105960D01*
X76450335Y-70115646D01*
X76563424Y-70176094D01*
X76662554Y-70257447D01*
X76743906Y-70356575D01*
X76804354Y-70469664D01*
X76814040Y-70501596D01*
X76841580Y-70592382D01*
X76851000Y-70688027D01*
X76851000Y-71551973D01*
X76841580Y-71647618D01*
X76814040Y-71738404D01*
X76804354Y-71770336D01*
X76743906Y-71883425D01*
X76662554Y-71982554D01*
X76563425Y-72063906D01*
X76450336Y-72124354D01*
X76418404Y-72134040D01*
X76327618Y-72161580D01*
X76200000Y-72174149D01*
X76072383Y-72161580D01*
X75981597Y-72134040D01*
X75949665Y-72124354D01*
X75836576Y-72063906D01*
X75737447Y-71982554D01*
X75656095Y-71883425D01*
X75595647Y-71770336D01*
X75591282Y-71755946D01*
X75558420Y-71647618D01*
X75549000Y-71551973D01*
X75549000Y-70688028D01*
X75558420Y-70592383D01*
X75595645Y-70469669D01*
X75595646Y-70469665D01*
X75656094Y-70356576D01*
X75737447Y-70257446D01*
X75836575Y-70176094D01*
X75949664Y-70115646D01*
X75981596Y-70105960D01*
X76072382Y-70078420D01*
X76200000Y-70065851D01*
X76327617Y-70078420D01*
G37*
G36*
X129667617Y-70078420D02*
G01*
X129758403Y-70105960D01*
X129790335Y-70115646D01*
X129903424Y-70176094D01*
X130002554Y-70257447D01*
X130083906Y-70356575D01*
X130144354Y-70469664D01*
X130154040Y-70501596D01*
X130181580Y-70592382D01*
X130191000Y-70688027D01*
X130191000Y-71551973D01*
X130181580Y-71647618D01*
X130154040Y-71738404D01*
X130144354Y-71770336D01*
X130083906Y-71883425D01*
X130002554Y-71982554D01*
X129903425Y-72063906D01*
X129790336Y-72124354D01*
X129758404Y-72134040D01*
X129667618Y-72161580D01*
X129540000Y-72174149D01*
X129412383Y-72161580D01*
X129321597Y-72134040D01*
X129289665Y-72124354D01*
X129176576Y-72063906D01*
X129077447Y-71982554D01*
X128996095Y-71883425D01*
X128935647Y-71770336D01*
X128931282Y-71755946D01*
X128898420Y-71647618D01*
X128889000Y-71551973D01*
X128889000Y-70688028D01*
X128898420Y-70592383D01*
X128935645Y-70469669D01*
X128935646Y-70469665D01*
X128996094Y-70356576D01*
X129077447Y-70257446D01*
X129176575Y-70176094D01*
X129289664Y-70115646D01*
X129321596Y-70105960D01*
X129412382Y-70078420D01*
X129540000Y-70065851D01*
X129667617Y-70078420D01*
G37*
G36*
X132207617Y-70078420D02*
G01*
X132298403Y-70105960D01*
X132330335Y-70115646D01*
X132443424Y-70176094D01*
X132542554Y-70257447D01*
X132623906Y-70356575D01*
X132684354Y-70469664D01*
X132694040Y-70501596D01*
X132721580Y-70592382D01*
X132731000Y-70688027D01*
X132731000Y-71551973D01*
X132721580Y-71647618D01*
X132694040Y-71738404D01*
X132684354Y-71770336D01*
X132623906Y-71883425D01*
X132542554Y-71982554D01*
X132443425Y-72063906D01*
X132330336Y-72124354D01*
X132298404Y-72134040D01*
X132207618Y-72161580D01*
X132080000Y-72174149D01*
X131952383Y-72161580D01*
X131861597Y-72134040D01*
X131829665Y-72124354D01*
X131716576Y-72063906D01*
X131617447Y-71982554D01*
X131536095Y-71883425D01*
X131475647Y-71770336D01*
X131471282Y-71755946D01*
X131438420Y-71647618D01*
X131429000Y-71551973D01*
X131429000Y-70688028D01*
X131438420Y-70592383D01*
X131475645Y-70469669D01*
X131475646Y-70469665D01*
X131536094Y-70356576D01*
X131617447Y-70257446D01*
X131716575Y-70176094D01*
X131829664Y-70115646D01*
X131861596Y-70105960D01*
X131952382Y-70078420D01*
X132080000Y-70065851D01*
X132207617Y-70078420D01*
G37*
G36*
X58547617Y-70078420D02*
G01*
X58638403Y-70105960D01*
X58670335Y-70115646D01*
X58783424Y-70176094D01*
X58882554Y-70257447D01*
X58963906Y-70356575D01*
X59024354Y-70469664D01*
X59034040Y-70501596D01*
X59061580Y-70592382D01*
X59071000Y-70688027D01*
X59071000Y-71551973D01*
X59061580Y-71647618D01*
X59034040Y-71738404D01*
X59024354Y-71770336D01*
X58963906Y-71883425D01*
X58882554Y-71982554D01*
X58783425Y-72063906D01*
X58670336Y-72124354D01*
X58638404Y-72134040D01*
X58547618Y-72161580D01*
X58420000Y-72174149D01*
X58292383Y-72161580D01*
X58201597Y-72134040D01*
X58169665Y-72124354D01*
X58056576Y-72063906D01*
X57957447Y-71982554D01*
X57876095Y-71883425D01*
X57815647Y-71770336D01*
X57811282Y-71755946D01*
X57778420Y-71647618D01*
X57769000Y-71551973D01*
X57769000Y-70688028D01*
X57778420Y-70592383D01*
X57815645Y-70469669D01*
X57815646Y-70469665D01*
X57876094Y-70356576D01*
X57957447Y-70257446D01*
X58056575Y-70176094D01*
X58169664Y-70115646D01*
X58201596Y-70105960D01*
X58292382Y-70078420D01*
X58420000Y-70065851D01*
X58547617Y-70078420D01*
G37*
G36*
X61087617Y-70078420D02*
G01*
X61178403Y-70105960D01*
X61210335Y-70115646D01*
X61323424Y-70176094D01*
X61422554Y-70257447D01*
X61503906Y-70356575D01*
X61564354Y-70469664D01*
X61574040Y-70501596D01*
X61601580Y-70592382D01*
X61611000Y-70688027D01*
X61611000Y-71551973D01*
X61601580Y-71647618D01*
X61574040Y-71738404D01*
X61564354Y-71770336D01*
X61503906Y-71883425D01*
X61422554Y-71982554D01*
X61323425Y-72063906D01*
X61210336Y-72124354D01*
X61178404Y-72134040D01*
X61087618Y-72161580D01*
X60960000Y-72174149D01*
X60832383Y-72161580D01*
X60741597Y-72134040D01*
X60709665Y-72124354D01*
X60596576Y-72063906D01*
X60497447Y-71982554D01*
X60416095Y-71883425D01*
X60355647Y-71770336D01*
X60351282Y-71755946D01*
X60318420Y-71647618D01*
X60309000Y-71551973D01*
X60309000Y-70688028D01*
X60318420Y-70592383D01*
X60355645Y-70469669D01*
X60355646Y-70469665D01*
X60416094Y-70356576D01*
X60497447Y-70257446D01*
X60596575Y-70176094D01*
X60709664Y-70115646D01*
X60741596Y-70105960D01*
X60832382Y-70078420D01*
X60960000Y-70065851D01*
X61087617Y-70078420D01*
G37*
G36*
X63627617Y-70078420D02*
G01*
X63718403Y-70105960D01*
X63750335Y-70115646D01*
X63863424Y-70176094D01*
X63962554Y-70257447D01*
X64043906Y-70356575D01*
X64104354Y-70469664D01*
X64114040Y-70501596D01*
X64141580Y-70592382D01*
X64151000Y-70688027D01*
X64151000Y-71551973D01*
X64141580Y-71647618D01*
X64114040Y-71738404D01*
X64104354Y-71770336D01*
X64043906Y-71883425D01*
X63962554Y-71982554D01*
X63863425Y-72063906D01*
X63750336Y-72124354D01*
X63718404Y-72134040D01*
X63627618Y-72161580D01*
X63500000Y-72174149D01*
X63372383Y-72161580D01*
X63281597Y-72134040D01*
X63249665Y-72124354D01*
X63136576Y-72063906D01*
X63037447Y-71982554D01*
X62956095Y-71883425D01*
X62895647Y-71770336D01*
X62891282Y-71755946D01*
X62858420Y-71647618D01*
X62849000Y-71551973D01*
X62849000Y-70688028D01*
X62858420Y-70592383D01*
X62895645Y-70469669D01*
X62895646Y-70469665D01*
X62956094Y-70356576D01*
X63037447Y-70257446D01*
X63136575Y-70176094D01*
X63249664Y-70115646D01*
X63281596Y-70105960D01*
X63372382Y-70078420D01*
X63500000Y-70065851D01*
X63627617Y-70078420D01*
G37*
G36*
X66167617Y-70078420D02*
G01*
X66258403Y-70105960D01*
X66290335Y-70115646D01*
X66403424Y-70176094D01*
X66502554Y-70257447D01*
X66583906Y-70356575D01*
X66644354Y-70469664D01*
X66654040Y-70501596D01*
X66681580Y-70592382D01*
X66691000Y-70688027D01*
X66691000Y-71551973D01*
X66681580Y-71647618D01*
X66654040Y-71738404D01*
X66644354Y-71770336D01*
X66583906Y-71883425D01*
X66502554Y-71982554D01*
X66403425Y-72063906D01*
X66290336Y-72124354D01*
X66258404Y-72134040D01*
X66167618Y-72161580D01*
X66040000Y-72174149D01*
X65912383Y-72161580D01*
X65821597Y-72134040D01*
X65789665Y-72124354D01*
X65676576Y-72063906D01*
X65577447Y-71982554D01*
X65496095Y-71883425D01*
X65435647Y-71770336D01*
X65431282Y-71755946D01*
X65398420Y-71647618D01*
X65389000Y-71551973D01*
X65389000Y-70688028D01*
X65398420Y-70592383D01*
X65435645Y-70469669D01*
X65435646Y-70469665D01*
X65496094Y-70356576D01*
X65577447Y-70257446D01*
X65676575Y-70176094D01*
X65789664Y-70115646D01*
X65821596Y-70105960D01*
X65912382Y-70078420D01*
X66040000Y-70065851D01*
X66167617Y-70078420D01*
G37*
G36*
X68707617Y-70078420D02*
G01*
X68798403Y-70105960D01*
X68830335Y-70115646D01*
X68943424Y-70176094D01*
X69042554Y-70257447D01*
X69123906Y-70356575D01*
X69184354Y-70469664D01*
X69194040Y-70501596D01*
X69221580Y-70592382D01*
X69231000Y-70688027D01*
X69231000Y-71551973D01*
X69221580Y-71647618D01*
X69194040Y-71738404D01*
X69184354Y-71770336D01*
X69123906Y-71883425D01*
X69042554Y-71982554D01*
X68943425Y-72063906D01*
X68830336Y-72124354D01*
X68798404Y-72134040D01*
X68707618Y-72161580D01*
X68580000Y-72174149D01*
X68452383Y-72161580D01*
X68361597Y-72134040D01*
X68329665Y-72124354D01*
X68216576Y-72063906D01*
X68117447Y-71982554D01*
X68036095Y-71883425D01*
X67975647Y-71770336D01*
X67971282Y-71755946D01*
X67938420Y-71647618D01*
X67929000Y-71551973D01*
X67929000Y-70688028D01*
X67938420Y-70592383D01*
X67975645Y-70469669D01*
X67975646Y-70469665D01*
X68036094Y-70356576D01*
X68117447Y-70257446D01*
X68216575Y-70176094D01*
X68329664Y-70115646D01*
X68361596Y-70105960D01*
X68452382Y-70078420D01*
X68580000Y-70065851D01*
X68707617Y-70078420D01*
G37*
G36*
X71247617Y-70078420D02*
G01*
X71338403Y-70105960D01*
X71370335Y-70115646D01*
X71483424Y-70176094D01*
X71582554Y-70257447D01*
X71663906Y-70356575D01*
X71724354Y-70469664D01*
X71734040Y-70501596D01*
X71761580Y-70592382D01*
X71771000Y-70688027D01*
X71771000Y-71551973D01*
X71761580Y-71647618D01*
X71734040Y-71738404D01*
X71724354Y-71770336D01*
X71663906Y-71883425D01*
X71582554Y-71982554D01*
X71483425Y-72063906D01*
X71370336Y-72124354D01*
X71338404Y-72134040D01*
X71247618Y-72161580D01*
X71120000Y-72174149D01*
X70992383Y-72161580D01*
X70901597Y-72134040D01*
X70869665Y-72124354D01*
X70756576Y-72063906D01*
X70657447Y-71982554D01*
X70576095Y-71883425D01*
X70515647Y-71770336D01*
X70511282Y-71755946D01*
X70478420Y-71647618D01*
X70469000Y-71551973D01*
X70469000Y-70688028D01*
X70478420Y-70592383D01*
X70515645Y-70469669D01*
X70515646Y-70469665D01*
X70576094Y-70356576D01*
X70657447Y-70257446D01*
X70756575Y-70176094D01*
X70869664Y-70115646D01*
X70901596Y-70105960D01*
X70992382Y-70078420D01*
X71120000Y-70065851D01*
X71247617Y-70078420D01*
G37*
G36*
X22987617Y-70078420D02*
G01*
X23078403Y-70105960D01*
X23110335Y-70115646D01*
X23223424Y-70176094D01*
X23322554Y-70257447D01*
X23403906Y-70356575D01*
X23464354Y-70469664D01*
X23474040Y-70501596D01*
X23501580Y-70592382D01*
X23511000Y-70688027D01*
X23511000Y-71551973D01*
X23501580Y-71647618D01*
X23474040Y-71738404D01*
X23464354Y-71770336D01*
X23403906Y-71883425D01*
X23322554Y-71982554D01*
X23223425Y-72063906D01*
X23110336Y-72124354D01*
X23078404Y-72134040D01*
X22987618Y-72161580D01*
X22860000Y-72174149D01*
X22732383Y-72161580D01*
X22641597Y-72134040D01*
X22609665Y-72124354D01*
X22496576Y-72063906D01*
X22397447Y-71982554D01*
X22316095Y-71883425D01*
X22255647Y-71770336D01*
X22251282Y-71755946D01*
X22218420Y-71647618D01*
X22209000Y-71551973D01*
X22209000Y-70688028D01*
X22218420Y-70592383D01*
X22255645Y-70469669D01*
X22255646Y-70469665D01*
X22316094Y-70356576D01*
X22397447Y-70257446D01*
X22496575Y-70176094D01*
X22609664Y-70115646D01*
X22641596Y-70105960D01*
X22732382Y-70078420D01*
X22860000Y-70065851D01*
X22987617Y-70078420D01*
G37*
G36*
X45847617Y-70078420D02*
G01*
X45938403Y-70105960D01*
X45970335Y-70115646D01*
X46083424Y-70176094D01*
X46182554Y-70257447D01*
X46263906Y-70356575D01*
X46324354Y-70469664D01*
X46334040Y-70501596D01*
X46361580Y-70592382D01*
X46371000Y-70688027D01*
X46371000Y-71551973D01*
X46361580Y-71647618D01*
X46334040Y-71738404D01*
X46324354Y-71770336D01*
X46263906Y-71883425D01*
X46182554Y-71982554D01*
X46083425Y-72063906D01*
X45970336Y-72124354D01*
X45938404Y-72134040D01*
X45847618Y-72161580D01*
X45720000Y-72174149D01*
X45592383Y-72161580D01*
X45501597Y-72134040D01*
X45469665Y-72124354D01*
X45356576Y-72063906D01*
X45257447Y-71982554D01*
X45176095Y-71883425D01*
X45115647Y-71770336D01*
X45111282Y-71755946D01*
X45078420Y-71647618D01*
X45069000Y-71551973D01*
X45069000Y-70688028D01*
X45078420Y-70592383D01*
X45115645Y-70469669D01*
X45115646Y-70469665D01*
X45176094Y-70356576D01*
X45257447Y-70257446D01*
X45356575Y-70176094D01*
X45469664Y-70115646D01*
X45501596Y-70105960D01*
X45592382Y-70078420D01*
X45720000Y-70065851D01*
X45847617Y-70078420D01*
G37*
G36*
X124587617Y-70078420D02*
G01*
X124678403Y-70105960D01*
X124710335Y-70115646D01*
X124823424Y-70176094D01*
X124922554Y-70257447D01*
X125003906Y-70356575D01*
X125064354Y-70469664D01*
X125074040Y-70501596D01*
X125101580Y-70592382D01*
X125111000Y-70688027D01*
X125111000Y-71551973D01*
X125101580Y-71647618D01*
X125074040Y-71738404D01*
X125064354Y-71770336D01*
X125003906Y-71883425D01*
X124922554Y-71982554D01*
X124823425Y-72063906D01*
X124710336Y-72124354D01*
X124678404Y-72134040D01*
X124587618Y-72161580D01*
X124460000Y-72174149D01*
X124332383Y-72161580D01*
X124241597Y-72134040D01*
X124209665Y-72124354D01*
X124096576Y-72063906D01*
X123997447Y-71982554D01*
X123916095Y-71883425D01*
X123855647Y-71770336D01*
X123851282Y-71755946D01*
X123818420Y-71647618D01*
X123809000Y-71551973D01*
X123809000Y-70688028D01*
X123818420Y-70592383D01*
X123855645Y-70469669D01*
X123855646Y-70469665D01*
X123916094Y-70356576D01*
X123997447Y-70257446D01*
X124096575Y-70176094D01*
X124209664Y-70115646D01*
X124241596Y-70105960D01*
X124332382Y-70078420D01*
X124460000Y-70065851D01*
X124587617Y-70078420D01*
G37*
G36*
X78867617Y-70078420D02*
G01*
X78958403Y-70105960D01*
X78990335Y-70115646D01*
X79103424Y-70176094D01*
X79202554Y-70257447D01*
X79283906Y-70356575D01*
X79344354Y-70469664D01*
X79354040Y-70501596D01*
X79381580Y-70592382D01*
X79391000Y-70688027D01*
X79391000Y-71551973D01*
X79381580Y-71647618D01*
X79354040Y-71738404D01*
X79344354Y-71770336D01*
X79283906Y-71883425D01*
X79202554Y-71982554D01*
X79103425Y-72063906D01*
X78990336Y-72124354D01*
X78958404Y-72134040D01*
X78867618Y-72161580D01*
X78740000Y-72174149D01*
X78612383Y-72161580D01*
X78521597Y-72134040D01*
X78489665Y-72124354D01*
X78376576Y-72063906D01*
X78277447Y-71982554D01*
X78196095Y-71883425D01*
X78135647Y-71770336D01*
X78131282Y-71755946D01*
X78098420Y-71647618D01*
X78089000Y-71551973D01*
X78089000Y-70688028D01*
X78098420Y-70592383D01*
X78135645Y-70469669D01*
X78135646Y-70469665D01*
X78196094Y-70356576D01*
X78277447Y-70257446D01*
X78376575Y-70176094D01*
X78489664Y-70115646D01*
X78521596Y-70105960D01*
X78612382Y-70078420D01*
X78740000Y-70065851D01*
X78867617Y-70078420D01*
G37*
G36*
X81407617Y-70078420D02*
G01*
X81498403Y-70105960D01*
X81530335Y-70115646D01*
X81643424Y-70176094D01*
X81742554Y-70257447D01*
X81823906Y-70356575D01*
X81884354Y-70469664D01*
X81894040Y-70501596D01*
X81921580Y-70592382D01*
X81931000Y-70688027D01*
X81931000Y-71551973D01*
X81921580Y-71647618D01*
X81894040Y-71738404D01*
X81884354Y-71770336D01*
X81823906Y-71883425D01*
X81742554Y-71982554D01*
X81643425Y-72063906D01*
X81530336Y-72124354D01*
X81498404Y-72134040D01*
X81407618Y-72161580D01*
X81280000Y-72174149D01*
X81152383Y-72161580D01*
X81061597Y-72134040D01*
X81029665Y-72124354D01*
X80916576Y-72063906D01*
X80817447Y-71982554D01*
X80736095Y-71883425D01*
X80675647Y-71770336D01*
X80671282Y-71755946D01*
X80638420Y-71647618D01*
X80629000Y-71551973D01*
X80629000Y-70688028D01*
X80638420Y-70592383D01*
X80675645Y-70469669D01*
X80675646Y-70469665D01*
X80736094Y-70356576D01*
X80817447Y-70257446D01*
X80916575Y-70176094D01*
X81029664Y-70115646D01*
X81061596Y-70105960D01*
X81152382Y-70078420D01*
X81280000Y-70065851D01*
X81407617Y-70078420D01*
G37*
G36*
X83947617Y-70078420D02*
G01*
X84038403Y-70105960D01*
X84070335Y-70115646D01*
X84183424Y-70176094D01*
X84282554Y-70257447D01*
X84363906Y-70356575D01*
X84424354Y-70469664D01*
X84434040Y-70501596D01*
X84461580Y-70592382D01*
X84471000Y-70688027D01*
X84471000Y-71551973D01*
X84461580Y-71647618D01*
X84434040Y-71738404D01*
X84424354Y-71770336D01*
X84363906Y-71883425D01*
X84282554Y-71982554D01*
X84183425Y-72063906D01*
X84070336Y-72124354D01*
X84038404Y-72134040D01*
X83947618Y-72161580D01*
X83820000Y-72174149D01*
X83692383Y-72161580D01*
X83601597Y-72134040D01*
X83569665Y-72124354D01*
X83456576Y-72063906D01*
X83357447Y-71982554D01*
X83276095Y-71883425D01*
X83215647Y-71770336D01*
X83211282Y-71755946D01*
X83178420Y-71647618D01*
X83169000Y-71551973D01*
X83169000Y-70688028D01*
X83178420Y-70592383D01*
X83215645Y-70469669D01*
X83215646Y-70469665D01*
X83276094Y-70356576D01*
X83357447Y-70257446D01*
X83456575Y-70176094D01*
X83569664Y-70115646D01*
X83601596Y-70105960D01*
X83692382Y-70078420D01*
X83820000Y-70065851D01*
X83947617Y-70078420D01*
G37*
G36*
X86487617Y-70078420D02*
G01*
X86578403Y-70105960D01*
X86610335Y-70115646D01*
X86723424Y-70176094D01*
X86822554Y-70257447D01*
X86903906Y-70356575D01*
X86964354Y-70469664D01*
X86974040Y-70501596D01*
X87001580Y-70592382D01*
X87011000Y-70688027D01*
X87011000Y-71551973D01*
X87001580Y-71647618D01*
X86974040Y-71738404D01*
X86964354Y-71770336D01*
X86903906Y-71883425D01*
X86822554Y-71982554D01*
X86723425Y-72063906D01*
X86610336Y-72124354D01*
X86578404Y-72134040D01*
X86487618Y-72161580D01*
X86360000Y-72174149D01*
X86232383Y-72161580D01*
X86141597Y-72134040D01*
X86109665Y-72124354D01*
X85996576Y-72063906D01*
X85897447Y-71982554D01*
X85816095Y-71883425D01*
X85755647Y-71770336D01*
X85751282Y-71755946D01*
X85718420Y-71647618D01*
X85709000Y-71551973D01*
X85709000Y-70688028D01*
X85718420Y-70592383D01*
X85755645Y-70469669D01*
X85755646Y-70469665D01*
X85816094Y-70356576D01*
X85897447Y-70257446D01*
X85996575Y-70176094D01*
X86109664Y-70115646D01*
X86141596Y-70105960D01*
X86232382Y-70078420D01*
X86360000Y-70065851D01*
X86487617Y-70078420D01*
G37*
G36*
X89027617Y-70078420D02*
G01*
X89118403Y-70105960D01*
X89150335Y-70115646D01*
X89263424Y-70176094D01*
X89362554Y-70257447D01*
X89443906Y-70356575D01*
X89504354Y-70469664D01*
X89514040Y-70501596D01*
X89541580Y-70592382D01*
X89551000Y-70688027D01*
X89551000Y-71551973D01*
X89541580Y-71647618D01*
X89514040Y-71738404D01*
X89504354Y-71770336D01*
X89443906Y-71883425D01*
X89362554Y-71982554D01*
X89263425Y-72063906D01*
X89150336Y-72124354D01*
X89118404Y-72134040D01*
X89027618Y-72161580D01*
X88900000Y-72174149D01*
X88772383Y-72161580D01*
X88681597Y-72134040D01*
X88649665Y-72124354D01*
X88536576Y-72063906D01*
X88437447Y-71982554D01*
X88356095Y-71883425D01*
X88295647Y-71770336D01*
X88291282Y-71755946D01*
X88258420Y-71647618D01*
X88249000Y-71551973D01*
X88249000Y-70688028D01*
X88258420Y-70592383D01*
X88295645Y-70469669D01*
X88295646Y-70469665D01*
X88356094Y-70356576D01*
X88437447Y-70257446D01*
X88536575Y-70176094D01*
X88649664Y-70115646D01*
X88681596Y-70105960D01*
X88772382Y-70078420D01*
X88900000Y-70065851D01*
X89027617Y-70078420D01*
G37*
G36*
X15367617Y-70078420D02*
G01*
X15458403Y-70105960D01*
X15490335Y-70115646D01*
X15603424Y-70176094D01*
X15702554Y-70257447D01*
X15783906Y-70356575D01*
X15844354Y-70469664D01*
X15854040Y-70501596D01*
X15881580Y-70592382D01*
X15891000Y-70688027D01*
X15891000Y-71551973D01*
X15881580Y-71647618D01*
X15854040Y-71738404D01*
X15844354Y-71770336D01*
X15783906Y-71883425D01*
X15702554Y-71982554D01*
X15603425Y-72063906D01*
X15490336Y-72124354D01*
X15458404Y-72134040D01*
X15367618Y-72161580D01*
X15240000Y-72174149D01*
X15112383Y-72161580D01*
X15021597Y-72134040D01*
X14989665Y-72124354D01*
X14876576Y-72063906D01*
X14777447Y-71982554D01*
X14696095Y-71883425D01*
X14635647Y-71770336D01*
X14631282Y-71755946D01*
X14598420Y-71647618D01*
X14589000Y-71551973D01*
X14589000Y-70688028D01*
X14598420Y-70592383D01*
X14635645Y-70469669D01*
X14635646Y-70469665D01*
X14696094Y-70356576D01*
X14777447Y-70257446D01*
X14876575Y-70176094D01*
X14989664Y-70115646D01*
X15021596Y-70105960D01*
X15112382Y-70078420D01*
X15240000Y-70065851D01*
X15367617Y-70078420D01*
G37*
G36*
X17907617Y-70078420D02*
G01*
X17998403Y-70105960D01*
X18030335Y-70115646D01*
X18143424Y-70176094D01*
X18242554Y-70257447D01*
X18323906Y-70356575D01*
X18384354Y-70469664D01*
X18394040Y-70501596D01*
X18421580Y-70592382D01*
X18431000Y-70688027D01*
X18431000Y-71551973D01*
X18421580Y-71647618D01*
X18394040Y-71738404D01*
X18384354Y-71770336D01*
X18323906Y-71883425D01*
X18242554Y-71982554D01*
X18143425Y-72063906D01*
X18030336Y-72124354D01*
X17998404Y-72134040D01*
X17907618Y-72161580D01*
X17780000Y-72174149D01*
X17652383Y-72161580D01*
X17561597Y-72134040D01*
X17529665Y-72124354D01*
X17416576Y-72063906D01*
X17317447Y-71982554D01*
X17236095Y-71883425D01*
X17175647Y-71770336D01*
X17171282Y-71755946D01*
X17138420Y-71647618D01*
X17129000Y-71551973D01*
X17129000Y-70688028D01*
X17138420Y-70592383D01*
X17175645Y-70469669D01*
X17175646Y-70469665D01*
X17236094Y-70356576D01*
X17317447Y-70257446D01*
X17416575Y-70176094D01*
X17529664Y-70115646D01*
X17561596Y-70105960D01*
X17652382Y-70078420D01*
X17780000Y-70065851D01*
X17907617Y-70078420D01*
G37*
G36*
X20447617Y-70078420D02*
G01*
X20538403Y-70105960D01*
X20570335Y-70115646D01*
X20683424Y-70176094D01*
X20782554Y-70257447D01*
X20863906Y-70356575D01*
X20924354Y-70469664D01*
X20934040Y-70501596D01*
X20961580Y-70592382D01*
X20971000Y-70688027D01*
X20971000Y-71551973D01*
X20961580Y-71647618D01*
X20934040Y-71738404D01*
X20924354Y-71770336D01*
X20863906Y-71883425D01*
X20782554Y-71982554D01*
X20683425Y-72063906D01*
X20570336Y-72124354D01*
X20538404Y-72134040D01*
X20447618Y-72161580D01*
X20320000Y-72174149D01*
X20192383Y-72161580D01*
X20101597Y-72134040D01*
X20069665Y-72124354D01*
X19956576Y-72063906D01*
X19857447Y-71982554D01*
X19776095Y-71883425D01*
X19715647Y-71770336D01*
X19711282Y-71755946D01*
X19678420Y-71647618D01*
X19669000Y-71551973D01*
X19669000Y-70688028D01*
X19678420Y-70592383D01*
X19715645Y-70469669D01*
X19715646Y-70469665D01*
X19776094Y-70356576D01*
X19857447Y-70257446D01*
X19956575Y-70176094D01*
X20069664Y-70115646D01*
X20101596Y-70105960D01*
X20192382Y-70078420D01*
X20320000Y-70065851D01*
X20447617Y-70078420D01*
G37*
G36*
X25527617Y-70078420D02*
G01*
X25618403Y-70105960D01*
X25650335Y-70115646D01*
X25763424Y-70176094D01*
X25862554Y-70257447D01*
X25943906Y-70356575D01*
X26004354Y-70469664D01*
X26014040Y-70501596D01*
X26041580Y-70592382D01*
X26051000Y-70688027D01*
X26051000Y-71551973D01*
X26041580Y-71647618D01*
X26014040Y-71738404D01*
X26004354Y-71770336D01*
X25943906Y-71883425D01*
X25862554Y-71982554D01*
X25763425Y-72063906D01*
X25650336Y-72124354D01*
X25618404Y-72134040D01*
X25527618Y-72161580D01*
X25400000Y-72174149D01*
X25272383Y-72161580D01*
X25181597Y-72134040D01*
X25149665Y-72124354D01*
X25036576Y-72063906D01*
X24937447Y-71982554D01*
X24856095Y-71883425D01*
X24795647Y-71770336D01*
X24791282Y-71755946D01*
X24758420Y-71647618D01*
X24749000Y-71551973D01*
X24749000Y-70688028D01*
X24758420Y-70592383D01*
X24795645Y-70469669D01*
X24795646Y-70469665D01*
X24856094Y-70356576D01*
X24937447Y-70257446D01*
X25036575Y-70176094D01*
X25149664Y-70115646D01*
X25181596Y-70105960D01*
X25272382Y-70078420D01*
X25400000Y-70065851D01*
X25527617Y-70078420D01*
G37*
G36*
X43307617Y-70078420D02*
G01*
X43398403Y-70105960D01*
X43430335Y-70115646D01*
X43543424Y-70176094D01*
X43642554Y-70257447D01*
X43723906Y-70356575D01*
X43784354Y-70469664D01*
X43794040Y-70501596D01*
X43821580Y-70592382D01*
X43831000Y-70688027D01*
X43831000Y-71551973D01*
X43821580Y-71647618D01*
X43794040Y-71738404D01*
X43784354Y-71770336D01*
X43723906Y-71883425D01*
X43642554Y-71982554D01*
X43543425Y-72063906D01*
X43430336Y-72124354D01*
X43398404Y-72134040D01*
X43307618Y-72161580D01*
X43180000Y-72174149D01*
X43052383Y-72161580D01*
X42961597Y-72134040D01*
X42929665Y-72124354D01*
X42816576Y-72063906D01*
X42717447Y-71982554D01*
X42636095Y-71883425D01*
X42575647Y-71770336D01*
X42571282Y-71755946D01*
X42538420Y-71647618D01*
X42529000Y-71551973D01*
X42529000Y-70688028D01*
X42538420Y-70592383D01*
X42575645Y-70469669D01*
X42575646Y-70469665D01*
X42636094Y-70356576D01*
X42717447Y-70257446D01*
X42816575Y-70176094D01*
X42929664Y-70115646D01*
X42961596Y-70105960D01*
X43052382Y-70078420D01*
X43180000Y-70065851D01*
X43307617Y-70078420D01*
G37*
G36*
X40767617Y-70078420D02*
G01*
X40858403Y-70105960D01*
X40890335Y-70115646D01*
X41003424Y-70176094D01*
X41102554Y-70257447D01*
X41183906Y-70356575D01*
X41244354Y-70469664D01*
X41254040Y-70501596D01*
X41281580Y-70592382D01*
X41291000Y-70688027D01*
X41291000Y-71551973D01*
X41281580Y-71647618D01*
X41254040Y-71738404D01*
X41244354Y-71770336D01*
X41183906Y-71883425D01*
X41102554Y-71982554D01*
X41003425Y-72063906D01*
X40890336Y-72124354D01*
X40858404Y-72134040D01*
X40767618Y-72161580D01*
X40640000Y-72174149D01*
X40512383Y-72161580D01*
X40421597Y-72134040D01*
X40389665Y-72124354D01*
X40276576Y-72063906D01*
X40177447Y-71982554D01*
X40096095Y-71883425D01*
X40035647Y-71770336D01*
X40031282Y-71755946D01*
X39998420Y-71647618D01*
X39989000Y-71551973D01*
X39989000Y-70688028D01*
X39998420Y-70592383D01*
X40035645Y-70469669D01*
X40035646Y-70469665D01*
X40096094Y-70356576D01*
X40177447Y-70257446D01*
X40276575Y-70176094D01*
X40389664Y-70115646D01*
X40421596Y-70105960D01*
X40512382Y-70078420D01*
X40640000Y-70065851D01*
X40767617Y-70078420D01*
G37*
G36*
X38227617Y-70078420D02*
G01*
X38318403Y-70105960D01*
X38350335Y-70115646D01*
X38463424Y-70176094D01*
X38562554Y-70257447D01*
X38643906Y-70356575D01*
X38704354Y-70469664D01*
X38714040Y-70501596D01*
X38741580Y-70592382D01*
X38751000Y-70688027D01*
X38751000Y-71551973D01*
X38741580Y-71647618D01*
X38714040Y-71738404D01*
X38704354Y-71770336D01*
X38643906Y-71883425D01*
X38562554Y-71982554D01*
X38463425Y-72063906D01*
X38350336Y-72124354D01*
X38318404Y-72134040D01*
X38227618Y-72161580D01*
X38100000Y-72174149D01*
X37972383Y-72161580D01*
X37881597Y-72134040D01*
X37849665Y-72124354D01*
X37736576Y-72063906D01*
X37637447Y-71982554D01*
X37556095Y-71883425D01*
X37495647Y-71770336D01*
X37491282Y-71755946D01*
X37458420Y-71647618D01*
X37449000Y-71551973D01*
X37449000Y-70688028D01*
X37458420Y-70592383D01*
X37495645Y-70469669D01*
X37495646Y-70469665D01*
X37556094Y-70356576D01*
X37637447Y-70257446D01*
X37736575Y-70176094D01*
X37849664Y-70115646D01*
X37881596Y-70105960D01*
X37972382Y-70078420D01*
X38100000Y-70065851D01*
X38227617Y-70078420D01*
G37*
G36*
X35687617Y-70078420D02*
G01*
X35778403Y-70105960D01*
X35810335Y-70115646D01*
X35923424Y-70176094D01*
X36022554Y-70257447D01*
X36103906Y-70356575D01*
X36164354Y-70469664D01*
X36174040Y-70501596D01*
X36201580Y-70592382D01*
X36211000Y-70688027D01*
X36211000Y-71551973D01*
X36201580Y-71647618D01*
X36174040Y-71738404D01*
X36164354Y-71770336D01*
X36103906Y-71883425D01*
X36022554Y-71982554D01*
X35923425Y-72063906D01*
X35810336Y-72124354D01*
X35778404Y-72134040D01*
X35687618Y-72161580D01*
X35560000Y-72174149D01*
X35432383Y-72161580D01*
X35341597Y-72134040D01*
X35309665Y-72124354D01*
X35196576Y-72063906D01*
X35097447Y-71982554D01*
X35016095Y-71883425D01*
X34955647Y-71770336D01*
X34951282Y-71755946D01*
X34918420Y-71647618D01*
X34909000Y-71551973D01*
X34909000Y-70688028D01*
X34918420Y-70592383D01*
X34955645Y-70469669D01*
X34955646Y-70469665D01*
X35016094Y-70356576D01*
X35097447Y-70257446D01*
X35196575Y-70176094D01*
X35309664Y-70115646D01*
X35341596Y-70105960D01*
X35432382Y-70078420D01*
X35560000Y-70065851D01*
X35687617Y-70078420D01*
G37*
G36*
X33147617Y-70078420D02*
G01*
X33238403Y-70105960D01*
X33270335Y-70115646D01*
X33383424Y-70176094D01*
X33482554Y-70257447D01*
X33563906Y-70356575D01*
X33624354Y-70469664D01*
X33634040Y-70501596D01*
X33661580Y-70592382D01*
X33671000Y-70688027D01*
X33671000Y-71551973D01*
X33661580Y-71647618D01*
X33634040Y-71738404D01*
X33624354Y-71770336D01*
X33563906Y-71883425D01*
X33482554Y-71982554D01*
X33383425Y-72063906D01*
X33270336Y-72124354D01*
X33238404Y-72134040D01*
X33147618Y-72161580D01*
X33020000Y-72174149D01*
X32892383Y-72161580D01*
X32801597Y-72134040D01*
X32769665Y-72124354D01*
X32656576Y-72063906D01*
X32557447Y-71982554D01*
X32476095Y-71883425D01*
X32415647Y-71770336D01*
X32411282Y-71755946D01*
X32378420Y-71647618D01*
X32369000Y-71551973D01*
X32369000Y-70688028D01*
X32378420Y-70592383D01*
X32415645Y-70469669D01*
X32415646Y-70469665D01*
X32476094Y-70356576D01*
X32557447Y-70257446D01*
X32656575Y-70176094D01*
X32769664Y-70115646D01*
X32801596Y-70105960D01*
X32892382Y-70078420D01*
X33020000Y-70065851D01*
X33147617Y-70078420D01*
G37*
G36*
X30607617Y-70078420D02*
G01*
X30698403Y-70105960D01*
X30730335Y-70115646D01*
X30843424Y-70176094D01*
X30942554Y-70257447D01*
X31023906Y-70356575D01*
X31084354Y-70469664D01*
X31094040Y-70501596D01*
X31121580Y-70592382D01*
X31131000Y-70688027D01*
X31131000Y-71551973D01*
X31121580Y-71647618D01*
X31094040Y-71738404D01*
X31084354Y-71770336D01*
X31023906Y-71883425D01*
X30942554Y-71982554D01*
X30843425Y-72063906D01*
X30730336Y-72124354D01*
X30698404Y-72134040D01*
X30607618Y-72161580D01*
X30480000Y-72174149D01*
X30352383Y-72161580D01*
X30261597Y-72134040D01*
X30229665Y-72124354D01*
X30116576Y-72063906D01*
X30017447Y-71982554D01*
X29936095Y-71883425D01*
X29875647Y-71770336D01*
X29871282Y-71755946D01*
X29838420Y-71647618D01*
X29829000Y-71551973D01*
X29829000Y-70688028D01*
X29838420Y-70592383D01*
X29875645Y-70469669D01*
X29875646Y-70469665D01*
X29936094Y-70356576D01*
X30017447Y-70257446D01*
X30116575Y-70176094D01*
X30229664Y-70115646D01*
X30261596Y-70105960D01*
X30352382Y-70078420D01*
X30480000Y-70065851D01*
X30607617Y-70078420D01*
G37*
G36*
X28067617Y-70078420D02*
G01*
X28158403Y-70105960D01*
X28190335Y-70115646D01*
X28303424Y-70176094D01*
X28402554Y-70257447D01*
X28483906Y-70356575D01*
X28544354Y-70469664D01*
X28554040Y-70501596D01*
X28581580Y-70592382D01*
X28591000Y-70688027D01*
X28591000Y-71551973D01*
X28581580Y-71647618D01*
X28554040Y-71738404D01*
X28544354Y-71770336D01*
X28483906Y-71883425D01*
X28402554Y-71982554D01*
X28303425Y-72063906D01*
X28190336Y-72124354D01*
X28158404Y-72134040D01*
X28067618Y-72161580D01*
X27940000Y-72174149D01*
X27812383Y-72161580D01*
X27721597Y-72134040D01*
X27689665Y-72124354D01*
X27576576Y-72063906D01*
X27477447Y-71982554D01*
X27396095Y-71883425D01*
X27335647Y-71770336D01*
X27331282Y-71755946D01*
X27298420Y-71647618D01*
X27289000Y-71551973D01*
X27289000Y-70688028D01*
X27298420Y-70592383D01*
X27335645Y-70469669D01*
X27335646Y-70469665D01*
X27396094Y-70356576D01*
X27477447Y-70257446D01*
X27576575Y-70176094D01*
X27689664Y-70115646D01*
X27721596Y-70105960D01*
X27812382Y-70078420D01*
X27940000Y-70065851D01*
X28067617Y-70078420D01*
G37*
G36*
X73787617Y-70078420D02*
G01*
X73878403Y-70105960D01*
X73910335Y-70115646D01*
X74023424Y-70176094D01*
X74122554Y-70257447D01*
X74203906Y-70356575D01*
X74264354Y-70469664D01*
X74274040Y-70501596D01*
X74301580Y-70592382D01*
X74311000Y-70688027D01*
X74311000Y-71551973D01*
X74301580Y-71647618D01*
X74274040Y-71738404D01*
X74264354Y-71770336D01*
X74203906Y-71883425D01*
X74122554Y-71982554D01*
X74023425Y-72063906D01*
X73910336Y-72124354D01*
X73878404Y-72134040D01*
X73787618Y-72161580D01*
X73660000Y-72174149D01*
X73532383Y-72161580D01*
X73441597Y-72134040D01*
X73409665Y-72124354D01*
X73296576Y-72063906D01*
X73197447Y-71982554D01*
X73116095Y-71883425D01*
X73055647Y-71770336D01*
X73051282Y-71755946D01*
X73018420Y-71647618D01*
X73009000Y-71551973D01*
X73009000Y-70688028D01*
X73018420Y-70592383D01*
X73055645Y-70469669D01*
X73055646Y-70469665D01*
X73116094Y-70356576D01*
X73197447Y-70257446D01*
X73296575Y-70176094D01*
X73409664Y-70115646D01*
X73441596Y-70105960D01*
X73532382Y-70078420D01*
X73660000Y-70065851D01*
X73787617Y-70078420D01*
G37*
G36*
X87878228Y-65221703D02*
G01*
X88033100Y-65285853D01*
X88172481Y-65378985D01*
X88291015Y-65497519D01*
X88384147Y-65636900D01*
X88448297Y-65791772D01*
X88481000Y-65956184D01*
X88481000Y-66123816D01*
X88448297Y-66288228D01*
X88384147Y-66443100D01*
X88291015Y-66582481D01*
X88172481Y-66701015D01*
X88033100Y-66794147D01*
X87878228Y-66858297D01*
X87713816Y-66891000D01*
X87546184Y-66891000D01*
X87381772Y-66858297D01*
X87226900Y-66794147D01*
X87087519Y-66701015D01*
X86968985Y-66582481D01*
X86875853Y-66443100D01*
X86811703Y-66288228D01*
X86779000Y-66123816D01*
X86779000Y-65956184D01*
X86811703Y-65791772D01*
X86875853Y-65636900D01*
X86968985Y-65497519D01*
X87087519Y-65378985D01*
X87226900Y-65285853D01*
X87381772Y-65221703D01*
X87546184Y-65189000D01*
X87713816Y-65189000D01*
X87878228Y-65221703D01*
G37*
G36*
X82798228Y-65221703D02*
G01*
X82953100Y-65285853D01*
X83092481Y-65378985D01*
X83211015Y-65497519D01*
X83304147Y-65636900D01*
X83368297Y-65791772D01*
X83401000Y-65956184D01*
X83401000Y-66123816D01*
X83368297Y-66288228D01*
X83304147Y-66443100D01*
X83211015Y-66582481D01*
X83092481Y-66701015D01*
X82953100Y-66794147D01*
X82798228Y-66858297D01*
X82633816Y-66891000D01*
X82466184Y-66891000D01*
X82301772Y-66858297D01*
X82146900Y-66794147D01*
X82007519Y-66701015D01*
X81888985Y-66582481D01*
X81795853Y-66443100D01*
X81731703Y-66288228D01*
X81699000Y-66123816D01*
X81699000Y-65956184D01*
X81731703Y-65791772D01*
X81795853Y-65636900D01*
X81888985Y-65497519D01*
X82007519Y-65378985D01*
X82146900Y-65285853D01*
X82301772Y-65221703D01*
X82466184Y-65189000D01*
X82633816Y-65189000D01*
X82798228Y-65221703D01*
G37*
G36*
X54858228Y-65221703D02*
G01*
X55013100Y-65285853D01*
X55152481Y-65378985D01*
X55271015Y-65497519D01*
X55364147Y-65636900D01*
X55428297Y-65791772D01*
X55461000Y-65956184D01*
X55461000Y-66123816D01*
X55428297Y-66288228D01*
X55364147Y-66443100D01*
X55271015Y-66582481D01*
X55152481Y-66701015D01*
X55013100Y-66794147D01*
X54858228Y-66858297D01*
X54693816Y-66891000D01*
X54526184Y-66891000D01*
X54361772Y-66858297D01*
X54206900Y-66794147D01*
X54067519Y-66701015D01*
X53948985Y-66582481D01*
X53855853Y-66443100D01*
X53791703Y-66288228D01*
X53759000Y-66123816D01*
X53759000Y-65956184D01*
X53791703Y-65791772D01*
X53855853Y-65636900D01*
X53948985Y-65497519D01*
X54067519Y-65378985D01*
X54206900Y-65285853D01*
X54361772Y-65221703D01*
X54526184Y-65189000D01*
X54693816Y-65189000D01*
X54858228Y-65221703D01*
G37*
G36*
X80258228Y-65221703D02*
G01*
X80413100Y-65285853D01*
X80552481Y-65378985D01*
X80671015Y-65497519D01*
X80764147Y-65636900D01*
X80828297Y-65791772D01*
X80861000Y-65956184D01*
X80861000Y-66123816D01*
X80828297Y-66288228D01*
X80764147Y-66443100D01*
X80671015Y-66582481D01*
X80552481Y-66701015D01*
X80413100Y-66794147D01*
X80258228Y-66858297D01*
X80093816Y-66891000D01*
X79926184Y-66891000D01*
X79761772Y-66858297D01*
X79606900Y-66794147D01*
X79467519Y-66701015D01*
X79348985Y-66582481D01*
X79255853Y-66443100D01*
X79191703Y-66288228D01*
X79159000Y-66123816D01*
X79159000Y-65956184D01*
X79191703Y-65791772D01*
X79255853Y-65636900D01*
X79348985Y-65497519D01*
X79467519Y-65378985D01*
X79606900Y-65285853D01*
X79761772Y-65221703D01*
X79926184Y-65189000D01*
X80093816Y-65189000D01*
X80258228Y-65221703D01*
G37*
G36*
X77718228Y-65221703D02*
G01*
X77873100Y-65285853D01*
X78012481Y-65378985D01*
X78131015Y-65497519D01*
X78224147Y-65636900D01*
X78288297Y-65791772D01*
X78321000Y-65956184D01*
X78321000Y-66123816D01*
X78288297Y-66288228D01*
X78224147Y-66443100D01*
X78131015Y-66582481D01*
X78012481Y-66701015D01*
X77873100Y-66794147D01*
X77718228Y-66858297D01*
X77553816Y-66891000D01*
X77386184Y-66891000D01*
X77221772Y-66858297D01*
X77066900Y-66794147D01*
X76927519Y-66701015D01*
X76808985Y-66582481D01*
X76715853Y-66443100D01*
X76651703Y-66288228D01*
X76619000Y-66123816D01*
X76619000Y-65956184D01*
X76651703Y-65791772D01*
X76715853Y-65636900D01*
X76808985Y-65497519D01*
X76927519Y-65378985D01*
X77066900Y-65285853D01*
X77221772Y-65221703D01*
X77386184Y-65189000D01*
X77553816Y-65189000D01*
X77718228Y-65221703D01*
G37*
G36*
X75178228Y-65221703D02*
G01*
X75333100Y-65285853D01*
X75472481Y-65378985D01*
X75591015Y-65497519D01*
X75684147Y-65636900D01*
X75748297Y-65791772D01*
X75781000Y-65956184D01*
X75781000Y-66123816D01*
X75748297Y-66288228D01*
X75684147Y-66443100D01*
X75591015Y-66582481D01*
X75472481Y-66701015D01*
X75333100Y-66794147D01*
X75178228Y-66858297D01*
X75013816Y-66891000D01*
X74846184Y-66891000D01*
X74681772Y-66858297D01*
X74526900Y-66794147D01*
X74387519Y-66701015D01*
X74268985Y-66582481D01*
X74175853Y-66443100D01*
X74111703Y-66288228D01*
X74079000Y-66123816D01*
X74079000Y-65956184D01*
X74111703Y-65791772D01*
X74175853Y-65636900D01*
X74268985Y-65497519D01*
X74387519Y-65378985D01*
X74526900Y-65285853D01*
X74681772Y-65221703D01*
X74846184Y-65189000D01*
X75013816Y-65189000D01*
X75178228Y-65221703D01*
G37*
G36*
X72638228Y-65221703D02*
G01*
X72793100Y-65285853D01*
X72932481Y-65378985D01*
X73051015Y-65497519D01*
X73144147Y-65636900D01*
X73208297Y-65791772D01*
X73241000Y-65956184D01*
X73241000Y-66123816D01*
X73208297Y-66288228D01*
X73144147Y-66443100D01*
X73051015Y-66582481D01*
X72932481Y-66701015D01*
X72793100Y-66794147D01*
X72638228Y-66858297D01*
X72473816Y-66891000D01*
X72306184Y-66891000D01*
X72141772Y-66858297D01*
X71986900Y-66794147D01*
X71847519Y-66701015D01*
X71728985Y-66582481D01*
X71635853Y-66443100D01*
X71571703Y-66288228D01*
X71539000Y-66123816D01*
X71539000Y-65956184D01*
X71571703Y-65791772D01*
X71635853Y-65636900D01*
X71728985Y-65497519D01*
X71847519Y-65378985D01*
X71986900Y-65285853D01*
X72141772Y-65221703D01*
X72306184Y-65189000D01*
X72473816Y-65189000D01*
X72638228Y-65221703D01*
G37*
G36*
X70098228Y-65221703D02*
G01*
X70253100Y-65285853D01*
X70392481Y-65378985D01*
X70511015Y-65497519D01*
X70604147Y-65636900D01*
X70668297Y-65791772D01*
X70701000Y-65956184D01*
X70701000Y-66123816D01*
X70668297Y-66288228D01*
X70604147Y-66443100D01*
X70511015Y-66582481D01*
X70392481Y-66701015D01*
X70253100Y-66794147D01*
X70098228Y-66858297D01*
X69933816Y-66891000D01*
X69766184Y-66891000D01*
X69601772Y-66858297D01*
X69446900Y-66794147D01*
X69307519Y-66701015D01*
X69188985Y-66582481D01*
X69095853Y-66443100D01*
X69031703Y-66288228D01*
X68999000Y-66123816D01*
X68999000Y-65956184D01*
X69031703Y-65791772D01*
X69095853Y-65636900D01*
X69188985Y-65497519D01*
X69307519Y-65378985D01*
X69446900Y-65285853D01*
X69601772Y-65221703D01*
X69766184Y-65189000D01*
X69933816Y-65189000D01*
X70098228Y-65221703D01*
G37*
G36*
X67558228Y-65221703D02*
G01*
X67713100Y-65285853D01*
X67852481Y-65378985D01*
X67971015Y-65497519D01*
X68064147Y-65636900D01*
X68128297Y-65791772D01*
X68161000Y-65956184D01*
X68161000Y-66123816D01*
X68128297Y-66288228D01*
X68064147Y-66443100D01*
X67971015Y-66582481D01*
X67852481Y-66701015D01*
X67713100Y-66794147D01*
X67558228Y-66858297D01*
X67393816Y-66891000D01*
X67226184Y-66891000D01*
X67061772Y-66858297D01*
X66906900Y-66794147D01*
X66767519Y-66701015D01*
X66648985Y-66582481D01*
X66555853Y-66443100D01*
X66491703Y-66288228D01*
X66459000Y-66123816D01*
X66459000Y-65956184D01*
X66491703Y-65791772D01*
X66555853Y-65636900D01*
X66648985Y-65497519D01*
X66767519Y-65378985D01*
X66906900Y-65285853D01*
X67061772Y-65221703D01*
X67226184Y-65189000D01*
X67393816Y-65189000D01*
X67558228Y-65221703D01*
G37*
G36*
X65018228Y-65221703D02*
G01*
X65173100Y-65285853D01*
X65312481Y-65378985D01*
X65431015Y-65497519D01*
X65524147Y-65636900D01*
X65588297Y-65791772D01*
X65621000Y-65956184D01*
X65621000Y-66123816D01*
X65588297Y-66288228D01*
X65524147Y-66443100D01*
X65431015Y-66582481D01*
X65312481Y-66701015D01*
X65173100Y-66794147D01*
X65018228Y-66858297D01*
X64853816Y-66891000D01*
X64686184Y-66891000D01*
X64521772Y-66858297D01*
X64366900Y-66794147D01*
X64227519Y-66701015D01*
X64108985Y-66582481D01*
X64015853Y-66443100D01*
X63951703Y-66288228D01*
X63919000Y-66123816D01*
X63919000Y-65956184D01*
X63951703Y-65791772D01*
X64015853Y-65636900D01*
X64108985Y-65497519D01*
X64227519Y-65378985D01*
X64366900Y-65285853D01*
X64521772Y-65221703D01*
X64686184Y-65189000D01*
X64853816Y-65189000D01*
X65018228Y-65221703D01*
G37*
G36*
X62478228Y-65221703D02*
G01*
X62633100Y-65285853D01*
X62772481Y-65378985D01*
X62891015Y-65497519D01*
X62984147Y-65636900D01*
X63048297Y-65791772D01*
X63081000Y-65956184D01*
X63081000Y-66123816D01*
X63048297Y-66288228D01*
X62984147Y-66443100D01*
X62891015Y-66582481D01*
X62772481Y-66701015D01*
X62633100Y-66794147D01*
X62478228Y-66858297D01*
X62313816Y-66891000D01*
X62146184Y-66891000D01*
X61981772Y-66858297D01*
X61826900Y-66794147D01*
X61687519Y-66701015D01*
X61568985Y-66582481D01*
X61475853Y-66443100D01*
X61411703Y-66288228D01*
X61379000Y-66123816D01*
X61379000Y-65956184D01*
X61411703Y-65791772D01*
X61475853Y-65636900D01*
X61568985Y-65497519D01*
X61687519Y-65378985D01*
X61826900Y-65285853D01*
X61981772Y-65221703D01*
X62146184Y-65189000D01*
X62313816Y-65189000D01*
X62478228Y-65221703D01*
G37*
G36*
X59938228Y-65221703D02*
G01*
X60093100Y-65285853D01*
X60232481Y-65378985D01*
X60351015Y-65497519D01*
X60444147Y-65636900D01*
X60508297Y-65791772D01*
X60541000Y-65956184D01*
X60541000Y-66123816D01*
X60508297Y-66288228D01*
X60444147Y-66443100D01*
X60351015Y-66582481D01*
X60232481Y-66701015D01*
X60093100Y-66794147D01*
X59938228Y-66858297D01*
X59773816Y-66891000D01*
X59606184Y-66891000D01*
X59441772Y-66858297D01*
X59286900Y-66794147D01*
X59147519Y-66701015D01*
X59028985Y-66582481D01*
X58935853Y-66443100D01*
X58871703Y-66288228D01*
X58839000Y-66123816D01*
X58839000Y-65956184D01*
X58871703Y-65791772D01*
X58935853Y-65636900D01*
X59028985Y-65497519D01*
X59147519Y-65378985D01*
X59286900Y-65285853D01*
X59441772Y-65221703D01*
X59606184Y-65189000D01*
X59773816Y-65189000D01*
X59938228Y-65221703D01*
G37*
G36*
X57398228Y-65221703D02*
G01*
X57553100Y-65285853D01*
X57692481Y-65378985D01*
X57811015Y-65497519D01*
X57904147Y-65636900D01*
X57968297Y-65791772D01*
X58001000Y-65956184D01*
X58001000Y-66123816D01*
X57968297Y-66288228D01*
X57904147Y-66443100D01*
X57811015Y-66582481D01*
X57692481Y-66701015D01*
X57553100Y-66794147D01*
X57398228Y-66858297D01*
X57233816Y-66891000D01*
X57066184Y-66891000D01*
X56901772Y-66858297D01*
X56746900Y-66794147D01*
X56607519Y-66701015D01*
X56488985Y-66582481D01*
X56395853Y-66443100D01*
X56331703Y-66288228D01*
X56299000Y-66123816D01*
X56299000Y-65956184D01*
X56331703Y-65791772D01*
X56395853Y-65636900D01*
X56488985Y-65497519D01*
X56607519Y-65378985D01*
X56746900Y-65285853D01*
X56901772Y-65221703D01*
X57066184Y-65189000D01*
X57233816Y-65189000D01*
X57398228Y-65221703D01*
G37*
G36*
X85338228Y-65221703D02*
G01*
X85493100Y-65285853D01*
X85632481Y-65378985D01*
X85751015Y-65497519D01*
X85844147Y-65636900D01*
X85908297Y-65791772D01*
X85941000Y-65956184D01*
X85941000Y-66123816D01*
X85908297Y-66288228D01*
X85844147Y-66443100D01*
X85751015Y-66582481D01*
X85632481Y-66701015D01*
X85493100Y-66794147D01*
X85338228Y-66858297D01*
X85173816Y-66891000D01*
X85006184Y-66891000D01*
X84841772Y-66858297D01*
X84686900Y-66794147D01*
X84547519Y-66701015D01*
X84428985Y-66582481D01*
X84335853Y-66443100D01*
X84271703Y-66288228D01*
X84239000Y-66123816D01*
X84239000Y-65956184D01*
X84271703Y-65791772D01*
X84335853Y-65636900D01*
X84428985Y-65497519D01*
X84547519Y-65378985D01*
X84686900Y-65285853D01*
X84841772Y-65221703D01*
X85006184Y-65189000D01*
X85173816Y-65189000D01*
X85338228Y-65221703D01*
G37*
G36*
X90418228Y-65221703D02*
G01*
X90573100Y-65285853D01*
X90712481Y-65378985D01*
X90831015Y-65497519D01*
X90924147Y-65636900D01*
X90988297Y-65791772D01*
X91021000Y-65956184D01*
X91021000Y-66123816D01*
X90988297Y-66288228D01*
X90924147Y-66443100D01*
X90831015Y-66582481D01*
X90712481Y-66701015D01*
X90573100Y-66794147D01*
X90418228Y-66858297D01*
X90253816Y-66891000D01*
X90086184Y-66891000D01*
X89921772Y-66858297D01*
X89766900Y-66794147D01*
X89627519Y-66701015D01*
X89508985Y-66582481D01*
X89415853Y-66443100D01*
X89351703Y-66288228D01*
X89319000Y-66123816D01*
X89319000Y-65956184D01*
X89351703Y-65791772D01*
X89415853Y-65636900D01*
X89508985Y-65497519D01*
X89627519Y-65378985D01*
X89766900Y-65285853D01*
X89921772Y-65221703D01*
X90086184Y-65189000D01*
X90253816Y-65189000D01*
X90418228Y-65221703D01*
G37*
G36*
X90418228Y-49981703D02*
G01*
X90573100Y-50045853D01*
X90712481Y-50138985D01*
X90831015Y-50257519D01*
X90924147Y-50396900D01*
X90988297Y-50551772D01*
X91021000Y-50716184D01*
X91021000Y-50883816D01*
X90988297Y-51048228D01*
X90924147Y-51203100D01*
X90831015Y-51342481D01*
X90712481Y-51461015D01*
X90573100Y-51554147D01*
X90418228Y-51618297D01*
X90253816Y-51651000D01*
X90086184Y-51651000D01*
X89921772Y-51618297D01*
X89766900Y-51554147D01*
X89627519Y-51461015D01*
X89508985Y-51342481D01*
X89415853Y-51203100D01*
X89351703Y-51048228D01*
X89319000Y-50883816D01*
X89319000Y-50716184D01*
X89351703Y-50551772D01*
X89415853Y-50396900D01*
X89508985Y-50257519D01*
X89627519Y-50138985D01*
X89766900Y-50045853D01*
X89921772Y-49981703D01*
X90086184Y-49949000D01*
X90253816Y-49949000D01*
X90418228Y-49981703D01*
G37*
G36*
X57398228Y-49981703D02*
G01*
X57553100Y-50045853D01*
X57692481Y-50138985D01*
X57811015Y-50257519D01*
X57904147Y-50396900D01*
X57968297Y-50551772D01*
X58001000Y-50716184D01*
X58001000Y-50883816D01*
X57968297Y-51048228D01*
X57904147Y-51203100D01*
X57811015Y-51342481D01*
X57692481Y-51461015D01*
X57553100Y-51554147D01*
X57398228Y-51618297D01*
X57233816Y-51651000D01*
X57066184Y-51651000D01*
X56901772Y-51618297D01*
X56746900Y-51554147D01*
X56607519Y-51461015D01*
X56488985Y-51342481D01*
X56395853Y-51203100D01*
X56331703Y-51048228D01*
X56299000Y-50883816D01*
X56299000Y-50716184D01*
X56331703Y-50551772D01*
X56395853Y-50396900D01*
X56488985Y-50257519D01*
X56607519Y-50138985D01*
X56746900Y-50045853D01*
X56901772Y-49981703D01*
X57066184Y-49949000D01*
X57233816Y-49949000D01*
X57398228Y-49981703D01*
G37*
G36*
X59938228Y-49981703D02*
G01*
X60093100Y-50045853D01*
X60232481Y-50138985D01*
X60351015Y-50257519D01*
X60444147Y-50396900D01*
X60508297Y-50551772D01*
X60541000Y-50716184D01*
X60541000Y-50883816D01*
X60508297Y-51048228D01*
X60444147Y-51203100D01*
X60351015Y-51342481D01*
X60232481Y-51461015D01*
X60093100Y-51554147D01*
X59938228Y-51618297D01*
X59773816Y-51651000D01*
X59606184Y-51651000D01*
X59441772Y-51618297D01*
X59286900Y-51554147D01*
X59147519Y-51461015D01*
X59028985Y-51342481D01*
X58935853Y-51203100D01*
X58871703Y-51048228D01*
X58839000Y-50883816D01*
X58839000Y-50716184D01*
X58871703Y-50551772D01*
X58935853Y-50396900D01*
X59028985Y-50257519D01*
X59147519Y-50138985D01*
X59286900Y-50045853D01*
X59441772Y-49981703D01*
X59606184Y-49949000D01*
X59773816Y-49949000D01*
X59938228Y-49981703D01*
G37*
G36*
X62478228Y-49981703D02*
G01*
X62633100Y-50045853D01*
X62772481Y-50138985D01*
X62891015Y-50257519D01*
X62984147Y-50396900D01*
X63048297Y-50551772D01*
X63081000Y-50716184D01*
X63081000Y-50883816D01*
X63048297Y-51048228D01*
X62984147Y-51203100D01*
X62891015Y-51342481D01*
X62772481Y-51461015D01*
X62633100Y-51554147D01*
X62478228Y-51618297D01*
X62313816Y-51651000D01*
X62146184Y-51651000D01*
X61981772Y-51618297D01*
X61826900Y-51554147D01*
X61687519Y-51461015D01*
X61568985Y-51342481D01*
X61475853Y-51203100D01*
X61411703Y-51048228D01*
X61379000Y-50883816D01*
X61379000Y-50716184D01*
X61411703Y-50551772D01*
X61475853Y-50396900D01*
X61568985Y-50257519D01*
X61687519Y-50138985D01*
X61826900Y-50045853D01*
X61981772Y-49981703D01*
X62146184Y-49949000D01*
X62313816Y-49949000D01*
X62478228Y-49981703D01*
G37*
G36*
X65018228Y-49981703D02*
G01*
X65173100Y-50045853D01*
X65312481Y-50138985D01*
X65431015Y-50257519D01*
X65524147Y-50396900D01*
X65588297Y-50551772D01*
X65621000Y-50716184D01*
X65621000Y-50883816D01*
X65588297Y-51048228D01*
X65524147Y-51203100D01*
X65431015Y-51342481D01*
X65312481Y-51461015D01*
X65173100Y-51554147D01*
X65018228Y-51618297D01*
X64853816Y-51651000D01*
X64686184Y-51651000D01*
X64521772Y-51618297D01*
X64366900Y-51554147D01*
X64227519Y-51461015D01*
X64108985Y-51342481D01*
X64015853Y-51203100D01*
X63951703Y-51048228D01*
X63919000Y-50883816D01*
X63919000Y-50716184D01*
X63951703Y-50551772D01*
X64015853Y-50396900D01*
X64108985Y-50257519D01*
X64227519Y-50138985D01*
X64366900Y-50045853D01*
X64521772Y-49981703D01*
X64686184Y-49949000D01*
X64853816Y-49949000D01*
X65018228Y-49981703D01*
G37*
G36*
X67558228Y-49981703D02*
G01*
X67713100Y-50045853D01*
X67852481Y-50138985D01*
X67971015Y-50257519D01*
X68064147Y-50396900D01*
X68128297Y-50551772D01*
X68161000Y-50716184D01*
X68161000Y-50883816D01*
X68128297Y-51048228D01*
X68064147Y-51203100D01*
X67971015Y-51342481D01*
X67852481Y-51461015D01*
X67713100Y-51554147D01*
X67558228Y-51618297D01*
X67393816Y-51651000D01*
X67226184Y-51651000D01*
X67061772Y-51618297D01*
X66906900Y-51554147D01*
X66767519Y-51461015D01*
X66648985Y-51342481D01*
X66555853Y-51203100D01*
X66491703Y-51048228D01*
X66459000Y-50883816D01*
X66459000Y-50716184D01*
X66491703Y-50551772D01*
X66555853Y-50396900D01*
X66648985Y-50257519D01*
X66767519Y-50138985D01*
X66906900Y-50045853D01*
X67061772Y-49981703D01*
X67226184Y-49949000D01*
X67393816Y-49949000D01*
X67558228Y-49981703D01*
G37*
G36*
X70098228Y-49981703D02*
G01*
X70253100Y-50045853D01*
X70392481Y-50138985D01*
X70511015Y-50257519D01*
X70604147Y-50396900D01*
X70668297Y-50551772D01*
X70701000Y-50716184D01*
X70701000Y-50883816D01*
X70668297Y-51048228D01*
X70604147Y-51203100D01*
X70511015Y-51342481D01*
X70392481Y-51461015D01*
X70253100Y-51554147D01*
X70098228Y-51618297D01*
X69933816Y-51651000D01*
X69766184Y-51651000D01*
X69601772Y-51618297D01*
X69446900Y-51554147D01*
X69307519Y-51461015D01*
X69188985Y-51342481D01*
X69095853Y-51203100D01*
X69031703Y-51048228D01*
X68999000Y-50883816D01*
X68999000Y-50716184D01*
X69031703Y-50551772D01*
X69095853Y-50396900D01*
X69188985Y-50257519D01*
X69307519Y-50138985D01*
X69446900Y-50045853D01*
X69601772Y-49981703D01*
X69766184Y-49949000D01*
X69933816Y-49949000D01*
X70098228Y-49981703D01*
G37*
G36*
X72638228Y-49981703D02*
G01*
X72793100Y-50045853D01*
X72932481Y-50138985D01*
X73051015Y-50257519D01*
X73144147Y-50396900D01*
X73208297Y-50551772D01*
X73241000Y-50716184D01*
X73241000Y-50883816D01*
X73208297Y-51048228D01*
X73144147Y-51203100D01*
X73051015Y-51342481D01*
X72932481Y-51461015D01*
X72793100Y-51554147D01*
X72638228Y-51618297D01*
X72473816Y-51651000D01*
X72306184Y-51651000D01*
X72141772Y-51618297D01*
X71986900Y-51554147D01*
X71847519Y-51461015D01*
X71728985Y-51342481D01*
X71635853Y-51203100D01*
X71571703Y-51048228D01*
X71539000Y-50883816D01*
X71539000Y-50716184D01*
X71571703Y-50551772D01*
X71635853Y-50396900D01*
X71728985Y-50257519D01*
X71847519Y-50138985D01*
X71986900Y-50045853D01*
X72141772Y-49981703D01*
X72306184Y-49949000D01*
X72473816Y-49949000D01*
X72638228Y-49981703D01*
G37*
G36*
X77718228Y-49981703D02*
G01*
X77873100Y-50045853D01*
X78012481Y-50138985D01*
X78131015Y-50257519D01*
X78224147Y-50396900D01*
X78288297Y-50551772D01*
X78321000Y-50716184D01*
X78321000Y-50883816D01*
X78288297Y-51048228D01*
X78224147Y-51203100D01*
X78131015Y-51342481D01*
X78012481Y-51461015D01*
X77873100Y-51554147D01*
X77718228Y-51618297D01*
X77553816Y-51651000D01*
X77386184Y-51651000D01*
X77221772Y-51618297D01*
X77066900Y-51554147D01*
X76927519Y-51461015D01*
X76808985Y-51342481D01*
X76715853Y-51203100D01*
X76651703Y-51048228D01*
X76619000Y-50883816D01*
X76619000Y-50716184D01*
X76651703Y-50551772D01*
X76715853Y-50396900D01*
X76808985Y-50257519D01*
X76927519Y-50138985D01*
X77066900Y-50045853D01*
X77221772Y-49981703D01*
X77386184Y-49949000D01*
X77553816Y-49949000D01*
X77718228Y-49981703D01*
G37*
G36*
X55461000Y-51651000D02*
G01*
X53759000Y-51651000D01*
X53759000Y-49949000D01*
X55461000Y-49949000D01*
X55461000Y-51651000D01*
G37*
G36*
X87878228Y-49981703D02*
G01*
X88033100Y-50045853D01*
X88172481Y-50138985D01*
X88291015Y-50257519D01*
X88384147Y-50396900D01*
X88448297Y-50551772D01*
X88481000Y-50716184D01*
X88481000Y-50883816D01*
X88448297Y-51048228D01*
X88384147Y-51203100D01*
X88291015Y-51342481D01*
X88172481Y-51461015D01*
X88033100Y-51554147D01*
X87878228Y-51618297D01*
X87713816Y-51651000D01*
X87546184Y-51651000D01*
X87381772Y-51618297D01*
X87226900Y-51554147D01*
X87087519Y-51461015D01*
X86968985Y-51342481D01*
X86875853Y-51203100D01*
X86811703Y-51048228D01*
X86779000Y-50883816D01*
X86779000Y-50716184D01*
X86811703Y-50551772D01*
X86875853Y-50396900D01*
X86968985Y-50257519D01*
X87087519Y-50138985D01*
X87226900Y-50045853D01*
X87381772Y-49981703D01*
X87546184Y-49949000D01*
X87713816Y-49949000D01*
X87878228Y-49981703D01*
G37*
G36*
X80258228Y-49981703D02*
G01*
X80413100Y-50045853D01*
X80552481Y-50138985D01*
X80671015Y-50257519D01*
X80764147Y-50396900D01*
X80828297Y-50551772D01*
X80861000Y-50716184D01*
X80861000Y-50883816D01*
X80828297Y-51048228D01*
X80764147Y-51203100D01*
X80671015Y-51342481D01*
X80552481Y-51461015D01*
X80413100Y-51554147D01*
X80258228Y-51618297D01*
X80093816Y-51651000D01*
X79926184Y-51651000D01*
X79761772Y-51618297D01*
X79606900Y-51554147D01*
X79467519Y-51461015D01*
X79348985Y-51342481D01*
X79255853Y-51203100D01*
X79191703Y-51048228D01*
X79159000Y-50883816D01*
X79159000Y-50716184D01*
X79191703Y-50551772D01*
X79255853Y-50396900D01*
X79348985Y-50257519D01*
X79467519Y-50138985D01*
X79606900Y-50045853D01*
X79761772Y-49981703D01*
X79926184Y-49949000D01*
X80093816Y-49949000D01*
X80258228Y-49981703D01*
G37*
G36*
X82798228Y-49981703D02*
G01*
X82953100Y-50045853D01*
X83092481Y-50138985D01*
X83211015Y-50257519D01*
X83304147Y-50396900D01*
X83368297Y-50551772D01*
X83401000Y-50716184D01*
X83401000Y-50883816D01*
X83368297Y-51048228D01*
X83304147Y-51203100D01*
X83211015Y-51342481D01*
X83092481Y-51461015D01*
X82953100Y-51554147D01*
X82798228Y-51618297D01*
X82633816Y-51651000D01*
X82466184Y-51651000D01*
X82301772Y-51618297D01*
X82146900Y-51554147D01*
X82007519Y-51461015D01*
X81888985Y-51342481D01*
X81795853Y-51203100D01*
X81731703Y-51048228D01*
X81699000Y-50883816D01*
X81699000Y-50716184D01*
X81731703Y-50551772D01*
X81795853Y-50396900D01*
X81888985Y-50257519D01*
X82007519Y-50138985D01*
X82146900Y-50045853D01*
X82301772Y-49981703D01*
X82466184Y-49949000D01*
X82633816Y-49949000D01*
X82798228Y-49981703D01*
G37*
G36*
X85338228Y-49981703D02*
G01*
X85493100Y-50045853D01*
X85632481Y-50138985D01*
X85751015Y-50257519D01*
X85844147Y-50396900D01*
X85908297Y-50551772D01*
X85941000Y-50716184D01*
X85941000Y-50883816D01*
X85908297Y-51048228D01*
X85844147Y-51203100D01*
X85751015Y-51342481D01*
X85632481Y-51461015D01*
X85493100Y-51554147D01*
X85338228Y-51618297D01*
X85173816Y-51651000D01*
X85006184Y-51651000D01*
X84841772Y-51618297D01*
X84686900Y-51554147D01*
X84547519Y-51461015D01*
X84428985Y-51342481D01*
X84335853Y-51203100D01*
X84271703Y-51048228D01*
X84239000Y-50883816D01*
X84239000Y-50716184D01*
X84271703Y-50551772D01*
X84335853Y-50396900D01*
X84428985Y-50257519D01*
X84547519Y-50138985D01*
X84686900Y-50045853D01*
X84841772Y-49981703D01*
X85006184Y-49949000D01*
X85173816Y-49949000D01*
X85338228Y-49981703D01*
G37*
G36*
X75178228Y-49981703D02*
G01*
X75333100Y-50045853D01*
X75472481Y-50138985D01*
X75591015Y-50257519D01*
X75684147Y-50396900D01*
X75748297Y-50551772D01*
X75781000Y-50716184D01*
X75781000Y-50883816D01*
X75748297Y-51048228D01*
X75684147Y-51203100D01*
X75591015Y-51342481D01*
X75472481Y-51461015D01*
X75333100Y-51554147D01*
X75178228Y-51618297D01*
X75013816Y-51651000D01*
X74846184Y-51651000D01*
X74681772Y-51618297D01*
X74526900Y-51554147D01*
X74387519Y-51461015D01*
X74268985Y-51342481D01*
X74175853Y-51203100D01*
X74111703Y-51048228D01*
X74079000Y-50883816D01*
X74079000Y-50716184D01*
X74111703Y-50551772D01*
X74175853Y-50396900D01*
X74268985Y-50257519D01*
X74387519Y-50138985D01*
X74526900Y-50045853D01*
X74681772Y-49981703D01*
X74846184Y-49949000D01*
X75013816Y-49949000D01*
X75178228Y-49981703D01*
G37*
G36*
X45847617Y-44678420D02*
G01*
X45938403Y-44705960D01*
X45970335Y-44715646D01*
X46083424Y-44776094D01*
X46182554Y-44857447D01*
X46263906Y-44956575D01*
X46324354Y-45069664D01*
X46334040Y-45101596D01*
X46361580Y-45192382D01*
X46371000Y-45288027D01*
X46371000Y-46151973D01*
X46361580Y-46247618D01*
X46334040Y-46338404D01*
X46324354Y-46370336D01*
X46263906Y-46483425D01*
X46182554Y-46582554D01*
X46083425Y-46663906D01*
X45970336Y-46724354D01*
X45938404Y-46734040D01*
X45847618Y-46761580D01*
X45720000Y-46774149D01*
X45592383Y-46761580D01*
X45501597Y-46734040D01*
X45469665Y-46724354D01*
X45356576Y-46663906D01*
X45257447Y-46582554D01*
X45176095Y-46483425D01*
X45115647Y-46370336D01*
X45111282Y-46355946D01*
X45078420Y-46247618D01*
X45069000Y-46151973D01*
X45069000Y-45288028D01*
X45078420Y-45192383D01*
X45115645Y-45069669D01*
X45115646Y-45069665D01*
X45176094Y-44956576D01*
X45257447Y-44857446D01*
X45356575Y-44776094D01*
X45469664Y-44715646D01*
X45501596Y-44705960D01*
X45592382Y-44678420D01*
X45720000Y-44665851D01*
X45847617Y-44678420D01*
G37*
G36*
X33147617Y-44678420D02*
G01*
X33238403Y-44705960D01*
X33270335Y-44715646D01*
X33383424Y-44776094D01*
X33482554Y-44857447D01*
X33563906Y-44956575D01*
X33624354Y-45069664D01*
X33634040Y-45101596D01*
X33661580Y-45192382D01*
X33671000Y-45288027D01*
X33671000Y-46151973D01*
X33661580Y-46247618D01*
X33634040Y-46338404D01*
X33624354Y-46370336D01*
X33563906Y-46483425D01*
X33482554Y-46582554D01*
X33383425Y-46663906D01*
X33270336Y-46724354D01*
X33238404Y-46734040D01*
X33147618Y-46761580D01*
X33020000Y-46774149D01*
X32892383Y-46761580D01*
X32801597Y-46734040D01*
X32769665Y-46724354D01*
X32656576Y-46663906D01*
X32557447Y-46582554D01*
X32476095Y-46483425D01*
X32415647Y-46370336D01*
X32411282Y-46355946D01*
X32378420Y-46247618D01*
X32369000Y-46151973D01*
X32369000Y-45288028D01*
X32378420Y-45192383D01*
X32415645Y-45069669D01*
X32415646Y-45069665D01*
X32476094Y-44956576D01*
X32557447Y-44857446D01*
X32656575Y-44776094D01*
X32769664Y-44715646D01*
X32801596Y-44705960D01*
X32892382Y-44678420D01*
X33020000Y-44665851D01*
X33147617Y-44678420D01*
G37*
G36*
X43307617Y-44678420D02*
G01*
X43398403Y-44705960D01*
X43430335Y-44715646D01*
X43543424Y-44776094D01*
X43642554Y-44857447D01*
X43723906Y-44956575D01*
X43784354Y-45069664D01*
X43794040Y-45101596D01*
X43821580Y-45192382D01*
X43831000Y-45288027D01*
X43831000Y-46151973D01*
X43821580Y-46247618D01*
X43794040Y-46338404D01*
X43784354Y-46370336D01*
X43723906Y-46483425D01*
X43642554Y-46582554D01*
X43543425Y-46663906D01*
X43430336Y-46724354D01*
X43398404Y-46734040D01*
X43307618Y-46761580D01*
X43180000Y-46774149D01*
X43052383Y-46761580D01*
X42961597Y-46734040D01*
X42929665Y-46724354D01*
X42816576Y-46663906D01*
X42717447Y-46582554D01*
X42636095Y-46483425D01*
X42575647Y-46370336D01*
X42571282Y-46355946D01*
X42538420Y-46247618D01*
X42529000Y-46151973D01*
X42529000Y-45288028D01*
X42538420Y-45192383D01*
X42575645Y-45069669D01*
X42575646Y-45069665D01*
X42636094Y-44956576D01*
X42717447Y-44857446D01*
X42816575Y-44776094D01*
X42929664Y-44715646D01*
X42961596Y-44705960D01*
X43052382Y-44678420D01*
X43180000Y-44665851D01*
X43307617Y-44678420D01*
G37*
G36*
X22987617Y-44678420D02*
G01*
X23078403Y-44705960D01*
X23110335Y-44715646D01*
X23223424Y-44776094D01*
X23322554Y-44857447D01*
X23403906Y-44956575D01*
X23464354Y-45069664D01*
X23474040Y-45101596D01*
X23501580Y-45192382D01*
X23511000Y-45288027D01*
X23511000Y-46151973D01*
X23501580Y-46247618D01*
X23474040Y-46338404D01*
X23464354Y-46370336D01*
X23403906Y-46483425D01*
X23322554Y-46582554D01*
X23223425Y-46663906D01*
X23110336Y-46724354D01*
X23078404Y-46734040D01*
X22987618Y-46761580D01*
X22860000Y-46774149D01*
X22732383Y-46761580D01*
X22641597Y-46734040D01*
X22609665Y-46724354D01*
X22496576Y-46663906D01*
X22397447Y-46582554D01*
X22316095Y-46483425D01*
X22255647Y-46370336D01*
X22251282Y-46355946D01*
X22218420Y-46247618D01*
X22209000Y-46151973D01*
X22209000Y-45288028D01*
X22218420Y-45192383D01*
X22255645Y-45069669D01*
X22255646Y-45069665D01*
X22316094Y-44956576D01*
X22397447Y-44857446D01*
X22496575Y-44776094D01*
X22609664Y-44715646D01*
X22641596Y-44705960D01*
X22732382Y-44678420D01*
X22860000Y-44665851D01*
X22987617Y-44678420D01*
G37*
G36*
X20447617Y-44678420D02*
G01*
X20538403Y-44705960D01*
X20570335Y-44715646D01*
X20683424Y-44776094D01*
X20782554Y-44857447D01*
X20863906Y-44956575D01*
X20924354Y-45069664D01*
X20934040Y-45101596D01*
X20961580Y-45192382D01*
X20971000Y-45288027D01*
X20971000Y-46151973D01*
X20961580Y-46247618D01*
X20934040Y-46338404D01*
X20924354Y-46370336D01*
X20863906Y-46483425D01*
X20782554Y-46582554D01*
X20683425Y-46663906D01*
X20570336Y-46724354D01*
X20538404Y-46734040D01*
X20447618Y-46761580D01*
X20320000Y-46774149D01*
X20192383Y-46761580D01*
X20101597Y-46734040D01*
X20069665Y-46724354D01*
X19956576Y-46663906D01*
X19857447Y-46582554D01*
X19776095Y-46483425D01*
X19715647Y-46370336D01*
X19711282Y-46355946D01*
X19678420Y-46247618D01*
X19669000Y-46151973D01*
X19669000Y-45288028D01*
X19678420Y-45192383D01*
X19715645Y-45069669D01*
X19715646Y-45069665D01*
X19776094Y-44956576D01*
X19857447Y-44857446D01*
X19956575Y-44776094D01*
X20069664Y-44715646D01*
X20101596Y-44705960D01*
X20192382Y-44678420D01*
X20320000Y-44665851D01*
X20447617Y-44678420D01*
G37*
G36*
X38227617Y-44678420D02*
G01*
X38318403Y-44705960D01*
X38350335Y-44715646D01*
X38463424Y-44776094D01*
X38562554Y-44857447D01*
X38643906Y-44956575D01*
X38704354Y-45069664D01*
X38714040Y-45101596D01*
X38741580Y-45192382D01*
X38751000Y-45288027D01*
X38751000Y-46151973D01*
X38741580Y-46247618D01*
X38714040Y-46338404D01*
X38704354Y-46370336D01*
X38643906Y-46483425D01*
X38562554Y-46582554D01*
X38463425Y-46663906D01*
X38350336Y-46724354D01*
X38318404Y-46734040D01*
X38227618Y-46761580D01*
X38100000Y-46774149D01*
X37972383Y-46761580D01*
X37881597Y-46734040D01*
X37849665Y-46724354D01*
X37736576Y-46663906D01*
X37637447Y-46582554D01*
X37556095Y-46483425D01*
X37495647Y-46370336D01*
X37491282Y-46355946D01*
X37458420Y-46247618D01*
X37449000Y-46151973D01*
X37449000Y-45288028D01*
X37458420Y-45192383D01*
X37495645Y-45069669D01*
X37495646Y-45069665D01*
X37556094Y-44956576D01*
X37637447Y-44857446D01*
X37736575Y-44776094D01*
X37849664Y-44715646D01*
X37881596Y-44705960D01*
X37972382Y-44678420D01*
X38100000Y-44665851D01*
X38227617Y-44678420D01*
G37*
G36*
X17907617Y-44678420D02*
G01*
X17998403Y-44705960D01*
X18030335Y-44715646D01*
X18143424Y-44776094D01*
X18242554Y-44857447D01*
X18323906Y-44956575D01*
X18384354Y-45069664D01*
X18394040Y-45101596D01*
X18421580Y-45192382D01*
X18431000Y-45288027D01*
X18431000Y-46151973D01*
X18421580Y-46247618D01*
X18394040Y-46338404D01*
X18384354Y-46370336D01*
X18323906Y-46483425D01*
X18242554Y-46582554D01*
X18143425Y-46663906D01*
X18030336Y-46724354D01*
X17998404Y-46734040D01*
X17907618Y-46761580D01*
X17780000Y-46774149D01*
X17652383Y-46761580D01*
X17561597Y-46734040D01*
X17529665Y-46724354D01*
X17416576Y-46663906D01*
X17317447Y-46582554D01*
X17236095Y-46483425D01*
X17175647Y-46370336D01*
X17171282Y-46355946D01*
X17138420Y-46247618D01*
X17129000Y-46151973D01*
X17129000Y-45288028D01*
X17138420Y-45192383D01*
X17175645Y-45069669D01*
X17175646Y-45069665D01*
X17236094Y-44956576D01*
X17317447Y-44857446D01*
X17416575Y-44776094D01*
X17529664Y-44715646D01*
X17561596Y-44705960D01*
X17652382Y-44678420D01*
X17780000Y-44665851D01*
X17907617Y-44678420D01*
G37*
G36*
X35687617Y-44678420D02*
G01*
X35778403Y-44705960D01*
X35810335Y-44715646D01*
X35923424Y-44776094D01*
X36022554Y-44857447D01*
X36103906Y-44956575D01*
X36164354Y-45069664D01*
X36174040Y-45101596D01*
X36201580Y-45192382D01*
X36211000Y-45288027D01*
X36211000Y-46151973D01*
X36201580Y-46247618D01*
X36174040Y-46338404D01*
X36164354Y-46370336D01*
X36103906Y-46483425D01*
X36022554Y-46582554D01*
X35923425Y-46663906D01*
X35810336Y-46724354D01*
X35778404Y-46734040D01*
X35687618Y-46761580D01*
X35560000Y-46774149D01*
X35432383Y-46761580D01*
X35341597Y-46734040D01*
X35309665Y-46724354D01*
X35196576Y-46663906D01*
X35097447Y-46582554D01*
X35016095Y-46483425D01*
X34955647Y-46370336D01*
X34951282Y-46355946D01*
X34918420Y-46247618D01*
X34909000Y-46151973D01*
X34909000Y-45288028D01*
X34918420Y-45192383D01*
X34955645Y-45069669D01*
X34955646Y-45069665D01*
X35016094Y-44956576D01*
X35097447Y-44857446D01*
X35196575Y-44776094D01*
X35309664Y-44715646D01*
X35341596Y-44705960D01*
X35432382Y-44678420D01*
X35560000Y-44665851D01*
X35687617Y-44678420D01*
G37*
G36*
X40767617Y-44678420D02*
G01*
X40858403Y-44705960D01*
X40890335Y-44715646D01*
X41003424Y-44776094D01*
X41102554Y-44857447D01*
X41183906Y-44956575D01*
X41244354Y-45069664D01*
X41254040Y-45101596D01*
X41281580Y-45192382D01*
X41291000Y-45288027D01*
X41291000Y-46151973D01*
X41281580Y-46247618D01*
X41254040Y-46338404D01*
X41244354Y-46370336D01*
X41183906Y-46483425D01*
X41102554Y-46582554D01*
X41003425Y-46663906D01*
X40890336Y-46724354D01*
X40858404Y-46734040D01*
X40767618Y-46761580D01*
X40640000Y-46774149D01*
X40512383Y-46761580D01*
X40421597Y-46734040D01*
X40389665Y-46724354D01*
X40276576Y-46663906D01*
X40177447Y-46582554D01*
X40096095Y-46483425D01*
X40035647Y-46370336D01*
X40031282Y-46355946D01*
X39998420Y-46247618D01*
X39989000Y-46151973D01*
X39989000Y-45288028D01*
X39998420Y-45192383D01*
X40035645Y-45069669D01*
X40035646Y-45069665D01*
X40096094Y-44956576D01*
X40177447Y-44857446D01*
X40276575Y-44776094D01*
X40389664Y-44715646D01*
X40421596Y-44705960D01*
X40512382Y-44678420D01*
X40640000Y-44665851D01*
X40767617Y-44678420D01*
G37*
G36*
X89027617Y-44678420D02*
G01*
X89118403Y-44705960D01*
X89150335Y-44715646D01*
X89263424Y-44776094D01*
X89362554Y-44857447D01*
X89443906Y-44956575D01*
X89504354Y-45069664D01*
X89514040Y-45101596D01*
X89541580Y-45192382D01*
X89551000Y-45288027D01*
X89551000Y-46151973D01*
X89541580Y-46247618D01*
X89514040Y-46338404D01*
X89504354Y-46370336D01*
X89443906Y-46483425D01*
X89362554Y-46582554D01*
X89263425Y-46663906D01*
X89150336Y-46724354D01*
X89118404Y-46734040D01*
X89027618Y-46761580D01*
X88900000Y-46774149D01*
X88772383Y-46761580D01*
X88681597Y-46734040D01*
X88649665Y-46724354D01*
X88536576Y-46663906D01*
X88437447Y-46582554D01*
X88356095Y-46483425D01*
X88295647Y-46370336D01*
X88291282Y-46355946D01*
X88258420Y-46247618D01*
X88249000Y-46151973D01*
X88249000Y-45288028D01*
X88258420Y-45192383D01*
X88295645Y-45069669D01*
X88295646Y-45069665D01*
X88356094Y-44956576D01*
X88437447Y-44857446D01*
X88536575Y-44776094D01*
X88649664Y-44715646D01*
X88681596Y-44705960D01*
X88772382Y-44678420D01*
X88900000Y-44665851D01*
X89027617Y-44678420D01*
G37*
G36*
X71247617Y-44678420D02*
G01*
X71338403Y-44705960D01*
X71370335Y-44715646D01*
X71483424Y-44776094D01*
X71582554Y-44857447D01*
X71663906Y-44956575D01*
X71724354Y-45069664D01*
X71734040Y-45101596D01*
X71761580Y-45192382D01*
X71771000Y-45288027D01*
X71771000Y-46151973D01*
X71761580Y-46247618D01*
X71734040Y-46338404D01*
X71724354Y-46370336D01*
X71663906Y-46483425D01*
X71582554Y-46582554D01*
X71483425Y-46663906D01*
X71370336Y-46724354D01*
X71338404Y-46734040D01*
X71247618Y-46761580D01*
X71120000Y-46774149D01*
X70992383Y-46761580D01*
X70901597Y-46734040D01*
X70869665Y-46724354D01*
X70756576Y-46663906D01*
X70657447Y-46582554D01*
X70576095Y-46483425D01*
X70515647Y-46370336D01*
X70511282Y-46355946D01*
X70478420Y-46247618D01*
X70469000Y-46151973D01*
X70469000Y-45288028D01*
X70478420Y-45192383D01*
X70515645Y-45069669D01*
X70515646Y-45069665D01*
X70576094Y-44956576D01*
X70657447Y-44857446D01*
X70756575Y-44776094D01*
X70869664Y-44715646D01*
X70901596Y-44705960D01*
X70992382Y-44678420D01*
X71120000Y-44665851D01*
X71247617Y-44678420D01*
G37*
G36*
X68707617Y-44678420D02*
G01*
X68798403Y-44705960D01*
X68830335Y-44715646D01*
X68943424Y-44776094D01*
X69042554Y-44857447D01*
X69123906Y-44956575D01*
X69184354Y-45069664D01*
X69194040Y-45101596D01*
X69221580Y-45192382D01*
X69231000Y-45288027D01*
X69231000Y-46151973D01*
X69221580Y-46247618D01*
X69194040Y-46338404D01*
X69184354Y-46370336D01*
X69123906Y-46483425D01*
X69042554Y-46582554D01*
X68943425Y-46663906D01*
X68830336Y-46724354D01*
X68798404Y-46734040D01*
X68707618Y-46761580D01*
X68580000Y-46774149D01*
X68452383Y-46761580D01*
X68361597Y-46734040D01*
X68329665Y-46724354D01*
X68216576Y-46663906D01*
X68117447Y-46582554D01*
X68036095Y-46483425D01*
X67975647Y-46370336D01*
X67971282Y-46355946D01*
X67938420Y-46247618D01*
X67929000Y-46151973D01*
X67929000Y-45288028D01*
X67938420Y-45192383D01*
X67975645Y-45069669D01*
X67975646Y-45069665D01*
X68036094Y-44956576D01*
X68117447Y-44857446D01*
X68216575Y-44776094D01*
X68329664Y-44715646D01*
X68361596Y-44705960D01*
X68452382Y-44678420D01*
X68580000Y-44665851D01*
X68707617Y-44678420D01*
G37*
G36*
X66167617Y-44678420D02*
G01*
X66258403Y-44705960D01*
X66290335Y-44715646D01*
X66403424Y-44776094D01*
X66502554Y-44857447D01*
X66583906Y-44956575D01*
X66644354Y-45069664D01*
X66654040Y-45101596D01*
X66681580Y-45192382D01*
X66691000Y-45288027D01*
X66691000Y-46151973D01*
X66681580Y-46247618D01*
X66654040Y-46338404D01*
X66644354Y-46370336D01*
X66583906Y-46483425D01*
X66502554Y-46582554D01*
X66403425Y-46663906D01*
X66290336Y-46724354D01*
X66258404Y-46734040D01*
X66167618Y-46761580D01*
X66040000Y-46774149D01*
X65912383Y-46761580D01*
X65821597Y-46734040D01*
X65789665Y-46724354D01*
X65676576Y-46663906D01*
X65577447Y-46582554D01*
X65496095Y-46483425D01*
X65435647Y-46370336D01*
X65431282Y-46355946D01*
X65398420Y-46247618D01*
X65389000Y-46151973D01*
X65389000Y-45288028D01*
X65398420Y-45192383D01*
X65435645Y-45069669D01*
X65435646Y-45069665D01*
X65496094Y-44956576D01*
X65577447Y-44857446D01*
X65676575Y-44776094D01*
X65789664Y-44715646D01*
X65821596Y-44705960D01*
X65912382Y-44678420D01*
X66040000Y-44665851D01*
X66167617Y-44678420D01*
G37*
G36*
X15367617Y-44678420D02*
G01*
X15458403Y-44705960D01*
X15490335Y-44715646D01*
X15603424Y-44776094D01*
X15702554Y-44857447D01*
X15783906Y-44956575D01*
X15844354Y-45069664D01*
X15854040Y-45101596D01*
X15881580Y-45192382D01*
X15891000Y-45288027D01*
X15891000Y-46151973D01*
X15881580Y-46247618D01*
X15854040Y-46338404D01*
X15844354Y-46370336D01*
X15783906Y-46483425D01*
X15702554Y-46582554D01*
X15603425Y-46663906D01*
X15490336Y-46724354D01*
X15458404Y-46734040D01*
X15367618Y-46761580D01*
X15240000Y-46774149D01*
X15112383Y-46761580D01*
X15021597Y-46734040D01*
X14989665Y-46724354D01*
X14876576Y-46663906D01*
X14777447Y-46582554D01*
X14696095Y-46483425D01*
X14635647Y-46370336D01*
X14631282Y-46355946D01*
X14598420Y-46247618D01*
X14589000Y-46151973D01*
X14589000Y-45288028D01*
X14598420Y-45192383D01*
X14635645Y-45069669D01*
X14635646Y-45069665D01*
X14696094Y-44956576D01*
X14777447Y-44857446D01*
X14876575Y-44776094D01*
X14989664Y-44715646D01*
X15021596Y-44705960D01*
X15112382Y-44678420D01*
X15240000Y-44665851D01*
X15367617Y-44678420D01*
G37*
G36*
X78867617Y-44678420D02*
G01*
X78958403Y-44705960D01*
X78990335Y-44715646D01*
X79103424Y-44776094D01*
X79202554Y-44857447D01*
X79283906Y-44956575D01*
X79344354Y-45069664D01*
X79354040Y-45101596D01*
X79381580Y-45192382D01*
X79391000Y-45288027D01*
X79391000Y-46151973D01*
X79381580Y-46247618D01*
X79354040Y-46338404D01*
X79344354Y-46370336D01*
X79283906Y-46483425D01*
X79202554Y-46582554D01*
X79103425Y-46663906D01*
X78990336Y-46724354D01*
X78958404Y-46734040D01*
X78867618Y-46761580D01*
X78740000Y-46774149D01*
X78612383Y-46761580D01*
X78521597Y-46734040D01*
X78489665Y-46724354D01*
X78376576Y-46663906D01*
X78277447Y-46582554D01*
X78196095Y-46483425D01*
X78135647Y-46370336D01*
X78131282Y-46355946D01*
X78098420Y-46247618D01*
X78089000Y-46151973D01*
X78089000Y-45288028D01*
X78098420Y-45192383D01*
X78135645Y-45069669D01*
X78135646Y-45069665D01*
X78196094Y-44956576D01*
X78277447Y-44857446D01*
X78376575Y-44776094D01*
X78489664Y-44715646D01*
X78521596Y-44705960D01*
X78612382Y-44678420D01*
X78740000Y-44665851D01*
X78867617Y-44678420D01*
G37*
G36*
X81407617Y-44678420D02*
G01*
X81498403Y-44705960D01*
X81530335Y-44715646D01*
X81643424Y-44776094D01*
X81742554Y-44857447D01*
X81823906Y-44956575D01*
X81884354Y-45069664D01*
X81894040Y-45101596D01*
X81921580Y-45192382D01*
X81931000Y-45288027D01*
X81931000Y-46151973D01*
X81921580Y-46247618D01*
X81894040Y-46338404D01*
X81884354Y-46370336D01*
X81823906Y-46483425D01*
X81742554Y-46582554D01*
X81643425Y-46663906D01*
X81530336Y-46724354D01*
X81498404Y-46734040D01*
X81407618Y-46761580D01*
X81280000Y-46774149D01*
X81152383Y-46761580D01*
X81061597Y-46734040D01*
X81029665Y-46724354D01*
X80916576Y-46663906D01*
X80817447Y-46582554D01*
X80736095Y-46483425D01*
X80675647Y-46370336D01*
X80671282Y-46355946D01*
X80638420Y-46247618D01*
X80629000Y-46151973D01*
X80629000Y-45288028D01*
X80638420Y-45192383D01*
X80675645Y-45069669D01*
X80675646Y-45069665D01*
X80736094Y-44956576D01*
X80817447Y-44857446D01*
X80916575Y-44776094D01*
X81029664Y-44715646D01*
X81061596Y-44705960D01*
X81152382Y-44678420D01*
X81280000Y-44665851D01*
X81407617Y-44678420D01*
G37*
G36*
X83947617Y-44678420D02*
G01*
X84038403Y-44705960D01*
X84070335Y-44715646D01*
X84183424Y-44776094D01*
X84282554Y-44857447D01*
X84363906Y-44956575D01*
X84424354Y-45069664D01*
X84434040Y-45101596D01*
X84461580Y-45192382D01*
X84471000Y-45288027D01*
X84471000Y-46151973D01*
X84461580Y-46247618D01*
X84434040Y-46338404D01*
X84424354Y-46370336D01*
X84363906Y-46483425D01*
X84282554Y-46582554D01*
X84183425Y-46663906D01*
X84070336Y-46724354D01*
X84038404Y-46734040D01*
X83947618Y-46761580D01*
X83820000Y-46774149D01*
X83692383Y-46761580D01*
X83601597Y-46734040D01*
X83569665Y-46724354D01*
X83456576Y-46663906D01*
X83357447Y-46582554D01*
X83276095Y-46483425D01*
X83215647Y-46370336D01*
X83211282Y-46355946D01*
X83178420Y-46247618D01*
X83169000Y-46151973D01*
X83169000Y-45288028D01*
X83178420Y-45192383D01*
X83215645Y-45069669D01*
X83215646Y-45069665D01*
X83276094Y-44956576D01*
X83357447Y-44857446D01*
X83456575Y-44776094D01*
X83569664Y-44715646D01*
X83601596Y-44705960D01*
X83692382Y-44678420D01*
X83820000Y-44665851D01*
X83947617Y-44678420D01*
G37*
G36*
X86487617Y-44678420D02*
G01*
X86578403Y-44705960D01*
X86610335Y-44715646D01*
X86723424Y-44776094D01*
X86822554Y-44857447D01*
X86903906Y-44956575D01*
X86964354Y-45069664D01*
X86974040Y-45101596D01*
X87001580Y-45192382D01*
X87011000Y-45288027D01*
X87011000Y-46151973D01*
X87001580Y-46247618D01*
X86974040Y-46338404D01*
X86964354Y-46370336D01*
X86903906Y-46483425D01*
X86822554Y-46582554D01*
X86723425Y-46663906D01*
X86610336Y-46724354D01*
X86578404Y-46734040D01*
X86487618Y-46761580D01*
X86360000Y-46774149D01*
X86232383Y-46761580D01*
X86141597Y-46734040D01*
X86109665Y-46724354D01*
X85996576Y-46663906D01*
X85897447Y-46582554D01*
X85816095Y-46483425D01*
X85755647Y-46370336D01*
X85751282Y-46355946D01*
X85718420Y-46247618D01*
X85709000Y-46151973D01*
X85709000Y-45288028D01*
X85718420Y-45192383D01*
X85755645Y-45069669D01*
X85755646Y-45069665D01*
X85816094Y-44956576D01*
X85897447Y-44857446D01*
X85996575Y-44776094D01*
X86109664Y-44715646D01*
X86141596Y-44705960D01*
X86232382Y-44678420D01*
X86360000Y-44665851D01*
X86487617Y-44678420D01*
G37*
G36*
X73787617Y-44678420D02*
G01*
X73878403Y-44705960D01*
X73910335Y-44715646D01*
X74023424Y-44776094D01*
X74122554Y-44857447D01*
X74203906Y-44956575D01*
X74264354Y-45069664D01*
X74274040Y-45101596D01*
X74301580Y-45192382D01*
X74311000Y-45288027D01*
X74311000Y-46151973D01*
X74301580Y-46247618D01*
X74274040Y-46338404D01*
X74264354Y-46370336D01*
X74203906Y-46483425D01*
X74122554Y-46582554D01*
X74023425Y-46663906D01*
X73910336Y-46724354D01*
X73878404Y-46734040D01*
X73787618Y-46761580D01*
X73660000Y-46774149D01*
X73532383Y-46761580D01*
X73441597Y-46734040D01*
X73409665Y-46724354D01*
X73296576Y-46663906D01*
X73197447Y-46582554D01*
X73116095Y-46483425D01*
X73055647Y-46370336D01*
X73051282Y-46355946D01*
X73018420Y-46247618D01*
X73009000Y-46151973D01*
X73009000Y-45288028D01*
X73018420Y-45192383D01*
X73055645Y-45069669D01*
X73055646Y-45069665D01*
X73116094Y-44956576D01*
X73197447Y-44857446D01*
X73296575Y-44776094D01*
X73409664Y-44715646D01*
X73441596Y-44705960D01*
X73532382Y-44678420D01*
X73660000Y-44665851D01*
X73787617Y-44678420D01*
G37*
G36*
X122047617Y-44678420D02*
G01*
X122138403Y-44705960D01*
X122170335Y-44715646D01*
X122283424Y-44776094D01*
X122382554Y-44857447D01*
X122463906Y-44956575D01*
X122524354Y-45069664D01*
X122534040Y-45101596D01*
X122561580Y-45192382D01*
X122571000Y-45288027D01*
X122571000Y-46151973D01*
X122561580Y-46247618D01*
X122534040Y-46338404D01*
X122524354Y-46370336D01*
X122463906Y-46483425D01*
X122382554Y-46582554D01*
X122283425Y-46663906D01*
X122170336Y-46724354D01*
X122138404Y-46734040D01*
X122047618Y-46761580D01*
X121920000Y-46774149D01*
X121792383Y-46761580D01*
X121701597Y-46734040D01*
X121669665Y-46724354D01*
X121556576Y-46663906D01*
X121457447Y-46582554D01*
X121376095Y-46483425D01*
X121315647Y-46370336D01*
X121311282Y-46355946D01*
X121278420Y-46247618D01*
X121269000Y-46151973D01*
X121269000Y-45288028D01*
X121278420Y-45192383D01*
X121315645Y-45069669D01*
X121315646Y-45069665D01*
X121376094Y-44956576D01*
X121457447Y-44857446D01*
X121556575Y-44776094D01*
X121669664Y-44715646D01*
X121701596Y-44705960D01*
X121792382Y-44678420D01*
X121920000Y-44665851D01*
X122047617Y-44678420D01*
G37*
G36*
X58547617Y-44678420D02*
G01*
X58638403Y-44705960D01*
X58670335Y-44715646D01*
X58783424Y-44776094D01*
X58882554Y-44857447D01*
X58963906Y-44956575D01*
X59024354Y-45069664D01*
X59034040Y-45101596D01*
X59061580Y-45192382D01*
X59071000Y-45288027D01*
X59071000Y-46151973D01*
X59061580Y-46247618D01*
X59034040Y-46338404D01*
X59024354Y-46370336D01*
X58963906Y-46483425D01*
X58882554Y-46582554D01*
X58783425Y-46663906D01*
X58670336Y-46724354D01*
X58638404Y-46734040D01*
X58547618Y-46761580D01*
X58420000Y-46774149D01*
X58292383Y-46761580D01*
X58201597Y-46734040D01*
X58169665Y-46724354D01*
X58056576Y-46663906D01*
X57957447Y-46582554D01*
X57876095Y-46483425D01*
X57815647Y-46370336D01*
X57811282Y-46355946D01*
X57778420Y-46247618D01*
X57769000Y-46151973D01*
X57769000Y-45288028D01*
X57778420Y-45192383D01*
X57815645Y-45069669D01*
X57815646Y-45069665D01*
X57876094Y-44956576D01*
X57957447Y-44857446D01*
X58056575Y-44776094D01*
X58169664Y-44715646D01*
X58201596Y-44705960D01*
X58292382Y-44678420D01*
X58420000Y-44665851D01*
X58547617Y-44678420D01*
G37*
G36*
X63627617Y-44678420D02*
G01*
X63718403Y-44705960D01*
X63750335Y-44715646D01*
X63863424Y-44776094D01*
X63962554Y-44857447D01*
X64043906Y-44956575D01*
X64104354Y-45069664D01*
X64114040Y-45101596D01*
X64141580Y-45192382D01*
X64151000Y-45288027D01*
X64151000Y-46151973D01*
X64141580Y-46247618D01*
X64114040Y-46338404D01*
X64104354Y-46370336D01*
X64043906Y-46483425D01*
X63962554Y-46582554D01*
X63863425Y-46663906D01*
X63750336Y-46724354D01*
X63718404Y-46734040D01*
X63627618Y-46761580D01*
X63500000Y-46774149D01*
X63372383Y-46761580D01*
X63281597Y-46734040D01*
X63249665Y-46724354D01*
X63136576Y-46663906D01*
X63037447Y-46582554D01*
X62956095Y-46483425D01*
X62895647Y-46370336D01*
X62891282Y-46355946D01*
X62858420Y-46247618D01*
X62849000Y-46151973D01*
X62849000Y-45288028D01*
X62858420Y-45192383D01*
X62895645Y-45069669D01*
X62895646Y-45069665D01*
X62956094Y-44956576D01*
X63037447Y-44857446D01*
X63136575Y-44776094D01*
X63249664Y-44715646D01*
X63281596Y-44705960D01*
X63372382Y-44678420D01*
X63500000Y-44665851D01*
X63627617Y-44678420D01*
G37*
G36*
X76327617Y-44678420D02*
G01*
X76418403Y-44705960D01*
X76450335Y-44715646D01*
X76563424Y-44776094D01*
X76662554Y-44857447D01*
X76743906Y-44956575D01*
X76804354Y-45069664D01*
X76814040Y-45101596D01*
X76841580Y-45192382D01*
X76851000Y-45288027D01*
X76851000Y-46151973D01*
X76841580Y-46247618D01*
X76814040Y-46338404D01*
X76804354Y-46370336D01*
X76743906Y-46483425D01*
X76662554Y-46582554D01*
X76563425Y-46663906D01*
X76450336Y-46724354D01*
X76418404Y-46734040D01*
X76327618Y-46761580D01*
X76200000Y-46774149D01*
X76072383Y-46761580D01*
X75981597Y-46734040D01*
X75949665Y-46724354D01*
X75836576Y-46663906D01*
X75737447Y-46582554D01*
X75656095Y-46483425D01*
X75595647Y-46370336D01*
X75591282Y-46355946D01*
X75558420Y-46247618D01*
X75549000Y-46151973D01*
X75549000Y-45288028D01*
X75558420Y-45192383D01*
X75595645Y-45069669D01*
X75595646Y-45069665D01*
X75656094Y-44956576D01*
X75737447Y-44857446D01*
X75836575Y-44776094D01*
X75949664Y-44715646D01*
X75981596Y-44705960D01*
X76072382Y-44678420D01*
X76200000Y-44665851D01*
X76327617Y-44678420D01*
G37*
G36*
X132207617Y-44678420D02*
G01*
X132298403Y-44705960D01*
X132330335Y-44715646D01*
X132443424Y-44776094D01*
X132542554Y-44857447D01*
X132623906Y-44956575D01*
X132684354Y-45069664D01*
X132694040Y-45101596D01*
X132721580Y-45192382D01*
X132731000Y-45288027D01*
X132731000Y-46151973D01*
X132721580Y-46247618D01*
X132694040Y-46338404D01*
X132684354Y-46370336D01*
X132623906Y-46483425D01*
X132542554Y-46582554D01*
X132443425Y-46663906D01*
X132330336Y-46724354D01*
X132298404Y-46734040D01*
X132207618Y-46761580D01*
X132080000Y-46774149D01*
X131952383Y-46761580D01*
X131861597Y-46734040D01*
X131829665Y-46724354D01*
X131716576Y-46663906D01*
X131617447Y-46582554D01*
X131536095Y-46483425D01*
X131475647Y-46370336D01*
X131471282Y-46355946D01*
X131438420Y-46247618D01*
X131429000Y-46151973D01*
X131429000Y-45288028D01*
X131438420Y-45192383D01*
X131475645Y-45069669D01*
X131475646Y-45069665D01*
X131536094Y-44956576D01*
X131617447Y-44857446D01*
X131716575Y-44776094D01*
X131829664Y-44715646D01*
X131861596Y-44705960D01*
X131952382Y-44678420D01*
X132080000Y-44665851D01*
X132207617Y-44678420D01*
G37*
G36*
X109347617Y-44678420D02*
G01*
X109438403Y-44705960D01*
X109470335Y-44715646D01*
X109583424Y-44776094D01*
X109682554Y-44857447D01*
X109763906Y-44956575D01*
X109824354Y-45069664D01*
X109834040Y-45101596D01*
X109861580Y-45192382D01*
X109871000Y-45288027D01*
X109871000Y-46151973D01*
X109861580Y-46247618D01*
X109834040Y-46338404D01*
X109824354Y-46370336D01*
X109763906Y-46483425D01*
X109682554Y-46582554D01*
X109583425Y-46663906D01*
X109470336Y-46724354D01*
X109438404Y-46734040D01*
X109347618Y-46761580D01*
X109220000Y-46774149D01*
X109092383Y-46761580D01*
X109001597Y-46734040D01*
X108969665Y-46724354D01*
X108856576Y-46663906D01*
X108757447Y-46582554D01*
X108676095Y-46483425D01*
X108615647Y-46370336D01*
X108611282Y-46355946D01*
X108578420Y-46247618D01*
X108569000Y-46151973D01*
X108569000Y-45288028D01*
X108578420Y-45192383D01*
X108615645Y-45069669D01*
X108615646Y-45069665D01*
X108676094Y-44956576D01*
X108757447Y-44857446D01*
X108856575Y-44776094D01*
X108969664Y-44715646D01*
X109001596Y-44705960D01*
X109092382Y-44678420D01*
X109220000Y-44665851D01*
X109347617Y-44678420D01*
G37*
G36*
X129667617Y-44678420D02*
G01*
X129758403Y-44705960D01*
X129790335Y-44715646D01*
X129903424Y-44776094D01*
X130002554Y-44857447D01*
X130083906Y-44956575D01*
X130144354Y-45069664D01*
X130154040Y-45101596D01*
X130181580Y-45192382D01*
X130191000Y-45288027D01*
X130191000Y-46151973D01*
X130181580Y-46247618D01*
X130154040Y-46338404D01*
X130144354Y-46370336D01*
X130083906Y-46483425D01*
X130002554Y-46582554D01*
X129903425Y-46663906D01*
X129790336Y-46724354D01*
X129758404Y-46734040D01*
X129667618Y-46761580D01*
X129540000Y-46774149D01*
X129412383Y-46761580D01*
X129321597Y-46734040D01*
X129289665Y-46724354D01*
X129176576Y-46663906D01*
X129077447Y-46582554D01*
X128996095Y-46483425D01*
X128935647Y-46370336D01*
X128931282Y-46355946D01*
X128898420Y-46247618D01*
X128889000Y-46151973D01*
X128889000Y-45288028D01*
X128898420Y-45192383D01*
X128935645Y-45069669D01*
X128935646Y-45069665D01*
X128996094Y-44956576D01*
X129077447Y-44857446D01*
X129176575Y-44776094D01*
X129289664Y-44715646D01*
X129321596Y-44705960D01*
X129412382Y-44678420D01*
X129540000Y-44665851D01*
X129667617Y-44678420D01*
G37*
G36*
X61087617Y-44678420D02*
G01*
X61178403Y-44705960D01*
X61210335Y-44715646D01*
X61323424Y-44776094D01*
X61422554Y-44857447D01*
X61503906Y-44956575D01*
X61564354Y-45069664D01*
X61574040Y-45101596D01*
X61601580Y-45192382D01*
X61611000Y-45288027D01*
X61611000Y-46151973D01*
X61601580Y-46247618D01*
X61574040Y-46338404D01*
X61564354Y-46370336D01*
X61503906Y-46483425D01*
X61422554Y-46582554D01*
X61323425Y-46663906D01*
X61210336Y-46724354D01*
X61178404Y-46734040D01*
X61087618Y-46761580D01*
X60960000Y-46774149D01*
X60832383Y-46761580D01*
X60741597Y-46734040D01*
X60709665Y-46724354D01*
X60596576Y-46663906D01*
X60497447Y-46582554D01*
X60416095Y-46483425D01*
X60355647Y-46370336D01*
X60351282Y-46355946D01*
X60318420Y-46247618D01*
X60309000Y-46151973D01*
X60309000Y-45288028D01*
X60318420Y-45192383D01*
X60355645Y-45069669D01*
X60355646Y-45069665D01*
X60416094Y-44956576D01*
X60497447Y-44857446D01*
X60596575Y-44776094D01*
X60709664Y-44715646D01*
X60741596Y-44705960D01*
X60832382Y-44678420D01*
X60960000Y-44665851D01*
X61087617Y-44678420D01*
G37*
G36*
X127127617Y-44678420D02*
G01*
X127218403Y-44705960D01*
X127250335Y-44715646D01*
X127363424Y-44776094D01*
X127462554Y-44857447D01*
X127543906Y-44956575D01*
X127604354Y-45069664D01*
X127614040Y-45101596D01*
X127641580Y-45192382D01*
X127651000Y-45288027D01*
X127651000Y-46151973D01*
X127641580Y-46247618D01*
X127614040Y-46338404D01*
X127604354Y-46370336D01*
X127543906Y-46483425D01*
X127462554Y-46582554D01*
X127363425Y-46663906D01*
X127250336Y-46724354D01*
X127218404Y-46734040D01*
X127127618Y-46761580D01*
X127000000Y-46774149D01*
X126872383Y-46761580D01*
X126781597Y-46734040D01*
X126749665Y-46724354D01*
X126636576Y-46663906D01*
X126537447Y-46582554D01*
X126456095Y-46483425D01*
X126395647Y-46370336D01*
X126391282Y-46355946D01*
X126358420Y-46247618D01*
X126349000Y-46151973D01*
X126349000Y-45288028D01*
X126358420Y-45192383D01*
X126395645Y-45069669D01*
X126395646Y-45069665D01*
X126456094Y-44956576D01*
X126537447Y-44857446D01*
X126636575Y-44776094D01*
X126749664Y-44715646D01*
X126781596Y-44705960D01*
X126872382Y-44678420D01*
X127000000Y-44665851D01*
X127127617Y-44678420D01*
G37*
G36*
X124587617Y-44678420D02*
G01*
X124678403Y-44705960D01*
X124710335Y-44715646D01*
X124823424Y-44776094D01*
X124922554Y-44857447D01*
X125003906Y-44956575D01*
X125064354Y-45069664D01*
X125074040Y-45101596D01*
X125101580Y-45192382D01*
X125111000Y-45288027D01*
X125111000Y-46151973D01*
X125101580Y-46247618D01*
X125074040Y-46338404D01*
X125064354Y-46370336D01*
X125003906Y-46483425D01*
X124922554Y-46582554D01*
X124823425Y-46663906D01*
X124710336Y-46724354D01*
X124678404Y-46734040D01*
X124587618Y-46761580D01*
X124460000Y-46774149D01*
X124332383Y-46761580D01*
X124241597Y-46734040D01*
X124209665Y-46724354D01*
X124096576Y-46663906D01*
X123997447Y-46582554D01*
X123916095Y-46483425D01*
X123855647Y-46370336D01*
X123851282Y-46355946D01*
X123818420Y-46247618D01*
X123809000Y-46151973D01*
X123809000Y-45288028D01*
X123818420Y-45192383D01*
X123855645Y-45069669D01*
X123855646Y-45069665D01*
X123916094Y-44956576D01*
X123997447Y-44857446D01*
X124096575Y-44776094D01*
X124209664Y-44715646D01*
X124241596Y-44705960D01*
X124332382Y-44678420D01*
X124460000Y-44665851D01*
X124587617Y-44678420D01*
G37*
G36*
X30607617Y-44678420D02*
G01*
X30698403Y-44705960D01*
X30730335Y-44715646D01*
X30843424Y-44776094D01*
X30942554Y-44857447D01*
X31023906Y-44956575D01*
X31084354Y-45069664D01*
X31094040Y-45101596D01*
X31121580Y-45192382D01*
X31131000Y-45288027D01*
X31131000Y-46151973D01*
X31121580Y-46247618D01*
X31094040Y-46338404D01*
X31084354Y-46370336D01*
X31023906Y-46483425D01*
X30942554Y-46582554D01*
X30843425Y-46663906D01*
X30730336Y-46724354D01*
X30698404Y-46734040D01*
X30607618Y-46761580D01*
X30480000Y-46774149D01*
X30352383Y-46761580D01*
X30261597Y-46734040D01*
X30229665Y-46724354D01*
X30116576Y-46663906D01*
X30017447Y-46582554D01*
X29936095Y-46483425D01*
X29875647Y-46370336D01*
X29871282Y-46355946D01*
X29838420Y-46247618D01*
X29829000Y-46151973D01*
X29829000Y-45288028D01*
X29838420Y-45192383D01*
X29875645Y-45069669D01*
X29875646Y-45069665D01*
X29936094Y-44956576D01*
X30017447Y-44857446D01*
X30116575Y-44776094D01*
X30229664Y-44715646D01*
X30261596Y-44705960D01*
X30352382Y-44678420D01*
X30480000Y-44665851D01*
X30607617Y-44678420D01*
G37*
G36*
X119507617Y-44678420D02*
G01*
X119598403Y-44705960D01*
X119630335Y-44715646D01*
X119743424Y-44776094D01*
X119842554Y-44857447D01*
X119923906Y-44956575D01*
X119984354Y-45069664D01*
X119994040Y-45101596D01*
X120021580Y-45192382D01*
X120031000Y-45288027D01*
X120031000Y-46151973D01*
X120021580Y-46247618D01*
X119994040Y-46338404D01*
X119984354Y-46370336D01*
X119923906Y-46483425D01*
X119842554Y-46582554D01*
X119743425Y-46663906D01*
X119630336Y-46724354D01*
X119598404Y-46734040D01*
X119507618Y-46761580D01*
X119380000Y-46774149D01*
X119252383Y-46761580D01*
X119161597Y-46734040D01*
X119129665Y-46724354D01*
X119016576Y-46663906D01*
X118917447Y-46582554D01*
X118836095Y-46483425D01*
X118775647Y-46370336D01*
X118771282Y-46355946D01*
X118738420Y-46247618D01*
X118729000Y-46151973D01*
X118729000Y-45288028D01*
X118738420Y-45192383D01*
X118775645Y-45069669D01*
X118775646Y-45069665D01*
X118836094Y-44956576D01*
X118917447Y-44857446D01*
X119016575Y-44776094D01*
X119129664Y-44715646D01*
X119161596Y-44705960D01*
X119252382Y-44678420D01*
X119380000Y-44665851D01*
X119507617Y-44678420D01*
G37*
G36*
X116967617Y-44678420D02*
G01*
X117058403Y-44705960D01*
X117090335Y-44715646D01*
X117203424Y-44776094D01*
X117302554Y-44857447D01*
X117383906Y-44956575D01*
X117444354Y-45069664D01*
X117454040Y-45101596D01*
X117481580Y-45192382D01*
X117491000Y-45288027D01*
X117491000Y-46151973D01*
X117481580Y-46247618D01*
X117454040Y-46338404D01*
X117444354Y-46370336D01*
X117383906Y-46483425D01*
X117302554Y-46582554D01*
X117203425Y-46663906D01*
X117090336Y-46724354D01*
X117058404Y-46734040D01*
X116967618Y-46761580D01*
X116840000Y-46774149D01*
X116712383Y-46761580D01*
X116621597Y-46734040D01*
X116589665Y-46724354D01*
X116476576Y-46663906D01*
X116377447Y-46582554D01*
X116296095Y-46483425D01*
X116235647Y-46370336D01*
X116231282Y-46355946D01*
X116198420Y-46247618D01*
X116189000Y-46151973D01*
X116189000Y-45288028D01*
X116198420Y-45192383D01*
X116235645Y-45069669D01*
X116235646Y-45069665D01*
X116296094Y-44956576D01*
X116377447Y-44857446D01*
X116476575Y-44776094D01*
X116589664Y-44715646D01*
X116621596Y-44705960D01*
X116712382Y-44678420D01*
X116840000Y-44665851D01*
X116967617Y-44678420D01*
G37*
G36*
X114427617Y-44678420D02*
G01*
X114518403Y-44705960D01*
X114550335Y-44715646D01*
X114663424Y-44776094D01*
X114762554Y-44857447D01*
X114843906Y-44956575D01*
X114904354Y-45069664D01*
X114914040Y-45101596D01*
X114941580Y-45192382D01*
X114951000Y-45288027D01*
X114951000Y-46151973D01*
X114941580Y-46247618D01*
X114914040Y-46338404D01*
X114904354Y-46370336D01*
X114843906Y-46483425D01*
X114762554Y-46582554D01*
X114663425Y-46663906D01*
X114550336Y-46724354D01*
X114518404Y-46734040D01*
X114427618Y-46761580D01*
X114300000Y-46774149D01*
X114172383Y-46761580D01*
X114081597Y-46734040D01*
X114049665Y-46724354D01*
X113936576Y-46663906D01*
X113837447Y-46582554D01*
X113756095Y-46483425D01*
X113695647Y-46370336D01*
X113691282Y-46355946D01*
X113658420Y-46247618D01*
X113649000Y-46151973D01*
X113649000Y-45288028D01*
X113658420Y-45192383D01*
X113695645Y-45069669D01*
X113695646Y-45069665D01*
X113756094Y-44956576D01*
X113837447Y-44857446D01*
X113936575Y-44776094D01*
X114049664Y-44715646D01*
X114081596Y-44705960D01*
X114172382Y-44678420D01*
X114300000Y-44665851D01*
X114427617Y-44678420D01*
G37*
G36*
X111887617Y-44678420D02*
G01*
X111978403Y-44705960D01*
X112010335Y-44715646D01*
X112123424Y-44776094D01*
X112222554Y-44857447D01*
X112303906Y-44956575D01*
X112364354Y-45069664D01*
X112374040Y-45101596D01*
X112401580Y-45192382D01*
X112411000Y-45288027D01*
X112411000Y-46151973D01*
X112401580Y-46247618D01*
X112374040Y-46338404D01*
X112364354Y-46370336D01*
X112303906Y-46483425D01*
X112222554Y-46582554D01*
X112123425Y-46663906D01*
X112010336Y-46724354D01*
X111978404Y-46734040D01*
X111887618Y-46761580D01*
X111760000Y-46774149D01*
X111632383Y-46761580D01*
X111541597Y-46734040D01*
X111509665Y-46724354D01*
X111396576Y-46663906D01*
X111297447Y-46582554D01*
X111216095Y-46483425D01*
X111155647Y-46370336D01*
X111151282Y-46355946D01*
X111118420Y-46247618D01*
X111109000Y-46151973D01*
X111109000Y-45288028D01*
X111118420Y-45192383D01*
X111155645Y-45069669D01*
X111155646Y-45069665D01*
X111216094Y-44956576D01*
X111297447Y-44857446D01*
X111396575Y-44776094D01*
X111509664Y-44715646D01*
X111541596Y-44705960D01*
X111632382Y-44678420D01*
X111760000Y-44665851D01*
X111887617Y-44678420D01*
G37*
G36*
X106807617Y-44678420D02*
G01*
X106898403Y-44705960D01*
X106930335Y-44715646D01*
X107043424Y-44776094D01*
X107142554Y-44857447D01*
X107223906Y-44956575D01*
X107284354Y-45069664D01*
X107294040Y-45101596D01*
X107321580Y-45192382D01*
X107331000Y-45288027D01*
X107331000Y-46151973D01*
X107321580Y-46247618D01*
X107294040Y-46338404D01*
X107284354Y-46370336D01*
X107223906Y-46483425D01*
X107142554Y-46582554D01*
X107043425Y-46663906D01*
X106930336Y-46724354D01*
X106898404Y-46734040D01*
X106807618Y-46761580D01*
X106680000Y-46774149D01*
X106552383Y-46761580D01*
X106461597Y-46734040D01*
X106429665Y-46724354D01*
X106316576Y-46663906D01*
X106217447Y-46582554D01*
X106136095Y-46483425D01*
X106075647Y-46370336D01*
X106071282Y-46355946D01*
X106038420Y-46247618D01*
X106029000Y-46151973D01*
X106029000Y-45288028D01*
X106038420Y-45192383D01*
X106075645Y-45069669D01*
X106075646Y-45069665D01*
X106136094Y-44956576D01*
X106217447Y-44857446D01*
X106316575Y-44776094D01*
X106429664Y-44715646D01*
X106461596Y-44705960D01*
X106552382Y-44678420D01*
X106680000Y-44665851D01*
X106807617Y-44678420D01*
G37*
G36*
X104267617Y-44678420D02*
G01*
X104358403Y-44705960D01*
X104390335Y-44715646D01*
X104503424Y-44776094D01*
X104602554Y-44857447D01*
X104683906Y-44956575D01*
X104744354Y-45069664D01*
X104754040Y-45101596D01*
X104781580Y-45192382D01*
X104791000Y-45288027D01*
X104791000Y-46151973D01*
X104781580Y-46247618D01*
X104754040Y-46338404D01*
X104744354Y-46370336D01*
X104683906Y-46483425D01*
X104602554Y-46582554D01*
X104503425Y-46663906D01*
X104390336Y-46724354D01*
X104358404Y-46734040D01*
X104267618Y-46761580D01*
X104140000Y-46774149D01*
X104012383Y-46761580D01*
X103921597Y-46734040D01*
X103889665Y-46724354D01*
X103776576Y-46663906D01*
X103677447Y-46582554D01*
X103596095Y-46483425D01*
X103535647Y-46370336D01*
X103531282Y-46355946D01*
X103498420Y-46247618D01*
X103489000Y-46151973D01*
X103489000Y-45288028D01*
X103498420Y-45192383D01*
X103535645Y-45069669D01*
X103535646Y-45069665D01*
X103596094Y-44956576D01*
X103677447Y-44857446D01*
X103776575Y-44776094D01*
X103889664Y-44715646D01*
X103921596Y-44705960D01*
X104012382Y-44678420D01*
X104140000Y-44665851D01*
X104267617Y-44678420D01*
G37*
G36*
X101727617Y-44678420D02*
G01*
X101818403Y-44705960D01*
X101850335Y-44715646D01*
X101963424Y-44776094D01*
X102062554Y-44857447D01*
X102143906Y-44956575D01*
X102204354Y-45069664D01*
X102214040Y-45101596D01*
X102241580Y-45192382D01*
X102251000Y-45288027D01*
X102251000Y-46151973D01*
X102241580Y-46247618D01*
X102214040Y-46338404D01*
X102204354Y-46370336D01*
X102143906Y-46483425D01*
X102062554Y-46582554D01*
X101963425Y-46663906D01*
X101850336Y-46724354D01*
X101818404Y-46734040D01*
X101727618Y-46761580D01*
X101600000Y-46774149D01*
X101472383Y-46761580D01*
X101381597Y-46734040D01*
X101349665Y-46724354D01*
X101236576Y-46663906D01*
X101137447Y-46582554D01*
X101056095Y-46483425D01*
X100995647Y-46370336D01*
X100991282Y-46355946D01*
X100958420Y-46247618D01*
X100949000Y-46151973D01*
X100949000Y-45288028D01*
X100958420Y-45192383D01*
X100995645Y-45069669D01*
X100995646Y-45069665D01*
X101056094Y-44956576D01*
X101137447Y-44857446D01*
X101236575Y-44776094D01*
X101349664Y-44715646D01*
X101381596Y-44705960D01*
X101472382Y-44678420D01*
X101600000Y-44665851D01*
X101727617Y-44678420D01*
G37*
G36*
X25527617Y-44678420D02*
G01*
X25618403Y-44705960D01*
X25650335Y-44715646D01*
X25763424Y-44776094D01*
X25862554Y-44857447D01*
X25943906Y-44956575D01*
X26004354Y-45069664D01*
X26014040Y-45101596D01*
X26041580Y-45192382D01*
X26051000Y-45288027D01*
X26051000Y-46151973D01*
X26041580Y-46247618D01*
X26014040Y-46338404D01*
X26004354Y-46370336D01*
X25943906Y-46483425D01*
X25862554Y-46582554D01*
X25763425Y-46663906D01*
X25650336Y-46724354D01*
X25618404Y-46734040D01*
X25527618Y-46761580D01*
X25400000Y-46774149D01*
X25272383Y-46761580D01*
X25181597Y-46734040D01*
X25149665Y-46724354D01*
X25036576Y-46663906D01*
X24937447Y-46582554D01*
X24856095Y-46483425D01*
X24795647Y-46370336D01*
X24791282Y-46355946D01*
X24758420Y-46247618D01*
X24749000Y-46151973D01*
X24749000Y-45288028D01*
X24758420Y-45192383D01*
X24795645Y-45069669D01*
X24795646Y-45069665D01*
X24856094Y-44956576D01*
X24937447Y-44857446D01*
X25036575Y-44776094D01*
X25149664Y-44715646D01*
X25181596Y-44705960D01*
X25272382Y-44678420D01*
X25400000Y-44665851D01*
X25527617Y-44678420D01*
G37*
G36*
X28067617Y-44678420D02*
G01*
X28158403Y-44705960D01*
X28190335Y-44715646D01*
X28303424Y-44776094D01*
X28402554Y-44857447D01*
X28483906Y-44956575D01*
X28544354Y-45069664D01*
X28554040Y-45101596D01*
X28581580Y-45192382D01*
X28591000Y-45288027D01*
X28591000Y-46151973D01*
X28581580Y-46247618D01*
X28554040Y-46338404D01*
X28544354Y-46370336D01*
X28483906Y-46483425D01*
X28402554Y-46582554D01*
X28303425Y-46663906D01*
X28190336Y-46724354D01*
X28158404Y-46734040D01*
X28067618Y-46761580D01*
X27940000Y-46774149D01*
X27812383Y-46761580D01*
X27721597Y-46734040D01*
X27689665Y-46724354D01*
X27576576Y-46663906D01*
X27477447Y-46582554D01*
X27396095Y-46483425D01*
X27335647Y-46370336D01*
X27331282Y-46355946D01*
X27298420Y-46247618D01*
X27289000Y-46151973D01*
X27289000Y-45288028D01*
X27298420Y-45192383D01*
X27335645Y-45069669D01*
X27335646Y-45069665D01*
X27396094Y-44956576D01*
X27477447Y-44857446D01*
X27576575Y-44776094D01*
X27689664Y-44715646D01*
X27721596Y-44705960D01*
X27812382Y-44678420D01*
X27940000Y-44665851D01*
X28067617Y-44678420D01*
G37*
M02*
