G04 #@! TF.GenerationSoftware,KiCad,Pcbnew,(5.1.5)-3*
G04 #@! TF.CreationDate,2020-01-29T01:23:58-05:00*
G04 #@! TF.ProjectId,IEEE-Clock-Charlie,49454545-2d43-46c6-9f63-6b2d43686172,rev?*
G04 #@! TF.SameCoordinates,Original*
G04 #@! TF.FileFunction,Copper,L1,Top*
G04 #@! TF.FilePolarity,Positive*
%FSLAX46Y46*%
G04 Gerber Fmt 4.6, Leading zero omitted, Abs format (unit mm)*
G04 Created by KiCad (PCBNEW (5.1.5)-3) date 2020-01-29 01:23:58*
%MOMM*%
%LPD*%
G04 APERTURE LIST*
%ADD10O,1.200000X2.000000*%
%ADD11O,1.700000X1.700000*%
%ADD12R,1.700000X1.700000*%
%ADD13C,0.100000*%
%ADD14C,1.500000*%
%ADD15R,3.200000X2.000000*%
%ADD16C,2.000000*%
%ADD17R,2.000000X2.000000*%
%ADD18O,1.600000X1.600000*%
%ADD19R,1.600000X1.600000*%
%ADD20C,0.250000*%
G04 APERTURE END LIST*
D10*
X219710000Y-114300000D03*
X219710000Y-88900000D03*
X217170000Y-114300000D03*
X217170000Y-88900000D03*
X214630000Y-114300000D03*
X214630000Y-88900000D03*
X212090000Y-114300000D03*
X212090000Y-88900000D03*
X209550000Y-114300000D03*
X209550000Y-88900000D03*
X207010000Y-114300000D03*
X207010000Y-88900000D03*
X204470000Y-114300000D03*
X204470000Y-88900000D03*
X201930000Y-114300000D03*
X201930000Y-88900000D03*
X199390000Y-114300000D03*
X199390000Y-88900000D03*
X196850000Y-114300000D03*
X196850000Y-88900000D03*
X194310000Y-114300000D03*
X194310000Y-88900000D03*
X191770000Y-114300000D03*
X191770000Y-88900000D03*
X189230000Y-114300000D03*
X189230000Y-88900000D03*
X133350000Y-114300000D03*
X133350000Y-88900000D03*
X130810000Y-114300000D03*
X130810000Y-88900000D03*
X128270000Y-114300000D03*
X128270000Y-88900000D03*
X125730000Y-114300000D03*
X125730000Y-88900000D03*
X123190000Y-114300000D03*
X123190000Y-88900000D03*
X120650000Y-114300000D03*
X120650000Y-88900000D03*
X118110000Y-114300000D03*
X118110000Y-88900000D03*
X115570000Y-114300000D03*
X115570000Y-88900000D03*
X113030000Y-114300000D03*
X113030000Y-88900000D03*
X110490000Y-114300000D03*
X110490000Y-88900000D03*
X107950000Y-114300000D03*
X107950000Y-88900000D03*
X105410000Y-114300000D03*
X105410000Y-88900000D03*
X102870000Y-114300000D03*
X102870000Y-88900000D03*
X176530000Y-114300000D03*
X176530000Y-88900000D03*
X173990000Y-114300000D03*
X173990000Y-88900000D03*
X171450000Y-114300000D03*
X171450000Y-88900000D03*
X168910000Y-114300000D03*
X168910000Y-88900000D03*
X166370000Y-114300000D03*
X166370000Y-88900000D03*
X163830000Y-114300000D03*
X163830000Y-88900000D03*
X161290000Y-114300000D03*
X161290000Y-88900000D03*
X158750000Y-114300000D03*
X158750000Y-88900000D03*
X156210000Y-114300000D03*
X156210000Y-88900000D03*
X153670000Y-114300000D03*
X153670000Y-88900000D03*
X151130000Y-114300000D03*
X151130000Y-88900000D03*
X148590000Y-114300000D03*
X148590000Y-88900000D03*
X146050000Y-114300000D03*
X146050000Y-88900000D03*
D11*
X109474000Y-108458000D03*
X112014000Y-108458000D03*
X114554000Y-108458000D03*
X117094000Y-108458000D03*
X119634000Y-108458000D03*
X122174000Y-108458000D03*
X124714000Y-108458000D03*
D12*
X127254000Y-108458000D03*
G04 #@! TA.AperFunction,Conductor*
D13*
G36*
X248754755Y-87100961D02*
G01*
X248764134Y-87103806D01*
X248772779Y-87108427D01*
X248780355Y-87114645D01*
X248786573Y-87122221D01*
X248791194Y-87130866D01*
X248794039Y-87140245D01*
X248795000Y-87150000D01*
X248795000Y-116050000D01*
X248794039Y-116059755D01*
X248791194Y-116069134D01*
X248786573Y-116077779D01*
X248780355Y-116085355D01*
X248772779Y-116091573D01*
X248764134Y-116096194D01*
X248754755Y-116099039D01*
X248745000Y-116100000D01*
X230045000Y-116100000D01*
X230035245Y-116099039D01*
X230025866Y-116096194D01*
X230017221Y-116091573D01*
X230009645Y-116085355D01*
X230003427Y-116077779D01*
X229998806Y-116069134D01*
X229995961Y-116059755D01*
X229995000Y-116050000D01*
X229995000Y-87150000D01*
X229995961Y-87140245D01*
X229998806Y-87130866D01*
X230003427Y-87122221D01*
X230009645Y-87114645D01*
X230017221Y-87108427D01*
X230025866Y-87103806D01*
X230035245Y-87100961D01*
X230045000Y-87100000D01*
X248745000Y-87100000D01*
X248754755Y-87100961D01*
G37*
G04 #@! TD.AperFunction*
D14*
X75670000Y-99140000D03*
X75670000Y-104140000D03*
D15*
X82670000Y-96040000D03*
X82670000Y-107240000D03*
D16*
X90170000Y-99140000D03*
X90170000Y-101640000D03*
D17*
X90170000Y-104140000D03*
G04 #@! TA.AperFunction,SMDPad,CuDef*
D13*
G36*
X134897691Y-102433053D02*
G01*
X134918926Y-102436203D01*
X134939750Y-102441419D01*
X134959962Y-102448651D01*
X134979368Y-102457830D01*
X134997781Y-102468866D01*
X135015024Y-102481654D01*
X135030930Y-102496070D01*
X135045346Y-102511976D01*
X135058134Y-102529219D01*
X135069170Y-102547632D01*
X135078349Y-102567038D01*
X135085581Y-102587250D01*
X135090797Y-102608074D01*
X135093947Y-102629309D01*
X135095000Y-102650750D01*
X135095000Y-103088250D01*
X135093947Y-103109691D01*
X135090797Y-103130926D01*
X135085581Y-103151750D01*
X135078349Y-103171962D01*
X135069170Y-103191368D01*
X135058134Y-103209781D01*
X135045346Y-103227024D01*
X135030930Y-103242930D01*
X135015024Y-103257346D01*
X134997781Y-103270134D01*
X134979368Y-103281170D01*
X134959962Y-103290349D01*
X134939750Y-103297581D01*
X134918926Y-103302797D01*
X134897691Y-103305947D01*
X134876250Y-103307000D01*
X134363750Y-103307000D01*
X134342309Y-103305947D01*
X134321074Y-103302797D01*
X134300250Y-103297581D01*
X134280038Y-103290349D01*
X134260632Y-103281170D01*
X134242219Y-103270134D01*
X134224976Y-103257346D01*
X134209070Y-103242930D01*
X134194654Y-103227024D01*
X134181866Y-103209781D01*
X134170830Y-103191368D01*
X134161651Y-103171962D01*
X134154419Y-103151750D01*
X134149203Y-103130926D01*
X134146053Y-103109691D01*
X134145000Y-103088250D01*
X134145000Y-102650750D01*
X134146053Y-102629309D01*
X134149203Y-102608074D01*
X134154419Y-102587250D01*
X134161651Y-102567038D01*
X134170830Y-102547632D01*
X134181866Y-102529219D01*
X134194654Y-102511976D01*
X134209070Y-102496070D01*
X134224976Y-102481654D01*
X134242219Y-102468866D01*
X134260632Y-102457830D01*
X134280038Y-102448651D01*
X134300250Y-102441419D01*
X134321074Y-102436203D01*
X134342309Y-102433053D01*
X134363750Y-102432000D01*
X134876250Y-102432000D01*
X134897691Y-102433053D01*
G37*
G04 #@! TD.AperFunction*
G04 #@! TA.AperFunction,SMDPad,CuDef*
G36*
X134897691Y-100858053D02*
G01*
X134918926Y-100861203D01*
X134939750Y-100866419D01*
X134959962Y-100873651D01*
X134979368Y-100882830D01*
X134997781Y-100893866D01*
X135015024Y-100906654D01*
X135030930Y-100921070D01*
X135045346Y-100936976D01*
X135058134Y-100954219D01*
X135069170Y-100972632D01*
X135078349Y-100992038D01*
X135085581Y-101012250D01*
X135090797Y-101033074D01*
X135093947Y-101054309D01*
X135095000Y-101075750D01*
X135095000Y-101513250D01*
X135093947Y-101534691D01*
X135090797Y-101555926D01*
X135085581Y-101576750D01*
X135078349Y-101596962D01*
X135069170Y-101616368D01*
X135058134Y-101634781D01*
X135045346Y-101652024D01*
X135030930Y-101667930D01*
X135015024Y-101682346D01*
X134997781Y-101695134D01*
X134979368Y-101706170D01*
X134959962Y-101715349D01*
X134939750Y-101722581D01*
X134918926Y-101727797D01*
X134897691Y-101730947D01*
X134876250Y-101732000D01*
X134363750Y-101732000D01*
X134342309Y-101730947D01*
X134321074Y-101727797D01*
X134300250Y-101722581D01*
X134280038Y-101715349D01*
X134260632Y-101706170D01*
X134242219Y-101695134D01*
X134224976Y-101682346D01*
X134209070Y-101667930D01*
X134194654Y-101652024D01*
X134181866Y-101634781D01*
X134170830Y-101616368D01*
X134161651Y-101596962D01*
X134154419Y-101576750D01*
X134149203Y-101555926D01*
X134146053Y-101534691D01*
X134145000Y-101513250D01*
X134145000Y-101075750D01*
X134146053Y-101054309D01*
X134149203Y-101033074D01*
X134154419Y-101012250D01*
X134161651Y-100992038D01*
X134170830Y-100972632D01*
X134181866Y-100954219D01*
X134194654Y-100936976D01*
X134209070Y-100921070D01*
X134224976Y-100906654D01*
X134242219Y-100893866D01*
X134260632Y-100882830D01*
X134280038Y-100873651D01*
X134300250Y-100866419D01*
X134321074Y-100861203D01*
X134342309Y-100858053D01*
X134363750Y-100857000D01*
X134876250Y-100857000D01*
X134897691Y-100858053D01*
G37*
G04 #@! TD.AperFunction*
D18*
X179070000Y-109220000D03*
X179070000Y-93980000D03*
X143510000Y-109220000D03*
X176530000Y-93980000D03*
X146050000Y-109220000D03*
X173990000Y-93980000D03*
X148590000Y-109220000D03*
X171450000Y-93980000D03*
X151130000Y-109220000D03*
X168910000Y-93980000D03*
X153670000Y-109220000D03*
X166370000Y-93980000D03*
X156210000Y-109220000D03*
X163830000Y-93980000D03*
X158750000Y-109220000D03*
X161290000Y-93980000D03*
X161290000Y-109220000D03*
X158750000Y-93980000D03*
X163830000Y-109220000D03*
X156210000Y-93980000D03*
X166370000Y-109220000D03*
X153670000Y-93980000D03*
X168910000Y-109220000D03*
X151130000Y-93980000D03*
X171450000Y-109220000D03*
X148590000Y-93980000D03*
X173990000Y-109220000D03*
X146050000Y-93980000D03*
X176530000Y-109220000D03*
D19*
X143510000Y-93980000D03*
D20*
X173990000Y-88900000D02*
X173990000Y-88500000D01*
X173990000Y-88500000D02*
X172127600Y-87005000D01*
X172127600Y-87005000D02*
X172030900Y-86965000D01*
X172030900Y-86965000D02*
X170869100Y-86965000D01*
X170869100Y-86965000D02*
X170772400Y-87005000D01*
X170772400Y-87005000D02*
X169955000Y-87822400D01*
X169955000Y-87822400D02*
X169915000Y-87919100D01*
X169915000Y-87919100D02*
X169915000Y-89716300D01*
X169915000Y-89716300D02*
X167684900Y-93472500D01*
X167684900Y-93472500D02*
X167595100Y-94487500D01*
X167595100Y-94487500D02*
X166877500Y-95205100D01*
X166877500Y-95205100D02*
X165862500Y-95205100D01*
X165862500Y-95205100D02*
X155702500Y-95205100D01*
X155702500Y-95205100D02*
X154984900Y-94487500D01*
X154984900Y-94487500D02*
X154895100Y-93472500D01*
X154895100Y-93472500D02*
X154177500Y-92754900D01*
X154177500Y-92754900D02*
X153162500Y-92754900D01*
X153162500Y-92754900D02*
X151130000Y-93980000D01*
X130810000Y-88900000D02*
X130810000Y-89300000D01*
X130810000Y-89300000D02*
X124714000Y-108458000D01*
X173990000Y-88500000D02*
X173990000Y-88900000D01*
X130810000Y-88500000D02*
X130810000Y-88900000D01*
X151130000Y-93980000D02*
X149097500Y-92754900D01*
X149097500Y-92754900D02*
X139054600Y-92754900D01*
X133774600Y-87474900D02*
X132925400Y-87474900D01*
X139054600Y-92754900D02*
X133774600Y-87474900D01*
X132925400Y-87474900D02*
X130810000Y-88500000D01*
X217170000Y-88500000D02*
X217170000Y-88900000D01*
X215054600Y-87474900D02*
X217170000Y-88500000D01*
X187706000Y-87122000D02*
X215054600Y-87474900D01*
X185928000Y-85344000D02*
X187706000Y-87122000D01*
X177146000Y-85344000D02*
X185928000Y-85344000D01*
X173990000Y-88500000D02*
X177146000Y-85344000D01*
X176530000Y-88900000D02*
X176530000Y-89300000D01*
X176530000Y-89300000D02*
X174414600Y-90325100D01*
X174414600Y-90325100D02*
X173565400Y-90325100D01*
X173565400Y-90325100D02*
X172964900Y-89724600D01*
X172964900Y-89724600D02*
X172455000Y-88083700D01*
X172455000Y-88083700D02*
X171866300Y-87495000D01*
X171866300Y-87495000D02*
X171033700Y-87495000D01*
X171033700Y-87495000D02*
X170445000Y-88083700D01*
X170445000Y-88083700D02*
X170445000Y-89880900D01*
X170445000Y-89880900D02*
X170135100Y-94487500D01*
X170135100Y-94487500D02*
X169417500Y-95205100D01*
X169417500Y-95205100D02*
X151130000Y-109220000D01*
X133350000Y-88900000D02*
X133350000Y-89300000D01*
X133350000Y-89300000D02*
X128229000Y-107659800D01*
X128229000Y-107659800D02*
X128155800Y-107733000D01*
X128155800Y-107733000D02*
X128104000Y-107733000D01*
X128104000Y-107733000D02*
X127979000Y-107733000D01*
X127979000Y-107733000D02*
X127254000Y-108458000D01*
X84446100Y-97465100D02*
X75670000Y-99140000D01*
X132761100Y-86924800D02*
X102445400Y-87474900D01*
X133938900Y-86924800D02*
X132761100Y-86924800D01*
X164084000Y-91694000D02*
X138938000Y-91694000D01*
X138938000Y-91694000D02*
X134215000Y-86971000D01*
X166370000Y-93980000D02*
X164084000Y-91694000D01*
X134050400Y-86971000D02*
X133938900Y-86924800D01*
X102445400Y-87474900D02*
X84446100Y-97465100D01*
X134215000Y-86971000D02*
X134050400Y-86971000D01*
X128270000Y-88900000D02*
X128270000Y-89300000D01*
X128270000Y-89300000D02*
X122174000Y-108458000D01*
X214630000Y-89300000D02*
X214630000Y-88900000D01*
X173234638Y-92449362D02*
X173241276Y-92456000D01*
X173241276Y-92456000D02*
X187960000Y-92456000D01*
X187960000Y-92456000D02*
X189230000Y-91186000D01*
X189230000Y-91186000D02*
X212514600Y-90325100D01*
X212514600Y-90325100D02*
X214630000Y-89300000D01*
X171450000Y-89300000D02*
X171450000Y-88900000D01*
X173234638Y-92449362D02*
X173234638Y-91084638D01*
X173234638Y-91084638D02*
X171450000Y-89300000D01*
X158750000Y-109220000D02*
X172675100Y-94487500D01*
X172675100Y-94487500D02*
X172675100Y-93008900D01*
X172675100Y-93008900D02*
X173234638Y-92449362D01*
X125730000Y-88900000D02*
X125730000Y-89300000D01*
X125730000Y-89300000D02*
X119634000Y-108458000D01*
X153670000Y-93980000D02*
X151637500Y-95205100D01*
X151637500Y-95205100D02*
X135075200Y-100982700D01*
X135075200Y-100982700D02*
X135074500Y-100983300D01*
X135074500Y-100983300D02*
X134620000Y-101294500D01*
X171450000Y-108088630D02*
X173620630Y-105918000D01*
X171450000Y-109220000D02*
X171450000Y-108088630D01*
X173620630Y-105918000D02*
X217424000Y-105918000D01*
X221742000Y-101600000D02*
X239395000Y-101600000D01*
X217424000Y-105918000D02*
X221742000Y-101600000D01*
X134620000Y-102869500D02*
X134271300Y-103286500D01*
X134271300Y-103286500D02*
X128529100Y-109484100D01*
X128529100Y-109484100D02*
X128280100Y-109733100D01*
X128280100Y-109733100D02*
X127927900Y-109733100D01*
X127927900Y-109733100D02*
X116565800Y-109733100D01*
X116565800Y-109733100D02*
X114554000Y-108458000D01*
M02*
