G04 #@! TF.GenerationSoftware,KiCad,Pcbnew,(5.1.5)-3*
G04 #@! TF.CreationDate,2020-01-29T01:23:58-05:00*
G04 #@! TF.ProjectId,IEEE-Clock-Charlie,49454545-2d43-46c6-9f63-6b2d43686172,rev?*
G04 #@! TF.SameCoordinates,Original*
G04 #@! TF.FileFunction,Legend,Bot*
G04 #@! TF.FilePolarity,Positive*
%FSLAX46Y46*%
G04 Gerber Fmt 4.6, Leading zero omitted, Abs format (unit mm)*
G04 Created by KiCad (PCBNEW (5.1.5)-3) date 2020-01-29 01:23:58*
%MOMM*%
%LPD*%
G04 APERTURE LIST*
%ADD10C,0.300000*%
%ADD11C,0.150000*%
%ADD12C,0.120000*%
G04 APERTURE END LIST*
D10*
X216513571Y-101003571D02*
X216513571Y-99503571D01*
X215799285Y-100217857D02*
X215299285Y-100217857D01*
X215085000Y-101003571D02*
X215799285Y-101003571D01*
X215799285Y-99503571D01*
X215085000Y-99503571D01*
X214442142Y-100217857D02*
X213942142Y-100217857D01*
X213727857Y-101003571D02*
X214442142Y-101003571D01*
X214442142Y-99503571D01*
X213727857Y-99503571D01*
X213085000Y-100217857D02*
X212585000Y-100217857D01*
X212370714Y-101003571D02*
X213085000Y-101003571D01*
X213085000Y-99503571D01*
X212370714Y-99503571D01*
X210656428Y-100932142D02*
X210442142Y-101003571D01*
X210085000Y-101003571D01*
X209942142Y-100932142D01*
X209870714Y-100860714D01*
X209799285Y-100717857D01*
X209799285Y-100575000D01*
X209870714Y-100432142D01*
X209942142Y-100360714D01*
X210085000Y-100289285D01*
X210370714Y-100217857D01*
X210513571Y-100146428D01*
X210585000Y-100075000D01*
X210656428Y-99932142D01*
X210656428Y-99789285D01*
X210585000Y-99646428D01*
X210513571Y-99575000D01*
X210370714Y-99503571D01*
X210013571Y-99503571D01*
X209799285Y-99575000D01*
X209156428Y-101003571D02*
X209156428Y-99503571D01*
X208585000Y-99503571D01*
X208442142Y-99575000D01*
X208370714Y-99646428D01*
X208299285Y-99789285D01*
X208299285Y-100003571D01*
X208370714Y-100146428D01*
X208442142Y-100217857D01*
X208585000Y-100289285D01*
X209156428Y-100289285D01*
X207656428Y-100217857D02*
X207156428Y-100217857D01*
X206942142Y-101003571D02*
X207656428Y-101003571D01*
X207656428Y-99503571D01*
X206942142Y-99503571D01*
X205442142Y-100860714D02*
X205513571Y-100932142D01*
X205727857Y-101003571D01*
X205870714Y-101003571D01*
X206085000Y-100932142D01*
X206227857Y-100789285D01*
X206299285Y-100646428D01*
X206370714Y-100360714D01*
X206370714Y-100146428D01*
X206299285Y-99860714D01*
X206227857Y-99717857D01*
X206085000Y-99575000D01*
X205870714Y-99503571D01*
X205727857Y-99503571D01*
X205513571Y-99575000D01*
X205442142Y-99646428D01*
X205013571Y-99503571D02*
X204156428Y-99503571D01*
X204585000Y-101003571D02*
X204585000Y-99503571D01*
X202799285Y-101003571D02*
X203299285Y-100289285D01*
X203656428Y-101003571D02*
X203656428Y-99503571D01*
X203085000Y-99503571D01*
X202942142Y-99575000D01*
X202870714Y-99646428D01*
X202799285Y-99789285D01*
X202799285Y-100003571D01*
X202870714Y-100146428D01*
X202942142Y-100217857D01*
X203085000Y-100289285D01*
X203656428Y-100289285D01*
X202156428Y-99503571D02*
X202156428Y-100717857D01*
X202085000Y-100860714D01*
X202013571Y-100932142D01*
X201870714Y-101003571D01*
X201585000Y-101003571D01*
X201442142Y-100932142D01*
X201370714Y-100860714D01*
X201299285Y-100717857D01*
X201299285Y-99503571D01*
X200585000Y-101003571D02*
X200585000Y-99503571D01*
X200085000Y-100575000D01*
X199585000Y-99503571D01*
X199585000Y-101003571D01*
X196870714Y-100860714D02*
X196942142Y-100932142D01*
X197156428Y-101003571D01*
X197299285Y-101003571D01*
X197513571Y-100932142D01*
X197656428Y-100789285D01*
X197727857Y-100646428D01*
X197799285Y-100360714D01*
X197799285Y-100146428D01*
X197727857Y-99860714D01*
X197656428Y-99717857D01*
X197513571Y-99575000D01*
X197299285Y-99503571D01*
X197156428Y-99503571D01*
X196942142Y-99575000D01*
X196870714Y-99646428D01*
X195513571Y-101003571D02*
X196227857Y-101003571D01*
X196227857Y-99503571D01*
X194727857Y-99503571D02*
X194442142Y-99503571D01*
X194299285Y-99575000D01*
X194156428Y-99717857D01*
X194085000Y-100003571D01*
X194085000Y-100503571D01*
X194156428Y-100789285D01*
X194299285Y-100932142D01*
X194442142Y-101003571D01*
X194727857Y-101003571D01*
X194870714Y-100932142D01*
X195013571Y-100789285D01*
X195085000Y-100503571D01*
X195085000Y-100003571D01*
X195013571Y-99717857D01*
X194870714Y-99575000D01*
X194727857Y-99503571D01*
X192585000Y-100860714D02*
X192656428Y-100932142D01*
X192870714Y-101003571D01*
X193013571Y-101003571D01*
X193227857Y-100932142D01*
X193370714Y-100789285D01*
X193442142Y-100646428D01*
X193513571Y-100360714D01*
X193513571Y-100146428D01*
X193442142Y-99860714D01*
X193370714Y-99717857D01*
X193227857Y-99575000D01*
X193013571Y-99503571D01*
X192870714Y-99503571D01*
X192656428Y-99575000D01*
X192585000Y-99646428D01*
X191942142Y-101003571D02*
X191942142Y-99503571D01*
X191085000Y-101003571D02*
X191727857Y-100146428D01*
X191085000Y-99503571D02*
X191942142Y-100360714D01*
X213835000Y-104125000D02*
X213906428Y-104053571D01*
X214049285Y-103839285D01*
X214120714Y-103696428D01*
X214192142Y-103482142D01*
X214263571Y-103125000D01*
X214263571Y-102839285D01*
X214192142Y-102482142D01*
X214120714Y-102267857D01*
X214049285Y-102125000D01*
X213906428Y-101910714D01*
X213835000Y-101839285D01*
X212406428Y-103410714D02*
X212477857Y-103482142D01*
X212692142Y-103553571D01*
X212835000Y-103553571D01*
X213049285Y-103482142D01*
X213192142Y-103339285D01*
X213263571Y-103196428D01*
X213335000Y-102910714D01*
X213335000Y-102696428D01*
X213263571Y-102410714D01*
X213192142Y-102267857D01*
X213049285Y-102125000D01*
X212835000Y-102053571D01*
X212692142Y-102053571D01*
X212477857Y-102125000D01*
X212406428Y-102196428D01*
X211906428Y-104125000D02*
X211835000Y-104053571D01*
X211692142Y-103839285D01*
X211620714Y-103696428D01*
X211549285Y-103482142D01*
X211477857Y-103125000D01*
X211477857Y-102839285D01*
X211549285Y-102482142D01*
X211620714Y-102267857D01*
X211692142Y-102125000D01*
X211835000Y-101910714D01*
X211906428Y-101839285D01*
X210835000Y-102196428D02*
X210763571Y-102125000D01*
X210620714Y-102053571D01*
X210263571Y-102053571D01*
X210120714Y-102125000D01*
X210049285Y-102196428D01*
X209977857Y-102339285D01*
X209977857Y-102482142D01*
X210049285Y-102696428D01*
X210906428Y-103553571D01*
X209977857Y-103553571D01*
X209049285Y-102053571D02*
X208906428Y-102053571D01*
X208763571Y-102125000D01*
X208692142Y-102196428D01*
X208620714Y-102339285D01*
X208549285Y-102625000D01*
X208549285Y-102982142D01*
X208620714Y-103267857D01*
X208692142Y-103410714D01*
X208763571Y-103482142D01*
X208906428Y-103553571D01*
X209049285Y-103553571D01*
X209192142Y-103482142D01*
X209263571Y-103410714D01*
X209335000Y-103267857D01*
X209406428Y-102982142D01*
X209406428Y-102625000D01*
X209335000Y-102339285D01*
X209263571Y-102196428D01*
X209192142Y-102125000D01*
X209049285Y-102053571D01*
X207977857Y-102196428D02*
X207906428Y-102125000D01*
X207763571Y-102053571D01*
X207406428Y-102053571D01*
X207263571Y-102125000D01*
X207192142Y-102196428D01*
X207120714Y-102339285D01*
X207120714Y-102482142D01*
X207192142Y-102696428D01*
X208049285Y-103553571D01*
X207120714Y-103553571D01*
X206192142Y-102053571D02*
X206049285Y-102053571D01*
X205906428Y-102125000D01*
X205835000Y-102196428D01*
X205763571Y-102339285D01*
X205692142Y-102625000D01*
X205692142Y-102982142D01*
X205763571Y-103267857D01*
X205835000Y-103410714D01*
X205906428Y-103482142D01*
X206049285Y-103553571D01*
X206192142Y-103553571D01*
X206335000Y-103482142D01*
X206406428Y-103410714D01*
X206477857Y-103267857D01*
X206549285Y-102982142D01*
X206549285Y-102625000D01*
X206477857Y-102339285D01*
X206406428Y-102196428D01*
X206335000Y-102125000D01*
X206192142Y-102053571D01*
X203477857Y-102053571D02*
X203477857Y-103125000D01*
X203549285Y-103339285D01*
X203692142Y-103482142D01*
X203906428Y-103553571D01*
X204049285Y-103553571D01*
X202477857Y-102053571D02*
X202192142Y-102053571D01*
X202049285Y-102125000D01*
X201906428Y-102267857D01*
X201835000Y-102553571D01*
X201835000Y-103053571D01*
X201906428Y-103339285D01*
X202049285Y-103482142D01*
X202192142Y-103553571D01*
X202477857Y-103553571D01*
X202620714Y-103482142D01*
X202763571Y-103339285D01*
X202835000Y-103053571D01*
X202835000Y-102553571D01*
X202763571Y-102267857D01*
X202620714Y-102125000D01*
X202477857Y-102053571D01*
X201263571Y-103482142D02*
X201049285Y-103553571D01*
X200692142Y-103553571D01*
X200549285Y-103482142D01*
X200477857Y-103410714D01*
X200406428Y-103267857D01*
X200406428Y-103125000D01*
X200477857Y-102982142D01*
X200549285Y-102910714D01*
X200692142Y-102839285D01*
X200977857Y-102767857D01*
X201120714Y-102696428D01*
X201192142Y-102625000D01*
X201263571Y-102482142D01*
X201263571Y-102339285D01*
X201192142Y-102196428D01*
X201120714Y-102125000D01*
X200977857Y-102053571D01*
X200620714Y-102053571D01*
X200406428Y-102125000D01*
X199763571Y-103553571D02*
X199763571Y-102053571D01*
X199763571Y-102767857D02*
X198906428Y-102767857D01*
X198906428Y-103553571D02*
X198906428Y-102053571D01*
X198192142Y-103410714D02*
X198120714Y-103482142D01*
X198192142Y-103553571D01*
X198263571Y-103482142D01*
X198192142Y-103410714D01*
X198192142Y-103553571D01*
X196620714Y-103410714D02*
X196692142Y-103482142D01*
X196906428Y-103553571D01*
X197049285Y-103553571D01*
X197263571Y-103482142D01*
X197406428Y-103339285D01*
X197477857Y-103196428D01*
X197549285Y-102910714D01*
X197549285Y-102696428D01*
X197477857Y-102410714D01*
X197406428Y-102267857D01*
X197263571Y-102125000D01*
X197049285Y-102053571D01*
X196906428Y-102053571D01*
X196692142Y-102125000D01*
X196620714Y-102196428D01*
X195692142Y-102053571D02*
X195406428Y-102053571D01*
X195263571Y-102125000D01*
X195120714Y-102267857D01*
X195049285Y-102553571D01*
X195049285Y-103053571D01*
X195120714Y-103339285D01*
X195263571Y-103482142D01*
X195406428Y-103553571D01*
X195692142Y-103553571D01*
X195835000Y-103482142D01*
X195977857Y-103339285D01*
X196049285Y-103053571D01*
X196049285Y-102553571D01*
X195977857Y-102267857D01*
X195835000Y-102125000D01*
X195692142Y-102053571D01*
X194406428Y-103553571D02*
X194406428Y-102053571D01*
X193906428Y-103125000D01*
X193406428Y-102053571D01*
X193406428Y-103553571D01*
D11*
X106934000Y-110363000D02*
G75*
G03X107569000Y-110998000I635000J0D01*
G01*
X129159000Y-110998000D02*
G75*
G03X129794000Y-110363000I0J635000D01*
G01*
X107569000Y-93218000D02*
G75*
G03X106934000Y-93853000I0J-635000D01*
G01*
X129794000Y-93853000D02*
G75*
G03X129159000Y-93218000I-635000J0D01*
G01*
X107569000Y-93218000D02*
X129159000Y-93218000D01*
X106934000Y-110363000D02*
X106934000Y-93853000D01*
X129159000Y-110998000D02*
X107569000Y-110998000D01*
X129794000Y-93853000D02*
X129794000Y-110363000D01*
D12*
X128584000Y-109788000D02*
X128584000Y-108458000D01*
X127254000Y-109788000D02*
X128584000Y-109788000D01*
X125984000Y-109788000D02*
X125984000Y-107128000D01*
X125984000Y-107128000D02*
X108144000Y-107128000D01*
X125984000Y-109788000D02*
X108144000Y-109788000D01*
X108144000Y-109788000D02*
X108144000Y-107128000D01*
X139570000Y-110620000D02*
X139570000Y-92580000D01*
X183010000Y-110620000D02*
X139570000Y-110620000D01*
X183010000Y-92580000D02*
X183010000Y-110620000D01*
X180340000Y-95250000D02*
X180340000Y-92580000D01*
X144780000Y-95250000D02*
X180340000Y-95250000D01*
X144780000Y-95250000D02*
X144780000Y-92580000D01*
X180340000Y-107950000D02*
X180340000Y-110620000D01*
X142240000Y-107950000D02*
X180340000Y-107950000D01*
X142240000Y-107950000D02*
X142240000Y-110620000D01*
X139570000Y-92580000D02*
X142240000Y-92580000D01*
X144780000Y-92580000D02*
X183010000Y-92580000D01*
X142240000Y-95250000D02*
X142240000Y-92580000D01*
X144780000Y-95250000D02*
X142240000Y-95250000D01*
D11*
X129036380Y-94996095D02*
X129845904Y-94996095D01*
X129941142Y-95043714D01*
X129988761Y-95091333D01*
X130036380Y-95186571D01*
X130036380Y-95377047D01*
X129988761Y-95472285D01*
X129941142Y-95519904D01*
X129845904Y-95567523D01*
X129036380Y-95567523D01*
X129369714Y-96472285D02*
X130036380Y-96472285D01*
X128988761Y-96234190D02*
X129703047Y-95996095D01*
X129703047Y-96615142D01*
X122538571Y-99226666D02*
X122062380Y-99226666D01*
X122633809Y-99512380D02*
X122300476Y-98512380D01*
X121967142Y-99512380D01*
X121633809Y-99512380D02*
X121633809Y-98512380D01*
X121395714Y-98512380D01*
X121252857Y-98560000D01*
X121157619Y-98655238D01*
X121110000Y-98750476D01*
X121062380Y-98940952D01*
X121062380Y-99083809D01*
X121110000Y-99274285D01*
X121157619Y-99369523D01*
X121252857Y-99464761D01*
X121395714Y-99512380D01*
X121633809Y-99512380D01*
X120681428Y-99226666D02*
X120205238Y-99226666D01*
X120776666Y-99512380D02*
X120443333Y-98512380D01*
X120110000Y-99512380D01*
X120014761Y-99607619D02*
X119252857Y-99607619D01*
X119014761Y-99512380D02*
X119014761Y-98512380D01*
X118776666Y-98512380D01*
X118633809Y-98560000D01*
X118538571Y-98655238D01*
X118490952Y-98750476D01*
X118443333Y-98940952D01*
X118443333Y-99083809D01*
X118490952Y-99274285D01*
X118538571Y-99369523D01*
X118633809Y-99464761D01*
X118776666Y-99512380D01*
X119014761Y-99512380D01*
X118062380Y-99464761D02*
X117919523Y-99512380D01*
X117681428Y-99512380D01*
X117586190Y-99464761D01*
X117538571Y-99417142D01*
X117490952Y-99321904D01*
X117490952Y-99226666D01*
X117538571Y-99131428D01*
X117586190Y-99083809D01*
X117681428Y-99036190D01*
X117871904Y-98988571D01*
X117967142Y-98940952D01*
X118014761Y-98893333D01*
X118062380Y-98798095D01*
X118062380Y-98702857D01*
X118014761Y-98607619D01*
X117967142Y-98560000D01*
X117871904Y-98512380D01*
X117633809Y-98512380D01*
X117490952Y-98560000D01*
X117157619Y-98512380D02*
X116538571Y-98512380D01*
X116871904Y-98893333D01*
X116729047Y-98893333D01*
X116633809Y-98940952D01*
X116586190Y-98988571D01*
X116538571Y-99083809D01*
X116538571Y-99321904D01*
X116586190Y-99417142D01*
X116633809Y-99464761D01*
X116729047Y-99512380D01*
X117014761Y-99512380D01*
X117110000Y-99464761D01*
X117157619Y-99417142D01*
X116157619Y-98607619D02*
X116110000Y-98560000D01*
X116014761Y-98512380D01*
X115776666Y-98512380D01*
X115681428Y-98560000D01*
X115633809Y-98607619D01*
X115586190Y-98702857D01*
X115586190Y-98798095D01*
X115633809Y-98940952D01*
X116205238Y-99512380D01*
X115586190Y-99512380D01*
X115252857Y-98512380D02*
X114633809Y-98512380D01*
X114967142Y-98893333D01*
X114824285Y-98893333D01*
X114729047Y-98940952D01*
X114681428Y-98988571D01*
X114633809Y-99083809D01*
X114633809Y-99321904D01*
X114681428Y-99417142D01*
X114729047Y-99464761D01*
X114824285Y-99512380D01*
X115110000Y-99512380D01*
X115205238Y-99464761D01*
X115252857Y-99417142D01*
X113681428Y-99512380D02*
X114252857Y-99512380D01*
X113967142Y-99512380D02*
X113967142Y-98512380D01*
X114062380Y-98655238D01*
X114157619Y-98750476D01*
X114252857Y-98798095D01*
X143676666Y-95805714D02*
X143676666Y-96281904D01*
X143962380Y-95710476D02*
X142962380Y-96043809D01*
X143962380Y-96377142D01*
X143962380Y-97234285D02*
X143962380Y-96662857D01*
X143962380Y-96948571D02*
X142962380Y-96948571D01*
X143105238Y-96853333D01*
X143200476Y-96758095D01*
X143248095Y-96662857D01*
X167901095Y-102782666D02*
X167424904Y-102782666D01*
X167996333Y-103068380D02*
X167663000Y-102068380D01*
X167329666Y-103068380D01*
X166996333Y-103068380D02*
X166996333Y-102401714D01*
X166996333Y-102592190D02*
X166948714Y-102496952D01*
X166901095Y-102449333D01*
X166805857Y-102401714D01*
X166710619Y-102401714D01*
X165948714Y-103068380D02*
X165948714Y-102068380D01*
X165948714Y-103020761D02*
X166043952Y-103068380D01*
X166234428Y-103068380D01*
X166329666Y-103020761D01*
X166377285Y-102973142D01*
X166424904Y-102877904D01*
X166424904Y-102592190D01*
X166377285Y-102496952D01*
X166329666Y-102449333D01*
X166234428Y-102401714D01*
X166043952Y-102401714D01*
X165948714Y-102449333D01*
X165043952Y-102401714D02*
X165043952Y-103068380D01*
X165472523Y-102401714D02*
X165472523Y-102925523D01*
X165424904Y-103020761D01*
X165329666Y-103068380D01*
X165186809Y-103068380D01*
X165091571Y-103020761D01*
X165043952Y-102973142D01*
X164567761Y-103068380D02*
X164567761Y-102401714D01*
X164567761Y-102068380D02*
X164615380Y-102116000D01*
X164567761Y-102163619D01*
X164520142Y-102116000D01*
X164567761Y-102068380D01*
X164567761Y-102163619D01*
X164091571Y-102401714D02*
X164091571Y-103068380D01*
X164091571Y-102496952D02*
X164043952Y-102449333D01*
X163948714Y-102401714D01*
X163805857Y-102401714D01*
X163710619Y-102449333D01*
X163663000Y-102544571D01*
X163663000Y-103068380D01*
X163043952Y-103068380D02*
X163139190Y-103020761D01*
X163186809Y-102973142D01*
X163234428Y-102877904D01*
X163234428Y-102592190D01*
X163186809Y-102496952D01*
X163139190Y-102449333D01*
X163043952Y-102401714D01*
X162901095Y-102401714D01*
X162805857Y-102449333D01*
X162758238Y-102496952D01*
X162710619Y-102592190D01*
X162710619Y-102877904D01*
X162758238Y-102973142D01*
X162805857Y-103020761D01*
X162901095Y-103068380D01*
X163043952Y-103068380D01*
X162520142Y-103163619D02*
X161758238Y-103163619D01*
X161520142Y-103068380D02*
X161520142Y-102068380D01*
X160948714Y-103068380D01*
X160948714Y-102068380D01*
X160043952Y-103068380D02*
X160043952Y-102544571D01*
X160091571Y-102449333D01*
X160186809Y-102401714D01*
X160377285Y-102401714D01*
X160472523Y-102449333D01*
X160043952Y-103020761D02*
X160139190Y-103068380D01*
X160377285Y-103068380D01*
X160472523Y-103020761D01*
X160520142Y-102925523D01*
X160520142Y-102830285D01*
X160472523Y-102735047D01*
X160377285Y-102687428D01*
X160139190Y-102687428D01*
X160043952Y-102639809D01*
X159567761Y-102401714D02*
X159567761Y-103068380D01*
X159567761Y-102496952D02*
X159520142Y-102449333D01*
X159424904Y-102401714D01*
X159282047Y-102401714D01*
X159186809Y-102449333D01*
X159139190Y-102544571D01*
X159139190Y-103068380D01*
X158520142Y-103068380D02*
X158615380Y-103020761D01*
X158663000Y-102973142D01*
X158710619Y-102877904D01*
X158710619Y-102592190D01*
X158663000Y-102496952D01*
X158615380Y-102449333D01*
X158520142Y-102401714D01*
X158377285Y-102401714D01*
X158282047Y-102449333D01*
X158234428Y-102496952D01*
X158186809Y-102592190D01*
X158186809Y-102877904D01*
X158234428Y-102973142D01*
X158282047Y-103020761D01*
X158377285Y-103068380D01*
X158520142Y-103068380D01*
X157996333Y-103163619D02*
X157234428Y-103163619D01*
X157091571Y-102401714D02*
X156853476Y-103068380D01*
X156615380Y-102401714D01*
X156329666Y-102068380D02*
X155710619Y-102068380D01*
X156043952Y-102449333D01*
X155901095Y-102449333D01*
X155805857Y-102496952D01*
X155758238Y-102544571D01*
X155710619Y-102639809D01*
X155710619Y-102877904D01*
X155758238Y-102973142D01*
X155805857Y-103020761D01*
X155901095Y-103068380D01*
X156186809Y-103068380D01*
X156282047Y-103020761D01*
X156329666Y-102973142D01*
X155282047Y-102973142D02*
X155234428Y-103020761D01*
X155282047Y-103068380D01*
X155329666Y-103020761D01*
X155282047Y-102973142D01*
X155282047Y-103068380D01*
X154901095Y-103068380D02*
X154377285Y-102401714D01*
X154901095Y-102401714D02*
X154377285Y-103068380D01*
M02*
