M48
; DRILL file {KiCad (5.1.5)-3} date 1/29/2020 1:23:51 AM
; FORMAT={-:-/ absolute / inch / decimal}
; #@! TF.CreationDate,2020-01-29T01:23:51-05:00
; #@! TF.GenerationSoftware,Kicad,Pcbnew,(5.1.5)-3
; #@! TF.FileFunction,Plated,1,2,PTH
FMAT,2
INCH
T1C0.0315
T2C0.0394
T3C0.0591
%
G90
G05
T1
X4.05Y-3.5
X4.05Y-4.5
X4.15Y-3.5
X4.15Y-4.5
X4.25Y-3.5
X4.25Y-4.5
X4.35Y-3.5
X4.35Y-4.5
X4.45Y-3.5
X4.45Y-4.5
X4.55Y-3.5
X4.55Y-4.5
X4.65Y-3.5
X4.65Y-4.5
X4.75Y-3.5
X4.75Y-4.5
X4.85Y-3.5
X4.85Y-4.5
X4.95Y-3.5
X4.95Y-4.5
X5.05Y-3.5
X5.05Y-4.5
X5.15Y-3.5
X5.15Y-4.5
X5.25Y-3.5
X5.25Y-4.5
X7.45Y-3.5
X7.45Y-4.5
X7.55Y-3.5
X7.55Y-4.5
X7.65Y-3.5
X7.65Y-4.5
X7.75Y-3.5
X7.75Y-4.5
X7.85Y-3.5
X7.85Y-4.5
X7.95Y-3.5
X7.95Y-4.5
X8.05Y-3.5
X8.05Y-4.5
X8.15Y-3.5
X8.15Y-4.5
X8.25Y-3.5
X8.25Y-4.5
X8.35Y-3.5
X8.35Y-4.5
X8.45Y-3.5
X8.45Y-4.5
X8.55Y-3.5
X8.55Y-4.5
X8.65Y-3.5
X8.65Y-4.5
X5.75Y-3.5
X5.75Y-4.5
X5.85Y-3.5
X5.85Y-4.5
X5.95Y-3.5
X5.95Y-4.5
X6.05Y-3.5
X6.05Y-4.5
X6.15Y-3.5
X6.15Y-4.5
X6.25Y-3.5
X6.25Y-4.5
X6.35Y-3.5
X6.35Y-4.5
X6.45Y-3.5
X6.45Y-4.5
X6.55Y-3.5
X6.55Y-4.5
X6.65Y-3.5
X6.65Y-4.5
X6.75Y-3.5
X6.75Y-4.5
X6.85Y-3.5
X6.85Y-4.5
X6.95Y-3.5
X6.95Y-4.5
X5.65Y-3.7
X5.65Y-4.3
X5.75Y-3.7
X5.75Y-4.3
X5.85Y-3.7
X5.85Y-4.3
X5.95Y-3.7
X5.95Y-4.3
X6.05Y-3.7
X6.05Y-4.3
X6.15Y-3.7
X6.15Y-4.3
X6.25Y-3.7
X6.25Y-4.3
X6.35Y-3.7
X6.35Y-4.3
X6.45Y-3.7
X6.45Y-4.3
X6.55Y-3.7
X6.55Y-4.3
X6.65Y-3.7
X6.65Y-4.3
X6.75Y-3.7
X6.75Y-4.3
X6.85Y-3.7
X6.85Y-4.3
X6.95Y-3.7
X6.95Y-4.3
X7.05Y-3.7
X7.05Y-4.3
T2
X4.31Y-4.27
X4.41Y-4.27
X4.51Y-4.27
X4.61Y-4.27
X4.71Y-4.27
X4.81Y-4.27
X4.91Y-4.27
X5.01Y-4.27
X2.9791Y-3.9031
X2.9791Y-4.1
X3.55Y-3.9031
X3.55Y-4.0016
X3.55Y-4.1
T3
G00X3.2803Y-3.7811
M15
G01X3.2291Y-3.7811
M16
G05
G00X3.2803Y-4.222
M15
G01X3.2291Y-4.222
M16
G05
T0
M30
