G04 #@! TF.GenerationSoftware,KiCad,Pcbnew,(5.1.5)-3*
G04 #@! TF.CreationDate,2020-02-09T22:21:36-05:00*
G04 #@! TF.ProjectId,IEEE-Clock-Charlie,49454545-2d43-46c6-9f63-6b2d43686172,rev?*
G04 #@! TF.SameCoordinates,Original*
G04 #@! TF.FileFunction,Legend,Bot*
G04 #@! TF.FilePolarity,Positive*
%FSLAX46Y46*%
G04 Gerber Fmt 4.6, Leading zero omitted, Abs format (unit mm)*
G04 Created by KiCad (PCBNEW (5.1.5)-3) date 2020-02-09 22:21:36*
%MOMM*%
%LPD*%
G04 APERTURE LIST*
%ADD10C,0.150000*%
%ADD11C,0.120000*%
%ADD12C,0.300000*%
G04 APERTURE END LIST*
D10*
X49823619Y-97409523D02*
X49823619Y-98028571D01*
X49442666Y-97695238D01*
X49442666Y-97838095D01*
X49395047Y-97933333D01*
X49347428Y-97980952D01*
X49252190Y-98028571D01*
X49014095Y-98028571D01*
X48918857Y-97980952D01*
X48871238Y-97933333D01*
X48823619Y-97838095D01*
X48823619Y-97552380D01*
X48871238Y-97457142D01*
X48918857Y-97409523D01*
X49395047Y-98600000D02*
X49442666Y-98504761D01*
X49490285Y-98457142D01*
X49585523Y-98409523D01*
X49633142Y-98409523D01*
X49728380Y-98457142D01*
X49776000Y-98504761D01*
X49823619Y-98600000D01*
X49823619Y-98790476D01*
X49776000Y-98885714D01*
X49728380Y-98933333D01*
X49633142Y-98980952D01*
X49585523Y-98980952D01*
X49490285Y-98933333D01*
X49442666Y-98885714D01*
X49395047Y-98790476D01*
X49395047Y-98600000D01*
X49347428Y-98504761D01*
X49299809Y-98457142D01*
X49204571Y-98409523D01*
X49014095Y-98409523D01*
X48918857Y-98457142D01*
X48871238Y-98504761D01*
X48823619Y-98600000D01*
X48823619Y-98790476D01*
X48871238Y-98885714D01*
X48918857Y-98933333D01*
X49014095Y-98980952D01*
X49204571Y-98980952D01*
X49299809Y-98933333D01*
X49347428Y-98885714D01*
X49395047Y-98790476D01*
X48918857Y-99409523D02*
X48871238Y-99457142D01*
X48823619Y-99409523D01*
X48871238Y-99361904D01*
X48918857Y-99409523D01*
X48823619Y-99409523D01*
X48823619Y-100409523D02*
X48823619Y-99838095D01*
X48823619Y-100123809D02*
X49823619Y-100123809D01*
X49680761Y-100028571D01*
X49585523Y-99933333D01*
X49537904Y-99838095D01*
X49823619Y-101028571D02*
X49823619Y-101123809D01*
X49776000Y-101219047D01*
X49728380Y-101266666D01*
X49633142Y-101314285D01*
X49442666Y-101361904D01*
X49204571Y-101361904D01*
X49014095Y-101314285D01*
X48918857Y-101266666D01*
X48871238Y-101219047D01*
X48823619Y-101123809D01*
X48823619Y-101028571D01*
X48871238Y-100933333D01*
X48918857Y-100885714D01*
X49014095Y-100838095D01*
X49204571Y-100790476D01*
X49442666Y-100790476D01*
X49633142Y-100838095D01*
X49728380Y-100885714D01*
X49776000Y-100933333D01*
X49823619Y-101028571D01*
X49823619Y-101980952D02*
X49823619Y-102076190D01*
X49776000Y-102171428D01*
X49728380Y-102219047D01*
X49633142Y-102266666D01*
X49442666Y-102314285D01*
X49204571Y-102314285D01*
X49014095Y-102266666D01*
X48918857Y-102219047D01*
X48871238Y-102171428D01*
X48823619Y-102076190D01*
X48823619Y-101980952D01*
X48871238Y-101885714D01*
X48918857Y-101838095D01*
X49014095Y-101790476D01*
X49204571Y-101742857D01*
X49442666Y-101742857D01*
X49633142Y-101790476D01*
X49728380Y-101838095D01*
X49776000Y-101885714D01*
X49823619Y-101980952D01*
X48823619Y-103504761D02*
X49490285Y-103504761D01*
X49395047Y-103504761D02*
X49442666Y-103552380D01*
X49490285Y-103647619D01*
X49490285Y-103790476D01*
X49442666Y-103885714D01*
X49347428Y-103933333D01*
X48823619Y-103933333D01*
X49347428Y-103933333D02*
X49442666Y-103980952D01*
X49490285Y-104076190D01*
X49490285Y-104219047D01*
X49442666Y-104314285D01*
X49347428Y-104361904D01*
X48823619Y-104361904D01*
X48823619Y-104838095D02*
X49490285Y-104838095D01*
X49395047Y-104838095D02*
X49442666Y-104885714D01*
X49490285Y-104980952D01*
X49490285Y-105123809D01*
X49442666Y-105219047D01*
X49347428Y-105266666D01*
X48823619Y-105266666D01*
X49347428Y-105266666D02*
X49442666Y-105314285D01*
X49490285Y-105409523D01*
X49490285Y-105552380D01*
X49442666Y-105647619D01*
X49347428Y-105695238D01*
X48823619Y-105695238D01*
D11*
X50546000Y-82550000D02*
X50546000Y-120650000D01*
X86868000Y-82550000D02*
X49959579Y-82550000D01*
X86868000Y-120650000D02*
X49959579Y-120650000D01*
X50546000Y-120650000D02*
X49959579Y-119523496D01*
X50546000Y-120650000D02*
X51132421Y-119523496D01*
X50546000Y-82550000D02*
X49959579Y-83676504D01*
X50546000Y-82550000D02*
X51132421Y-83676504D01*
D10*
X154247135Y-62125958D02*
X153675707Y-62124961D01*
X153961421Y-62125460D02*
X153963167Y-61125461D01*
X153867679Y-61268152D01*
X153772275Y-61363224D01*
X153676954Y-61410676D01*
X154819560Y-61555528D02*
X154724405Y-61507743D01*
X154676869Y-61460041D01*
X154629417Y-61364720D01*
X154629500Y-61317101D01*
X154677285Y-61221946D01*
X154724987Y-61174410D01*
X154820308Y-61126957D01*
X155010784Y-61127290D01*
X155105939Y-61175075D01*
X155153475Y-61222777D01*
X155200927Y-61318098D01*
X155200844Y-61365717D01*
X155153059Y-61460872D01*
X155105357Y-61508408D01*
X155010036Y-61555860D01*
X154819560Y-61555528D01*
X154724239Y-61602981D01*
X154676537Y-61650517D01*
X154628752Y-61745671D01*
X154628419Y-61936147D01*
X154675872Y-62031468D01*
X154723408Y-62079170D01*
X154818563Y-62126956D01*
X155009039Y-62127288D01*
X155104360Y-62079835D01*
X155152062Y-62032299D01*
X155199847Y-61937145D01*
X155200179Y-61746669D01*
X155152727Y-61651348D01*
X155105191Y-61603646D01*
X155010036Y-61555860D01*
X155675704Y-62128452D02*
X155866180Y-62128784D01*
X155961501Y-62081331D01*
X156009203Y-62033795D01*
X156104691Y-61891105D01*
X156152642Y-61700712D01*
X156153307Y-61319760D01*
X156105854Y-61224439D01*
X156058318Y-61176737D01*
X155963163Y-61128952D01*
X155772688Y-61128619D01*
X155677367Y-61176072D01*
X155629664Y-61223608D01*
X155581879Y-61318763D01*
X155581464Y-61556858D01*
X155628916Y-61652179D01*
X155676452Y-61699881D01*
X155771607Y-61747666D01*
X155962083Y-61747999D01*
X156057404Y-61700546D01*
X156105106Y-61653010D01*
X156152891Y-61557855D01*
X156580631Y-62034793D02*
X156628167Y-62082495D01*
X156580465Y-62130031D01*
X156532929Y-62082329D01*
X156580631Y-62034793D01*
X156580465Y-62130031D01*
X157104274Y-62130945D02*
X157294749Y-62131277D01*
X157390071Y-62083825D01*
X157437773Y-62036289D01*
X157533260Y-61893598D01*
X157581211Y-61703205D01*
X157581876Y-61322254D01*
X157534423Y-61226932D01*
X157486888Y-61179230D01*
X157391733Y-61131445D01*
X157201257Y-61131113D01*
X157105936Y-61178565D01*
X157058234Y-61226101D01*
X157010449Y-61321256D01*
X157010033Y-61559351D01*
X157057486Y-61654672D01*
X157105022Y-61702374D01*
X157200176Y-61750159D01*
X157390652Y-61750492D01*
X157485973Y-61703039D01*
X157533675Y-61655503D01*
X157581461Y-61560348D01*
X158056653Y-62132607D02*
X158247129Y-62132940D01*
X158342450Y-62085487D01*
X158390152Y-62037951D01*
X158485639Y-61895260D01*
X158533591Y-61704868D01*
X158534256Y-61323916D01*
X158486803Y-61228595D01*
X158439267Y-61180893D01*
X158344112Y-61133107D01*
X158153636Y-61132775D01*
X158058315Y-61180228D01*
X158010613Y-61227764D01*
X157962828Y-61322918D01*
X157962412Y-61561013D01*
X158009865Y-61656334D01*
X158057401Y-61704036D01*
X158152556Y-61751822D01*
X158343032Y-61752154D01*
X158438353Y-61704701D01*
X158486055Y-61657165D01*
X158533840Y-61562011D01*
X158915374Y-61229343D02*
X158963076Y-61181807D01*
X159058397Y-61134354D01*
X159296492Y-61134770D01*
X159391647Y-61182555D01*
X159439182Y-61230257D01*
X159486635Y-61325578D01*
X159486469Y-61420816D01*
X159438601Y-61563590D01*
X158866176Y-62134020D01*
X159485222Y-62135101D01*
X160675697Y-62137178D02*
X160676860Y-61470513D01*
X160676694Y-61565751D02*
X160724396Y-61518215D01*
X160819717Y-61470762D01*
X160962574Y-61471011D01*
X161057729Y-61518797D01*
X161105182Y-61614118D01*
X161104267Y-62137926D01*
X161105182Y-61614118D02*
X161152967Y-61518963D01*
X161248288Y-61471510D01*
X161391145Y-61471759D01*
X161486300Y-61519545D01*
X161533752Y-61614866D01*
X161532838Y-62138674D01*
X162009028Y-62139505D02*
X162010192Y-61472840D01*
X162010025Y-61568078D02*
X162057727Y-61520542D01*
X162153048Y-61473089D01*
X162295905Y-61473338D01*
X162391060Y-61521124D01*
X162438513Y-61616445D01*
X162437599Y-62140253D01*
X162438513Y-61616445D02*
X162486298Y-61521290D01*
X162581619Y-61473837D01*
X162724476Y-61474086D01*
X162819631Y-61521872D01*
X162867084Y-61617193D01*
X162866170Y-62141001D01*
D11*
X63297840Y-62823642D02*
X253289840Y-63077642D01*
X63246000Y-101600000D02*
X63298624Y-62237221D01*
X253238000Y-101854000D02*
X253290624Y-62491221D01*
X253289840Y-63077642D02*
X252162553Y-63662556D01*
X253289840Y-63077642D02*
X252164121Y-62489716D01*
X63297840Y-62823642D02*
X64423559Y-63411568D01*
X63297840Y-62823642D02*
X64425127Y-62238728D01*
D12*
X216513571Y-101003571D02*
X216513571Y-99503571D01*
X215799285Y-100217857D02*
X215299285Y-100217857D01*
X215085000Y-101003571D02*
X215799285Y-101003571D01*
X215799285Y-99503571D01*
X215085000Y-99503571D01*
X214442142Y-100217857D02*
X213942142Y-100217857D01*
X213727857Y-101003571D02*
X214442142Y-101003571D01*
X214442142Y-99503571D01*
X213727857Y-99503571D01*
X213085000Y-100217857D02*
X212585000Y-100217857D01*
X212370714Y-101003571D02*
X213085000Y-101003571D01*
X213085000Y-99503571D01*
X212370714Y-99503571D01*
X210656428Y-100932142D02*
X210442142Y-101003571D01*
X210085000Y-101003571D01*
X209942142Y-100932142D01*
X209870714Y-100860714D01*
X209799285Y-100717857D01*
X209799285Y-100575000D01*
X209870714Y-100432142D01*
X209942142Y-100360714D01*
X210085000Y-100289285D01*
X210370714Y-100217857D01*
X210513571Y-100146428D01*
X210585000Y-100075000D01*
X210656428Y-99932142D01*
X210656428Y-99789285D01*
X210585000Y-99646428D01*
X210513571Y-99575000D01*
X210370714Y-99503571D01*
X210013571Y-99503571D01*
X209799285Y-99575000D01*
X209156428Y-101003571D02*
X209156428Y-99503571D01*
X208585000Y-99503571D01*
X208442142Y-99575000D01*
X208370714Y-99646428D01*
X208299285Y-99789285D01*
X208299285Y-100003571D01*
X208370714Y-100146428D01*
X208442142Y-100217857D01*
X208585000Y-100289285D01*
X209156428Y-100289285D01*
X207656428Y-100217857D02*
X207156428Y-100217857D01*
X206942142Y-101003571D02*
X207656428Y-101003571D01*
X207656428Y-99503571D01*
X206942142Y-99503571D01*
X205442142Y-100860714D02*
X205513571Y-100932142D01*
X205727857Y-101003571D01*
X205870714Y-101003571D01*
X206085000Y-100932142D01*
X206227857Y-100789285D01*
X206299285Y-100646428D01*
X206370714Y-100360714D01*
X206370714Y-100146428D01*
X206299285Y-99860714D01*
X206227857Y-99717857D01*
X206085000Y-99575000D01*
X205870714Y-99503571D01*
X205727857Y-99503571D01*
X205513571Y-99575000D01*
X205442142Y-99646428D01*
X205013571Y-99503571D02*
X204156428Y-99503571D01*
X204585000Y-101003571D02*
X204585000Y-99503571D01*
X202799285Y-101003571D02*
X203299285Y-100289285D01*
X203656428Y-101003571D02*
X203656428Y-99503571D01*
X203085000Y-99503571D01*
X202942142Y-99575000D01*
X202870714Y-99646428D01*
X202799285Y-99789285D01*
X202799285Y-100003571D01*
X202870714Y-100146428D01*
X202942142Y-100217857D01*
X203085000Y-100289285D01*
X203656428Y-100289285D01*
X202156428Y-99503571D02*
X202156428Y-100717857D01*
X202085000Y-100860714D01*
X202013571Y-100932142D01*
X201870714Y-101003571D01*
X201585000Y-101003571D01*
X201442142Y-100932142D01*
X201370714Y-100860714D01*
X201299285Y-100717857D01*
X201299285Y-99503571D01*
X200585000Y-101003571D02*
X200585000Y-99503571D01*
X200085000Y-100575000D01*
X199585000Y-99503571D01*
X199585000Y-101003571D01*
X196870714Y-100860714D02*
X196942142Y-100932142D01*
X197156428Y-101003571D01*
X197299285Y-101003571D01*
X197513571Y-100932142D01*
X197656428Y-100789285D01*
X197727857Y-100646428D01*
X197799285Y-100360714D01*
X197799285Y-100146428D01*
X197727857Y-99860714D01*
X197656428Y-99717857D01*
X197513571Y-99575000D01*
X197299285Y-99503571D01*
X197156428Y-99503571D01*
X196942142Y-99575000D01*
X196870714Y-99646428D01*
X195513571Y-101003571D02*
X196227857Y-101003571D01*
X196227857Y-99503571D01*
X194727857Y-99503571D02*
X194442142Y-99503571D01*
X194299285Y-99575000D01*
X194156428Y-99717857D01*
X194085000Y-100003571D01*
X194085000Y-100503571D01*
X194156428Y-100789285D01*
X194299285Y-100932142D01*
X194442142Y-101003571D01*
X194727857Y-101003571D01*
X194870714Y-100932142D01*
X195013571Y-100789285D01*
X195085000Y-100503571D01*
X195085000Y-100003571D01*
X195013571Y-99717857D01*
X194870714Y-99575000D01*
X194727857Y-99503571D01*
X192585000Y-100860714D02*
X192656428Y-100932142D01*
X192870714Y-101003571D01*
X193013571Y-101003571D01*
X193227857Y-100932142D01*
X193370714Y-100789285D01*
X193442142Y-100646428D01*
X193513571Y-100360714D01*
X193513571Y-100146428D01*
X193442142Y-99860714D01*
X193370714Y-99717857D01*
X193227857Y-99575000D01*
X193013571Y-99503571D01*
X192870714Y-99503571D01*
X192656428Y-99575000D01*
X192585000Y-99646428D01*
X191942142Y-101003571D02*
X191942142Y-99503571D01*
X191085000Y-101003571D02*
X191727857Y-100146428D01*
X191085000Y-99503571D02*
X191942142Y-100360714D01*
X213835000Y-104125000D02*
X213906428Y-104053571D01*
X214049285Y-103839285D01*
X214120714Y-103696428D01*
X214192142Y-103482142D01*
X214263571Y-103125000D01*
X214263571Y-102839285D01*
X214192142Y-102482142D01*
X214120714Y-102267857D01*
X214049285Y-102125000D01*
X213906428Y-101910714D01*
X213835000Y-101839285D01*
X212406428Y-103410714D02*
X212477857Y-103482142D01*
X212692142Y-103553571D01*
X212835000Y-103553571D01*
X213049285Y-103482142D01*
X213192142Y-103339285D01*
X213263571Y-103196428D01*
X213335000Y-102910714D01*
X213335000Y-102696428D01*
X213263571Y-102410714D01*
X213192142Y-102267857D01*
X213049285Y-102125000D01*
X212835000Y-102053571D01*
X212692142Y-102053571D01*
X212477857Y-102125000D01*
X212406428Y-102196428D01*
X211906428Y-104125000D02*
X211835000Y-104053571D01*
X211692142Y-103839285D01*
X211620714Y-103696428D01*
X211549285Y-103482142D01*
X211477857Y-103125000D01*
X211477857Y-102839285D01*
X211549285Y-102482142D01*
X211620714Y-102267857D01*
X211692142Y-102125000D01*
X211835000Y-101910714D01*
X211906428Y-101839285D01*
X210835000Y-102196428D02*
X210763571Y-102125000D01*
X210620714Y-102053571D01*
X210263571Y-102053571D01*
X210120714Y-102125000D01*
X210049285Y-102196428D01*
X209977857Y-102339285D01*
X209977857Y-102482142D01*
X210049285Y-102696428D01*
X210906428Y-103553571D01*
X209977857Y-103553571D01*
X209049285Y-102053571D02*
X208906428Y-102053571D01*
X208763571Y-102125000D01*
X208692142Y-102196428D01*
X208620714Y-102339285D01*
X208549285Y-102625000D01*
X208549285Y-102982142D01*
X208620714Y-103267857D01*
X208692142Y-103410714D01*
X208763571Y-103482142D01*
X208906428Y-103553571D01*
X209049285Y-103553571D01*
X209192142Y-103482142D01*
X209263571Y-103410714D01*
X209335000Y-103267857D01*
X209406428Y-102982142D01*
X209406428Y-102625000D01*
X209335000Y-102339285D01*
X209263571Y-102196428D01*
X209192142Y-102125000D01*
X209049285Y-102053571D01*
X207977857Y-102196428D02*
X207906428Y-102125000D01*
X207763571Y-102053571D01*
X207406428Y-102053571D01*
X207263571Y-102125000D01*
X207192142Y-102196428D01*
X207120714Y-102339285D01*
X207120714Y-102482142D01*
X207192142Y-102696428D01*
X208049285Y-103553571D01*
X207120714Y-103553571D01*
X206192142Y-102053571D02*
X206049285Y-102053571D01*
X205906428Y-102125000D01*
X205835000Y-102196428D01*
X205763571Y-102339285D01*
X205692142Y-102625000D01*
X205692142Y-102982142D01*
X205763571Y-103267857D01*
X205835000Y-103410714D01*
X205906428Y-103482142D01*
X206049285Y-103553571D01*
X206192142Y-103553571D01*
X206335000Y-103482142D01*
X206406428Y-103410714D01*
X206477857Y-103267857D01*
X206549285Y-102982142D01*
X206549285Y-102625000D01*
X206477857Y-102339285D01*
X206406428Y-102196428D01*
X206335000Y-102125000D01*
X206192142Y-102053571D01*
X203477857Y-102053571D02*
X203477857Y-103125000D01*
X203549285Y-103339285D01*
X203692142Y-103482142D01*
X203906428Y-103553571D01*
X204049285Y-103553571D01*
X202477857Y-102053571D02*
X202192142Y-102053571D01*
X202049285Y-102125000D01*
X201906428Y-102267857D01*
X201835000Y-102553571D01*
X201835000Y-103053571D01*
X201906428Y-103339285D01*
X202049285Y-103482142D01*
X202192142Y-103553571D01*
X202477857Y-103553571D01*
X202620714Y-103482142D01*
X202763571Y-103339285D01*
X202835000Y-103053571D01*
X202835000Y-102553571D01*
X202763571Y-102267857D01*
X202620714Y-102125000D01*
X202477857Y-102053571D01*
X201263571Y-103482142D02*
X201049285Y-103553571D01*
X200692142Y-103553571D01*
X200549285Y-103482142D01*
X200477857Y-103410714D01*
X200406428Y-103267857D01*
X200406428Y-103125000D01*
X200477857Y-102982142D01*
X200549285Y-102910714D01*
X200692142Y-102839285D01*
X200977857Y-102767857D01*
X201120714Y-102696428D01*
X201192142Y-102625000D01*
X201263571Y-102482142D01*
X201263571Y-102339285D01*
X201192142Y-102196428D01*
X201120714Y-102125000D01*
X200977857Y-102053571D01*
X200620714Y-102053571D01*
X200406428Y-102125000D01*
X199763571Y-103553571D02*
X199763571Y-102053571D01*
X199763571Y-102767857D02*
X198906428Y-102767857D01*
X198906428Y-103553571D02*
X198906428Y-102053571D01*
X198192142Y-103410714D02*
X198120714Y-103482142D01*
X198192142Y-103553571D01*
X198263571Y-103482142D01*
X198192142Y-103410714D01*
X198192142Y-103553571D01*
X196620714Y-103410714D02*
X196692142Y-103482142D01*
X196906428Y-103553571D01*
X197049285Y-103553571D01*
X197263571Y-103482142D01*
X197406428Y-103339285D01*
X197477857Y-103196428D01*
X197549285Y-102910714D01*
X197549285Y-102696428D01*
X197477857Y-102410714D01*
X197406428Y-102267857D01*
X197263571Y-102125000D01*
X197049285Y-102053571D01*
X196906428Y-102053571D01*
X196692142Y-102125000D01*
X196620714Y-102196428D01*
X195692142Y-102053571D02*
X195406428Y-102053571D01*
X195263571Y-102125000D01*
X195120714Y-102267857D01*
X195049285Y-102553571D01*
X195049285Y-103053571D01*
X195120714Y-103339285D01*
X195263571Y-103482142D01*
X195406428Y-103553571D01*
X195692142Y-103553571D01*
X195835000Y-103482142D01*
X195977857Y-103339285D01*
X196049285Y-103053571D01*
X196049285Y-102553571D01*
X195977857Y-102267857D01*
X195835000Y-102125000D01*
X195692142Y-102053571D01*
X194406428Y-103553571D02*
X194406428Y-102053571D01*
X193906428Y-103125000D01*
X193406428Y-102053571D01*
X193406428Y-103553571D01*
D11*
X110806000Y-101838000D02*
X112206000Y-101838000D01*
X112906000Y-101138000D02*
X112906000Y-100538000D01*
X112206000Y-99838000D02*
X110806000Y-99838000D01*
X110106000Y-100538000D02*
X110106000Y-101138000D01*
X110106000Y-101138000D02*
G75*
G03X110806000Y-101838000I700000J0D01*
G01*
X110806000Y-99838000D02*
G75*
G03X110106000Y-100538000I0J-700000D01*
G01*
X112906000Y-100538000D02*
G75*
G03X112206000Y-99838000I-700000J0D01*
G01*
X112206000Y-101838000D02*
G75*
G03X112906000Y-101138000I0J700000D01*
G01*
X117664000Y-101838000D02*
X119064000Y-101838000D01*
X119764000Y-101138000D02*
X119764000Y-100538000D01*
X119064000Y-99838000D02*
X117664000Y-99838000D01*
X116964000Y-100538000D02*
X116964000Y-101138000D01*
X116964000Y-101138000D02*
G75*
G03X117664000Y-101838000I700000J0D01*
G01*
X117664000Y-99838000D02*
G75*
G03X116964000Y-100538000I0J-700000D01*
G01*
X119764000Y-100538000D02*
G75*
G03X119064000Y-99838000I-700000J0D01*
G01*
X119064000Y-101838000D02*
G75*
G03X119764000Y-101138000I0J700000D01*
G01*
X124739000Y-101838000D02*
X126139000Y-101838000D01*
X126839000Y-101138000D02*
X126839000Y-100538000D01*
X126139000Y-99838000D02*
X124739000Y-99838000D01*
X124039000Y-100538000D02*
X124039000Y-101138000D01*
X124039000Y-101138000D02*
G75*
G03X124739000Y-101838000I700000J0D01*
G01*
X124739000Y-99838000D02*
G75*
G03X124039000Y-100538000I0J-700000D01*
G01*
X126839000Y-100538000D02*
G75*
G03X126139000Y-99838000I-700000J0D01*
G01*
X126139000Y-101838000D02*
G75*
G03X126839000Y-101138000I0J700000D01*
G01*
X110806000Y-106156000D02*
X112206000Y-106156000D01*
X112906000Y-105456000D02*
X112906000Y-104856000D01*
X112206000Y-104156000D02*
X110806000Y-104156000D01*
X110106000Y-104856000D02*
X110106000Y-105456000D01*
X110106000Y-105456000D02*
G75*
G03X110806000Y-106156000I700000J0D01*
G01*
X110806000Y-104156000D02*
G75*
G03X110106000Y-104856000I0J-700000D01*
G01*
X112906000Y-104856000D02*
G75*
G03X112206000Y-104156000I-700000J0D01*
G01*
X112206000Y-106156000D02*
G75*
G03X112906000Y-105456000I0J700000D01*
G01*
X117664000Y-105902000D02*
X119064000Y-105902000D01*
X119764000Y-105202000D02*
X119764000Y-104602000D01*
X119064000Y-103902000D02*
X117664000Y-103902000D01*
X116964000Y-104602000D02*
X116964000Y-105202000D01*
X116964000Y-105202000D02*
G75*
G03X117664000Y-105902000I700000J0D01*
G01*
X117664000Y-103902000D02*
G75*
G03X116964000Y-104602000I0J-700000D01*
G01*
X119764000Y-104602000D02*
G75*
G03X119064000Y-103902000I-700000J0D01*
G01*
X119064000Y-105902000D02*
G75*
G03X119764000Y-105202000I0J700000D01*
G01*
X124776000Y-106156000D02*
X126176000Y-106156000D01*
X126876000Y-105456000D02*
X126876000Y-104856000D01*
X126176000Y-104156000D02*
X124776000Y-104156000D01*
X124076000Y-104856000D02*
X124076000Y-105456000D01*
X124076000Y-105456000D02*
G75*
G03X124776000Y-106156000I700000J0D01*
G01*
X124776000Y-104156000D02*
G75*
G03X124076000Y-104856000I0J-700000D01*
G01*
X126876000Y-104856000D02*
G75*
G03X126176000Y-104156000I-700000J0D01*
G01*
X126176000Y-106156000D02*
G75*
G03X126876000Y-105456000I0J700000D01*
G01*
X110806000Y-110220000D02*
X112206000Y-110220000D01*
X112906000Y-109520000D02*
X112906000Y-108920000D01*
X112206000Y-108220000D02*
X110806000Y-108220000D01*
X110106000Y-108920000D02*
X110106000Y-109520000D01*
X110106000Y-109520000D02*
G75*
G03X110806000Y-110220000I700000J0D01*
G01*
X110806000Y-108220000D02*
G75*
G03X110106000Y-108920000I0J-700000D01*
G01*
X112906000Y-108920000D02*
G75*
G03X112206000Y-108220000I-700000J0D01*
G01*
X112206000Y-110220000D02*
G75*
G03X112906000Y-109520000I0J700000D01*
G01*
X117664000Y-110474000D02*
X119064000Y-110474000D01*
X119764000Y-109774000D02*
X119764000Y-109174000D01*
X119064000Y-108474000D02*
X117664000Y-108474000D01*
X116964000Y-109174000D02*
X116964000Y-109774000D01*
X116964000Y-109774000D02*
G75*
G03X117664000Y-110474000I700000J0D01*
G01*
X117664000Y-108474000D02*
G75*
G03X116964000Y-109174000I0J-700000D01*
G01*
X119764000Y-109174000D02*
G75*
G03X119064000Y-108474000I-700000J0D01*
G01*
X119064000Y-110474000D02*
G75*
G03X119764000Y-109774000I0J700000D01*
G01*
X124813000Y-110474000D02*
X126213000Y-110474000D01*
X126913000Y-109774000D02*
X126913000Y-109174000D01*
X126213000Y-108474000D02*
X124813000Y-108474000D01*
X124113000Y-109174000D02*
X124113000Y-109774000D01*
X124113000Y-109774000D02*
G75*
G03X124813000Y-110474000I700000J0D01*
G01*
X124813000Y-108474000D02*
G75*
G03X124113000Y-109174000I0J-700000D01*
G01*
X126913000Y-109174000D02*
G75*
G03X126213000Y-108474000I-700000J0D01*
G01*
X126213000Y-110474000D02*
G75*
G03X126913000Y-109774000I0J700000D01*
G01*
X128584000Y-97088000D02*
X128584000Y-95758000D01*
X127254000Y-97088000D02*
X128584000Y-97088000D01*
X125984000Y-97088000D02*
X125984000Y-94428000D01*
X125984000Y-94428000D02*
X108144000Y-94428000D01*
X125984000Y-97088000D02*
X108144000Y-97088000D01*
X108144000Y-97088000D02*
X108144000Y-94428000D01*
X139570000Y-110620000D02*
X139570000Y-92580000D01*
X183010000Y-110620000D02*
X139570000Y-110620000D01*
X183010000Y-92580000D02*
X183010000Y-110620000D01*
X180340000Y-95250000D02*
X180340000Y-92580000D01*
X144780000Y-95250000D02*
X180340000Y-95250000D01*
X144780000Y-95250000D02*
X144780000Y-92580000D01*
X180340000Y-107950000D02*
X180340000Y-110620000D01*
X142240000Y-107950000D02*
X180340000Y-107950000D01*
X142240000Y-107950000D02*
X142240000Y-110620000D01*
X139570000Y-92580000D02*
X142240000Y-92580000D01*
X144780000Y-92580000D02*
X183010000Y-92580000D01*
X142240000Y-95250000D02*
X142240000Y-92580000D01*
X144780000Y-95250000D02*
X142240000Y-95250000D01*
D10*
X112244095Y-103090380D02*
X112244095Y-102090380D01*
X112006000Y-102090380D01*
X111863142Y-102138000D01*
X111767904Y-102233238D01*
X111720285Y-102328476D01*
X111672666Y-102518952D01*
X111672666Y-102661809D01*
X111720285Y-102852285D01*
X111767904Y-102947523D01*
X111863142Y-103042761D01*
X112006000Y-103090380D01*
X112244095Y-103090380D01*
X111339333Y-102090380D02*
X110720285Y-102090380D01*
X111053619Y-102471333D01*
X110910761Y-102471333D01*
X110815523Y-102518952D01*
X110767904Y-102566571D01*
X110720285Y-102661809D01*
X110720285Y-102899904D01*
X110767904Y-102995142D01*
X110815523Y-103042761D01*
X110910761Y-103090380D01*
X111196476Y-103090380D01*
X111291714Y-103042761D01*
X111339333Y-102995142D01*
X119102095Y-103090380D02*
X119102095Y-102090380D01*
X118864000Y-102090380D01*
X118721142Y-102138000D01*
X118625904Y-102233238D01*
X118578285Y-102328476D01*
X118530666Y-102518952D01*
X118530666Y-102661809D01*
X118578285Y-102852285D01*
X118625904Y-102947523D01*
X118721142Y-103042761D01*
X118864000Y-103090380D01*
X119102095Y-103090380D01*
X118149714Y-102185619D02*
X118102095Y-102138000D01*
X118006857Y-102090380D01*
X117768761Y-102090380D01*
X117673523Y-102138000D01*
X117625904Y-102185619D01*
X117578285Y-102280857D01*
X117578285Y-102376095D01*
X117625904Y-102518952D01*
X118197333Y-103090380D01*
X117578285Y-103090380D01*
X126177095Y-103090380D02*
X126177095Y-102090380D01*
X125939000Y-102090380D01*
X125796142Y-102138000D01*
X125700904Y-102233238D01*
X125653285Y-102328476D01*
X125605666Y-102518952D01*
X125605666Y-102661809D01*
X125653285Y-102852285D01*
X125700904Y-102947523D01*
X125796142Y-103042761D01*
X125939000Y-103090380D01*
X126177095Y-103090380D01*
X124653285Y-103090380D02*
X125224714Y-103090380D01*
X124939000Y-103090380D02*
X124939000Y-102090380D01*
X125034238Y-102233238D01*
X125129476Y-102328476D01*
X125224714Y-102376095D01*
X111672666Y-107313142D02*
X111720285Y-107360761D01*
X111863142Y-107408380D01*
X111958380Y-107408380D01*
X112101238Y-107360761D01*
X112196476Y-107265523D01*
X112244095Y-107170285D01*
X112291714Y-106979809D01*
X112291714Y-106836952D01*
X112244095Y-106646476D01*
X112196476Y-106551238D01*
X112101238Y-106456000D01*
X111958380Y-106408380D01*
X111863142Y-106408380D01*
X111720285Y-106456000D01*
X111672666Y-106503619D01*
X111339333Y-106408380D02*
X110720285Y-106408380D01*
X111053619Y-106789333D01*
X110910761Y-106789333D01*
X110815523Y-106836952D01*
X110767904Y-106884571D01*
X110720285Y-106979809D01*
X110720285Y-107217904D01*
X110767904Y-107313142D01*
X110815523Y-107360761D01*
X110910761Y-107408380D01*
X111196476Y-107408380D01*
X111291714Y-107360761D01*
X111339333Y-107313142D01*
X118530666Y-107059142D02*
X118578285Y-107106761D01*
X118721142Y-107154380D01*
X118816380Y-107154380D01*
X118959238Y-107106761D01*
X119054476Y-107011523D01*
X119102095Y-106916285D01*
X119149714Y-106725809D01*
X119149714Y-106582952D01*
X119102095Y-106392476D01*
X119054476Y-106297238D01*
X118959238Y-106202000D01*
X118816380Y-106154380D01*
X118721142Y-106154380D01*
X118578285Y-106202000D01*
X118530666Y-106249619D01*
X118149714Y-106249619D02*
X118102095Y-106202000D01*
X118006857Y-106154380D01*
X117768761Y-106154380D01*
X117673523Y-106202000D01*
X117625904Y-106249619D01*
X117578285Y-106344857D01*
X117578285Y-106440095D01*
X117625904Y-106582952D01*
X118197333Y-107154380D01*
X117578285Y-107154380D01*
X125642666Y-107313142D02*
X125690285Y-107360761D01*
X125833142Y-107408380D01*
X125928380Y-107408380D01*
X126071238Y-107360761D01*
X126166476Y-107265523D01*
X126214095Y-107170285D01*
X126261714Y-106979809D01*
X126261714Y-106836952D01*
X126214095Y-106646476D01*
X126166476Y-106551238D01*
X126071238Y-106456000D01*
X125928380Y-106408380D01*
X125833142Y-106408380D01*
X125690285Y-106456000D01*
X125642666Y-106503619D01*
X124690285Y-107408380D02*
X125261714Y-107408380D01*
X124976000Y-107408380D02*
X124976000Y-106408380D01*
X125071238Y-106551238D01*
X125166476Y-106646476D01*
X125261714Y-106694095D01*
X112220285Y-111186666D02*
X111744095Y-111186666D01*
X112315523Y-111472380D02*
X111982190Y-110472380D01*
X111648857Y-111472380D01*
X111410761Y-110472380D02*
X110791714Y-110472380D01*
X111125047Y-110853333D01*
X110982190Y-110853333D01*
X110886952Y-110900952D01*
X110839333Y-110948571D01*
X110791714Y-111043809D01*
X110791714Y-111281904D01*
X110839333Y-111377142D01*
X110886952Y-111424761D01*
X110982190Y-111472380D01*
X111267904Y-111472380D01*
X111363142Y-111424761D01*
X111410761Y-111377142D01*
X119078285Y-111440666D02*
X118602095Y-111440666D01*
X119173523Y-111726380D02*
X118840190Y-110726380D01*
X118506857Y-111726380D01*
X118221142Y-110821619D02*
X118173523Y-110774000D01*
X118078285Y-110726380D01*
X117840190Y-110726380D01*
X117744952Y-110774000D01*
X117697333Y-110821619D01*
X117649714Y-110916857D01*
X117649714Y-111012095D01*
X117697333Y-111154952D01*
X118268761Y-111726380D01*
X117649714Y-111726380D01*
X126227285Y-111440666D02*
X125751095Y-111440666D01*
X126322523Y-111726380D02*
X125989190Y-110726380D01*
X125655857Y-111726380D01*
X124798714Y-111726380D02*
X125370142Y-111726380D01*
X125084428Y-111726380D02*
X125084428Y-110726380D01*
X125179666Y-110869238D01*
X125274904Y-110964476D01*
X125370142Y-111012095D01*
X129036380Y-94996095D02*
X129845904Y-94996095D01*
X129941142Y-95043714D01*
X129988761Y-95091333D01*
X130036380Y-95186571D01*
X130036380Y-95377047D01*
X129988761Y-95472285D01*
X129941142Y-95519904D01*
X129845904Y-95567523D01*
X129036380Y-95567523D01*
X129369714Y-96472285D02*
X130036380Y-96472285D01*
X128988761Y-96234190D02*
X129703047Y-95996095D01*
X129703047Y-96615142D01*
X143962380Y-95758095D02*
X142962380Y-95758095D01*
X143962380Y-96329523D01*
X142962380Y-96329523D01*
X143962380Y-97329523D02*
X143962380Y-96758095D01*
X143962380Y-97043809D02*
X142962380Y-97043809D01*
X143105238Y-96948571D01*
X143200476Y-96853333D01*
X143248095Y-96758095D01*
X167901095Y-102782666D02*
X167424904Y-102782666D01*
X167996333Y-103068380D02*
X167663000Y-102068380D01*
X167329666Y-103068380D01*
X166996333Y-103068380D02*
X166996333Y-102401714D01*
X166996333Y-102592190D02*
X166948714Y-102496952D01*
X166901095Y-102449333D01*
X166805857Y-102401714D01*
X166710619Y-102401714D01*
X165948714Y-103068380D02*
X165948714Y-102068380D01*
X165948714Y-103020761D02*
X166043952Y-103068380D01*
X166234428Y-103068380D01*
X166329666Y-103020761D01*
X166377285Y-102973142D01*
X166424904Y-102877904D01*
X166424904Y-102592190D01*
X166377285Y-102496952D01*
X166329666Y-102449333D01*
X166234428Y-102401714D01*
X166043952Y-102401714D01*
X165948714Y-102449333D01*
X165043952Y-102401714D02*
X165043952Y-103068380D01*
X165472523Y-102401714D02*
X165472523Y-102925523D01*
X165424904Y-103020761D01*
X165329666Y-103068380D01*
X165186809Y-103068380D01*
X165091571Y-103020761D01*
X165043952Y-102973142D01*
X164567761Y-103068380D02*
X164567761Y-102401714D01*
X164567761Y-102068380D02*
X164615380Y-102116000D01*
X164567761Y-102163619D01*
X164520142Y-102116000D01*
X164567761Y-102068380D01*
X164567761Y-102163619D01*
X164091571Y-102401714D02*
X164091571Y-103068380D01*
X164091571Y-102496952D02*
X164043952Y-102449333D01*
X163948714Y-102401714D01*
X163805857Y-102401714D01*
X163710619Y-102449333D01*
X163663000Y-102544571D01*
X163663000Y-103068380D01*
X163043952Y-103068380D02*
X163139190Y-103020761D01*
X163186809Y-102973142D01*
X163234428Y-102877904D01*
X163234428Y-102592190D01*
X163186809Y-102496952D01*
X163139190Y-102449333D01*
X163043952Y-102401714D01*
X162901095Y-102401714D01*
X162805857Y-102449333D01*
X162758238Y-102496952D01*
X162710619Y-102592190D01*
X162710619Y-102877904D01*
X162758238Y-102973142D01*
X162805857Y-103020761D01*
X162901095Y-103068380D01*
X163043952Y-103068380D01*
X162520142Y-103163619D02*
X161758238Y-103163619D01*
X161520142Y-103068380D02*
X161520142Y-102068380D01*
X160948714Y-103068380D01*
X160948714Y-102068380D01*
X160043952Y-103068380D02*
X160043952Y-102544571D01*
X160091571Y-102449333D01*
X160186809Y-102401714D01*
X160377285Y-102401714D01*
X160472523Y-102449333D01*
X160043952Y-103020761D02*
X160139190Y-103068380D01*
X160377285Y-103068380D01*
X160472523Y-103020761D01*
X160520142Y-102925523D01*
X160520142Y-102830285D01*
X160472523Y-102735047D01*
X160377285Y-102687428D01*
X160139190Y-102687428D01*
X160043952Y-102639809D01*
X159567761Y-102401714D02*
X159567761Y-103068380D01*
X159567761Y-102496952D02*
X159520142Y-102449333D01*
X159424904Y-102401714D01*
X159282047Y-102401714D01*
X159186809Y-102449333D01*
X159139190Y-102544571D01*
X159139190Y-103068380D01*
X158520142Y-103068380D02*
X158615380Y-103020761D01*
X158663000Y-102973142D01*
X158710619Y-102877904D01*
X158710619Y-102592190D01*
X158663000Y-102496952D01*
X158615380Y-102449333D01*
X158520142Y-102401714D01*
X158377285Y-102401714D01*
X158282047Y-102449333D01*
X158234428Y-102496952D01*
X158186809Y-102592190D01*
X158186809Y-102877904D01*
X158234428Y-102973142D01*
X158282047Y-103020761D01*
X158377285Y-103068380D01*
X158520142Y-103068380D01*
X157996333Y-103163619D02*
X157234428Y-103163619D01*
X157091571Y-102401714D02*
X156853476Y-103068380D01*
X156615380Y-102401714D01*
X156329666Y-102068380D02*
X155710619Y-102068380D01*
X156043952Y-102449333D01*
X155901095Y-102449333D01*
X155805857Y-102496952D01*
X155758238Y-102544571D01*
X155710619Y-102639809D01*
X155710619Y-102877904D01*
X155758238Y-102973142D01*
X155805857Y-103020761D01*
X155901095Y-103068380D01*
X156186809Y-103068380D01*
X156282047Y-103020761D01*
X156329666Y-102973142D01*
X155282047Y-102973142D02*
X155234428Y-103020761D01*
X155282047Y-103068380D01*
X155329666Y-103020761D01*
X155282047Y-102973142D01*
X155282047Y-103068380D01*
X154901095Y-103068380D02*
X154377285Y-102401714D01*
X154901095Y-102401714D02*
X154377285Y-103068380D01*
M02*
