G04 #@! TF.GenerationSoftware,KiCad,Pcbnew,(5.1.5)-3*
G04 #@! TF.CreationDate,2020-01-29T01:23:58-05:00*
G04 #@! TF.ProjectId,IEEE-Clock-Charlie,49454545-2d43-46c6-9f63-6b2d43686172,rev?*
G04 #@! TF.SameCoordinates,Original*
G04 #@! TF.FileFunction,Soldermask,Top*
G04 #@! TF.FilePolarity,Negative*
%FSLAX46Y46*%
G04 Gerber Fmt 4.6, Leading zero omitted, Abs format (unit mm)*
G04 Created by KiCad (PCBNEW (5.1.5)-3) date 2020-01-29 01:23:58*
%MOMM*%
%LPD*%
G04 APERTURE LIST*
%ADD10C,0.100000*%
G04 APERTURE END LIST*
D10*
G36*
X183255256Y-112691298D02*
G01*
X183361579Y-112712447D01*
X183662042Y-112836903D01*
X183932451Y-113017585D01*
X184162415Y-113247549D01*
X184234943Y-113356095D01*
X184343098Y-113517960D01*
X184350809Y-113536576D01*
X184397654Y-113649669D01*
X184467553Y-113818422D01*
X184531000Y-114137389D01*
X184531000Y-114462611D01*
X184467553Y-114781578D01*
X184350809Y-115063425D01*
X184343097Y-115082042D01*
X184162415Y-115352451D01*
X183932451Y-115582415D01*
X183662042Y-115763097D01*
X183361579Y-115887553D01*
X183255256Y-115908702D01*
X183042611Y-115951000D01*
X182717389Y-115951000D01*
X182504744Y-115908702D01*
X182398421Y-115887553D01*
X182097958Y-115763097D01*
X181827549Y-115582415D01*
X181597585Y-115352451D01*
X181416903Y-115082042D01*
X181409192Y-115063425D01*
X181292447Y-114781578D01*
X181229000Y-114462611D01*
X181229000Y-114137389D01*
X181292447Y-113818422D01*
X181362347Y-113649669D01*
X181409191Y-113536576D01*
X181416902Y-113517960D01*
X181525057Y-113356095D01*
X181597585Y-113247549D01*
X181827549Y-113017585D01*
X182097958Y-112836903D01*
X182398421Y-112712447D01*
X182504744Y-112691298D01*
X182717389Y-112649000D01*
X183042611Y-112649000D01*
X183255256Y-112691298D01*
G37*
G36*
X140075256Y-112691298D02*
G01*
X140181579Y-112712447D01*
X140482042Y-112836903D01*
X140752451Y-113017585D01*
X140982415Y-113247549D01*
X141054943Y-113356095D01*
X141163098Y-113517960D01*
X141170809Y-113536576D01*
X141217654Y-113649669D01*
X141287553Y-113818422D01*
X141351000Y-114137389D01*
X141351000Y-114462611D01*
X141287553Y-114781578D01*
X141170809Y-115063425D01*
X141163097Y-115082042D01*
X140982415Y-115352451D01*
X140752451Y-115582415D01*
X140482042Y-115763097D01*
X140181579Y-115887553D01*
X140075256Y-115908702D01*
X139862611Y-115951000D01*
X139537389Y-115951000D01*
X139324744Y-115908702D01*
X139218421Y-115887553D01*
X138917958Y-115763097D01*
X138647549Y-115582415D01*
X138417585Y-115352451D01*
X138236903Y-115082042D01*
X138229192Y-115063425D01*
X138112447Y-114781578D01*
X138049000Y-114462611D01*
X138049000Y-114137389D01*
X138112447Y-113818422D01*
X138182347Y-113649669D01*
X138229191Y-113536576D01*
X138236902Y-113517960D01*
X138345057Y-113356095D01*
X138417585Y-113247549D01*
X138647549Y-113017585D01*
X138917958Y-112836903D01*
X139218421Y-112712447D01*
X139324744Y-112691298D01*
X139537389Y-112649000D01*
X139862611Y-112649000D01*
X140075256Y-112691298D01*
G37*
G36*
X166497617Y-113258420D02*
G01*
X166588403Y-113285960D01*
X166620335Y-113295646D01*
X166733424Y-113356094D01*
X166832554Y-113437447D01*
X166913906Y-113536575D01*
X166974354Y-113649664D01*
X166984040Y-113681596D01*
X167011580Y-113772382D01*
X167021000Y-113868027D01*
X167021000Y-114731973D01*
X167011580Y-114827618D01*
X166984040Y-114918404D01*
X166974354Y-114950336D01*
X166913906Y-115063425D01*
X166832554Y-115162554D01*
X166733425Y-115243906D01*
X166620336Y-115304354D01*
X166588404Y-115314040D01*
X166497618Y-115341580D01*
X166370000Y-115354149D01*
X166242383Y-115341580D01*
X166151597Y-115314040D01*
X166119665Y-115304354D01*
X166006576Y-115243906D01*
X165907447Y-115162554D01*
X165826095Y-115063425D01*
X165765647Y-114950336D01*
X165761282Y-114935946D01*
X165728420Y-114827618D01*
X165719000Y-114731973D01*
X165719000Y-113868028D01*
X165728420Y-113772383D01*
X165765645Y-113649669D01*
X165765646Y-113649665D01*
X165826094Y-113536576D01*
X165907447Y-113437446D01*
X166006575Y-113356094D01*
X166119664Y-113295646D01*
X166151596Y-113285960D01*
X166242382Y-113258420D01*
X166370000Y-113245851D01*
X166497617Y-113258420D01*
G37*
G36*
X169037617Y-113258420D02*
G01*
X169128403Y-113285960D01*
X169160335Y-113295646D01*
X169273424Y-113356094D01*
X169372554Y-113437447D01*
X169453906Y-113536575D01*
X169514354Y-113649664D01*
X169524040Y-113681596D01*
X169551580Y-113772382D01*
X169561000Y-113868027D01*
X169561000Y-114731973D01*
X169551580Y-114827618D01*
X169524040Y-114918404D01*
X169514354Y-114950336D01*
X169453906Y-115063425D01*
X169372554Y-115162554D01*
X169273425Y-115243906D01*
X169160336Y-115304354D01*
X169128404Y-115314040D01*
X169037618Y-115341580D01*
X168910000Y-115354149D01*
X168782383Y-115341580D01*
X168691597Y-115314040D01*
X168659665Y-115304354D01*
X168546576Y-115243906D01*
X168447447Y-115162554D01*
X168366095Y-115063425D01*
X168305647Y-114950336D01*
X168301282Y-114935946D01*
X168268420Y-114827618D01*
X168259000Y-114731973D01*
X168259000Y-113868028D01*
X168268420Y-113772383D01*
X168305645Y-113649669D01*
X168305646Y-113649665D01*
X168366094Y-113536576D01*
X168447447Y-113437446D01*
X168546575Y-113356094D01*
X168659664Y-113295646D01*
X168691596Y-113285960D01*
X168782382Y-113258420D01*
X168910000Y-113245851D01*
X169037617Y-113258420D01*
G37*
G36*
X146177617Y-113258420D02*
G01*
X146268403Y-113285960D01*
X146300335Y-113295646D01*
X146413424Y-113356094D01*
X146512554Y-113437447D01*
X146593906Y-113536575D01*
X146654354Y-113649664D01*
X146664040Y-113681596D01*
X146691580Y-113772382D01*
X146701000Y-113868027D01*
X146701000Y-114731973D01*
X146691580Y-114827618D01*
X146664040Y-114918404D01*
X146654354Y-114950336D01*
X146593906Y-115063425D01*
X146512554Y-115162554D01*
X146413425Y-115243906D01*
X146300336Y-115304354D01*
X146268404Y-115314040D01*
X146177618Y-115341580D01*
X146050000Y-115354149D01*
X145922383Y-115341580D01*
X145831597Y-115314040D01*
X145799665Y-115304354D01*
X145686576Y-115243906D01*
X145587447Y-115162554D01*
X145506095Y-115063425D01*
X145445647Y-114950336D01*
X145441282Y-114935946D01*
X145408420Y-114827618D01*
X145399000Y-114731973D01*
X145399000Y-113868028D01*
X145408420Y-113772383D01*
X145445645Y-113649669D01*
X145445646Y-113649665D01*
X145506094Y-113536576D01*
X145587447Y-113437446D01*
X145686575Y-113356094D01*
X145799664Y-113295646D01*
X145831596Y-113285960D01*
X145922382Y-113258420D01*
X146050000Y-113245851D01*
X146177617Y-113258420D01*
G37*
G36*
X148717617Y-113258420D02*
G01*
X148808403Y-113285960D01*
X148840335Y-113295646D01*
X148953424Y-113356094D01*
X149052554Y-113437447D01*
X149133906Y-113536575D01*
X149194354Y-113649664D01*
X149204040Y-113681596D01*
X149231580Y-113772382D01*
X149241000Y-113868027D01*
X149241000Y-114731973D01*
X149231580Y-114827618D01*
X149204040Y-114918404D01*
X149194354Y-114950336D01*
X149133906Y-115063425D01*
X149052554Y-115162554D01*
X148953425Y-115243906D01*
X148840336Y-115304354D01*
X148808404Y-115314040D01*
X148717618Y-115341580D01*
X148590000Y-115354149D01*
X148462383Y-115341580D01*
X148371597Y-115314040D01*
X148339665Y-115304354D01*
X148226576Y-115243906D01*
X148127447Y-115162554D01*
X148046095Y-115063425D01*
X147985647Y-114950336D01*
X147981282Y-114935946D01*
X147948420Y-114827618D01*
X147939000Y-114731973D01*
X147939000Y-113868028D01*
X147948420Y-113772383D01*
X147985645Y-113649669D01*
X147985646Y-113649665D01*
X148046094Y-113536576D01*
X148127447Y-113437446D01*
X148226575Y-113356094D01*
X148339664Y-113295646D01*
X148371596Y-113285960D01*
X148462382Y-113258420D01*
X148590000Y-113245851D01*
X148717617Y-113258420D01*
G37*
G36*
X151257617Y-113258420D02*
G01*
X151348403Y-113285960D01*
X151380335Y-113295646D01*
X151493424Y-113356094D01*
X151592554Y-113437447D01*
X151673906Y-113536575D01*
X151734354Y-113649664D01*
X151744040Y-113681596D01*
X151771580Y-113772382D01*
X151781000Y-113868027D01*
X151781000Y-114731973D01*
X151771580Y-114827618D01*
X151744040Y-114918404D01*
X151734354Y-114950336D01*
X151673906Y-115063425D01*
X151592554Y-115162554D01*
X151493425Y-115243906D01*
X151380336Y-115304354D01*
X151348404Y-115314040D01*
X151257618Y-115341580D01*
X151130000Y-115354149D01*
X151002383Y-115341580D01*
X150911597Y-115314040D01*
X150879665Y-115304354D01*
X150766576Y-115243906D01*
X150667447Y-115162554D01*
X150586095Y-115063425D01*
X150525647Y-114950336D01*
X150521282Y-114935946D01*
X150488420Y-114827618D01*
X150479000Y-114731973D01*
X150479000Y-113868028D01*
X150488420Y-113772383D01*
X150525645Y-113649669D01*
X150525646Y-113649665D01*
X150586094Y-113536576D01*
X150667447Y-113437446D01*
X150766575Y-113356094D01*
X150879664Y-113295646D01*
X150911596Y-113285960D01*
X151002382Y-113258420D01*
X151130000Y-113245851D01*
X151257617Y-113258420D01*
G37*
G36*
X153797617Y-113258420D02*
G01*
X153888403Y-113285960D01*
X153920335Y-113295646D01*
X154033424Y-113356094D01*
X154132554Y-113437447D01*
X154213906Y-113536575D01*
X154274354Y-113649664D01*
X154284040Y-113681596D01*
X154311580Y-113772382D01*
X154321000Y-113868027D01*
X154321000Y-114731973D01*
X154311580Y-114827618D01*
X154284040Y-114918404D01*
X154274354Y-114950336D01*
X154213906Y-115063425D01*
X154132554Y-115162554D01*
X154033425Y-115243906D01*
X153920336Y-115304354D01*
X153888404Y-115314040D01*
X153797618Y-115341580D01*
X153670000Y-115354149D01*
X153542383Y-115341580D01*
X153451597Y-115314040D01*
X153419665Y-115304354D01*
X153306576Y-115243906D01*
X153207447Y-115162554D01*
X153126095Y-115063425D01*
X153065647Y-114950336D01*
X153061282Y-114935946D01*
X153028420Y-114827618D01*
X153019000Y-114731973D01*
X153019000Y-113868028D01*
X153028420Y-113772383D01*
X153065645Y-113649669D01*
X153065646Y-113649665D01*
X153126094Y-113536576D01*
X153207447Y-113437446D01*
X153306575Y-113356094D01*
X153419664Y-113295646D01*
X153451596Y-113285960D01*
X153542382Y-113258420D01*
X153670000Y-113245851D01*
X153797617Y-113258420D01*
G37*
G36*
X156337617Y-113258420D02*
G01*
X156428403Y-113285960D01*
X156460335Y-113295646D01*
X156573424Y-113356094D01*
X156672554Y-113437447D01*
X156753906Y-113536575D01*
X156814354Y-113649664D01*
X156824040Y-113681596D01*
X156851580Y-113772382D01*
X156861000Y-113868027D01*
X156861000Y-114731973D01*
X156851580Y-114827618D01*
X156824040Y-114918404D01*
X156814354Y-114950336D01*
X156753906Y-115063425D01*
X156672554Y-115162554D01*
X156573425Y-115243906D01*
X156460336Y-115304354D01*
X156428404Y-115314040D01*
X156337618Y-115341580D01*
X156210000Y-115354149D01*
X156082383Y-115341580D01*
X155991597Y-115314040D01*
X155959665Y-115304354D01*
X155846576Y-115243906D01*
X155747447Y-115162554D01*
X155666095Y-115063425D01*
X155605647Y-114950336D01*
X155601282Y-114935946D01*
X155568420Y-114827618D01*
X155559000Y-114731973D01*
X155559000Y-113868028D01*
X155568420Y-113772383D01*
X155605645Y-113649669D01*
X155605646Y-113649665D01*
X155666094Y-113536576D01*
X155747447Y-113437446D01*
X155846575Y-113356094D01*
X155959664Y-113295646D01*
X155991596Y-113285960D01*
X156082382Y-113258420D01*
X156210000Y-113245851D01*
X156337617Y-113258420D01*
G37*
G36*
X158877617Y-113258420D02*
G01*
X158968403Y-113285960D01*
X159000335Y-113295646D01*
X159113424Y-113356094D01*
X159212554Y-113437447D01*
X159293906Y-113536575D01*
X159354354Y-113649664D01*
X159364040Y-113681596D01*
X159391580Y-113772382D01*
X159401000Y-113868027D01*
X159401000Y-114731973D01*
X159391580Y-114827618D01*
X159364040Y-114918404D01*
X159354354Y-114950336D01*
X159293906Y-115063425D01*
X159212554Y-115162554D01*
X159113425Y-115243906D01*
X159000336Y-115304354D01*
X158968404Y-115314040D01*
X158877618Y-115341580D01*
X158750000Y-115354149D01*
X158622383Y-115341580D01*
X158531597Y-115314040D01*
X158499665Y-115304354D01*
X158386576Y-115243906D01*
X158287447Y-115162554D01*
X158206095Y-115063425D01*
X158145647Y-114950336D01*
X158141282Y-114935946D01*
X158108420Y-114827618D01*
X158099000Y-114731973D01*
X158099000Y-113868028D01*
X158108420Y-113772383D01*
X158145645Y-113649669D01*
X158145646Y-113649665D01*
X158206094Y-113536576D01*
X158287447Y-113437446D01*
X158386575Y-113356094D01*
X158499664Y-113295646D01*
X158531596Y-113285960D01*
X158622382Y-113258420D01*
X158750000Y-113245851D01*
X158877617Y-113258420D01*
G37*
G36*
X161417617Y-113258420D02*
G01*
X161508403Y-113285960D01*
X161540335Y-113295646D01*
X161653424Y-113356094D01*
X161752554Y-113437447D01*
X161833906Y-113536575D01*
X161894354Y-113649664D01*
X161904040Y-113681596D01*
X161931580Y-113772382D01*
X161941000Y-113868027D01*
X161941000Y-114731973D01*
X161931580Y-114827618D01*
X161904040Y-114918404D01*
X161894354Y-114950336D01*
X161833906Y-115063425D01*
X161752554Y-115162554D01*
X161653425Y-115243906D01*
X161540336Y-115304354D01*
X161508404Y-115314040D01*
X161417618Y-115341580D01*
X161290000Y-115354149D01*
X161162383Y-115341580D01*
X161071597Y-115314040D01*
X161039665Y-115304354D01*
X160926576Y-115243906D01*
X160827447Y-115162554D01*
X160746095Y-115063425D01*
X160685647Y-114950336D01*
X160681282Y-114935946D01*
X160648420Y-114827618D01*
X160639000Y-114731973D01*
X160639000Y-113868028D01*
X160648420Y-113772383D01*
X160685645Y-113649669D01*
X160685646Y-113649665D01*
X160746094Y-113536576D01*
X160827447Y-113437446D01*
X160926575Y-113356094D01*
X161039664Y-113295646D01*
X161071596Y-113285960D01*
X161162382Y-113258420D01*
X161290000Y-113245851D01*
X161417617Y-113258420D01*
G37*
G36*
X163957617Y-113258420D02*
G01*
X164048403Y-113285960D01*
X164080335Y-113295646D01*
X164193424Y-113356094D01*
X164292554Y-113437447D01*
X164373906Y-113536575D01*
X164434354Y-113649664D01*
X164444040Y-113681596D01*
X164471580Y-113772382D01*
X164481000Y-113868027D01*
X164481000Y-114731973D01*
X164471580Y-114827618D01*
X164444040Y-114918404D01*
X164434354Y-114950336D01*
X164373906Y-115063425D01*
X164292554Y-115162554D01*
X164193425Y-115243906D01*
X164080336Y-115304354D01*
X164048404Y-115314040D01*
X163957618Y-115341580D01*
X163830000Y-115354149D01*
X163702383Y-115341580D01*
X163611597Y-115314040D01*
X163579665Y-115304354D01*
X163466576Y-115243906D01*
X163367447Y-115162554D01*
X163286095Y-115063425D01*
X163225647Y-114950336D01*
X163221282Y-114935946D01*
X163188420Y-114827618D01*
X163179000Y-114731973D01*
X163179000Y-113868028D01*
X163188420Y-113772383D01*
X163225645Y-113649669D01*
X163225646Y-113649665D01*
X163286094Y-113536576D01*
X163367447Y-113437446D01*
X163466575Y-113356094D01*
X163579664Y-113295646D01*
X163611596Y-113285960D01*
X163702382Y-113258420D01*
X163830000Y-113245851D01*
X163957617Y-113258420D01*
G37*
G36*
X120777617Y-113258420D02*
G01*
X120868403Y-113285960D01*
X120900335Y-113295646D01*
X121013424Y-113356094D01*
X121112554Y-113437447D01*
X121193906Y-113536575D01*
X121254354Y-113649664D01*
X121264040Y-113681596D01*
X121291580Y-113772382D01*
X121301000Y-113868027D01*
X121301000Y-114731973D01*
X121291580Y-114827618D01*
X121264040Y-114918404D01*
X121254354Y-114950336D01*
X121193906Y-115063425D01*
X121112554Y-115162554D01*
X121013425Y-115243906D01*
X120900336Y-115304354D01*
X120868404Y-115314040D01*
X120777618Y-115341580D01*
X120650000Y-115354149D01*
X120522383Y-115341580D01*
X120431597Y-115314040D01*
X120399665Y-115304354D01*
X120286576Y-115243906D01*
X120187447Y-115162554D01*
X120106095Y-115063425D01*
X120045647Y-114950336D01*
X120041282Y-114935946D01*
X120008420Y-114827618D01*
X119999000Y-114731973D01*
X119999000Y-113868028D01*
X120008420Y-113772383D01*
X120045645Y-113649669D01*
X120045646Y-113649665D01*
X120106094Y-113536576D01*
X120187447Y-113437446D01*
X120286575Y-113356094D01*
X120399664Y-113295646D01*
X120431596Y-113285960D01*
X120522382Y-113258420D01*
X120650000Y-113245851D01*
X120777617Y-113258420D01*
G37*
G36*
X115697617Y-113258420D02*
G01*
X115788403Y-113285960D01*
X115820335Y-113295646D01*
X115933424Y-113356094D01*
X116032554Y-113437447D01*
X116113906Y-113536575D01*
X116174354Y-113649664D01*
X116184040Y-113681596D01*
X116211580Y-113772382D01*
X116221000Y-113868027D01*
X116221000Y-114731973D01*
X116211580Y-114827618D01*
X116184040Y-114918404D01*
X116174354Y-114950336D01*
X116113906Y-115063425D01*
X116032554Y-115162554D01*
X115933425Y-115243906D01*
X115820336Y-115304354D01*
X115788404Y-115314040D01*
X115697618Y-115341580D01*
X115570000Y-115354149D01*
X115442383Y-115341580D01*
X115351597Y-115314040D01*
X115319665Y-115304354D01*
X115206576Y-115243906D01*
X115107447Y-115162554D01*
X115026095Y-115063425D01*
X114965647Y-114950336D01*
X114961282Y-114935946D01*
X114928420Y-114827618D01*
X114919000Y-114731973D01*
X114919000Y-113868028D01*
X114928420Y-113772383D01*
X114965645Y-113649669D01*
X114965646Y-113649665D01*
X115026094Y-113536576D01*
X115107447Y-113437446D01*
X115206575Y-113356094D01*
X115319664Y-113295646D01*
X115351596Y-113285960D01*
X115442382Y-113258420D01*
X115570000Y-113245851D01*
X115697617Y-113258420D01*
G37*
G36*
X171577617Y-113258420D02*
G01*
X171668403Y-113285960D01*
X171700335Y-113295646D01*
X171813424Y-113356094D01*
X171912554Y-113437447D01*
X171993906Y-113536575D01*
X172054354Y-113649664D01*
X172064040Y-113681596D01*
X172091580Y-113772382D01*
X172101000Y-113868027D01*
X172101000Y-114731973D01*
X172091580Y-114827618D01*
X172064040Y-114918404D01*
X172054354Y-114950336D01*
X171993906Y-115063425D01*
X171912554Y-115162554D01*
X171813425Y-115243906D01*
X171700336Y-115304354D01*
X171668404Y-115314040D01*
X171577618Y-115341580D01*
X171450000Y-115354149D01*
X171322383Y-115341580D01*
X171231597Y-115314040D01*
X171199665Y-115304354D01*
X171086576Y-115243906D01*
X170987447Y-115162554D01*
X170906095Y-115063425D01*
X170845647Y-114950336D01*
X170841282Y-114935946D01*
X170808420Y-114827618D01*
X170799000Y-114731973D01*
X170799000Y-113868028D01*
X170808420Y-113772383D01*
X170845645Y-113649669D01*
X170845646Y-113649665D01*
X170906094Y-113536576D01*
X170987447Y-113437446D01*
X171086575Y-113356094D01*
X171199664Y-113295646D01*
X171231596Y-113285960D01*
X171322382Y-113258420D01*
X171450000Y-113245851D01*
X171577617Y-113258420D01*
G37*
G36*
X174117617Y-113258420D02*
G01*
X174208403Y-113285960D01*
X174240335Y-113295646D01*
X174353424Y-113356094D01*
X174452554Y-113437447D01*
X174533906Y-113536575D01*
X174594354Y-113649664D01*
X174604040Y-113681596D01*
X174631580Y-113772382D01*
X174641000Y-113868027D01*
X174641000Y-114731973D01*
X174631580Y-114827618D01*
X174604040Y-114918404D01*
X174594354Y-114950336D01*
X174533906Y-115063425D01*
X174452554Y-115162554D01*
X174353425Y-115243906D01*
X174240336Y-115304354D01*
X174208404Y-115314040D01*
X174117618Y-115341580D01*
X173990000Y-115354149D01*
X173862383Y-115341580D01*
X173771597Y-115314040D01*
X173739665Y-115304354D01*
X173626576Y-115243906D01*
X173527447Y-115162554D01*
X173446095Y-115063425D01*
X173385647Y-114950336D01*
X173381282Y-114935946D01*
X173348420Y-114827618D01*
X173339000Y-114731973D01*
X173339000Y-113868028D01*
X173348420Y-113772383D01*
X173385645Y-113649669D01*
X173385646Y-113649665D01*
X173446094Y-113536576D01*
X173527447Y-113437446D01*
X173626575Y-113356094D01*
X173739664Y-113295646D01*
X173771596Y-113285960D01*
X173862382Y-113258420D01*
X173990000Y-113245851D01*
X174117617Y-113258420D01*
G37*
G36*
X176657617Y-113258420D02*
G01*
X176748403Y-113285960D01*
X176780335Y-113295646D01*
X176893424Y-113356094D01*
X176992554Y-113437447D01*
X177073906Y-113536575D01*
X177134354Y-113649664D01*
X177144040Y-113681596D01*
X177171580Y-113772382D01*
X177181000Y-113868027D01*
X177181000Y-114731973D01*
X177171580Y-114827618D01*
X177144040Y-114918404D01*
X177134354Y-114950336D01*
X177073906Y-115063425D01*
X176992554Y-115162554D01*
X176893425Y-115243906D01*
X176780336Y-115304354D01*
X176748404Y-115314040D01*
X176657618Y-115341580D01*
X176530000Y-115354149D01*
X176402383Y-115341580D01*
X176311597Y-115314040D01*
X176279665Y-115304354D01*
X176166576Y-115243906D01*
X176067447Y-115162554D01*
X175986095Y-115063425D01*
X175925647Y-114950336D01*
X175921282Y-114935946D01*
X175888420Y-114827618D01*
X175879000Y-114731973D01*
X175879000Y-113868028D01*
X175888420Y-113772383D01*
X175925645Y-113649669D01*
X175925646Y-113649665D01*
X175986094Y-113536576D01*
X176067447Y-113437446D01*
X176166575Y-113356094D01*
X176279664Y-113295646D01*
X176311596Y-113285960D01*
X176402382Y-113258420D01*
X176530000Y-113245851D01*
X176657617Y-113258420D01*
G37*
G36*
X102997617Y-113258420D02*
G01*
X103088403Y-113285960D01*
X103120335Y-113295646D01*
X103233424Y-113356094D01*
X103332554Y-113437447D01*
X103413906Y-113536575D01*
X103474354Y-113649664D01*
X103484040Y-113681596D01*
X103511580Y-113772382D01*
X103521000Y-113868027D01*
X103521000Y-114731973D01*
X103511580Y-114827618D01*
X103484040Y-114918404D01*
X103474354Y-114950336D01*
X103413906Y-115063425D01*
X103332554Y-115162554D01*
X103233425Y-115243906D01*
X103120336Y-115304354D01*
X103088404Y-115314040D01*
X102997618Y-115341580D01*
X102870000Y-115354149D01*
X102742383Y-115341580D01*
X102651597Y-115314040D01*
X102619665Y-115304354D01*
X102506576Y-115243906D01*
X102407447Y-115162554D01*
X102326095Y-115063425D01*
X102265647Y-114950336D01*
X102261282Y-114935946D01*
X102228420Y-114827618D01*
X102219000Y-114731973D01*
X102219000Y-113868028D01*
X102228420Y-113772383D01*
X102265645Y-113649669D01*
X102265646Y-113649665D01*
X102326094Y-113536576D01*
X102407447Y-113437446D01*
X102506575Y-113356094D01*
X102619664Y-113295646D01*
X102651596Y-113285960D01*
X102742382Y-113258420D01*
X102870000Y-113245851D01*
X102997617Y-113258420D01*
G37*
G36*
X105537617Y-113258420D02*
G01*
X105628403Y-113285960D01*
X105660335Y-113295646D01*
X105773424Y-113356094D01*
X105872554Y-113437447D01*
X105953906Y-113536575D01*
X106014354Y-113649664D01*
X106024040Y-113681596D01*
X106051580Y-113772382D01*
X106061000Y-113868027D01*
X106061000Y-114731973D01*
X106051580Y-114827618D01*
X106024040Y-114918404D01*
X106014354Y-114950336D01*
X105953906Y-115063425D01*
X105872554Y-115162554D01*
X105773425Y-115243906D01*
X105660336Y-115304354D01*
X105628404Y-115314040D01*
X105537618Y-115341580D01*
X105410000Y-115354149D01*
X105282383Y-115341580D01*
X105191597Y-115314040D01*
X105159665Y-115304354D01*
X105046576Y-115243906D01*
X104947447Y-115162554D01*
X104866095Y-115063425D01*
X104805647Y-114950336D01*
X104801282Y-114935946D01*
X104768420Y-114827618D01*
X104759000Y-114731973D01*
X104759000Y-113868028D01*
X104768420Y-113772383D01*
X104805645Y-113649669D01*
X104805646Y-113649665D01*
X104866094Y-113536576D01*
X104947447Y-113437446D01*
X105046575Y-113356094D01*
X105159664Y-113295646D01*
X105191596Y-113285960D01*
X105282382Y-113258420D01*
X105410000Y-113245851D01*
X105537617Y-113258420D01*
G37*
G36*
X108077617Y-113258420D02*
G01*
X108168403Y-113285960D01*
X108200335Y-113295646D01*
X108313424Y-113356094D01*
X108412554Y-113437447D01*
X108493906Y-113536575D01*
X108554354Y-113649664D01*
X108564040Y-113681596D01*
X108591580Y-113772382D01*
X108601000Y-113868027D01*
X108601000Y-114731973D01*
X108591580Y-114827618D01*
X108564040Y-114918404D01*
X108554354Y-114950336D01*
X108493906Y-115063425D01*
X108412554Y-115162554D01*
X108313425Y-115243906D01*
X108200336Y-115304354D01*
X108168404Y-115314040D01*
X108077618Y-115341580D01*
X107950000Y-115354149D01*
X107822383Y-115341580D01*
X107731597Y-115314040D01*
X107699665Y-115304354D01*
X107586576Y-115243906D01*
X107487447Y-115162554D01*
X107406095Y-115063425D01*
X107345647Y-114950336D01*
X107341282Y-114935946D01*
X107308420Y-114827618D01*
X107299000Y-114731973D01*
X107299000Y-113868028D01*
X107308420Y-113772383D01*
X107345645Y-113649669D01*
X107345646Y-113649665D01*
X107406094Y-113536576D01*
X107487447Y-113437446D01*
X107586575Y-113356094D01*
X107699664Y-113295646D01*
X107731596Y-113285960D01*
X107822382Y-113258420D01*
X107950000Y-113245851D01*
X108077617Y-113258420D01*
G37*
G36*
X110617617Y-113258420D02*
G01*
X110708403Y-113285960D01*
X110740335Y-113295646D01*
X110853424Y-113356094D01*
X110952554Y-113437447D01*
X111033906Y-113536575D01*
X111094354Y-113649664D01*
X111104040Y-113681596D01*
X111131580Y-113772382D01*
X111141000Y-113868027D01*
X111141000Y-114731973D01*
X111131580Y-114827618D01*
X111104040Y-114918404D01*
X111094354Y-114950336D01*
X111033906Y-115063425D01*
X110952554Y-115162554D01*
X110853425Y-115243906D01*
X110740336Y-115304354D01*
X110708404Y-115314040D01*
X110617618Y-115341580D01*
X110490000Y-115354149D01*
X110362383Y-115341580D01*
X110271597Y-115314040D01*
X110239665Y-115304354D01*
X110126576Y-115243906D01*
X110027447Y-115162554D01*
X109946095Y-115063425D01*
X109885647Y-114950336D01*
X109881282Y-114935946D01*
X109848420Y-114827618D01*
X109839000Y-114731973D01*
X109839000Y-113868028D01*
X109848420Y-113772383D01*
X109885645Y-113649669D01*
X109885646Y-113649665D01*
X109946094Y-113536576D01*
X110027447Y-113437446D01*
X110126575Y-113356094D01*
X110239664Y-113295646D01*
X110271596Y-113285960D01*
X110362382Y-113258420D01*
X110490000Y-113245851D01*
X110617617Y-113258420D01*
G37*
G36*
X113157617Y-113258420D02*
G01*
X113248403Y-113285960D01*
X113280335Y-113295646D01*
X113393424Y-113356094D01*
X113492554Y-113437447D01*
X113573906Y-113536575D01*
X113634354Y-113649664D01*
X113644040Y-113681596D01*
X113671580Y-113772382D01*
X113681000Y-113868027D01*
X113681000Y-114731973D01*
X113671580Y-114827618D01*
X113644040Y-114918404D01*
X113634354Y-114950336D01*
X113573906Y-115063425D01*
X113492554Y-115162554D01*
X113393425Y-115243906D01*
X113280336Y-115304354D01*
X113248404Y-115314040D01*
X113157618Y-115341580D01*
X113030000Y-115354149D01*
X112902383Y-115341580D01*
X112811597Y-115314040D01*
X112779665Y-115304354D01*
X112666576Y-115243906D01*
X112567447Y-115162554D01*
X112486095Y-115063425D01*
X112425647Y-114950336D01*
X112421282Y-114935946D01*
X112388420Y-114827618D01*
X112379000Y-114731973D01*
X112379000Y-113868028D01*
X112388420Y-113772383D01*
X112425645Y-113649669D01*
X112425646Y-113649665D01*
X112486094Y-113536576D01*
X112567447Y-113437446D01*
X112666575Y-113356094D01*
X112779664Y-113295646D01*
X112811596Y-113285960D01*
X112902382Y-113258420D01*
X113030000Y-113245851D01*
X113157617Y-113258420D01*
G37*
G36*
X217297617Y-113258420D02*
G01*
X217388403Y-113285960D01*
X217420335Y-113295646D01*
X217533424Y-113356094D01*
X217632554Y-113437447D01*
X217713906Y-113536575D01*
X217774354Y-113649664D01*
X217784040Y-113681596D01*
X217811580Y-113772382D01*
X217821000Y-113868027D01*
X217821000Y-114731973D01*
X217811580Y-114827618D01*
X217784040Y-114918404D01*
X217774354Y-114950336D01*
X217713906Y-115063425D01*
X217632554Y-115162554D01*
X217533425Y-115243906D01*
X217420336Y-115304354D01*
X217388404Y-115314040D01*
X217297618Y-115341580D01*
X217170000Y-115354149D01*
X217042383Y-115341580D01*
X216951597Y-115314040D01*
X216919665Y-115304354D01*
X216806576Y-115243906D01*
X216707447Y-115162554D01*
X216626095Y-115063425D01*
X216565647Y-114950336D01*
X216561282Y-114935946D01*
X216528420Y-114827618D01*
X216519000Y-114731973D01*
X216519000Y-113868028D01*
X216528420Y-113772383D01*
X216565645Y-113649669D01*
X216565646Y-113649665D01*
X216626094Y-113536576D01*
X216707447Y-113437446D01*
X216806575Y-113356094D01*
X216919664Y-113295646D01*
X216951596Y-113285960D01*
X217042382Y-113258420D01*
X217170000Y-113245851D01*
X217297617Y-113258420D01*
G37*
G36*
X219837617Y-113258420D02*
G01*
X219928403Y-113285960D01*
X219960335Y-113295646D01*
X220073424Y-113356094D01*
X220172554Y-113437447D01*
X220253906Y-113536575D01*
X220314354Y-113649664D01*
X220324040Y-113681596D01*
X220351580Y-113772382D01*
X220361000Y-113868027D01*
X220361000Y-114731973D01*
X220351580Y-114827618D01*
X220324040Y-114918404D01*
X220314354Y-114950336D01*
X220253906Y-115063425D01*
X220172554Y-115162554D01*
X220073425Y-115243906D01*
X219960336Y-115304354D01*
X219928404Y-115314040D01*
X219837618Y-115341580D01*
X219710000Y-115354149D01*
X219582383Y-115341580D01*
X219491597Y-115314040D01*
X219459665Y-115304354D01*
X219346576Y-115243906D01*
X219247447Y-115162554D01*
X219166095Y-115063425D01*
X219105647Y-114950336D01*
X219101282Y-114935946D01*
X219068420Y-114827618D01*
X219059000Y-114731973D01*
X219059000Y-113868028D01*
X219068420Y-113772383D01*
X219105645Y-113649669D01*
X219105646Y-113649665D01*
X219166094Y-113536576D01*
X219247447Y-113437446D01*
X219346575Y-113356094D01*
X219459664Y-113295646D01*
X219491596Y-113285960D01*
X219582382Y-113258420D01*
X219710000Y-113245851D01*
X219837617Y-113258420D01*
G37*
G36*
X196977617Y-113258420D02*
G01*
X197068403Y-113285960D01*
X197100335Y-113295646D01*
X197213424Y-113356094D01*
X197312554Y-113437447D01*
X197393906Y-113536575D01*
X197454354Y-113649664D01*
X197464040Y-113681596D01*
X197491580Y-113772382D01*
X197501000Y-113868027D01*
X197501000Y-114731973D01*
X197491580Y-114827618D01*
X197464040Y-114918404D01*
X197454354Y-114950336D01*
X197393906Y-115063425D01*
X197312554Y-115162554D01*
X197213425Y-115243906D01*
X197100336Y-115304354D01*
X197068404Y-115314040D01*
X196977618Y-115341580D01*
X196850000Y-115354149D01*
X196722383Y-115341580D01*
X196631597Y-115314040D01*
X196599665Y-115304354D01*
X196486576Y-115243906D01*
X196387447Y-115162554D01*
X196306095Y-115063425D01*
X196245647Y-114950336D01*
X196241282Y-114935946D01*
X196208420Y-114827618D01*
X196199000Y-114731973D01*
X196199000Y-113868028D01*
X196208420Y-113772383D01*
X196245645Y-113649669D01*
X196245646Y-113649665D01*
X196306094Y-113536576D01*
X196387447Y-113437446D01*
X196486575Y-113356094D01*
X196599664Y-113295646D01*
X196631596Y-113285960D01*
X196722382Y-113258420D01*
X196850000Y-113245851D01*
X196977617Y-113258420D01*
G37*
G36*
X123317617Y-113258420D02*
G01*
X123408403Y-113285960D01*
X123440335Y-113295646D01*
X123553424Y-113356094D01*
X123652554Y-113437447D01*
X123733906Y-113536575D01*
X123794354Y-113649664D01*
X123804040Y-113681596D01*
X123831580Y-113772382D01*
X123841000Y-113868027D01*
X123841000Y-114731973D01*
X123831580Y-114827618D01*
X123804040Y-114918404D01*
X123794354Y-114950336D01*
X123733906Y-115063425D01*
X123652554Y-115162554D01*
X123553425Y-115243906D01*
X123440336Y-115304354D01*
X123408404Y-115314040D01*
X123317618Y-115341580D01*
X123190000Y-115354149D01*
X123062383Y-115341580D01*
X122971597Y-115314040D01*
X122939665Y-115304354D01*
X122826576Y-115243906D01*
X122727447Y-115162554D01*
X122646095Y-115063425D01*
X122585647Y-114950336D01*
X122581282Y-114935946D01*
X122548420Y-114827618D01*
X122539000Y-114731973D01*
X122539000Y-113868028D01*
X122548420Y-113772383D01*
X122585645Y-113649669D01*
X122585646Y-113649665D01*
X122646094Y-113536576D01*
X122727447Y-113437446D01*
X122826575Y-113356094D01*
X122939664Y-113295646D01*
X122971596Y-113285960D01*
X123062382Y-113258420D01*
X123190000Y-113245851D01*
X123317617Y-113258420D01*
G37*
G36*
X125857617Y-113258420D02*
G01*
X125948403Y-113285960D01*
X125980335Y-113295646D01*
X126093424Y-113356094D01*
X126192554Y-113437447D01*
X126273906Y-113536575D01*
X126334354Y-113649664D01*
X126344040Y-113681596D01*
X126371580Y-113772382D01*
X126381000Y-113868027D01*
X126381000Y-114731973D01*
X126371580Y-114827618D01*
X126344040Y-114918404D01*
X126334354Y-114950336D01*
X126273906Y-115063425D01*
X126192554Y-115162554D01*
X126093425Y-115243906D01*
X125980336Y-115304354D01*
X125948404Y-115314040D01*
X125857618Y-115341580D01*
X125730000Y-115354149D01*
X125602383Y-115341580D01*
X125511597Y-115314040D01*
X125479665Y-115304354D01*
X125366576Y-115243906D01*
X125267447Y-115162554D01*
X125186095Y-115063425D01*
X125125647Y-114950336D01*
X125121282Y-114935946D01*
X125088420Y-114827618D01*
X125079000Y-114731973D01*
X125079000Y-113868028D01*
X125088420Y-113772383D01*
X125125645Y-113649669D01*
X125125646Y-113649665D01*
X125186094Y-113536576D01*
X125267447Y-113437446D01*
X125366575Y-113356094D01*
X125479664Y-113295646D01*
X125511596Y-113285960D01*
X125602382Y-113258420D01*
X125730000Y-113245851D01*
X125857617Y-113258420D01*
G37*
G36*
X128397617Y-113258420D02*
G01*
X128488403Y-113285960D01*
X128520335Y-113295646D01*
X128633424Y-113356094D01*
X128732554Y-113437447D01*
X128813906Y-113536575D01*
X128874354Y-113649664D01*
X128884040Y-113681596D01*
X128911580Y-113772382D01*
X128921000Y-113868027D01*
X128921000Y-114731973D01*
X128911580Y-114827618D01*
X128884040Y-114918404D01*
X128874354Y-114950336D01*
X128813906Y-115063425D01*
X128732554Y-115162554D01*
X128633425Y-115243906D01*
X128520336Y-115304354D01*
X128488404Y-115314040D01*
X128397618Y-115341580D01*
X128270000Y-115354149D01*
X128142383Y-115341580D01*
X128051597Y-115314040D01*
X128019665Y-115304354D01*
X127906576Y-115243906D01*
X127807447Y-115162554D01*
X127726095Y-115063425D01*
X127665647Y-114950336D01*
X127661282Y-114935946D01*
X127628420Y-114827618D01*
X127619000Y-114731973D01*
X127619000Y-113868028D01*
X127628420Y-113772383D01*
X127665645Y-113649669D01*
X127665646Y-113649665D01*
X127726094Y-113536576D01*
X127807447Y-113437446D01*
X127906575Y-113356094D01*
X128019664Y-113295646D01*
X128051596Y-113285960D01*
X128142382Y-113258420D01*
X128270000Y-113245851D01*
X128397617Y-113258420D01*
G37*
G36*
X130937617Y-113258420D02*
G01*
X131028403Y-113285960D01*
X131060335Y-113295646D01*
X131173424Y-113356094D01*
X131272554Y-113437447D01*
X131353906Y-113536575D01*
X131414354Y-113649664D01*
X131424040Y-113681596D01*
X131451580Y-113772382D01*
X131461000Y-113868027D01*
X131461000Y-114731973D01*
X131451580Y-114827618D01*
X131424040Y-114918404D01*
X131414354Y-114950336D01*
X131353906Y-115063425D01*
X131272554Y-115162554D01*
X131173425Y-115243906D01*
X131060336Y-115304354D01*
X131028404Y-115314040D01*
X130937618Y-115341580D01*
X130810000Y-115354149D01*
X130682383Y-115341580D01*
X130591597Y-115314040D01*
X130559665Y-115304354D01*
X130446576Y-115243906D01*
X130347447Y-115162554D01*
X130266095Y-115063425D01*
X130205647Y-114950336D01*
X130201282Y-114935946D01*
X130168420Y-114827618D01*
X130159000Y-114731973D01*
X130159000Y-113868028D01*
X130168420Y-113772383D01*
X130205645Y-113649669D01*
X130205646Y-113649665D01*
X130266094Y-113536576D01*
X130347447Y-113437446D01*
X130446575Y-113356094D01*
X130559664Y-113295646D01*
X130591596Y-113285960D01*
X130682382Y-113258420D01*
X130810000Y-113245851D01*
X130937617Y-113258420D01*
G37*
G36*
X133477617Y-113258420D02*
G01*
X133568403Y-113285960D01*
X133600335Y-113295646D01*
X133713424Y-113356094D01*
X133812554Y-113437447D01*
X133893906Y-113536575D01*
X133954354Y-113649664D01*
X133964040Y-113681596D01*
X133991580Y-113772382D01*
X134001000Y-113868027D01*
X134001000Y-114731973D01*
X133991580Y-114827618D01*
X133964040Y-114918404D01*
X133954354Y-114950336D01*
X133893906Y-115063425D01*
X133812554Y-115162554D01*
X133713425Y-115243906D01*
X133600336Y-115304354D01*
X133568404Y-115314040D01*
X133477618Y-115341580D01*
X133350000Y-115354149D01*
X133222383Y-115341580D01*
X133131597Y-115314040D01*
X133099665Y-115304354D01*
X132986576Y-115243906D01*
X132887447Y-115162554D01*
X132806095Y-115063425D01*
X132745647Y-114950336D01*
X132741282Y-114935946D01*
X132708420Y-114827618D01*
X132699000Y-114731973D01*
X132699000Y-113868028D01*
X132708420Y-113772383D01*
X132745645Y-113649669D01*
X132745646Y-113649665D01*
X132806094Y-113536576D01*
X132887447Y-113437446D01*
X132986575Y-113356094D01*
X133099664Y-113295646D01*
X133131596Y-113285960D01*
X133222382Y-113258420D01*
X133350000Y-113245851D01*
X133477617Y-113258420D01*
G37*
G36*
X189357617Y-113258420D02*
G01*
X189448403Y-113285960D01*
X189480335Y-113295646D01*
X189593424Y-113356094D01*
X189692554Y-113437447D01*
X189773906Y-113536575D01*
X189834354Y-113649664D01*
X189844040Y-113681596D01*
X189871580Y-113772382D01*
X189881000Y-113868027D01*
X189881000Y-114731973D01*
X189871580Y-114827618D01*
X189844040Y-114918404D01*
X189834354Y-114950336D01*
X189773906Y-115063425D01*
X189692554Y-115162554D01*
X189593425Y-115243906D01*
X189480336Y-115304354D01*
X189448404Y-115314040D01*
X189357618Y-115341580D01*
X189230000Y-115354149D01*
X189102383Y-115341580D01*
X189011597Y-115314040D01*
X188979665Y-115304354D01*
X188866576Y-115243906D01*
X188767447Y-115162554D01*
X188686095Y-115063425D01*
X188625647Y-114950336D01*
X188621282Y-114935946D01*
X188588420Y-114827618D01*
X188579000Y-114731973D01*
X188579000Y-113868028D01*
X188588420Y-113772383D01*
X188625645Y-113649669D01*
X188625646Y-113649665D01*
X188686094Y-113536576D01*
X188767447Y-113437446D01*
X188866575Y-113356094D01*
X188979664Y-113295646D01*
X189011596Y-113285960D01*
X189102382Y-113258420D01*
X189230000Y-113245851D01*
X189357617Y-113258420D01*
G37*
G36*
X191897617Y-113258420D02*
G01*
X191988403Y-113285960D01*
X192020335Y-113295646D01*
X192133424Y-113356094D01*
X192232554Y-113437447D01*
X192313906Y-113536575D01*
X192374354Y-113649664D01*
X192384040Y-113681596D01*
X192411580Y-113772382D01*
X192421000Y-113868027D01*
X192421000Y-114731973D01*
X192411580Y-114827618D01*
X192384040Y-114918404D01*
X192374354Y-114950336D01*
X192313906Y-115063425D01*
X192232554Y-115162554D01*
X192133425Y-115243906D01*
X192020336Y-115304354D01*
X191988404Y-115314040D01*
X191897618Y-115341580D01*
X191770000Y-115354149D01*
X191642383Y-115341580D01*
X191551597Y-115314040D01*
X191519665Y-115304354D01*
X191406576Y-115243906D01*
X191307447Y-115162554D01*
X191226095Y-115063425D01*
X191165647Y-114950336D01*
X191161282Y-114935946D01*
X191128420Y-114827618D01*
X191119000Y-114731973D01*
X191119000Y-113868028D01*
X191128420Y-113772383D01*
X191165645Y-113649669D01*
X191165646Y-113649665D01*
X191226094Y-113536576D01*
X191307447Y-113437446D01*
X191406575Y-113356094D01*
X191519664Y-113295646D01*
X191551596Y-113285960D01*
X191642382Y-113258420D01*
X191770000Y-113245851D01*
X191897617Y-113258420D01*
G37*
G36*
X118237617Y-113258420D02*
G01*
X118328403Y-113285960D01*
X118360335Y-113295646D01*
X118473424Y-113356094D01*
X118572554Y-113437447D01*
X118653906Y-113536575D01*
X118714354Y-113649664D01*
X118724040Y-113681596D01*
X118751580Y-113772382D01*
X118761000Y-113868027D01*
X118761000Y-114731973D01*
X118751580Y-114827618D01*
X118724040Y-114918404D01*
X118714354Y-114950336D01*
X118653906Y-115063425D01*
X118572554Y-115162554D01*
X118473425Y-115243906D01*
X118360336Y-115304354D01*
X118328404Y-115314040D01*
X118237618Y-115341580D01*
X118110000Y-115354149D01*
X117982383Y-115341580D01*
X117891597Y-115314040D01*
X117859665Y-115304354D01*
X117746576Y-115243906D01*
X117647447Y-115162554D01*
X117566095Y-115063425D01*
X117505647Y-114950336D01*
X117501282Y-114935946D01*
X117468420Y-114827618D01*
X117459000Y-114731973D01*
X117459000Y-113868028D01*
X117468420Y-113772383D01*
X117505645Y-113649669D01*
X117505646Y-113649665D01*
X117566094Y-113536576D01*
X117647447Y-113437446D01*
X117746575Y-113356094D01*
X117859664Y-113295646D01*
X117891596Y-113285960D01*
X117982382Y-113258420D01*
X118110000Y-113245851D01*
X118237617Y-113258420D01*
G37*
G36*
X199517617Y-113258420D02*
G01*
X199608403Y-113285960D01*
X199640335Y-113295646D01*
X199753424Y-113356094D01*
X199852554Y-113437447D01*
X199933906Y-113536575D01*
X199994354Y-113649664D01*
X200004040Y-113681596D01*
X200031580Y-113772382D01*
X200041000Y-113868027D01*
X200041000Y-114731973D01*
X200031580Y-114827618D01*
X200004040Y-114918404D01*
X199994354Y-114950336D01*
X199933906Y-115063425D01*
X199852554Y-115162554D01*
X199753425Y-115243906D01*
X199640336Y-115304354D01*
X199608404Y-115314040D01*
X199517618Y-115341580D01*
X199390000Y-115354149D01*
X199262383Y-115341580D01*
X199171597Y-115314040D01*
X199139665Y-115304354D01*
X199026576Y-115243906D01*
X198927447Y-115162554D01*
X198846095Y-115063425D01*
X198785647Y-114950336D01*
X198781282Y-114935946D01*
X198748420Y-114827618D01*
X198739000Y-114731973D01*
X198739000Y-113868028D01*
X198748420Y-113772383D01*
X198785645Y-113649669D01*
X198785646Y-113649665D01*
X198846094Y-113536576D01*
X198927447Y-113437446D01*
X199026575Y-113356094D01*
X199139664Y-113295646D01*
X199171596Y-113285960D01*
X199262382Y-113258420D01*
X199390000Y-113245851D01*
X199517617Y-113258420D01*
G37*
G36*
X202057617Y-113258420D02*
G01*
X202148403Y-113285960D01*
X202180335Y-113295646D01*
X202293424Y-113356094D01*
X202392554Y-113437447D01*
X202473906Y-113536575D01*
X202534354Y-113649664D01*
X202544040Y-113681596D01*
X202571580Y-113772382D01*
X202581000Y-113868027D01*
X202581000Y-114731973D01*
X202571580Y-114827618D01*
X202544040Y-114918404D01*
X202534354Y-114950336D01*
X202473906Y-115063425D01*
X202392554Y-115162554D01*
X202293425Y-115243906D01*
X202180336Y-115304354D01*
X202148404Y-115314040D01*
X202057618Y-115341580D01*
X201930000Y-115354149D01*
X201802383Y-115341580D01*
X201711597Y-115314040D01*
X201679665Y-115304354D01*
X201566576Y-115243906D01*
X201467447Y-115162554D01*
X201386095Y-115063425D01*
X201325647Y-114950336D01*
X201321282Y-114935946D01*
X201288420Y-114827618D01*
X201279000Y-114731973D01*
X201279000Y-113868028D01*
X201288420Y-113772383D01*
X201325645Y-113649669D01*
X201325646Y-113649665D01*
X201386094Y-113536576D01*
X201467447Y-113437446D01*
X201566575Y-113356094D01*
X201679664Y-113295646D01*
X201711596Y-113285960D01*
X201802382Y-113258420D01*
X201930000Y-113245851D01*
X202057617Y-113258420D01*
G37*
G36*
X204597617Y-113258420D02*
G01*
X204688403Y-113285960D01*
X204720335Y-113295646D01*
X204833424Y-113356094D01*
X204932554Y-113437447D01*
X205013906Y-113536575D01*
X205074354Y-113649664D01*
X205084040Y-113681596D01*
X205111580Y-113772382D01*
X205121000Y-113868027D01*
X205121000Y-114731973D01*
X205111580Y-114827618D01*
X205084040Y-114918404D01*
X205074354Y-114950336D01*
X205013906Y-115063425D01*
X204932554Y-115162554D01*
X204833425Y-115243906D01*
X204720336Y-115304354D01*
X204688404Y-115314040D01*
X204597618Y-115341580D01*
X204470000Y-115354149D01*
X204342383Y-115341580D01*
X204251597Y-115314040D01*
X204219665Y-115304354D01*
X204106576Y-115243906D01*
X204007447Y-115162554D01*
X203926095Y-115063425D01*
X203865647Y-114950336D01*
X203861282Y-114935946D01*
X203828420Y-114827618D01*
X203819000Y-114731973D01*
X203819000Y-113868028D01*
X203828420Y-113772383D01*
X203865645Y-113649669D01*
X203865646Y-113649665D01*
X203926094Y-113536576D01*
X204007447Y-113437446D01*
X204106575Y-113356094D01*
X204219664Y-113295646D01*
X204251596Y-113285960D01*
X204342382Y-113258420D01*
X204470000Y-113245851D01*
X204597617Y-113258420D01*
G37*
G36*
X207137617Y-113258420D02*
G01*
X207228403Y-113285960D01*
X207260335Y-113295646D01*
X207373424Y-113356094D01*
X207472554Y-113437447D01*
X207553906Y-113536575D01*
X207614354Y-113649664D01*
X207624040Y-113681596D01*
X207651580Y-113772382D01*
X207661000Y-113868027D01*
X207661000Y-114731973D01*
X207651580Y-114827618D01*
X207624040Y-114918404D01*
X207614354Y-114950336D01*
X207553906Y-115063425D01*
X207472554Y-115162554D01*
X207373425Y-115243906D01*
X207260336Y-115304354D01*
X207228404Y-115314040D01*
X207137618Y-115341580D01*
X207010000Y-115354149D01*
X206882383Y-115341580D01*
X206791597Y-115314040D01*
X206759665Y-115304354D01*
X206646576Y-115243906D01*
X206547447Y-115162554D01*
X206466095Y-115063425D01*
X206405647Y-114950336D01*
X206401282Y-114935946D01*
X206368420Y-114827618D01*
X206359000Y-114731973D01*
X206359000Y-113868028D01*
X206368420Y-113772383D01*
X206405645Y-113649669D01*
X206405646Y-113649665D01*
X206466094Y-113536576D01*
X206547447Y-113437446D01*
X206646575Y-113356094D01*
X206759664Y-113295646D01*
X206791596Y-113285960D01*
X206882382Y-113258420D01*
X207010000Y-113245851D01*
X207137617Y-113258420D01*
G37*
G36*
X209677617Y-113258420D02*
G01*
X209768403Y-113285960D01*
X209800335Y-113295646D01*
X209913424Y-113356094D01*
X210012554Y-113437447D01*
X210093906Y-113536575D01*
X210154354Y-113649664D01*
X210164040Y-113681596D01*
X210191580Y-113772382D01*
X210201000Y-113868027D01*
X210201000Y-114731973D01*
X210191580Y-114827618D01*
X210164040Y-114918404D01*
X210154354Y-114950336D01*
X210093906Y-115063425D01*
X210012554Y-115162554D01*
X209913425Y-115243906D01*
X209800336Y-115304354D01*
X209768404Y-115314040D01*
X209677618Y-115341580D01*
X209550000Y-115354149D01*
X209422383Y-115341580D01*
X209331597Y-115314040D01*
X209299665Y-115304354D01*
X209186576Y-115243906D01*
X209087447Y-115162554D01*
X209006095Y-115063425D01*
X208945647Y-114950336D01*
X208941282Y-114935946D01*
X208908420Y-114827618D01*
X208899000Y-114731973D01*
X208899000Y-113868028D01*
X208908420Y-113772383D01*
X208945645Y-113649669D01*
X208945646Y-113649665D01*
X209006094Y-113536576D01*
X209087447Y-113437446D01*
X209186575Y-113356094D01*
X209299664Y-113295646D01*
X209331596Y-113285960D01*
X209422382Y-113258420D01*
X209550000Y-113245851D01*
X209677617Y-113258420D01*
G37*
G36*
X212217617Y-113258420D02*
G01*
X212308403Y-113285960D01*
X212340335Y-113295646D01*
X212453424Y-113356094D01*
X212552554Y-113437447D01*
X212633906Y-113536575D01*
X212694354Y-113649664D01*
X212704040Y-113681596D01*
X212731580Y-113772382D01*
X212741000Y-113868027D01*
X212741000Y-114731973D01*
X212731580Y-114827618D01*
X212704040Y-114918404D01*
X212694354Y-114950336D01*
X212633906Y-115063425D01*
X212552554Y-115162554D01*
X212453425Y-115243906D01*
X212340336Y-115304354D01*
X212308404Y-115314040D01*
X212217618Y-115341580D01*
X212090000Y-115354149D01*
X211962383Y-115341580D01*
X211871597Y-115314040D01*
X211839665Y-115304354D01*
X211726576Y-115243906D01*
X211627447Y-115162554D01*
X211546095Y-115063425D01*
X211485647Y-114950336D01*
X211481282Y-114935946D01*
X211448420Y-114827618D01*
X211439000Y-114731973D01*
X211439000Y-113868028D01*
X211448420Y-113772383D01*
X211485645Y-113649669D01*
X211485646Y-113649665D01*
X211546094Y-113536576D01*
X211627447Y-113437446D01*
X211726575Y-113356094D01*
X211839664Y-113295646D01*
X211871596Y-113285960D01*
X211962382Y-113258420D01*
X212090000Y-113245851D01*
X212217617Y-113258420D01*
G37*
G36*
X214757617Y-113258420D02*
G01*
X214848403Y-113285960D01*
X214880335Y-113295646D01*
X214993424Y-113356094D01*
X215092554Y-113437447D01*
X215173906Y-113536575D01*
X215234354Y-113649664D01*
X215244040Y-113681596D01*
X215271580Y-113772382D01*
X215281000Y-113868027D01*
X215281000Y-114731973D01*
X215271580Y-114827618D01*
X215244040Y-114918404D01*
X215234354Y-114950336D01*
X215173906Y-115063425D01*
X215092554Y-115162554D01*
X214993425Y-115243906D01*
X214880336Y-115304354D01*
X214848404Y-115314040D01*
X214757618Y-115341580D01*
X214630000Y-115354149D01*
X214502383Y-115341580D01*
X214411597Y-115314040D01*
X214379665Y-115304354D01*
X214266576Y-115243906D01*
X214167447Y-115162554D01*
X214086095Y-115063425D01*
X214025647Y-114950336D01*
X214021282Y-114935946D01*
X213988420Y-114827618D01*
X213979000Y-114731973D01*
X213979000Y-113868028D01*
X213988420Y-113772383D01*
X214025645Y-113649669D01*
X214025646Y-113649665D01*
X214086094Y-113536576D01*
X214167447Y-113437446D01*
X214266575Y-113356094D01*
X214379664Y-113295646D01*
X214411596Y-113285960D01*
X214502382Y-113258420D01*
X214630000Y-113245851D01*
X214757617Y-113258420D01*
G37*
G36*
X194437617Y-113258420D02*
G01*
X194528403Y-113285960D01*
X194560335Y-113295646D01*
X194673424Y-113356094D01*
X194772554Y-113437447D01*
X194853906Y-113536575D01*
X194914354Y-113649664D01*
X194924040Y-113681596D01*
X194951580Y-113772382D01*
X194961000Y-113868027D01*
X194961000Y-114731973D01*
X194951580Y-114827618D01*
X194924040Y-114918404D01*
X194914354Y-114950336D01*
X194853906Y-115063425D01*
X194772554Y-115162554D01*
X194673425Y-115243906D01*
X194560336Y-115304354D01*
X194528404Y-115314040D01*
X194437618Y-115341580D01*
X194310000Y-115354149D01*
X194182383Y-115341580D01*
X194091597Y-115314040D01*
X194059665Y-115304354D01*
X193946576Y-115243906D01*
X193847447Y-115162554D01*
X193766095Y-115063425D01*
X193705647Y-114950336D01*
X193701282Y-114935946D01*
X193668420Y-114827618D01*
X193659000Y-114731973D01*
X193659000Y-113868028D01*
X193668420Y-113772383D01*
X193705645Y-113649669D01*
X193705646Y-113649665D01*
X193766094Y-113536576D01*
X193847447Y-113437446D01*
X193946575Y-113356094D01*
X194059664Y-113295646D01*
X194091596Y-113285960D01*
X194182382Y-113258420D01*
X194310000Y-113245851D01*
X194437617Y-113258420D01*
G37*
G36*
X235395000Y-114600000D02*
G01*
X231395000Y-114600000D01*
X231395000Y-100600000D01*
X235395000Y-100600000D01*
X235395000Y-114600000D01*
G37*
G36*
X247395000Y-114600000D02*
G01*
X243395000Y-114600000D01*
X243395000Y-106600000D01*
X247395000Y-106600000D01*
X247395000Y-114600000D01*
G37*
G36*
X241395000Y-114600000D02*
G01*
X237395000Y-114600000D01*
X237395000Y-88600000D01*
X241395000Y-88600000D01*
X241395000Y-114600000D01*
G37*
G36*
X161538228Y-108401703D02*
G01*
X161693100Y-108465853D01*
X161832481Y-108558985D01*
X161951015Y-108677519D01*
X162044147Y-108816900D01*
X162108297Y-108971772D01*
X162141000Y-109136184D01*
X162141000Y-109303816D01*
X162108297Y-109468228D01*
X162044147Y-109623100D01*
X161951015Y-109762481D01*
X161832481Y-109881015D01*
X161693100Y-109974147D01*
X161538228Y-110038297D01*
X161373816Y-110071000D01*
X161206184Y-110071000D01*
X161041772Y-110038297D01*
X160886900Y-109974147D01*
X160747519Y-109881015D01*
X160628985Y-109762481D01*
X160535853Y-109623100D01*
X160471703Y-109468228D01*
X160439000Y-109303816D01*
X160439000Y-109136184D01*
X160471703Y-108971772D01*
X160535853Y-108816900D01*
X160628985Y-108677519D01*
X160747519Y-108558985D01*
X160886900Y-108465853D01*
X161041772Y-108401703D01*
X161206184Y-108369000D01*
X161373816Y-108369000D01*
X161538228Y-108401703D01*
G37*
G36*
X143758228Y-108401703D02*
G01*
X143913100Y-108465853D01*
X144052481Y-108558985D01*
X144171015Y-108677519D01*
X144264147Y-108816900D01*
X144328297Y-108971772D01*
X144361000Y-109136184D01*
X144361000Y-109303816D01*
X144328297Y-109468228D01*
X144264147Y-109623100D01*
X144171015Y-109762481D01*
X144052481Y-109881015D01*
X143913100Y-109974147D01*
X143758228Y-110038297D01*
X143593816Y-110071000D01*
X143426184Y-110071000D01*
X143261772Y-110038297D01*
X143106900Y-109974147D01*
X142967519Y-109881015D01*
X142848985Y-109762481D01*
X142755853Y-109623100D01*
X142691703Y-109468228D01*
X142659000Y-109303816D01*
X142659000Y-109136184D01*
X142691703Y-108971772D01*
X142755853Y-108816900D01*
X142848985Y-108677519D01*
X142967519Y-108558985D01*
X143106900Y-108465853D01*
X143261772Y-108401703D01*
X143426184Y-108369000D01*
X143593816Y-108369000D01*
X143758228Y-108401703D01*
G37*
G36*
X164078228Y-108401703D02*
G01*
X164233100Y-108465853D01*
X164372481Y-108558985D01*
X164491015Y-108677519D01*
X164584147Y-108816900D01*
X164648297Y-108971772D01*
X164681000Y-109136184D01*
X164681000Y-109303816D01*
X164648297Y-109468228D01*
X164584147Y-109623100D01*
X164491015Y-109762481D01*
X164372481Y-109881015D01*
X164233100Y-109974147D01*
X164078228Y-110038297D01*
X163913816Y-110071000D01*
X163746184Y-110071000D01*
X163581772Y-110038297D01*
X163426900Y-109974147D01*
X163287519Y-109881015D01*
X163168985Y-109762481D01*
X163075853Y-109623100D01*
X163011703Y-109468228D01*
X162979000Y-109303816D01*
X162979000Y-109136184D01*
X163011703Y-108971772D01*
X163075853Y-108816900D01*
X163168985Y-108677519D01*
X163287519Y-108558985D01*
X163426900Y-108465853D01*
X163581772Y-108401703D01*
X163746184Y-108369000D01*
X163913816Y-108369000D01*
X164078228Y-108401703D01*
G37*
G36*
X158998228Y-108401703D02*
G01*
X159153100Y-108465853D01*
X159292481Y-108558985D01*
X159411015Y-108677519D01*
X159504147Y-108816900D01*
X159568297Y-108971772D01*
X159601000Y-109136184D01*
X159601000Y-109303816D01*
X159568297Y-109468228D01*
X159504147Y-109623100D01*
X159411015Y-109762481D01*
X159292481Y-109881015D01*
X159153100Y-109974147D01*
X158998228Y-110038297D01*
X158833816Y-110071000D01*
X158666184Y-110071000D01*
X158501772Y-110038297D01*
X158346900Y-109974147D01*
X158207519Y-109881015D01*
X158088985Y-109762481D01*
X157995853Y-109623100D01*
X157931703Y-109468228D01*
X157899000Y-109303816D01*
X157899000Y-109136184D01*
X157931703Y-108971772D01*
X157995853Y-108816900D01*
X158088985Y-108677519D01*
X158207519Y-108558985D01*
X158346900Y-108465853D01*
X158501772Y-108401703D01*
X158666184Y-108369000D01*
X158833816Y-108369000D01*
X158998228Y-108401703D01*
G37*
G36*
X166618228Y-108401703D02*
G01*
X166773100Y-108465853D01*
X166912481Y-108558985D01*
X167031015Y-108677519D01*
X167124147Y-108816900D01*
X167188297Y-108971772D01*
X167221000Y-109136184D01*
X167221000Y-109303816D01*
X167188297Y-109468228D01*
X167124147Y-109623100D01*
X167031015Y-109762481D01*
X166912481Y-109881015D01*
X166773100Y-109974147D01*
X166618228Y-110038297D01*
X166453816Y-110071000D01*
X166286184Y-110071000D01*
X166121772Y-110038297D01*
X165966900Y-109974147D01*
X165827519Y-109881015D01*
X165708985Y-109762481D01*
X165615853Y-109623100D01*
X165551703Y-109468228D01*
X165519000Y-109303816D01*
X165519000Y-109136184D01*
X165551703Y-108971772D01*
X165615853Y-108816900D01*
X165708985Y-108677519D01*
X165827519Y-108558985D01*
X165966900Y-108465853D01*
X166121772Y-108401703D01*
X166286184Y-108369000D01*
X166453816Y-108369000D01*
X166618228Y-108401703D01*
G37*
G36*
X169158228Y-108401703D02*
G01*
X169313100Y-108465853D01*
X169452481Y-108558985D01*
X169571015Y-108677519D01*
X169664147Y-108816900D01*
X169728297Y-108971772D01*
X169761000Y-109136184D01*
X169761000Y-109303816D01*
X169728297Y-109468228D01*
X169664147Y-109623100D01*
X169571015Y-109762481D01*
X169452481Y-109881015D01*
X169313100Y-109974147D01*
X169158228Y-110038297D01*
X168993816Y-110071000D01*
X168826184Y-110071000D01*
X168661772Y-110038297D01*
X168506900Y-109974147D01*
X168367519Y-109881015D01*
X168248985Y-109762481D01*
X168155853Y-109623100D01*
X168091703Y-109468228D01*
X168059000Y-109303816D01*
X168059000Y-109136184D01*
X168091703Y-108971772D01*
X168155853Y-108816900D01*
X168248985Y-108677519D01*
X168367519Y-108558985D01*
X168506900Y-108465853D01*
X168661772Y-108401703D01*
X168826184Y-108369000D01*
X168993816Y-108369000D01*
X169158228Y-108401703D01*
G37*
G36*
X171698228Y-108401703D02*
G01*
X171853100Y-108465853D01*
X171992481Y-108558985D01*
X172111015Y-108677519D01*
X172204147Y-108816900D01*
X172268297Y-108971772D01*
X172301000Y-109136184D01*
X172301000Y-109303816D01*
X172268297Y-109468228D01*
X172204147Y-109623100D01*
X172111015Y-109762481D01*
X171992481Y-109881015D01*
X171853100Y-109974147D01*
X171698228Y-110038297D01*
X171533816Y-110071000D01*
X171366184Y-110071000D01*
X171201772Y-110038297D01*
X171046900Y-109974147D01*
X170907519Y-109881015D01*
X170788985Y-109762481D01*
X170695853Y-109623100D01*
X170631703Y-109468228D01*
X170599000Y-109303816D01*
X170599000Y-109136184D01*
X170631703Y-108971772D01*
X170695853Y-108816900D01*
X170788985Y-108677519D01*
X170907519Y-108558985D01*
X171046900Y-108465853D01*
X171201772Y-108401703D01*
X171366184Y-108369000D01*
X171533816Y-108369000D01*
X171698228Y-108401703D01*
G37*
G36*
X174238228Y-108401703D02*
G01*
X174393100Y-108465853D01*
X174532481Y-108558985D01*
X174651015Y-108677519D01*
X174744147Y-108816900D01*
X174808297Y-108971772D01*
X174841000Y-109136184D01*
X174841000Y-109303816D01*
X174808297Y-109468228D01*
X174744147Y-109623100D01*
X174651015Y-109762481D01*
X174532481Y-109881015D01*
X174393100Y-109974147D01*
X174238228Y-110038297D01*
X174073816Y-110071000D01*
X173906184Y-110071000D01*
X173741772Y-110038297D01*
X173586900Y-109974147D01*
X173447519Y-109881015D01*
X173328985Y-109762481D01*
X173235853Y-109623100D01*
X173171703Y-109468228D01*
X173139000Y-109303816D01*
X173139000Y-109136184D01*
X173171703Y-108971772D01*
X173235853Y-108816900D01*
X173328985Y-108677519D01*
X173447519Y-108558985D01*
X173586900Y-108465853D01*
X173741772Y-108401703D01*
X173906184Y-108369000D01*
X174073816Y-108369000D01*
X174238228Y-108401703D01*
G37*
G36*
X176778228Y-108401703D02*
G01*
X176933100Y-108465853D01*
X177072481Y-108558985D01*
X177191015Y-108677519D01*
X177284147Y-108816900D01*
X177348297Y-108971772D01*
X177381000Y-109136184D01*
X177381000Y-109303816D01*
X177348297Y-109468228D01*
X177284147Y-109623100D01*
X177191015Y-109762481D01*
X177072481Y-109881015D01*
X176933100Y-109974147D01*
X176778228Y-110038297D01*
X176613816Y-110071000D01*
X176446184Y-110071000D01*
X176281772Y-110038297D01*
X176126900Y-109974147D01*
X175987519Y-109881015D01*
X175868985Y-109762481D01*
X175775853Y-109623100D01*
X175711703Y-109468228D01*
X175679000Y-109303816D01*
X175679000Y-109136184D01*
X175711703Y-108971772D01*
X175775853Y-108816900D01*
X175868985Y-108677519D01*
X175987519Y-108558985D01*
X176126900Y-108465853D01*
X176281772Y-108401703D01*
X176446184Y-108369000D01*
X176613816Y-108369000D01*
X176778228Y-108401703D01*
G37*
G36*
X156458228Y-108401703D02*
G01*
X156613100Y-108465853D01*
X156752481Y-108558985D01*
X156871015Y-108677519D01*
X156964147Y-108816900D01*
X157028297Y-108971772D01*
X157061000Y-109136184D01*
X157061000Y-109303816D01*
X157028297Y-109468228D01*
X156964147Y-109623100D01*
X156871015Y-109762481D01*
X156752481Y-109881015D01*
X156613100Y-109974147D01*
X156458228Y-110038297D01*
X156293816Y-110071000D01*
X156126184Y-110071000D01*
X155961772Y-110038297D01*
X155806900Y-109974147D01*
X155667519Y-109881015D01*
X155548985Y-109762481D01*
X155455853Y-109623100D01*
X155391703Y-109468228D01*
X155359000Y-109303816D01*
X155359000Y-109136184D01*
X155391703Y-108971772D01*
X155455853Y-108816900D01*
X155548985Y-108677519D01*
X155667519Y-108558985D01*
X155806900Y-108465853D01*
X155961772Y-108401703D01*
X156126184Y-108369000D01*
X156293816Y-108369000D01*
X156458228Y-108401703D01*
G37*
G36*
X153918228Y-108401703D02*
G01*
X154073100Y-108465853D01*
X154212481Y-108558985D01*
X154331015Y-108677519D01*
X154424147Y-108816900D01*
X154488297Y-108971772D01*
X154521000Y-109136184D01*
X154521000Y-109303816D01*
X154488297Y-109468228D01*
X154424147Y-109623100D01*
X154331015Y-109762481D01*
X154212481Y-109881015D01*
X154073100Y-109974147D01*
X153918228Y-110038297D01*
X153753816Y-110071000D01*
X153586184Y-110071000D01*
X153421772Y-110038297D01*
X153266900Y-109974147D01*
X153127519Y-109881015D01*
X153008985Y-109762481D01*
X152915853Y-109623100D01*
X152851703Y-109468228D01*
X152819000Y-109303816D01*
X152819000Y-109136184D01*
X152851703Y-108971772D01*
X152915853Y-108816900D01*
X153008985Y-108677519D01*
X153127519Y-108558985D01*
X153266900Y-108465853D01*
X153421772Y-108401703D01*
X153586184Y-108369000D01*
X153753816Y-108369000D01*
X153918228Y-108401703D01*
G37*
G36*
X151378228Y-108401703D02*
G01*
X151533100Y-108465853D01*
X151672481Y-108558985D01*
X151791015Y-108677519D01*
X151884147Y-108816900D01*
X151948297Y-108971772D01*
X151981000Y-109136184D01*
X151981000Y-109303816D01*
X151948297Y-109468228D01*
X151884147Y-109623100D01*
X151791015Y-109762481D01*
X151672481Y-109881015D01*
X151533100Y-109974147D01*
X151378228Y-110038297D01*
X151213816Y-110071000D01*
X151046184Y-110071000D01*
X150881772Y-110038297D01*
X150726900Y-109974147D01*
X150587519Y-109881015D01*
X150468985Y-109762481D01*
X150375853Y-109623100D01*
X150311703Y-109468228D01*
X150279000Y-109303816D01*
X150279000Y-109136184D01*
X150311703Y-108971772D01*
X150375853Y-108816900D01*
X150468985Y-108677519D01*
X150587519Y-108558985D01*
X150726900Y-108465853D01*
X150881772Y-108401703D01*
X151046184Y-108369000D01*
X151213816Y-108369000D01*
X151378228Y-108401703D01*
G37*
G36*
X148838228Y-108401703D02*
G01*
X148993100Y-108465853D01*
X149132481Y-108558985D01*
X149251015Y-108677519D01*
X149344147Y-108816900D01*
X149408297Y-108971772D01*
X149441000Y-109136184D01*
X149441000Y-109303816D01*
X149408297Y-109468228D01*
X149344147Y-109623100D01*
X149251015Y-109762481D01*
X149132481Y-109881015D01*
X148993100Y-109974147D01*
X148838228Y-110038297D01*
X148673816Y-110071000D01*
X148506184Y-110071000D01*
X148341772Y-110038297D01*
X148186900Y-109974147D01*
X148047519Y-109881015D01*
X147928985Y-109762481D01*
X147835853Y-109623100D01*
X147771703Y-109468228D01*
X147739000Y-109303816D01*
X147739000Y-109136184D01*
X147771703Y-108971772D01*
X147835853Y-108816900D01*
X147928985Y-108677519D01*
X148047519Y-108558985D01*
X148186900Y-108465853D01*
X148341772Y-108401703D01*
X148506184Y-108369000D01*
X148673816Y-108369000D01*
X148838228Y-108401703D01*
G37*
G36*
X146298228Y-108401703D02*
G01*
X146453100Y-108465853D01*
X146592481Y-108558985D01*
X146711015Y-108677519D01*
X146804147Y-108816900D01*
X146868297Y-108971772D01*
X146901000Y-109136184D01*
X146901000Y-109303816D01*
X146868297Y-109468228D01*
X146804147Y-109623100D01*
X146711015Y-109762481D01*
X146592481Y-109881015D01*
X146453100Y-109974147D01*
X146298228Y-110038297D01*
X146133816Y-110071000D01*
X145966184Y-110071000D01*
X145801772Y-110038297D01*
X145646900Y-109974147D01*
X145507519Y-109881015D01*
X145388985Y-109762481D01*
X145295853Y-109623100D01*
X145231703Y-109468228D01*
X145199000Y-109303816D01*
X145199000Y-109136184D01*
X145231703Y-108971772D01*
X145295853Y-108816900D01*
X145388985Y-108677519D01*
X145507519Y-108558985D01*
X145646900Y-108465853D01*
X145801772Y-108401703D01*
X145966184Y-108369000D01*
X146133816Y-108369000D01*
X146298228Y-108401703D01*
G37*
G36*
X179318228Y-108401703D02*
G01*
X179473100Y-108465853D01*
X179612481Y-108558985D01*
X179731015Y-108677519D01*
X179824147Y-108816900D01*
X179888297Y-108971772D01*
X179921000Y-109136184D01*
X179921000Y-109303816D01*
X179888297Y-109468228D01*
X179824147Y-109623100D01*
X179731015Y-109762481D01*
X179612481Y-109881015D01*
X179473100Y-109974147D01*
X179318228Y-110038297D01*
X179153816Y-110071000D01*
X178986184Y-110071000D01*
X178821772Y-110038297D01*
X178666900Y-109974147D01*
X178527519Y-109881015D01*
X178408985Y-109762481D01*
X178315853Y-109623100D01*
X178251703Y-109468228D01*
X178219000Y-109303816D01*
X178219000Y-109136184D01*
X178251703Y-108971772D01*
X178315853Y-108816900D01*
X178408985Y-108677519D01*
X178527519Y-108558985D01*
X178666900Y-108465853D01*
X178821772Y-108401703D01*
X178986184Y-108369000D01*
X179153816Y-108369000D01*
X179318228Y-108401703D01*
G37*
G36*
X117207512Y-107561927D02*
G01*
X117356812Y-107591624D01*
X117520784Y-107659544D01*
X117668354Y-107758147D01*
X117793853Y-107883646D01*
X117892456Y-108031216D01*
X117960376Y-108195188D01*
X117990073Y-108344488D01*
X117994949Y-108369000D01*
X117995000Y-108369259D01*
X117995000Y-108546741D01*
X117960376Y-108720812D01*
X117892456Y-108884784D01*
X117793853Y-109032354D01*
X117668354Y-109157853D01*
X117520784Y-109256456D01*
X117356812Y-109324376D01*
X117207512Y-109354073D01*
X117182742Y-109359000D01*
X117005258Y-109359000D01*
X116980488Y-109354073D01*
X116831188Y-109324376D01*
X116667216Y-109256456D01*
X116519646Y-109157853D01*
X116394147Y-109032354D01*
X116295544Y-108884784D01*
X116227624Y-108720812D01*
X116193000Y-108546741D01*
X116193000Y-108369259D01*
X116193052Y-108369000D01*
X116197927Y-108344488D01*
X116227624Y-108195188D01*
X116295544Y-108031216D01*
X116394147Y-107883646D01*
X116519646Y-107758147D01*
X116667216Y-107659544D01*
X116831188Y-107591624D01*
X116980488Y-107561927D01*
X117005258Y-107557000D01*
X117182742Y-107557000D01*
X117207512Y-107561927D01*
G37*
G36*
X114667512Y-107561927D02*
G01*
X114816812Y-107591624D01*
X114980784Y-107659544D01*
X115128354Y-107758147D01*
X115253853Y-107883646D01*
X115352456Y-108031216D01*
X115420376Y-108195188D01*
X115450073Y-108344488D01*
X115454949Y-108369000D01*
X115455000Y-108369259D01*
X115455000Y-108546741D01*
X115420376Y-108720812D01*
X115352456Y-108884784D01*
X115253853Y-109032354D01*
X115128354Y-109157853D01*
X114980784Y-109256456D01*
X114816812Y-109324376D01*
X114667512Y-109354073D01*
X114642742Y-109359000D01*
X114465258Y-109359000D01*
X114440488Y-109354073D01*
X114291188Y-109324376D01*
X114127216Y-109256456D01*
X113979646Y-109157853D01*
X113854147Y-109032354D01*
X113755544Y-108884784D01*
X113687624Y-108720812D01*
X113653000Y-108546741D01*
X113653000Y-108369259D01*
X113653052Y-108369000D01*
X113657927Y-108344488D01*
X113687624Y-108195188D01*
X113755544Y-108031216D01*
X113854147Y-107883646D01*
X113979646Y-107758147D01*
X114127216Y-107659544D01*
X114291188Y-107591624D01*
X114440488Y-107561927D01*
X114465258Y-107557000D01*
X114642742Y-107557000D01*
X114667512Y-107561927D01*
G37*
G36*
X112127512Y-107561927D02*
G01*
X112276812Y-107591624D01*
X112440784Y-107659544D01*
X112588354Y-107758147D01*
X112713853Y-107883646D01*
X112812456Y-108031216D01*
X112880376Y-108195188D01*
X112910073Y-108344488D01*
X112914949Y-108369000D01*
X112915000Y-108369259D01*
X112915000Y-108546741D01*
X112880376Y-108720812D01*
X112812456Y-108884784D01*
X112713853Y-109032354D01*
X112588354Y-109157853D01*
X112440784Y-109256456D01*
X112276812Y-109324376D01*
X112127512Y-109354073D01*
X112102742Y-109359000D01*
X111925258Y-109359000D01*
X111900488Y-109354073D01*
X111751188Y-109324376D01*
X111587216Y-109256456D01*
X111439646Y-109157853D01*
X111314147Y-109032354D01*
X111215544Y-108884784D01*
X111147624Y-108720812D01*
X111113000Y-108546741D01*
X111113000Y-108369259D01*
X111113052Y-108369000D01*
X111117927Y-108344488D01*
X111147624Y-108195188D01*
X111215544Y-108031216D01*
X111314147Y-107883646D01*
X111439646Y-107758147D01*
X111587216Y-107659544D01*
X111751188Y-107591624D01*
X111900488Y-107561927D01*
X111925258Y-107557000D01*
X112102742Y-107557000D01*
X112127512Y-107561927D01*
G37*
G36*
X109587512Y-107561927D02*
G01*
X109736812Y-107591624D01*
X109900784Y-107659544D01*
X110048354Y-107758147D01*
X110173853Y-107883646D01*
X110272456Y-108031216D01*
X110340376Y-108195188D01*
X110370073Y-108344488D01*
X110374949Y-108369000D01*
X110375000Y-108369259D01*
X110375000Y-108546741D01*
X110340376Y-108720812D01*
X110272456Y-108884784D01*
X110173853Y-109032354D01*
X110048354Y-109157853D01*
X109900784Y-109256456D01*
X109736812Y-109324376D01*
X109587512Y-109354073D01*
X109562742Y-109359000D01*
X109385258Y-109359000D01*
X109360488Y-109354073D01*
X109211188Y-109324376D01*
X109047216Y-109256456D01*
X108899646Y-109157853D01*
X108774147Y-109032354D01*
X108675544Y-108884784D01*
X108607624Y-108720812D01*
X108573000Y-108546741D01*
X108573000Y-108369259D01*
X108573052Y-108369000D01*
X108577927Y-108344488D01*
X108607624Y-108195188D01*
X108675544Y-108031216D01*
X108774147Y-107883646D01*
X108899646Y-107758147D01*
X109047216Y-107659544D01*
X109211188Y-107591624D01*
X109360488Y-107561927D01*
X109385258Y-107557000D01*
X109562742Y-107557000D01*
X109587512Y-107561927D01*
G37*
G36*
X119747512Y-107561927D02*
G01*
X119896812Y-107591624D01*
X120060784Y-107659544D01*
X120208354Y-107758147D01*
X120333853Y-107883646D01*
X120432456Y-108031216D01*
X120500376Y-108195188D01*
X120530073Y-108344488D01*
X120534949Y-108369000D01*
X120535000Y-108369259D01*
X120535000Y-108546741D01*
X120500376Y-108720812D01*
X120432456Y-108884784D01*
X120333853Y-109032354D01*
X120208354Y-109157853D01*
X120060784Y-109256456D01*
X119896812Y-109324376D01*
X119747512Y-109354073D01*
X119722742Y-109359000D01*
X119545258Y-109359000D01*
X119520488Y-109354073D01*
X119371188Y-109324376D01*
X119207216Y-109256456D01*
X119059646Y-109157853D01*
X118934147Y-109032354D01*
X118835544Y-108884784D01*
X118767624Y-108720812D01*
X118733000Y-108546741D01*
X118733000Y-108369259D01*
X118733052Y-108369000D01*
X118737927Y-108344488D01*
X118767624Y-108195188D01*
X118835544Y-108031216D01*
X118934147Y-107883646D01*
X119059646Y-107758147D01*
X119207216Y-107659544D01*
X119371188Y-107591624D01*
X119520488Y-107561927D01*
X119545258Y-107557000D01*
X119722742Y-107557000D01*
X119747512Y-107561927D01*
G37*
G36*
X122287512Y-107561927D02*
G01*
X122436812Y-107591624D01*
X122600784Y-107659544D01*
X122748354Y-107758147D01*
X122873853Y-107883646D01*
X122972456Y-108031216D01*
X123040376Y-108195188D01*
X123070073Y-108344488D01*
X123074949Y-108369000D01*
X123075000Y-108369259D01*
X123075000Y-108546741D01*
X123040376Y-108720812D01*
X122972456Y-108884784D01*
X122873853Y-109032354D01*
X122748354Y-109157853D01*
X122600784Y-109256456D01*
X122436812Y-109324376D01*
X122287512Y-109354073D01*
X122262742Y-109359000D01*
X122085258Y-109359000D01*
X122060488Y-109354073D01*
X121911188Y-109324376D01*
X121747216Y-109256456D01*
X121599646Y-109157853D01*
X121474147Y-109032354D01*
X121375544Y-108884784D01*
X121307624Y-108720812D01*
X121273000Y-108546741D01*
X121273000Y-108369259D01*
X121273052Y-108369000D01*
X121277927Y-108344488D01*
X121307624Y-108195188D01*
X121375544Y-108031216D01*
X121474147Y-107883646D01*
X121599646Y-107758147D01*
X121747216Y-107659544D01*
X121911188Y-107591624D01*
X122060488Y-107561927D01*
X122085258Y-107557000D01*
X122262742Y-107557000D01*
X122287512Y-107561927D01*
G37*
G36*
X124827512Y-107561927D02*
G01*
X124976812Y-107591624D01*
X125140784Y-107659544D01*
X125288354Y-107758147D01*
X125413853Y-107883646D01*
X125512456Y-108031216D01*
X125580376Y-108195188D01*
X125610073Y-108344488D01*
X125614949Y-108369000D01*
X125615000Y-108369259D01*
X125615000Y-108546741D01*
X125580376Y-108720812D01*
X125512456Y-108884784D01*
X125413853Y-109032354D01*
X125288354Y-109157853D01*
X125140784Y-109256456D01*
X124976812Y-109324376D01*
X124827512Y-109354073D01*
X124802742Y-109359000D01*
X124625258Y-109359000D01*
X124600488Y-109354073D01*
X124451188Y-109324376D01*
X124287216Y-109256456D01*
X124139646Y-109157853D01*
X124014147Y-109032354D01*
X123915544Y-108884784D01*
X123847624Y-108720812D01*
X123813000Y-108546741D01*
X123813000Y-108369259D01*
X123813052Y-108369000D01*
X123817927Y-108344488D01*
X123847624Y-108195188D01*
X123915544Y-108031216D01*
X124014147Y-107883646D01*
X124139646Y-107758147D01*
X124287216Y-107659544D01*
X124451188Y-107591624D01*
X124600488Y-107561927D01*
X124625258Y-107557000D01*
X124802742Y-107557000D01*
X124827512Y-107561927D01*
G37*
G36*
X128155000Y-109359000D02*
G01*
X126353000Y-109359000D01*
X126353000Y-107557000D01*
X128155000Y-107557000D01*
X128155000Y-109359000D01*
G37*
G36*
X84321000Y-108291000D02*
G01*
X81019000Y-108291000D01*
X81019000Y-106189000D01*
X84321000Y-106189000D01*
X84321000Y-108291000D01*
G37*
G36*
X91221000Y-105191000D02*
G01*
X89119000Y-105191000D01*
X89119000Y-103089000D01*
X91221000Y-103089000D01*
X91221000Y-105191000D01*
G37*
G36*
X75903642Y-103369781D02*
G01*
X76049414Y-103430162D01*
X76049416Y-103430163D01*
X76180608Y-103517822D01*
X76292178Y-103629392D01*
X76379837Y-103760584D01*
X76379838Y-103760586D01*
X76440219Y-103906358D01*
X76471000Y-104061107D01*
X76471000Y-104218893D01*
X76440219Y-104373642D01*
X76379838Y-104519414D01*
X76379837Y-104519416D01*
X76292178Y-104650608D01*
X76180608Y-104762178D01*
X76049416Y-104849837D01*
X76049415Y-104849838D01*
X76049414Y-104849838D01*
X75903642Y-104910219D01*
X75748893Y-104941000D01*
X75591107Y-104941000D01*
X75436358Y-104910219D01*
X75290586Y-104849838D01*
X75290585Y-104849838D01*
X75290584Y-104849837D01*
X75159392Y-104762178D01*
X75047822Y-104650608D01*
X74960163Y-104519416D01*
X74960162Y-104519414D01*
X74899781Y-104373642D01*
X74869000Y-104218893D01*
X74869000Y-104061107D01*
X74899781Y-103906358D01*
X74960162Y-103760586D01*
X74960163Y-103760584D01*
X75047822Y-103629392D01*
X75159392Y-103517822D01*
X75290584Y-103430163D01*
X75290586Y-103430162D01*
X75436358Y-103369781D01*
X75591107Y-103339000D01*
X75748893Y-103339000D01*
X75903642Y-103369781D01*
G37*
G36*
X134999591Y-102385085D02*
G01*
X135033569Y-102395393D01*
X135064890Y-102412134D01*
X135092339Y-102434661D01*
X135114866Y-102462110D01*
X135131607Y-102493431D01*
X135141915Y-102527409D01*
X135146000Y-102568890D01*
X135146000Y-103170110D01*
X135141915Y-103211591D01*
X135131607Y-103245569D01*
X135114866Y-103276890D01*
X135092339Y-103304339D01*
X135064890Y-103326866D01*
X135033569Y-103343607D01*
X134999591Y-103353915D01*
X134958110Y-103358000D01*
X134281890Y-103358000D01*
X134240409Y-103353915D01*
X134206431Y-103343607D01*
X134175110Y-103326866D01*
X134147661Y-103304339D01*
X134125134Y-103276890D01*
X134108393Y-103245569D01*
X134098085Y-103211591D01*
X134094000Y-103170110D01*
X134094000Y-102568890D01*
X134098085Y-102527409D01*
X134108393Y-102493431D01*
X134125134Y-102462110D01*
X134147661Y-102434661D01*
X134175110Y-102412134D01*
X134206431Y-102395393D01*
X134240409Y-102385085D01*
X134281890Y-102381000D01*
X134958110Y-102381000D01*
X134999591Y-102385085D01*
G37*
G36*
X90476564Y-100629389D02*
G01*
X90667833Y-100708615D01*
X90667835Y-100708616D01*
X90813580Y-100806000D01*
X90839973Y-100823635D01*
X90986365Y-100970027D01*
X91101385Y-101142167D01*
X91180611Y-101333436D01*
X91221000Y-101536484D01*
X91221000Y-101743516D01*
X91180611Y-101946564D01*
X91101385Y-102137833D01*
X91101384Y-102137835D01*
X90986365Y-102309973D01*
X90839973Y-102456365D01*
X90667835Y-102571384D01*
X90667834Y-102571385D01*
X90667833Y-102571385D01*
X90476564Y-102650611D01*
X90273516Y-102691000D01*
X90066484Y-102691000D01*
X89863436Y-102650611D01*
X89672167Y-102571385D01*
X89672166Y-102571385D01*
X89672165Y-102571384D01*
X89500027Y-102456365D01*
X89353635Y-102309973D01*
X89238616Y-102137835D01*
X89238615Y-102137833D01*
X89159389Y-101946564D01*
X89119000Y-101743516D01*
X89119000Y-101536484D01*
X89159389Y-101333436D01*
X89238615Y-101142167D01*
X89353635Y-100970027D01*
X89500027Y-100823635D01*
X89526420Y-100806000D01*
X89672165Y-100708616D01*
X89672167Y-100708615D01*
X89863436Y-100629389D01*
X90066484Y-100589000D01*
X90273516Y-100589000D01*
X90476564Y-100629389D01*
G37*
G36*
X247395000Y-102600000D02*
G01*
X243395000Y-102600000D01*
X243395000Y-88600000D01*
X247395000Y-88600000D01*
X247395000Y-102600000D01*
G37*
G36*
X134999591Y-100810085D02*
G01*
X135033569Y-100820393D01*
X135064890Y-100837134D01*
X135092339Y-100859661D01*
X135114866Y-100887110D01*
X135131607Y-100918431D01*
X135141915Y-100952409D01*
X135146000Y-100993890D01*
X135146000Y-101595110D01*
X135141915Y-101636591D01*
X135131607Y-101670569D01*
X135114866Y-101701890D01*
X135092339Y-101729339D01*
X135064890Y-101751866D01*
X135033569Y-101768607D01*
X134999591Y-101778915D01*
X134958110Y-101783000D01*
X134281890Y-101783000D01*
X134240409Y-101778915D01*
X134206431Y-101768607D01*
X134175110Y-101751866D01*
X134147661Y-101729339D01*
X134125134Y-101701890D01*
X134108393Y-101670569D01*
X134098085Y-101636591D01*
X134094000Y-101595110D01*
X134094000Y-100993890D01*
X134098085Y-100952409D01*
X134108393Y-100918431D01*
X134125134Y-100887110D01*
X134147661Y-100859661D01*
X134175110Y-100837134D01*
X134206431Y-100820393D01*
X134240409Y-100810085D01*
X134281890Y-100806000D01*
X134958110Y-100806000D01*
X134999591Y-100810085D01*
G37*
G36*
X90476564Y-98129389D02*
G01*
X90667833Y-98208615D01*
X90667835Y-98208616D01*
X90839973Y-98323635D01*
X90986365Y-98470027D01*
X91101385Y-98642167D01*
X91180611Y-98833436D01*
X91221000Y-99036484D01*
X91221000Y-99243516D01*
X91180611Y-99446564D01*
X91101385Y-99637833D01*
X91101384Y-99637835D01*
X90986365Y-99809973D01*
X90839973Y-99956365D01*
X90667835Y-100071384D01*
X90667834Y-100071385D01*
X90667833Y-100071385D01*
X90476564Y-100150611D01*
X90273516Y-100191000D01*
X90066484Y-100191000D01*
X89863436Y-100150611D01*
X89672167Y-100071385D01*
X89672166Y-100071385D01*
X89672165Y-100071384D01*
X89500027Y-99956365D01*
X89353635Y-99809973D01*
X89238616Y-99637835D01*
X89238615Y-99637833D01*
X89159389Y-99446564D01*
X89119000Y-99243516D01*
X89119000Y-99036484D01*
X89159389Y-98833436D01*
X89238615Y-98642167D01*
X89353635Y-98470027D01*
X89500027Y-98323635D01*
X89672165Y-98208616D01*
X89672167Y-98208615D01*
X89863436Y-98129389D01*
X90066484Y-98089000D01*
X90273516Y-98089000D01*
X90476564Y-98129389D01*
G37*
G36*
X75903642Y-98369781D02*
G01*
X76049414Y-98430162D01*
X76049416Y-98430163D01*
X76180608Y-98517822D01*
X76292178Y-98629392D01*
X76379837Y-98760584D01*
X76379838Y-98760586D01*
X76440219Y-98906358D01*
X76471000Y-99061107D01*
X76471000Y-99218893D01*
X76440219Y-99373642D01*
X76410013Y-99446565D01*
X76379837Y-99519416D01*
X76292178Y-99650608D01*
X76180608Y-99762178D01*
X76049416Y-99849837D01*
X76049415Y-99849838D01*
X76049414Y-99849838D01*
X75903642Y-99910219D01*
X75748893Y-99941000D01*
X75591107Y-99941000D01*
X75436358Y-99910219D01*
X75290586Y-99849838D01*
X75290585Y-99849838D01*
X75290584Y-99849837D01*
X75159392Y-99762178D01*
X75047822Y-99650608D01*
X74960163Y-99519416D01*
X74929987Y-99446565D01*
X74899781Y-99373642D01*
X74869000Y-99218893D01*
X74869000Y-99061107D01*
X74899781Y-98906358D01*
X74960162Y-98760586D01*
X74960163Y-98760584D01*
X75047822Y-98629392D01*
X75159392Y-98517822D01*
X75290584Y-98430163D01*
X75290586Y-98430162D01*
X75436358Y-98369781D01*
X75591107Y-98339000D01*
X75748893Y-98339000D01*
X75903642Y-98369781D01*
G37*
G36*
X84321000Y-97091000D02*
G01*
X81019000Y-97091000D01*
X81019000Y-94989000D01*
X84321000Y-94989000D01*
X84321000Y-97091000D01*
G37*
G36*
X235395000Y-96600000D02*
G01*
X231395000Y-96600000D01*
X231395000Y-88600000D01*
X235395000Y-88600000D01*
X235395000Y-96600000D01*
G37*
G36*
X169158228Y-93161703D02*
G01*
X169313100Y-93225853D01*
X169452481Y-93318985D01*
X169571015Y-93437519D01*
X169664147Y-93576900D01*
X169728297Y-93731772D01*
X169761000Y-93896184D01*
X169761000Y-94063816D01*
X169728297Y-94228228D01*
X169664147Y-94383100D01*
X169571015Y-94522481D01*
X169452481Y-94641015D01*
X169313100Y-94734147D01*
X169158228Y-94798297D01*
X168993816Y-94831000D01*
X168826184Y-94831000D01*
X168661772Y-94798297D01*
X168506900Y-94734147D01*
X168367519Y-94641015D01*
X168248985Y-94522481D01*
X168155853Y-94383100D01*
X168091703Y-94228228D01*
X168059000Y-94063816D01*
X168059000Y-93896184D01*
X168091703Y-93731772D01*
X168155853Y-93576900D01*
X168248985Y-93437519D01*
X168367519Y-93318985D01*
X168506900Y-93225853D01*
X168661772Y-93161703D01*
X168826184Y-93129000D01*
X168993816Y-93129000D01*
X169158228Y-93161703D01*
G37*
G36*
X166618228Y-93161703D02*
G01*
X166773100Y-93225853D01*
X166912481Y-93318985D01*
X167031015Y-93437519D01*
X167124147Y-93576900D01*
X167188297Y-93731772D01*
X167221000Y-93896184D01*
X167221000Y-94063816D01*
X167188297Y-94228228D01*
X167124147Y-94383100D01*
X167031015Y-94522481D01*
X166912481Y-94641015D01*
X166773100Y-94734147D01*
X166618228Y-94798297D01*
X166453816Y-94831000D01*
X166286184Y-94831000D01*
X166121772Y-94798297D01*
X165966900Y-94734147D01*
X165827519Y-94641015D01*
X165708985Y-94522481D01*
X165615853Y-94383100D01*
X165551703Y-94228228D01*
X165519000Y-94063816D01*
X165519000Y-93896184D01*
X165551703Y-93731772D01*
X165615853Y-93576900D01*
X165708985Y-93437519D01*
X165827519Y-93318985D01*
X165966900Y-93225853D01*
X166121772Y-93161703D01*
X166286184Y-93129000D01*
X166453816Y-93129000D01*
X166618228Y-93161703D01*
G37*
G36*
X161538228Y-93161703D02*
G01*
X161693100Y-93225853D01*
X161832481Y-93318985D01*
X161951015Y-93437519D01*
X162044147Y-93576900D01*
X162108297Y-93731772D01*
X162141000Y-93896184D01*
X162141000Y-94063816D01*
X162108297Y-94228228D01*
X162044147Y-94383100D01*
X161951015Y-94522481D01*
X161832481Y-94641015D01*
X161693100Y-94734147D01*
X161538228Y-94798297D01*
X161373816Y-94831000D01*
X161206184Y-94831000D01*
X161041772Y-94798297D01*
X160886900Y-94734147D01*
X160747519Y-94641015D01*
X160628985Y-94522481D01*
X160535853Y-94383100D01*
X160471703Y-94228228D01*
X160439000Y-94063816D01*
X160439000Y-93896184D01*
X160471703Y-93731772D01*
X160535853Y-93576900D01*
X160628985Y-93437519D01*
X160747519Y-93318985D01*
X160886900Y-93225853D01*
X161041772Y-93161703D01*
X161206184Y-93129000D01*
X161373816Y-93129000D01*
X161538228Y-93161703D01*
G37*
G36*
X171698228Y-93161703D02*
G01*
X171853100Y-93225853D01*
X171992481Y-93318985D01*
X172111015Y-93437519D01*
X172204147Y-93576900D01*
X172268297Y-93731772D01*
X172301000Y-93896184D01*
X172301000Y-94063816D01*
X172268297Y-94228228D01*
X172204147Y-94383100D01*
X172111015Y-94522481D01*
X171992481Y-94641015D01*
X171853100Y-94734147D01*
X171698228Y-94798297D01*
X171533816Y-94831000D01*
X171366184Y-94831000D01*
X171201772Y-94798297D01*
X171046900Y-94734147D01*
X170907519Y-94641015D01*
X170788985Y-94522481D01*
X170695853Y-94383100D01*
X170631703Y-94228228D01*
X170599000Y-94063816D01*
X170599000Y-93896184D01*
X170631703Y-93731772D01*
X170695853Y-93576900D01*
X170788985Y-93437519D01*
X170907519Y-93318985D01*
X171046900Y-93225853D01*
X171201772Y-93161703D01*
X171366184Y-93129000D01*
X171533816Y-93129000D01*
X171698228Y-93161703D01*
G37*
G36*
X174238228Y-93161703D02*
G01*
X174393100Y-93225853D01*
X174532481Y-93318985D01*
X174651015Y-93437519D01*
X174744147Y-93576900D01*
X174808297Y-93731772D01*
X174841000Y-93896184D01*
X174841000Y-94063816D01*
X174808297Y-94228228D01*
X174744147Y-94383100D01*
X174651015Y-94522481D01*
X174532481Y-94641015D01*
X174393100Y-94734147D01*
X174238228Y-94798297D01*
X174073816Y-94831000D01*
X173906184Y-94831000D01*
X173741772Y-94798297D01*
X173586900Y-94734147D01*
X173447519Y-94641015D01*
X173328985Y-94522481D01*
X173235853Y-94383100D01*
X173171703Y-94228228D01*
X173139000Y-94063816D01*
X173139000Y-93896184D01*
X173171703Y-93731772D01*
X173235853Y-93576900D01*
X173328985Y-93437519D01*
X173447519Y-93318985D01*
X173586900Y-93225853D01*
X173741772Y-93161703D01*
X173906184Y-93129000D01*
X174073816Y-93129000D01*
X174238228Y-93161703D01*
G37*
G36*
X158998228Y-93161703D02*
G01*
X159153100Y-93225853D01*
X159292481Y-93318985D01*
X159411015Y-93437519D01*
X159504147Y-93576900D01*
X159568297Y-93731772D01*
X159601000Y-93896184D01*
X159601000Y-94063816D01*
X159568297Y-94228228D01*
X159504147Y-94383100D01*
X159411015Y-94522481D01*
X159292481Y-94641015D01*
X159153100Y-94734147D01*
X158998228Y-94798297D01*
X158833816Y-94831000D01*
X158666184Y-94831000D01*
X158501772Y-94798297D01*
X158346900Y-94734147D01*
X158207519Y-94641015D01*
X158088985Y-94522481D01*
X157995853Y-94383100D01*
X157931703Y-94228228D01*
X157899000Y-94063816D01*
X157899000Y-93896184D01*
X157931703Y-93731772D01*
X157995853Y-93576900D01*
X158088985Y-93437519D01*
X158207519Y-93318985D01*
X158346900Y-93225853D01*
X158501772Y-93161703D01*
X158666184Y-93129000D01*
X158833816Y-93129000D01*
X158998228Y-93161703D01*
G37*
G36*
X176778228Y-93161703D02*
G01*
X176933100Y-93225853D01*
X177072481Y-93318985D01*
X177191015Y-93437519D01*
X177284147Y-93576900D01*
X177348297Y-93731772D01*
X177381000Y-93896184D01*
X177381000Y-94063816D01*
X177348297Y-94228228D01*
X177284147Y-94383100D01*
X177191015Y-94522481D01*
X177072481Y-94641015D01*
X176933100Y-94734147D01*
X176778228Y-94798297D01*
X176613816Y-94831000D01*
X176446184Y-94831000D01*
X176281772Y-94798297D01*
X176126900Y-94734147D01*
X175987519Y-94641015D01*
X175868985Y-94522481D01*
X175775853Y-94383100D01*
X175711703Y-94228228D01*
X175679000Y-94063816D01*
X175679000Y-93896184D01*
X175711703Y-93731772D01*
X175775853Y-93576900D01*
X175868985Y-93437519D01*
X175987519Y-93318985D01*
X176126900Y-93225853D01*
X176281772Y-93161703D01*
X176446184Y-93129000D01*
X176613816Y-93129000D01*
X176778228Y-93161703D01*
G37*
G36*
X144361000Y-94831000D02*
G01*
X142659000Y-94831000D01*
X142659000Y-93129000D01*
X144361000Y-93129000D01*
X144361000Y-94831000D01*
G37*
G36*
X156458228Y-93161703D02*
G01*
X156613100Y-93225853D01*
X156752481Y-93318985D01*
X156871015Y-93437519D01*
X156964147Y-93576900D01*
X157028297Y-93731772D01*
X157061000Y-93896184D01*
X157061000Y-94063816D01*
X157028297Y-94228228D01*
X156964147Y-94383100D01*
X156871015Y-94522481D01*
X156752481Y-94641015D01*
X156613100Y-94734147D01*
X156458228Y-94798297D01*
X156293816Y-94831000D01*
X156126184Y-94831000D01*
X155961772Y-94798297D01*
X155806900Y-94734147D01*
X155667519Y-94641015D01*
X155548985Y-94522481D01*
X155455853Y-94383100D01*
X155391703Y-94228228D01*
X155359000Y-94063816D01*
X155359000Y-93896184D01*
X155391703Y-93731772D01*
X155455853Y-93576900D01*
X155548985Y-93437519D01*
X155667519Y-93318985D01*
X155806900Y-93225853D01*
X155961772Y-93161703D01*
X156126184Y-93129000D01*
X156293816Y-93129000D01*
X156458228Y-93161703D01*
G37*
G36*
X153918228Y-93161703D02*
G01*
X154073100Y-93225853D01*
X154212481Y-93318985D01*
X154331015Y-93437519D01*
X154424147Y-93576900D01*
X154488297Y-93731772D01*
X154521000Y-93896184D01*
X154521000Y-94063816D01*
X154488297Y-94228228D01*
X154424147Y-94383100D01*
X154331015Y-94522481D01*
X154212481Y-94641015D01*
X154073100Y-94734147D01*
X153918228Y-94798297D01*
X153753816Y-94831000D01*
X153586184Y-94831000D01*
X153421772Y-94798297D01*
X153266900Y-94734147D01*
X153127519Y-94641015D01*
X153008985Y-94522481D01*
X152915853Y-94383100D01*
X152851703Y-94228228D01*
X152819000Y-94063816D01*
X152819000Y-93896184D01*
X152851703Y-93731772D01*
X152915853Y-93576900D01*
X153008985Y-93437519D01*
X153127519Y-93318985D01*
X153266900Y-93225853D01*
X153421772Y-93161703D01*
X153586184Y-93129000D01*
X153753816Y-93129000D01*
X153918228Y-93161703D01*
G37*
G36*
X151378228Y-93161703D02*
G01*
X151533100Y-93225853D01*
X151672481Y-93318985D01*
X151791015Y-93437519D01*
X151884147Y-93576900D01*
X151948297Y-93731772D01*
X151981000Y-93896184D01*
X151981000Y-94063816D01*
X151948297Y-94228228D01*
X151884147Y-94383100D01*
X151791015Y-94522481D01*
X151672481Y-94641015D01*
X151533100Y-94734147D01*
X151378228Y-94798297D01*
X151213816Y-94831000D01*
X151046184Y-94831000D01*
X150881772Y-94798297D01*
X150726900Y-94734147D01*
X150587519Y-94641015D01*
X150468985Y-94522481D01*
X150375853Y-94383100D01*
X150311703Y-94228228D01*
X150279000Y-94063816D01*
X150279000Y-93896184D01*
X150311703Y-93731772D01*
X150375853Y-93576900D01*
X150468985Y-93437519D01*
X150587519Y-93318985D01*
X150726900Y-93225853D01*
X150881772Y-93161703D01*
X151046184Y-93129000D01*
X151213816Y-93129000D01*
X151378228Y-93161703D01*
G37*
G36*
X164078228Y-93161703D02*
G01*
X164233100Y-93225853D01*
X164372481Y-93318985D01*
X164491015Y-93437519D01*
X164584147Y-93576900D01*
X164648297Y-93731772D01*
X164681000Y-93896184D01*
X164681000Y-94063816D01*
X164648297Y-94228228D01*
X164584147Y-94383100D01*
X164491015Y-94522481D01*
X164372481Y-94641015D01*
X164233100Y-94734147D01*
X164078228Y-94798297D01*
X163913816Y-94831000D01*
X163746184Y-94831000D01*
X163581772Y-94798297D01*
X163426900Y-94734147D01*
X163287519Y-94641015D01*
X163168985Y-94522481D01*
X163075853Y-94383100D01*
X163011703Y-94228228D01*
X162979000Y-94063816D01*
X162979000Y-93896184D01*
X163011703Y-93731772D01*
X163075853Y-93576900D01*
X163168985Y-93437519D01*
X163287519Y-93318985D01*
X163426900Y-93225853D01*
X163581772Y-93161703D01*
X163746184Y-93129000D01*
X163913816Y-93129000D01*
X164078228Y-93161703D01*
G37*
G36*
X179318228Y-93161703D02*
G01*
X179473100Y-93225853D01*
X179612481Y-93318985D01*
X179731015Y-93437519D01*
X179824147Y-93576900D01*
X179888297Y-93731772D01*
X179921000Y-93896184D01*
X179921000Y-94063816D01*
X179888297Y-94228228D01*
X179824147Y-94383100D01*
X179731015Y-94522481D01*
X179612481Y-94641015D01*
X179473100Y-94734147D01*
X179318228Y-94798297D01*
X179153816Y-94831000D01*
X178986184Y-94831000D01*
X178821772Y-94798297D01*
X178666900Y-94734147D01*
X178527519Y-94641015D01*
X178408985Y-94522481D01*
X178315853Y-94383100D01*
X178251703Y-94228228D01*
X178219000Y-94063816D01*
X178219000Y-93896184D01*
X178251703Y-93731772D01*
X178315853Y-93576900D01*
X178408985Y-93437519D01*
X178527519Y-93318985D01*
X178666900Y-93225853D01*
X178821772Y-93161703D01*
X178986184Y-93129000D01*
X179153816Y-93129000D01*
X179318228Y-93161703D01*
G37*
G36*
X146298228Y-93161703D02*
G01*
X146453100Y-93225853D01*
X146592481Y-93318985D01*
X146711015Y-93437519D01*
X146804147Y-93576900D01*
X146868297Y-93731772D01*
X146901000Y-93896184D01*
X146901000Y-94063816D01*
X146868297Y-94228228D01*
X146804147Y-94383100D01*
X146711015Y-94522481D01*
X146592481Y-94641015D01*
X146453100Y-94734147D01*
X146298228Y-94798297D01*
X146133816Y-94831000D01*
X145966184Y-94831000D01*
X145801772Y-94798297D01*
X145646900Y-94734147D01*
X145507519Y-94641015D01*
X145388985Y-94522481D01*
X145295853Y-94383100D01*
X145231703Y-94228228D01*
X145199000Y-94063816D01*
X145199000Y-93896184D01*
X145231703Y-93731772D01*
X145295853Y-93576900D01*
X145388985Y-93437519D01*
X145507519Y-93318985D01*
X145646900Y-93225853D01*
X145801772Y-93161703D01*
X145966184Y-93129000D01*
X146133816Y-93129000D01*
X146298228Y-93161703D01*
G37*
G36*
X148838228Y-93161703D02*
G01*
X148993100Y-93225853D01*
X149132481Y-93318985D01*
X149251015Y-93437519D01*
X149344147Y-93576900D01*
X149408297Y-93731772D01*
X149441000Y-93896184D01*
X149441000Y-94063816D01*
X149408297Y-94228228D01*
X149344147Y-94383100D01*
X149251015Y-94522481D01*
X149132481Y-94641015D01*
X148993100Y-94734147D01*
X148838228Y-94798297D01*
X148673816Y-94831000D01*
X148506184Y-94831000D01*
X148341772Y-94798297D01*
X148186900Y-94734147D01*
X148047519Y-94641015D01*
X147928985Y-94522481D01*
X147835853Y-94383100D01*
X147771703Y-94228228D01*
X147739000Y-94063816D01*
X147739000Y-93896184D01*
X147771703Y-93731772D01*
X147835853Y-93576900D01*
X147928985Y-93437519D01*
X148047519Y-93318985D01*
X148186900Y-93225853D01*
X148341772Y-93161703D01*
X148506184Y-93129000D01*
X148673816Y-93129000D01*
X148838228Y-93161703D01*
G37*
G36*
X183255256Y-87291298D02*
G01*
X183361579Y-87312447D01*
X183662042Y-87436903D01*
X183932451Y-87617585D01*
X184162415Y-87847549D01*
X184234943Y-87956095D01*
X184343098Y-88117960D01*
X184350809Y-88136576D01*
X184397654Y-88249669D01*
X184467553Y-88418422D01*
X184531000Y-88737389D01*
X184531000Y-89062611D01*
X184467553Y-89381578D01*
X184350809Y-89663425D01*
X184343097Y-89682042D01*
X184162415Y-89952451D01*
X183932451Y-90182415D01*
X183662042Y-90363097D01*
X183361579Y-90487553D01*
X183255256Y-90508702D01*
X183042611Y-90551000D01*
X182717389Y-90551000D01*
X182504744Y-90508702D01*
X182398421Y-90487553D01*
X182097958Y-90363097D01*
X181827549Y-90182415D01*
X181597585Y-89952451D01*
X181416903Y-89682042D01*
X181409192Y-89663425D01*
X181292447Y-89381578D01*
X181229000Y-89062611D01*
X181229000Y-88737389D01*
X181292447Y-88418422D01*
X181362347Y-88249669D01*
X181409191Y-88136576D01*
X181416902Y-88117960D01*
X181525057Y-87956095D01*
X181597585Y-87847549D01*
X181827549Y-87617585D01*
X182097958Y-87436903D01*
X182398421Y-87312447D01*
X182504744Y-87291298D01*
X182717389Y-87249000D01*
X183042611Y-87249000D01*
X183255256Y-87291298D01*
G37*
G36*
X140075256Y-87291298D02*
G01*
X140181579Y-87312447D01*
X140482042Y-87436903D01*
X140752451Y-87617585D01*
X140982415Y-87847549D01*
X141054943Y-87956095D01*
X141163098Y-88117960D01*
X141170809Y-88136576D01*
X141217654Y-88249669D01*
X141287553Y-88418422D01*
X141351000Y-88737389D01*
X141351000Y-89062611D01*
X141287553Y-89381578D01*
X141170809Y-89663425D01*
X141163097Y-89682042D01*
X140982415Y-89952451D01*
X140752451Y-90182415D01*
X140482042Y-90363097D01*
X140181579Y-90487553D01*
X140075256Y-90508702D01*
X139862611Y-90551000D01*
X139537389Y-90551000D01*
X139324744Y-90508702D01*
X139218421Y-90487553D01*
X138917958Y-90363097D01*
X138647549Y-90182415D01*
X138417585Y-89952451D01*
X138236903Y-89682042D01*
X138229192Y-89663425D01*
X138112447Y-89381578D01*
X138049000Y-89062611D01*
X138049000Y-88737389D01*
X138112447Y-88418422D01*
X138182347Y-88249669D01*
X138229191Y-88136576D01*
X138236902Y-88117960D01*
X138345057Y-87956095D01*
X138417585Y-87847549D01*
X138647549Y-87617585D01*
X138917958Y-87436903D01*
X139218421Y-87312447D01*
X139324744Y-87291298D01*
X139537389Y-87249000D01*
X139862611Y-87249000D01*
X140075256Y-87291298D01*
G37*
G36*
X194437617Y-87858420D02*
G01*
X194528403Y-87885960D01*
X194560335Y-87895646D01*
X194673424Y-87956094D01*
X194772554Y-88037447D01*
X194853906Y-88136575D01*
X194914354Y-88249664D01*
X194924040Y-88281596D01*
X194951580Y-88372382D01*
X194961000Y-88468027D01*
X194961000Y-89331973D01*
X194951580Y-89427618D01*
X194924040Y-89518404D01*
X194914354Y-89550336D01*
X194853906Y-89663425D01*
X194772554Y-89762554D01*
X194673425Y-89843906D01*
X194560336Y-89904354D01*
X194528404Y-89914040D01*
X194437618Y-89941580D01*
X194310000Y-89954149D01*
X194182383Y-89941580D01*
X194091597Y-89914040D01*
X194059665Y-89904354D01*
X193946576Y-89843906D01*
X193847447Y-89762554D01*
X193766095Y-89663425D01*
X193705647Y-89550336D01*
X193701282Y-89535946D01*
X193668420Y-89427618D01*
X193659000Y-89331973D01*
X193659000Y-88468028D01*
X193668420Y-88372383D01*
X193705645Y-88249669D01*
X193705646Y-88249665D01*
X193766094Y-88136576D01*
X193847447Y-88037446D01*
X193946575Y-87956094D01*
X194059664Y-87895646D01*
X194091596Y-87885960D01*
X194182382Y-87858420D01*
X194310000Y-87845851D01*
X194437617Y-87858420D01*
G37*
G36*
X191897617Y-87858420D02*
G01*
X191988403Y-87885960D01*
X192020335Y-87895646D01*
X192133424Y-87956094D01*
X192232554Y-88037447D01*
X192313906Y-88136575D01*
X192374354Y-88249664D01*
X192384040Y-88281596D01*
X192411580Y-88372382D01*
X192421000Y-88468027D01*
X192421000Y-89331973D01*
X192411580Y-89427618D01*
X192384040Y-89518404D01*
X192374354Y-89550336D01*
X192313906Y-89663425D01*
X192232554Y-89762554D01*
X192133425Y-89843906D01*
X192020336Y-89904354D01*
X191988404Y-89914040D01*
X191897618Y-89941580D01*
X191770000Y-89954149D01*
X191642383Y-89941580D01*
X191551597Y-89914040D01*
X191519665Y-89904354D01*
X191406576Y-89843906D01*
X191307447Y-89762554D01*
X191226095Y-89663425D01*
X191165647Y-89550336D01*
X191161282Y-89535946D01*
X191128420Y-89427618D01*
X191119000Y-89331973D01*
X191119000Y-88468028D01*
X191128420Y-88372383D01*
X191165645Y-88249669D01*
X191165646Y-88249665D01*
X191226094Y-88136576D01*
X191307447Y-88037446D01*
X191406575Y-87956094D01*
X191519664Y-87895646D01*
X191551596Y-87885960D01*
X191642382Y-87858420D01*
X191770000Y-87845851D01*
X191897617Y-87858420D01*
G37*
G36*
X189357617Y-87858420D02*
G01*
X189448403Y-87885960D01*
X189480335Y-87895646D01*
X189593424Y-87956094D01*
X189692554Y-88037447D01*
X189773906Y-88136575D01*
X189834354Y-88249664D01*
X189844040Y-88281596D01*
X189871580Y-88372382D01*
X189881000Y-88468027D01*
X189881000Y-89331973D01*
X189871580Y-89427618D01*
X189844040Y-89518404D01*
X189834354Y-89550336D01*
X189773906Y-89663425D01*
X189692554Y-89762554D01*
X189593425Y-89843906D01*
X189480336Y-89904354D01*
X189448404Y-89914040D01*
X189357618Y-89941580D01*
X189230000Y-89954149D01*
X189102383Y-89941580D01*
X189011597Y-89914040D01*
X188979665Y-89904354D01*
X188866576Y-89843906D01*
X188767447Y-89762554D01*
X188686095Y-89663425D01*
X188625647Y-89550336D01*
X188621282Y-89535946D01*
X188588420Y-89427618D01*
X188579000Y-89331973D01*
X188579000Y-88468028D01*
X188588420Y-88372383D01*
X188625645Y-88249669D01*
X188625646Y-88249665D01*
X188686094Y-88136576D01*
X188767447Y-88037446D01*
X188866575Y-87956094D01*
X188979664Y-87895646D01*
X189011596Y-87885960D01*
X189102382Y-87858420D01*
X189230000Y-87845851D01*
X189357617Y-87858420D01*
G37*
G36*
X176657617Y-87858420D02*
G01*
X176748403Y-87885960D01*
X176780335Y-87895646D01*
X176893424Y-87956094D01*
X176992554Y-88037447D01*
X177073906Y-88136575D01*
X177134354Y-88249664D01*
X177144040Y-88281596D01*
X177171580Y-88372382D01*
X177181000Y-88468027D01*
X177181000Y-89331973D01*
X177171580Y-89427618D01*
X177144040Y-89518404D01*
X177134354Y-89550336D01*
X177073906Y-89663425D01*
X176992554Y-89762554D01*
X176893425Y-89843906D01*
X176780336Y-89904354D01*
X176748404Y-89914040D01*
X176657618Y-89941580D01*
X176530000Y-89954149D01*
X176402383Y-89941580D01*
X176311597Y-89914040D01*
X176279665Y-89904354D01*
X176166576Y-89843906D01*
X176067447Y-89762554D01*
X175986095Y-89663425D01*
X175925647Y-89550336D01*
X175921282Y-89535946D01*
X175888420Y-89427618D01*
X175879000Y-89331973D01*
X175879000Y-88468028D01*
X175888420Y-88372383D01*
X175925645Y-88249669D01*
X175925646Y-88249665D01*
X175986094Y-88136576D01*
X176067447Y-88037446D01*
X176166575Y-87956094D01*
X176279664Y-87895646D01*
X176311596Y-87885960D01*
X176402382Y-87858420D01*
X176530000Y-87845851D01*
X176657617Y-87858420D01*
G37*
G36*
X174117617Y-87858420D02*
G01*
X174208403Y-87885960D01*
X174240335Y-87895646D01*
X174353424Y-87956094D01*
X174452554Y-88037447D01*
X174533906Y-88136575D01*
X174594354Y-88249664D01*
X174604040Y-88281596D01*
X174631580Y-88372382D01*
X174641000Y-88468027D01*
X174641000Y-89331973D01*
X174631580Y-89427618D01*
X174604040Y-89518404D01*
X174594354Y-89550336D01*
X174533906Y-89663425D01*
X174452554Y-89762554D01*
X174353425Y-89843906D01*
X174240336Y-89904354D01*
X174208404Y-89914040D01*
X174117618Y-89941580D01*
X173990000Y-89954149D01*
X173862383Y-89941580D01*
X173771597Y-89914040D01*
X173739665Y-89904354D01*
X173626576Y-89843906D01*
X173527447Y-89762554D01*
X173446095Y-89663425D01*
X173385647Y-89550336D01*
X173381282Y-89535946D01*
X173348420Y-89427618D01*
X173339000Y-89331973D01*
X173339000Y-88468028D01*
X173348420Y-88372383D01*
X173385645Y-88249669D01*
X173385646Y-88249665D01*
X173446094Y-88136576D01*
X173527447Y-88037446D01*
X173626575Y-87956094D01*
X173739664Y-87895646D01*
X173771596Y-87885960D01*
X173862382Y-87858420D01*
X173990000Y-87845851D01*
X174117617Y-87858420D01*
G37*
G36*
X171577617Y-87858420D02*
G01*
X171668403Y-87885960D01*
X171700335Y-87895646D01*
X171813424Y-87956094D01*
X171912554Y-88037447D01*
X171993906Y-88136575D01*
X172054354Y-88249664D01*
X172064040Y-88281596D01*
X172091580Y-88372382D01*
X172101000Y-88468027D01*
X172101000Y-89331973D01*
X172091580Y-89427618D01*
X172064040Y-89518404D01*
X172054354Y-89550336D01*
X171993906Y-89663425D01*
X171912554Y-89762554D01*
X171813425Y-89843906D01*
X171700336Y-89904354D01*
X171668404Y-89914040D01*
X171577618Y-89941580D01*
X171450000Y-89954149D01*
X171322383Y-89941580D01*
X171231597Y-89914040D01*
X171199665Y-89904354D01*
X171086576Y-89843906D01*
X170987447Y-89762554D01*
X170906095Y-89663425D01*
X170845647Y-89550336D01*
X170841282Y-89535946D01*
X170808420Y-89427618D01*
X170799000Y-89331973D01*
X170799000Y-88468028D01*
X170808420Y-88372383D01*
X170845645Y-88249669D01*
X170845646Y-88249665D01*
X170906094Y-88136576D01*
X170987447Y-88037446D01*
X171086575Y-87956094D01*
X171199664Y-87895646D01*
X171231596Y-87885960D01*
X171322382Y-87858420D01*
X171450000Y-87845851D01*
X171577617Y-87858420D01*
G37*
G36*
X169037617Y-87858420D02*
G01*
X169128403Y-87885960D01*
X169160335Y-87895646D01*
X169273424Y-87956094D01*
X169372554Y-88037447D01*
X169453906Y-88136575D01*
X169514354Y-88249664D01*
X169524040Y-88281596D01*
X169551580Y-88372382D01*
X169561000Y-88468027D01*
X169561000Y-89331973D01*
X169551580Y-89427618D01*
X169524040Y-89518404D01*
X169514354Y-89550336D01*
X169453906Y-89663425D01*
X169372554Y-89762554D01*
X169273425Y-89843906D01*
X169160336Y-89904354D01*
X169128404Y-89914040D01*
X169037618Y-89941580D01*
X168910000Y-89954149D01*
X168782383Y-89941580D01*
X168691597Y-89914040D01*
X168659665Y-89904354D01*
X168546576Y-89843906D01*
X168447447Y-89762554D01*
X168366095Y-89663425D01*
X168305647Y-89550336D01*
X168301282Y-89535946D01*
X168268420Y-89427618D01*
X168259000Y-89331973D01*
X168259000Y-88468028D01*
X168268420Y-88372383D01*
X168305645Y-88249669D01*
X168305646Y-88249665D01*
X168366094Y-88136576D01*
X168447447Y-88037446D01*
X168546575Y-87956094D01*
X168659664Y-87895646D01*
X168691596Y-87885960D01*
X168782382Y-87858420D01*
X168910000Y-87845851D01*
X169037617Y-87858420D01*
G37*
G36*
X166497617Y-87858420D02*
G01*
X166588403Y-87885960D01*
X166620335Y-87895646D01*
X166733424Y-87956094D01*
X166832554Y-88037447D01*
X166913906Y-88136575D01*
X166974354Y-88249664D01*
X166984040Y-88281596D01*
X167011580Y-88372382D01*
X167021000Y-88468027D01*
X167021000Y-89331973D01*
X167011580Y-89427618D01*
X166984040Y-89518404D01*
X166974354Y-89550336D01*
X166913906Y-89663425D01*
X166832554Y-89762554D01*
X166733425Y-89843906D01*
X166620336Y-89904354D01*
X166588404Y-89914040D01*
X166497618Y-89941580D01*
X166370000Y-89954149D01*
X166242383Y-89941580D01*
X166151597Y-89914040D01*
X166119665Y-89904354D01*
X166006576Y-89843906D01*
X165907447Y-89762554D01*
X165826095Y-89663425D01*
X165765647Y-89550336D01*
X165761282Y-89535946D01*
X165728420Y-89427618D01*
X165719000Y-89331973D01*
X165719000Y-88468028D01*
X165728420Y-88372383D01*
X165765645Y-88249669D01*
X165765646Y-88249665D01*
X165826094Y-88136576D01*
X165907447Y-88037446D01*
X166006575Y-87956094D01*
X166119664Y-87895646D01*
X166151596Y-87885960D01*
X166242382Y-87858420D01*
X166370000Y-87845851D01*
X166497617Y-87858420D01*
G37*
G36*
X163957617Y-87858420D02*
G01*
X164048403Y-87885960D01*
X164080335Y-87895646D01*
X164193424Y-87956094D01*
X164292554Y-88037447D01*
X164373906Y-88136575D01*
X164434354Y-88249664D01*
X164444040Y-88281596D01*
X164471580Y-88372382D01*
X164481000Y-88468027D01*
X164481000Y-89331973D01*
X164471580Y-89427618D01*
X164444040Y-89518404D01*
X164434354Y-89550336D01*
X164373906Y-89663425D01*
X164292554Y-89762554D01*
X164193425Y-89843906D01*
X164080336Y-89904354D01*
X164048404Y-89914040D01*
X163957618Y-89941580D01*
X163830000Y-89954149D01*
X163702383Y-89941580D01*
X163611597Y-89914040D01*
X163579665Y-89904354D01*
X163466576Y-89843906D01*
X163367447Y-89762554D01*
X163286095Y-89663425D01*
X163225647Y-89550336D01*
X163221282Y-89535946D01*
X163188420Y-89427618D01*
X163179000Y-89331973D01*
X163179000Y-88468028D01*
X163188420Y-88372383D01*
X163225645Y-88249669D01*
X163225646Y-88249665D01*
X163286094Y-88136576D01*
X163367447Y-88037446D01*
X163466575Y-87956094D01*
X163579664Y-87895646D01*
X163611596Y-87885960D01*
X163702382Y-87858420D01*
X163830000Y-87845851D01*
X163957617Y-87858420D01*
G37*
G36*
X102997617Y-87858420D02*
G01*
X103088403Y-87885960D01*
X103120335Y-87895646D01*
X103233424Y-87956094D01*
X103332554Y-88037447D01*
X103413906Y-88136575D01*
X103474354Y-88249664D01*
X103484040Y-88281596D01*
X103511580Y-88372382D01*
X103521000Y-88468027D01*
X103521000Y-89331973D01*
X103511580Y-89427618D01*
X103484040Y-89518404D01*
X103474354Y-89550336D01*
X103413906Y-89663425D01*
X103332554Y-89762554D01*
X103233425Y-89843906D01*
X103120336Y-89904354D01*
X103088404Y-89914040D01*
X102997618Y-89941580D01*
X102870000Y-89954149D01*
X102742383Y-89941580D01*
X102651597Y-89914040D01*
X102619665Y-89904354D01*
X102506576Y-89843906D01*
X102407447Y-89762554D01*
X102326095Y-89663425D01*
X102265647Y-89550336D01*
X102261282Y-89535946D01*
X102228420Y-89427618D01*
X102219000Y-89331973D01*
X102219000Y-88468028D01*
X102228420Y-88372383D01*
X102265645Y-88249669D01*
X102265646Y-88249665D01*
X102326094Y-88136576D01*
X102407447Y-88037446D01*
X102506575Y-87956094D01*
X102619664Y-87895646D01*
X102651596Y-87885960D01*
X102742382Y-87858420D01*
X102870000Y-87845851D01*
X102997617Y-87858420D01*
G37*
G36*
X196977617Y-87858420D02*
G01*
X197068403Y-87885960D01*
X197100335Y-87895646D01*
X197213424Y-87956094D01*
X197312554Y-88037447D01*
X197393906Y-88136575D01*
X197454354Y-88249664D01*
X197464040Y-88281596D01*
X197491580Y-88372382D01*
X197501000Y-88468027D01*
X197501000Y-89331973D01*
X197491580Y-89427618D01*
X197464040Y-89518404D01*
X197454354Y-89550336D01*
X197393906Y-89663425D01*
X197312554Y-89762554D01*
X197213425Y-89843906D01*
X197100336Y-89904354D01*
X197068404Y-89914040D01*
X196977618Y-89941580D01*
X196850000Y-89954149D01*
X196722383Y-89941580D01*
X196631597Y-89914040D01*
X196599665Y-89904354D01*
X196486576Y-89843906D01*
X196387447Y-89762554D01*
X196306095Y-89663425D01*
X196245647Y-89550336D01*
X196241282Y-89535946D01*
X196208420Y-89427618D01*
X196199000Y-89331973D01*
X196199000Y-88468028D01*
X196208420Y-88372383D01*
X196245645Y-88249669D01*
X196245646Y-88249665D01*
X196306094Y-88136576D01*
X196387447Y-88037446D01*
X196486575Y-87956094D01*
X196599664Y-87895646D01*
X196631596Y-87885960D01*
X196722382Y-87858420D01*
X196850000Y-87845851D01*
X196977617Y-87858420D01*
G37*
G36*
X133477617Y-87858420D02*
G01*
X133568403Y-87885960D01*
X133600335Y-87895646D01*
X133713424Y-87956094D01*
X133812554Y-88037447D01*
X133893906Y-88136575D01*
X133954354Y-88249664D01*
X133964040Y-88281596D01*
X133991580Y-88372382D01*
X134001000Y-88468027D01*
X134001000Y-89331973D01*
X133991580Y-89427618D01*
X133964040Y-89518404D01*
X133954354Y-89550336D01*
X133893906Y-89663425D01*
X133812554Y-89762554D01*
X133713425Y-89843906D01*
X133600336Y-89904354D01*
X133568404Y-89914040D01*
X133477618Y-89941580D01*
X133350000Y-89954149D01*
X133222383Y-89941580D01*
X133131597Y-89914040D01*
X133099665Y-89904354D01*
X132986576Y-89843906D01*
X132887447Y-89762554D01*
X132806095Y-89663425D01*
X132745647Y-89550336D01*
X132741282Y-89535946D01*
X132708420Y-89427618D01*
X132699000Y-89331973D01*
X132699000Y-88468028D01*
X132708420Y-88372383D01*
X132745645Y-88249669D01*
X132745646Y-88249665D01*
X132806094Y-88136576D01*
X132887447Y-88037446D01*
X132986575Y-87956094D01*
X133099664Y-87895646D01*
X133131596Y-87885960D01*
X133222382Y-87858420D01*
X133350000Y-87845851D01*
X133477617Y-87858420D01*
G37*
G36*
X125857617Y-87858420D02*
G01*
X125948403Y-87885960D01*
X125980335Y-87895646D01*
X126093424Y-87956094D01*
X126192554Y-88037447D01*
X126273906Y-88136575D01*
X126334354Y-88249664D01*
X126344040Y-88281596D01*
X126371580Y-88372382D01*
X126381000Y-88468027D01*
X126381000Y-89331973D01*
X126371580Y-89427618D01*
X126344040Y-89518404D01*
X126334354Y-89550336D01*
X126273906Y-89663425D01*
X126192554Y-89762554D01*
X126093425Y-89843906D01*
X125980336Y-89904354D01*
X125948404Y-89914040D01*
X125857618Y-89941580D01*
X125730000Y-89954149D01*
X125602383Y-89941580D01*
X125511597Y-89914040D01*
X125479665Y-89904354D01*
X125366576Y-89843906D01*
X125267447Y-89762554D01*
X125186095Y-89663425D01*
X125125647Y-89550336D01*
X125121282Y-89535946D01*
X125088420Y-89427618D01*
X125079000Y-89331973D01*
X125079000Y-88468028D01*
X125088420Y-88372383D01*
X125125645Y-88249669D01*
X125125646Y-88249665D01*
X125186094Y-88136576D01*
X125267447Y-88037446D01*
X125366575Y-87956094D01*
X125479664Y-87895646D01*
X125511596Y-87885960D01*
X125602382Y-87858420D01*
X125730000Y-87845851D01*
X125857617Y-87858420D01*
G37*
G36*
X158877617Y-87858420D02*
G01*
X158968403Y-87885960D01*
X159000335Y-87895646D01*
X159113424Y-87956094D01*
X159212554Y-88037447D01*
X159293906Y-88136575D01*
X159354354Y-88249664D01*
X159364040Y-88281596D01*
X159391580Y-88372382D01*
X159401000Y-88468027D01*
X159401000Y-89331973D01*
X159391580Y-89427618D01*
X159364040Y-89518404D01*
X159354354Y-89550336D01*
X159293906Y-89663425D01*
X159212554Y-89762554D01*
X159113425Y-89843906D01*
X159000336Y-89904354D01*
X158968404Y-89914040D01*
X158877618Y-89941580D01*
X158750000Y-89954149D01*
X158622383Y-89941580D01*
X158531597Y-89914040D01*
X158499665Y-89904354D01*
X158386576Y-89843906D01*
X158287447Y-89762554D01*
X158206095Y-89663425D01*
X158145647Y-89550336D01*
X158141282Y-89535946D01*
X158108420Y-89427618D01*
X158099000Y-89331973D01*
X158099000Y-88468028D01*
X158108420Y-88372383D01*
X158145645Y-88249669D01*
X158145646Y-88249665D01*
X158206094Y-88136576D01*
X158287447Y-88037446D01*
X158386575Y-87956094D01*
X158499664Y-87895646D01*
X158531596Y-87885960D01*
X158622382Y-87858420D01*
X158750000Y-87845851D01*
X158877617Y-87858420D01*
G37*
G36*
X146177617Y-87858420D02*
G01*
X146268403Y-87885960D01*
X146300335Y-87895646D01*
X146413424Y-87956094D01*
X146512554Y-88037447D01*
X146593906Y-88136575D01*
X146654354Y-88249664D01*
X146664040Y-88281596D01*
X146691580Y-88372382D01*
X146701000Y-88468027D01*
X146701000Y-89331973D01*
X146691580Y-89427618D01*
X146664040Y-89518404D01*
X146654354Y-89550336D01*
X146593906Y-89663425D01*
X146512554Y-89762554D01*
X146413425Y-89843906D01*
X146300336Y-89904354D01*
X146268404Y-89914040D01*
X146177618Y-89941580D01*
X146050000Y-89954149D01*
X145922383Y-89941580D01*
X145831597Y-89914040D01*
X145799665Y-89904354D01*
X145686576Y-89843906D01*
X145587447Y-89762554D01*
X145506095Y-89663425D01*
X145445647Y-89550336D01*
X145441282Y-89535946D01*
X145408420Y-89427618D01*
X145399000Y-89331973D01*
X145399000Y-88468028D01*
X145408420Y-88372383D01*
X145445645Y-88249669D01*
X145445646Y-88249665D01*
X145506094Y-88136576D01*
X145587447Y-88037446D01*
X145686575Y-87956094D01*
X145799664Y-87895646D01*
X145831596Y-87885960D01*
X145922382Y-87858420D01*
X146050000Y-87845851D01*
X146177617Y-87858420D01*
G37*
G36*
X148717617Y-87858420D02*
G01*
X148808403Y-87885960D01*
X148840335Y-87895646D01*
X148953424Y-87956094D01*
X149052554Y-88037447D01*
X149133906Y-88136575D01*
X149194354Y-88249664D01*
X149204040Y-88281596D01*
X149231580Y-88372382D01*
X149241000Y-88468027D01*
X149241000Y-89331973D01*
X149231580Y-89427618D01*
X149204040Y-89518404D01*
X149194354Y-89550336D01*
X149133906Y-89663425D01*
X149052554Y-89762554D01*
X148953425Y-89843906D01*
X148840336Y-89904354D01*
X148808404Y-89914040D01*
X148717618Y-89941580D01*
X148590000Y-89954149D01*
X148462383Y-89941580D01*
X148371597Y-89914040D01*
X148339665Y-89904354D01*
X148226576Y-89843906D01*
X148127447Y-89762554D01*
X148046095Y-89663425D01*
X147985647Y-89550336D01*
X147981282Y-89535946D01*
X147948420Y-89427618D01*
X147939000Y-89331973D01*
X147939000Y-88468028D01*
X147948420Y-88372383D01*
X147985645Y-88249669D01*
X147985646Y-88249665D01*
X148046094Y-88136576D01*
X148127447Y-88037446D01*
X148226575Y-87956094D01*
X148339664Y-87895646D01*
X148371596Y-87885960D01*
X148462382Y-87858420D01*
X148590000Y-87845851D01*
X148717617Y-87858420D01*
G37*
G36*
X151257617Y-87858420D02*
G01*
X151348403Y-87885960D01*
X151380335Y-87895646D01*
X151493424Y-87956094D01*
X151592554Y-88037447D01*
X151673906Y-88136575D01*
X151734354Y-88249664D01*
X151744040Y-88281596D01*
X151771580Y-88372382D01*
X151781000Y-88468027D01*
X151781000Y-89331973D01*
X151771580Y-89427618D01*
X151744040Y-89518404D01*
X151734354Y-89550336D01*
X151673906Y-89663425D01*
X151592554Y-89762554D01*
X151493425Y-89843906D01*
X151380336Y-89904354D01*
X151348404Y-89914040D01*
X151257618Y-89941580D01*
X151130000Y-89954149D01*
X151002383Y-89941580D01*
X150911597Y-89914040D01*
X150879665Y-89904354D01*
X150766576Y-89843906D01*
X150667447Y-89762554D01*
X150586095Y-89663425D01*
X150525647Y-89550336D01*
X150521282Y-89535946D01*
X150488420Y-89427618D01*
X150479000Y-89331973D01*
X150479000Y-88468028D01*
X150488420Y-88372383D01*
X150525645Y-88249669D01*
X150525646Y-88249665D01*
X150586094Y-88136576D01*
X150667447Y-88037446D01*
X150766575Y-87956094D01*
X150879664Y-87895646D01*
X150911596Y-87885960D01*
X151002382Y-87858420D01*
X151130000Y-87845851D01*
X151257617Y-87858420D01*
G37*
G36*
X153797617Y-87858420D02*
G01*
X153888403Y-87885960D01*
X153920335Y-87895646D01*
X154033424Y-87956094D01*
X154132554Y-88037447D01*
X154213906Y-88136575D01*
X154274354Y-88249664D01*
X154284040Y-88281596D01*
X154311580Y-88372382D01*
X154321000Y-88468027D01*
X154321000Y-89331973D01*
X154311580Y-89427618D01*
X154284040Y-89518404D01*
X154274354Y-89550336D01*
X154213906Y-89663425D01*
X154132554Y-89762554D01*
X154033425Y-89843906D01*
X153920336Y-89904354D01*
X153888404Y-89914040D01*
X153797618Y-89941580D01*
X153670000Y-89954149D01*
X153542383Y-89941580D01*
X153451597Y-89914040D01*
X153419665Y-89904354D01*
X153306576Y-89843906D01*
X153207447Y-89762554D01*
X153126095Y-89663425D01*
X153065647Y-89550336D01*
X153061282Y-89535946D01*
X153028420Y-89427618D01*
X153019000Y-89331973D01*
X153019000Y-88468028D01*
X153028420Y-88372383D01*
X153065645Y-88249669D01*
X153065646Y-88249665D01*
X153126094Y-88136576D01*
X153207447Y-88037446D01*
X153306575Y-87956094D01*
X153419664Y-87895646D01*
X153451596Y-87885960D01*
X153542382Y-87858420D01*
X153670000Y-87845851D01*
X153797617Y-87858420D01*
G37*
G36*
X156337617Y-87858420D02*
G01*
X156428403Y-87885960D01*
X156460335Y-87895646D01*
X156573424Y-87956094D01*
X156672554Y-88037447D01*
X156753906Y-88136575D01*
X156814354Y-88249664D01*
X156824040Y-88281596D01*
X156851580Y-88372382D01*
X156861000Y-88468027D01*
X156861000Y-89331973D01*
X156851580Y-89427618D01*
X156824040Y-89518404D01*
X156814354Y-89550336D01*
X156753906Y-89663425D01*
X156672554Y-89762554D01*
X156573425Y-89843906D01*
X156460336Y-89904354D01*
X156428404Y-89914040D01*
X156337618Y-89941580D01*
X156210000Y-89954149D01*
X156082383Y-89941580D01*
X155991597Y-89914040D01*
X155959665Y-89904354D01*
X155846576Y-89843906D01*
X155747447Y-89762554D01*
X155666095Y-89663425D01*
X155605647Y-89550336D01*
X155601282Y-89535946D01*
X155568420Y-89427618D01*
X155559000Y-89331973D01*
X155559000Y-88468028D01*
X155568420Y-88372383D01*
X155605645Y-88249669D01*
X155605646Y-88249665D01*
X155666094Y-88136576D01*
X155747447Y-88037446D01*
X155846575Y-87956094D01*
X155959664Y-87895646D01*
X155991596Y-87885960D01*
X156082382Y-87858420D01*
X156210000Y-87845851D01*
X156337617Y-87858420D01*
G37*
G36*
X130937617Y-87858420D02*
G01*
X131028403Y-87885960D01*
X131060335Y-87895646D01*
X131173424Y-87956094D01*
X131272554Y-88037447D01*
X131353906Y-88136575D01*
X131414354Y-88249664D01*
X131424040Y-88281596D01*
X131451580Y-88372382D01*
X131461000Y-88468027D01*
X131461000Y-89331973D01*
X131451580Y-89427618D01*
X131424040Y-89518404D01*
X131414354Y-89550336D01*
X131353906Y-89663425D01*
X131272554Y-89762554D01*
X131173425Y-89843906D01*
X131060336Y-89904354D01*
X131028404Y-89914040D01*
X130937618Y-89941580D01*
X130810000Y-89954149D01*
X130682383Y-89941580D01*
X130591597Y-89914040D01*
X130559665Y-89904354D01*
X130446576Y-89843906D01*
X130347447Y-89762554D01*
X130266095Y-89663425D01*
X130205647Y-89550336D01*
X130201282Y-89535946D01*
X130168420Y-89427618D01*
X130159000Y-89331973D01*
X130159000Y-88468028D01*
X130168420Y-88372383D01*
X130205645Y-88249669D01*
X130205646Y-88249665D01*
X130266094Y-88136576D01*
X130347447Y-88037446D01*
X130446575Y-87956094D01*
X130559664Y-87895646D01*
X130591596Y-87885960D01*
X130682382Y-87858420D01*
X130810000Y-87845851D01*
X130937617Y-87858420D01*
G37*
G36*
X128397617Y-87858420D02*
G01*
X128488403Y-87885960D01*
X128520335Y-87895646D01*
X128633424Y-87956094D01*
X128732554Y-88037447D01*
X128813906Y-88136575D01*
X128874354Y-88249664D01*
X128884040Y-88281596D01*
X128911580Y-88372382D01*
X128921000Y-88468027D01*
X128921000Y-89331973D01*
X128911580Y-89427618D01*
X128884040Y-89518404D01*
X128874354Y-89550336D01*
X128813906Y-89663425D01*
X128732554Y-89762554D01*
X128633425Y-89843906D01*
X128520336Y-89904354D01*
X128488404Y-89914040D01*
X128397618Y-89941580D01*
X128270000Y-89954149D01*
X128142383Y-89941580D01*
X128051597Y-89914040D01*
X128019665Y-89904354D01*
X127906576Y-89843906D01*
X127807447Y-89762554D01*
X127726095Y-89663425D01*
X127665647Y-89550336D01*
X127661282Y-89535946D01*
X127628420Y-89427618D01*
X127619000Y-89331973D01*
X127619000Y-88468028D01*
X127628420Y-88372383D01*
X127665645Y-88249669D01*
X127665646Y-88249665D01*
X127726094Y-88136576D01*
X127807447Y-88037446D01*
X127906575Y-87956094D01*
X128019664Y-87895646D01*
X128051596Y-87885960D01*
X128142382Y-87858420D01*
X128270000Y-87845851D01*
X128397617Y-87858420D01*
G37*
G36*
X120777617Y-87858420D02*
G01*
X120868403Y-87885960D01*
X120900335Y-87895646D01*
X121013424Y-87956094D01*
X121112554Y-88037447D01*
X121193906Y-88136575D01*
X121254354Y-88249664D01*
X121264040Y-88281596D01*
X121291580Y-88372382D01*
X121301000Y-88468027D01*
X121301000Y-89331973D01*
X121291580Y-89427618D01*
X121264040Y-89518404D01*
X121254354Y-89550336D01*
X121193906Y-89663425D01*
X121112554Y-89762554D01*
X121013425Y-89843906D01*
X120900336Y-89904354D01*
X120868404Y-89914040D01*
X120777618Y-89941580D01*
X120650000Y-89954149D01*
X120522383Y-89941580D01*
X120431597Y-89914040D01*
X120399665Y-89904354D01*
X120286576Y-89843906D01*
X120187447Y-89762554D01*
X120106095Y-89663425D01*
X120045647Y-89550336D01*
X120041282Y-89535946D01*
X120008420Y-89427618D01*
X119999000Y-89331973D01*
X119999000Y-88468028D01*
X120008420Y-88372383D01*
X120045645Y-88249669D01*
X120045646Y-88249665D01*
X120106094Y-88136576D01*
X120187447Y-88037446D01*
X120286575Y-87956094D01*
X120399664Y-87895646D01*
X120431596Y-87885960D01*
X120522382Y-87858420D01*
X120650000Y-87845851D01*
X120777617Y-87858420D01*
G37*
G36*
X118237617Y-87858420D02*
G01*
X118328403Y-87885960D01*
X118360335Y-87895646D01*
X118473424Y-87956094D01*
X118572554Y-88037447D01*
X118653906Y-88136575D01*
X118714354Y-88249664D01*
X118724040Y-88281596D01*
X118751580Y-88372382D01*
X118761000Y-88468027D01*
X118761000Y-89331973D01*
X118751580Y-89427618D01*
X118724040Y-89518404D01*
X118714354Y-89550336D01*
X118653906Y-89663425D01*
X118572554Y-89762554D01*
X118473425Y-89843906D01*
X118360336Y-89904354D01*
X118328404Y-89914040D01*
X118237618Y-89941580D01*
X118110000Y-89954149D01*
X117982383Y-89941580D01*
X117891597Y-89914040D01*
X117859665Y-89904354D01*
X117746576Y-89843906D01*
X117647447Y-89762554D01*
X117566095Y-89663425D01*
X117505647Y-89550336D01*
X117501282Y-89535946D01*
X117468420Y-89427618D01*
X117459000Y-89331973D01*
X117459000Y-88468028D01*
X117468420Y-88372383D01*
X117505645Y-88249669D01*
X117505646Y-88249665D01*
X117566094Y-88136576D01*
X117647447Y-88037446D01*
X117746575Y-87956094D01*
X117859664Y-87895646D01*
X117891596Y-87885960D01*
X117982382Y-87858420D01*
X118110000Y-87845851D01*
X118237617Y-87858420D01*
G37*
G36*
X115697617Y-87858420D02*
G01*
X115788403Y-87885960D01*
X115820335Y-87895646D01*
X115933424Y-87956094D01*
X116032554Y-88037447D01*
X116113906Y-88136575D01*
X116174354Y-88249664D01*
X116184040Y-88281596D01*
X116211580Y-88372382D01*
X116221000Y-88468027D01*
X116221000Y-89331973D01*
X116211580Y-89427618D01*
X116184040Y-89518404D01*
X116174354Y-89550336D01*
X116113906Y-89663425D01*
X116032554Y-89762554D01*
X115933425Y-89843906D01*
X115820336Y-89904354D01*
X115788404Y-89914040D01*
X115697618Y-89941580D01*
X115570000Y-89954149D01*
X115442383Y-89941580D01*
X115351597Y-89914040D01*
X115319665Y-89904354D01*
X115206576Y-89843906D01*
X115107447Y-89762554D01*
X115026095Y-89663425D01*
X114965647Y-89550336D01*
X114961282Y-89535946D01*
X114928420Y-89427618D01*
X114919000Y-89331973D01*
X114919000Y-88468028D01*
X114928420Y-88372383D01*
X114965645Y-88249669D01*
X114965646Y-88249665D01*
X115026094Y-88136576D01*
X115107447Y-88037446D01*
X115206575Y-87956094D01*
X115319664Y-87895646D01*
X115351596Y-87885960D01*
X115442382Y-87858420D01*
X115570000Y-87845851D01*
X115697617Y-87858420D01*
G37*
G36*
X113157617Y-87858420D02*
G01*
X113248403Y-87885960D01*
X113280335Y-87895646D01*
X113393424Y-87956094D01*
X113492554Y-88037447D01*
X113573906Y-88136575D01*
X113634354Y-88249664D01*
X113644040Y-88281596D01*
X113671580Y-88372382D01*
X113681000Y-88468027D01*
X113681000Y-89331973D01*
X113671580Y-89427618D01*
X113644040Y-89518404D01*
X113634354Y-89550336D01*
X113573906Y-89663425D01*
X113492554Y-89762554D01*
X113393425Y-89843906D01*
X113280336Y-89904354D01*
X113248404Y-89914040D01*
X113157618Y-89941580D01*
X113030000Y-89954149D01*
X112902383Y-89941580D01*
X112811597Y-89914040D01*
X112779665Y-89904354D01*
X112666576Y-89843906D01*
X112567447Y-89762554D01*
X112486095Y-89663425D01*
X112425647Y-89550336D01*
X112421282Y-89535946D01*
X112388420Y-89427618D01*
X112379000Y-89331973D01*
X112379000Y-88468028D01*
X112388420Y-88372383D01*
X112425645Y-88249669D01*
X112425646Y-88249665D01*
X112486094Y-88136576D01*
X112567447Y-88037446D01*
X112666575Y-87956094D01*
X112779664Y-87895646D01*
X112811596Y-87885960D01*
X112902382Y-87858420D01*
X113030000Y-87845851D01*
X113157617Y-87858420D01*
G37*
G36*
X123317617Y-87858420D02*
G01*
X123408403Y-87885960D01*
X123440335Y-87895646D01*
X123553424Y-87956094D01*
X123652554Y-88037447D01*
X123733906Y-88136575D01*
X123794354Y-88249664D01*
X123804040Y-88281596D01*
X123831580Y-88372382D01*
X123841000Y-88468027D01*
X123841000Y-89331973D01*
X123831580Y-89427618D01*
X123804040Y-89518404D01*
X123794354Y-89550336D01*
X123733906Y-89663425D01*
X123652554Y-89762554D01*
X123553425Y-89843906D01*
X123440336Y-89904354D01*
X123408404Y-89914040D01*
X123317618Y-89941580D01*
X123190000Y-89954149D01*
X123062383Y-89941580D01*
X122971597Y-89914040D01*
X122939665Y-89904354D01*
X122826576Y-89843906D01*
X122727447Y-89762554D01*
X122646095Y-89663425D01*
X122585647Y-89550336D01*
X122581282Y-89535946D01*
X122548420Y-89427618D01*
X122539000Y-89331973D01*
X122539000Y-88468028D01*
X122548420Y-88372383D01*
X122585645Y-88249669D01*
X122585646Y-88249665D01*
X122646094Y-88136576D01*
X122727447Y-88037446D01*
X122826575Y-87956094D01*
X122939664Y-87895646D01*
X122971596Y-87885960D01*
X123062382Y-87858420D01*
X123190000Y-87845851D01*
X123317617Y-87858420D01*
G37*
G36*
X110617617Y-87858420D02*
G01*
X110708403Y-87885960D01*
X110740335Y-87895646D01*
X110853424Y-87956094D01*
X110952554Y-88037447D01*
X111033906Y-88136575D01*
X111094354Y-88249664D01*
X111104040Y-88281596D01*
X111131580Y-88372382D01*
X111141000Y-88468027D01*
X111141000Y-89331973D01*
X111131580Y-89427618D01*
X111104040Y-89518404D01*
X111094354Y-89550336D01*
X111033906Y-89663425D01*
X110952554Y-89762554D01*
X110853425Y-89843906D01*
X110740336Y-89904354D01*
X110708404Y-89914040D01*
X110617618Y-89941580D01*
X110490000Y-89954149D01*
X110362383Y-89941580D01*
X110271597Y-89914040D01*
X110239665Y-89904354D01*
X110126576Y-89843906D01*
X110027447Y-89762554D01*
X109946095Y-89663425D01*
X109885647Y-89550336D01*
X109881282Y-89535946D01*
X109848420Y-89427618D01*
X109839000Y-89331973D01*
X109839000Y-88468028D01*
X109848420Y-88372383D01*
X109885645Y-88249669D01*
X109885646Y-88249665D01*
X109946094Y-88136576D01*
X110027447Y-88037446D01*
X110126575Y-87956094D01*
X110239664Y-87895646D01*
X110271596Y-87885960D01*
X110362382Y-87858420D01*
X110490000Y-87845851D01*
X110617617Y-87858420D01*
G37*
G36*
X108077617Y-87858420D02*
G01*
X108168403Y-87885960D01*
X108200335Y-87895646D01*
X108313424Y-87956094D01*
X108412554Y-88037447D01*
X108493906Y-88136575D01*
X108554354Y-88249664D01*
X108564040Y-88281596D01*
X108591580Y-88372382D01*
X108601000Y-88468027D01*
X108601000Y-89331973D01*
X108591580Y-89427618D01*
X108564040Y-89518404D01*
X108554354Y-89550336D01*
X108493906Y-89663425D01*
X108412554Y-89762554D01*
X108313425Y-89843906D01*
X108200336Y-89904354D01*
X108168404Y-89914040D01*
X108077618Y-89941580D01*
X107950000Y-89954149D01*
X107822383Y-89941580D01*
X107731597Y-89914040D01*
X107699665Y-89904354D01*
X107586576Y-89843906D01*
X107487447Y-89762554D01*
X107406095Y-89663425D01*
X107345647Y-89550336D01*
X107341282Y-89535946D01*
X107308420Y-89427618D01*
X107299000Y-89331973D01*
X107299000Y-88468028D01*
X107308420Y-88372383D01*
X107345645Y-88249669D01*
X107345646Y-88249665D01*
X107406094Y-88136576D01*
X107487447Y-88037446D01*
X107586575Y-87956094D01*
X107699664Y-87895646D01*
X107731596Y-87885960D01*
X107822382Y-87858420D01*
X107950000Y-87845851D01*
X108077617Y-87858420D01*
G37*
G36*
X105537617Y-87858420D02*
G01*
X105628403Y-87885960D01*
X105660335Y-87895646D01*
X105773424Y-87956094D01*
X105872554Y-88037447D01*
X105953906Y-88136575D01*
X106014354Y-88249664D01*
X106024040Y-88281596D01*
X106051580Y-88372382D01*
X106061000Y-88468027D01*
X106061000Y-89331973D01*
X106051580Y-89427618D01*
X106024040Y-89518404D01*
X106014354Y-89550336D01*
X105953906Y-89663425D01*
X105872554Y-89762554D01*
X105773425Y-89843906D01*
X105660336Y-89904354D01*
X105628404Y-89914040D01*
X105537618Y-89941580D01*
X105410000Y-89954149D01*
X105282383Y-89941580D01*
X105191597Y-89914040D01*
X105159665Y-89904354D01*
X105046576Y-89843906D01*
X104947447Y-89762554D01*
X104866095Y-89663425D01*
X104805647Y-89550336D01*
X104801282Y-89535946D01*
X104768420Y-89427618D01*
X104759000Y-89331973D01*
X104759000Y-88468028D01*
X104768420Y-88372383D01*
X104805645Y-88249669D01*
X104805646Y-88249665D01*
X104866094Y-88136576D01*
X104947447Y-88037446D01*
X105046575Y-87956094D01*
X105159664Y-87895646D01*
X105191596Y-87885960D01*
X105282382Y-87858420D01*
X105410000Y-87845851D01*
X105537617Y-87858420D01*
G37*
G36*
X161417617Y-87858420D02*
G01*
X161508403Y-87885960D01*
X161540335Y-87895646D01*
X161653424Y-87956094D01*
X161752554Y-88037447D01*
X161833906Y-88136575D01*
X161894354Y-88249664D01*
X161904040Y-88281596D01*
X161931580Y-88372382D01*
X161941000Y-88468027D01*
X161941000Y-89331973D01*
X161931580Y-89427618D01*
X161904040Y-89518404D01*
X161894354Y-89550336D01*
X161833906Y-89663425D01*
X161752554Y-89762554D01*
X161653425Y-89843906D01*
X161540336Y-89904354D01*
X161508404Y-89914040D01*
X161417618Y-89941580D01*
X161290000Y-89954149D01*
X161162383Y-89941580D01*
X161071597Y-89914040D01*
X161039665Y-89904354D01*
X160926576Y-89843906D01*
X160827447Y-89762554D01*
X160746095Y-89663425D01*
X160685647Y-89550336D01*
X160681282Y-89535946D01*
X160648420Y-89427618D01*
X160639000Y-89331973D01*
X160639000Y-88468028D01*
X160648420Y-88372383D01*
X160685645Y-88249669D01*
X160685646Y-88249665D01*
X160746094Y-88136576D01*
X160827447Y-88037446D01*
X160926575Y-87956094D01*
X161039664Y-87895646D01*
X161071596Y-87885960D01*
X161162382Y-87858420D01*
X161290000Y-87845851D01*
X161417617Y-87858420D01*
G37*
G36*
X219837617Y-87858420D02*
G01*
X219928403Y-87885960D01*
X219960335Y-87895646D01*
X220073424Y-87956094D01*
X220172554Y-88037447D01*
X220253906Y-88136575D01*
X220314354Y-88249664D01*
X220324040Y-88281596D01*
X220351580Y-88372382D01*
X220361000Y-88468027D01*
X220361000Y-89331973D01*
X220351580Y-89427618D01*
X220324040Y-89518404D01*
X220314354Y-89550336D01*
X220253906Y-89663425D01*
X220172554Y-89762554D01*
X220073425Y-89843906D01*
X219960336Y-89904354D01*
X219928404Y-89914040D01*
X219837618Y-89941580D01*
X219710000Y-89954149D01*
X219582383Y-89941580D01*
X219491597Y-89914040D01*
X219459665Y-89904354D01*
X219346576Y-89843906D01*
X219247447Y-89762554D01*
X219166095Y-89663425D01*
X219105647Y-89550336D01*
X219101282Y-89535946D01*
X219068420Y-89427618D01*
X219059000Y-89331973D01*
X219059000Y-88468028D01*
X219068420Y-88372383D01*
X219105645Y-88249669D01*
X219105646Y-88249665D01*
X219166094Y-88136576D01*
X219247447Y-88037446D01*
X219346575Y-87956094D01*
X219459664Y-87895646D01*
X219491596Y-87885960D01*
X219582382Y-87858420D01*
X219710000Y-87845851D01*
X219837617Y-87858420D01*
G37*
G36*
X217297617Y-87858420D02*
G01*
X217388403Y-87885960D01*
X217420335Y-87895646D01*
X217533424Y-87956094D01*
X217632554Y-88037447D01*
X217713906Y-88136575D01*
X217774354Y-88249664D01*
X217784040Y-88281596D01*
X217811580Y-88372382D01*
X217821000Y-88468027D01*
X217821000Y-89331973D01*
X217811580Y-89427618D01*
X217784040Y-89518404D01*
X217774354Y-89550336D01*
X217713906Y-89663425D01*
X217632554Y-89762554D01*
X217533425Y-89843906D01*
X217420336Y-89904354D01*
X217388404Y-89914040D01*
X217297618Y-89941580D01*
X217170000Y-89954149D01*
X217042383Y-89941580D01*
X216951597Y-89914040D01*
X216919665Y-89904354D01*
X216806576Y-89843906D01*
X216707447Y-89762554D01*
X216626095Y-89663425D01*
X216565647Y-89550336D01*
X216561282Y-89535946D01*
X216528420Y-89427618D01*
X216519000Y-89331973D01*
X216519000Y-88468028D01*
X216528420Y-88372383D01*
X216565645Y-88249669D01*
X216565646Y-88249665D01*
X216626094Y-88136576D01*
X216707447Y-88037446D01*
X216806575Y-87956094D01*
X216919664Y-87895646D01*
X216951596Y-87885960D01*
X217042382Y-87858420D01*
X217170000Y-87845851D01*
X217297617Y-87858420D01*
G37*
G36*
X214757617Y-87858420D02*
G01*
X214848403Y-87885960D01*
X214880335Y-87895646D01*
X214993424Y-87956094D01*
X215092554Y-88037447D01*
X215173906Y-88136575D01*
X215234354Y-88249664D01*
X215244040Y-88281596D01*
X215271580Y-88372382D01*
X215281000Y-88468027D01*
X215281000Y-89331973D01*
X215271580Y-89427618D01*
X215244040Y-89518404D01*
X215234354Y-89550336D01*
X215173906Y-89663425D01*
X215092554Y-89762554D01*
X214993425Y-89843906D01*
X214880336Y-89904354D01*
X214848404Y-89914040D01*
X214757618Y-89941580D01*
X214630000Y-89954149D01*
X214502383Y-89941580D01*
X214411597Y-89914040D01*
X214379665Y-89904354D01*
X214266576Y-89843906D01*
X214167447Y-89762554D01*
X214086095Y-89663425D01*
X214025647Y-89550336D01*
X214021282Y-89535946D01*
X213988420Y-89427618D01*
X213979000Y-89331973D01*
X213979000Y-88468028D01*
X213988420Y-88372383D01*
X214025645Y-88249669D01*
X214025646Y-88249665D01*
X214086094Y-88136576D01*
X214167447Y-88037446D01*
X214266575Y-87956094D01*
X214379664Y-87895646D01*
X214411596Y-87885960D01*
X214502382Y-87858420D01*
X214630000Y-87845851D01*
X214757617Y-87858420D01*
G37*
G36*
X212217617Y-87858420D02*
G01*
X212308403Y-87885960D01*
X212340335Y-87895646D01*
X212453424Y-87956094D01*
X212552554Y-88037447D01*
X212633906Y-88136575D01*
X212694354Y-88249664D01*
X212704040Y-88281596D01*
X212731580Y-88372382D01*
X212741000Y-88468027D01*
X212741000Y-89331973D01*
X212731580Y-89427618D01*
X212704040Y-89518404D01*
X212694354Y-89550336D01*
X212633906Y-89663425D01*
X212552554Y-89762554D01*
X212453425Y-89843906D01*
X212340336Y-89904354D01*
X212308404Y-89914040D01*
X212217618Y-89941580D01*
X212090000Y-89954149D01*
X211962383Y-89941580D01*
X211871597Y-89914040D01*
X211839665Y-89904354D01*
X211726576Y-89843906D01*
X211627447Y-89762554D01*
X211546095Y-89663425D01*
X211485647Y-89550336D01*
X211481282Y-89535946D01*
X211448420Y-89427618D01*
X211439000Y-89331973D01*
X211439000Y-88468028D01*
X211448420Y-88372383D01*
X211485645Y-88249669D01*
X211485646Y-88249665D01*
X211546094Y-88136576D01*
X211627447Y-88037446D01*
X211726575Y-87956094D01*
X211839664Y-87895646D01*
X211871596Y-87885960D01*
X211962382Y-87858420D01*
X212090000Y-87845851D01*
X212217617Y-87858420D01*
G37*
G36*
X209677617Y-87858420D02*
G01*
X209768403Y-87885960D01*
X209800335Y-87895646D01*
X209913424Y-87956094D01*
X210012554Y-88037447D01*
X210093906Y-88136575D01*
X210154354Y-88249664D01*
X210164040Y-88281596D01*
X210191580Y-88372382D01*
X210201000Y-88468027D01*
X210201000Y-89331973D01*
X210191580Y-89427618D01*
X210164040Y-89518404D01*
X210154354Y-89550336D01*
X210093906Y-89663425D01*
X210012554Y-89762554D01*
X209913425Y-89843906D01*
X209800336Y-89904354D01*
X209768404Y-89914040D01*
X209677618Y-89941580D01*
X209550000Y-89954149D01*
X209422383Y-89941580D01*
X209331597Y-89914040D01*
X209299665Y-89904354D01*
X209186576Y-89843906D01*
X209087447Y-89762554D01*
X209006095Y-89663425D01*
X208945647Y-89550336D01*
X208941282Y-89535946D01*
X208908420Y-89427618D01*
X208899000Y-89331973D01*
X208899000Y-88468028D01*
X208908420Y-88372383D01*
X208945645Y-88249669D01*
X208945646Y-88249665D01*
X209006094Y-88136576D01*
X209087447Y-88037446D01*
X209186575Y-87956094D01*
X209299664Y-87895646D01*
X209331596Y-87885960D01*
X209422382Y-87858420D01*
X209550000Y-87845851D01*
X209677617Y-87858420D01*
G37*
G36*
X207137617Y-87858420D02*
G01*
X207228403Y-87885960D01*
X207260335Y-87895646D01*
X207373424Y-87956094D01*
X207472554Y-88037447D01*
X207553906Y-88136575D01*
X207614354Y-88249664D01*
X207624040Y-88281596D01*
X207651580Y-88372382D01*
X207661000Y-88468027D01*
X207661000Y-89331973D01*
X207651580Y-89427618D01*
X207624040Y-89518404D01*
X207614354Y-89550336D01*
X207553906Y-89663425D01*
X207472554Y-89762554D01*
X207373425Y-89843906D01*
X207260336Y-89904354D01*
X207228404Y-89914040D01*
X207137618Y-89941580D01*
X207010000Y-89954149D01*
X206882383Y-89941580D01*
X206791597Y-89914040D01*
X206759665Y-89904354D01*
X206646576Y-89843906D01*
X206547447Y-89762554D01*
X206466095Y-89663425D01*
X206405647Y-89550336D01*
X206401282Y-89535946D01*
X206368420Y-89427618D01*
X206359000Y-89331973D01*
X206359000Y-88468028D01*
X206368420Y-88372383D01*
X206405645Y-88249669D01*
X206405646Y-88249665D01*
X206466094Y-88136576D01*
X206547447Y-88037446D01*
X206646575Y-87956094D01*
X206759664Y-87895646D01*
X206791596Y-87885960D01*
X206882382Y-87858420D01*
X207010000Y-87845851D01*
X207137617Y-87858420D01*
G37*
G36*
X204597617Y-87858420D02*
G01*
X204688403Y-87885960D01*
X204720335Y-87895646D01*
X204833424Y-87956094D01*
X204932554Y-88037447D01*
X205013906Y-88136575D01*
X205074354Y-88249664D01*
X205084040Y-88281596D01*
X205111580Y-88372382D01*
X205121000Y-88468027D01*
X205121000Y-89331973D01*
X205111580Y-89427618D01*
X205084040Y-89518404D01*
X205074354Y-89550336D01*
X205013906Y-89663425D01*
X204932554Y-89762554D01*
X204833425Y-89843906D01*
X204720336Y-89904354D01*
X204688404Y-89914040D01*
X204597618Y-89941580D01*
X204470000Y-89954149D01*
X204342383Y-89941580D01*
X204251597Y-89914040D01*
X204219665Y-89904354D01*
X204106576Y-89843906D01*
X204007447Y-89762554D01*
X203926095Y-89663425D01*
X203865647Y-89550336D01*
X203861282Y-89535946D01*
X203828420Y-89427618D01*
X203819000Y-89331973D01*
X203819000Y-88468028D01*
X203828420Y-88372383D01*
X203865645Y-88249669D01*
X203865646Y-88249665D01*
X203926094Y-88136576D01*
X204007447Y-88037446D01*
X204106575Y-87956094D01*
X204219664Y-87895646D01*
X204251596Y-87885960D01*
X204342382Y-87858420D01*
X204470000Y-87845851D01*
X204597617Y-87858420D01*
G37*
G36*
X202057617Y-87858420D02*
G01*
X202148403Y-87885960D01*
X202180335Y-87895646D01*
X202293424Y-87956094D01*
X202392554Y-88037447D01*
X202473906Y-88136575D01*
X202534354Y-88249664D01*
X202544040Y-88281596D01*
X202571580Y-88372382D01*
X202581000Y-88468027D01*
X202581000Y-89331973D01*
X202571580Y-89427618D01*
X202544040Y-89518404D01*
X202534354Y-89550336D01*
X202473906Y-89663425D01*
X202392554Y-89762554D01*
X202293425Y-89843906D01*
X202180336Y-89904354D01*
X202148404Y-89914040D01*
X202057618Y-89941580D01*
X201930000Y-89954149D01*
X201802383Y-89941580D01*
X201711597Y-89914040D01*
X201679665Y-89904354D01*
X201566576Y-89843906D01*
X201467447Y-89762554D01*
X201386095Y-89663425D01*
X201325647Y-89550336D01*
X201321282Y-89535946D01*
X201288420Y-89427618D01*
X201279000Y-89331973D01*
X201279000Y-88468028D01*
X201288420Y-88372383D01*
X201325645Y-88249669D01*
X201325646Y-88249665D01*
X201386094Y-88136576D01*
X201467447Y-88037446D01*
X201566575Y-87956094D01*
X201679664Y-87895646D01*
X201711596Y-87885960D01*
X201802382Y-87858420D01*
X201930000Y-87845851D01*
X202057617Y-87858420D01*
G37*
G36*
X199517617Y-87858420D02*
G01*
X199608403Y-87885960D01*
X199640335Y-87895646D01*
X199753424Y-87956094D01*
X199852554Y-88037447D01*
X199933906Y-88136575D01*
X199994354Y-88249664D01*
X200004040Y-88281596D01*
X200031580Y-88372382D01*
X200041000Y-88468027D01*
X200041000Y-89331973D01*
X200031580Y-89427618D01*
X200004040Y-89518404D01*
X199994354Y-89550336D01*
X199933906Y-89663425D01*
X199852554Y-89762554D01*
X199753425Y-89843906D01*
X199640336Y-89904354D01*
X199608404Y-89914040D01*
X199517618Y-89941580D01*
X199390000Y-89954149D01*
X199262383Y-89941580D01*
X199171597Y-89914040D01*
X199139665Y-89904354D01*
X199026576Y-89843906D01*
X198927447Y-89762554D01*
X198846095Y-89663425D01*
X198785647Y-89550336D01*
X198781282Y-89535946D01*
X198748420Y-89427618D01*
X198739000Y-89331973D01*
X198739000Y-88468028D01*
X198748420Y-88372383D01*
X198785645Y-88249669D01*
X198785646Y-88249665D01*
X198846094Y-88136576D01*
X198927447Y-88037446D01*
X199026575Y-87956094D01*
X199139664Y-87895646D01*
X199171596Y-87885960D01*
X199262382Y-87858420D01*
X199390000Y-87845851D01*
X199517617Y-87858420D01*
G37*
M02*
